<svg version="1.1" id="Layer_1" xmlns="http://www.w3.org/2000/svg" xmlns:xlink="http://www.w3.org/1999/xlink" x="0px" y="0px"
	 width="100%" viewBox="0 0 50 50" enable-background="new 0 0 50 50" xml:space="preserve">
<path fill="#47704C" opacity="1.000000" stroke="none" 
	d="
M1.000000,26.000059 
	C1.000000,17.333385 1.000000,9.166721 1.000000,1.000043 
	C17.666643,1.000028 34.333286,1.000028 50.999947,1.000014 
	C50.999962,17.666637 50.999962,34.333275 50.999981,50.999931 
	C34.333366,50.999954 17.666735,50.999954 1.000051,50.999977 
	C1.000000,42.833355 1.000000,34.666714 1.000000,26.000059 
M46.625423,47.692566 
	C47.469959,46.914482 48.314495,46.136398 48.970181,45.532307 
	C42.317486,42.362057 36.189793,39.441990 30.921434,36.931427 
	C32.626381,32.184189 33.953926,28.487789 35.253906,24.868141 
	C35.483990,25.083654 36.290913,26.376999 37.410782,26.763414 
	C39.123222,27.354303 41.653027,28.169571 42.768349,27.380575 
	C45.434185,25.494724 43.362232,23.391260 41.608181,22.253349 
	C38.405506,20.175667 38.726242,17.513157 39.426025,14.519831 
	C40.048759,14.336394 40.613323,14.325541 40.954494,14.043991 
	C42.947113,12.399579 45.653198,11.013226 46.548416,8.880684 
	C47.057861,7.667108 45.015205,4.324038 43.347694,3.492756 
	C40.566380,2.106225 37.535305,2.735399 35.851982,6.172473 
	C35.444450,7.004584 34.294849,7.769564 33.352070,7.989674 
	C30.049433,8.760736 26.688086,9.280318 22.437845,10.063251 
	C21.908722,9.170772 21.165493,7.351335 19.922264,5.987771 
	C18.798401,4.755126 17.163815,3.397378 15.684980,3.313062 
	C14.870608,3.266631 13.108618,5.813221 13.235302,7.039825 
	C13.375829,8.400445 15.020306,10.438021 16.295637,10.680957 
	C19.213770,11.236828 20.482430,11.518829 18.820972,14.949907 
	C17.222601,18.250708 16.893759,21.882145 20.859785,24.433468 
	C22.729628,25.636326 24.272453,27.347532 25.963455,28.828396 
	C25.853434,29.328205 25.743414,29.828014 25.633392,30.327822 
	C24.229836,30.193220 22.584499,30.483372 21.466558,29.847010 
	C17.601297,27.646801 14.065939,24.830877 10.103449,22.853657 
	C8.261332,21.934469 4.541074,21.444956 3.737310,22.435823 
	C1.731212,24.908916 4.009848,26.704769 6.323699,28.172583 
	C14.123534,33.120483 21.934233,38.065746 29.525229,43.323235 
	C34.518879,46.781815 39.759464,48.607655 46.625423,47.692566 
z"/>
<path fill="#000000" opacity="1.000000" stroke="none" 
	d="
M46.222633,47.796280 
	C39.759464,48.607655 34.518879,46.781815 29.525229,43.323235 
	C21.934233,38.065746 14.123534,33.120483 6.323699,28.172583 
	C4.009848,26.704769 1.731212,24.908916 3.737310,22.435823 
	C4.541074,21.444956 8.261332,21.934469 10.103449,22.853657 
	C14.065939,24.830877 17.601297,27.646801 21.466558,29.847010 
	C22.584499,30.483372 24.229836,30.193220 25.633392,30.327822 
	C25.743414,29.828014 25.853434,29.328205 25.963455,28.828396 
	C24.272453,27.347532 22.729628,25.636326 20.859785,24.433468 
	C16.893759,21.882145 17.222601,18.250708 18.820972,14.949907 
	C20.482430,11.518829 19.213770,11.236828 16.295637,10.680957 
	C15.020306,10.438021 13.375829,8.400445 13.235302,7.039825 
	C13.108618,5.813221 14.870608,3.266631 15.684980,3.313062 
	C17.163815,3.397378 18.798401,4.755126 19.922264,5.987771 
	C21.165493,7.351335 21.908722,9.170772 22.437845,10.063251 
	C26.688086,9.280318 30.049433,8.760736 33.352070,7.989674 
	C34.294849,7.769564 35.444450,7.004584 35.851982,6.172473 
	C37.535305,2.735399 40.566380,2.106225 43.347694,3.492756 
	C45.015205,4.324038 47.057861,7.667108 46.548416,8.880684 
	C45.653198,11.013226 42.947113,12.399579 40.954494,14.043991 
	C40.613323,14.325541 40.048759,14.336394 39.426025,14.519831 
	C38.726242,17.513157 38.405506,20.175667 41.608181,22.253349 
	C43.362232,23.391260 45.434185,25.494724 42.768349,27.380575 
	C41.653027,28.169571 39.123222,27.354303 37.410782,26.763414 
	C36.290913,26.376999 35.483990,25.083654 35.253906,24.868141 
	C33.953926,28.487789 32.626381,32.184189 30.921434,36.931427 
	C36.189793,39.441990 42.317486,42.362057 48.970181,45.532307 
	C48.314495,46.136398 47.469959,46.914482 46.222633,47.796280 
M35.647114,17.586069 
	C36.141335,11.493338 33.954636,10.285358 27.186543,13.613703 
	C28.582111,14.454394 30.180336,14.628239 31.605690,15.219105 
	C32.618591,15.638991 33.398411,16.621130 33.912472,17.703569 
	C34.038216,18.277044 34.163960,18.850521 34.289707,19.423996 
	C34.552017,18.975353 34.814323,18.526711 35.647114,17.586069 
M22.690908,21.794548 
	C23.824921,20.774750 25.559000,19.915936 25.890362,18.680801 
	C26.126926,17.799015 24.479862,16.411890 23.673321,15.250259 
	C23.047848,15.410204 22.422375,15.570148 21.796902,15.730093 
	C21.888821,17.620209 21.980738,19.510323 22.690908,21.794548 
M26.340485,23.363188 
	C26.090952,23.189722 25.841419,23.016258 25.591887,22.842793 
	C25.502234,22.976397 25.323439,23.217035 25.336203,23.227667 
	C25.552233,23.407587 25.792076,23.558920 26.340485,23.363188 
z"/>
<path fill="#47704C" opacity="1.000000" stroke="none" 
	d="
M34.282261,17.352327 
	C33.398411,16.621130 32.618591,15.638991 31.605690,15.219105 
	C30.180336,14.628239 28.582111,14.454394 27.186543,13.613703 
	C33.954636,10.285358 36.141335,11.493338 35.163315,17.650593 
	C34.547096,17.594189 34.414680,17.473259 34.282261,17.352327 
z"/>
<path fill="#47704C" opacity="1.000000" stroke="none" 
	d="
M22.381783,21.597492 
	C21.980738,19.510323 21.888821,17.620209 21.796902,15.730093 
	C22.422375,15.570148 23.047848,15.410204 23.673321,15.250259 
	C24.479862,16.411890 26.126926,17.799015 25.890362,18.680801 
	C25.559000,19.915936 23.824921,20.774750 22.381783,21.597492 
z"/>
<path fill="#47704C" opacity="1.000000" stroke="none" 
	d="
M34.878075,17.896593 
	C34.814323,18.526711 34.552017,18.975353 34.289707,19.423996 
	C34.163960,18.850521 34.038216,18.277044 34.097366,17.527948 
	C34.414680,17.473259 34.547096,17.594189 34.878075,17.896593 
z"/>
<path fill="#47704C" opacity="1.000000" stroke="none" 
	d="
M26.183567,23.539883 
	C25.792076,23.558920 25.552233,23.407587 25.336203,23.227667 
	C25.323439,23.217035 25.502234,22.976397 25.591887,22.842793 
	C25.841419,23.016258 26.090952,23.189722 26.183567,23.539883 
z"/>
</svg>