<svg version="1.1" id="Layer_1" xmlns="http://www.w3.org/2000/svg" xmlns:xlink="http://www.w3.org/1999/xlink" x="0px" y="0px"
	 width="100%" viewBox="0 0 64 64" enable-background="new 0 0 64 64" xml:space="preserve">
<path fill="#47704C" opacity="1.000000" stroke="none" 
	d="
M1.000000,25.000038 
	C1.000000,16.666723 1.000000,8.833391 1.000000,1.000045 
	C22.333311,1.000030 43.666622,1.000030 64.999954,1.000015 
	C64.999969,22.333305 64.999969,43.666611 64.999985,64.999939 
	C43.666698,64.999954 22.333395,64.999954 1.000047,64.999977 
	C1.000000,51.833340 1.000000,38.666683 1.000000,25.000038 
M48.452278,5.964844 
	C42.266808,1.022690 34.668488,2.000417 31.272865,8.866561 
	C29.561790,12.326455 27.692699,13.148649 24.193655,13.181660 
	C22.450033,13.198110 19.863497,14.678749 19.203781,16.177416 
	C18.346569,18.124725 18.858467,20.769135 19.130093,23.072344 
	C19.238310,23.989981 20.279188,24.797625 20.895481,25.655340 
	C21.575991,24.865240 22.614840,24.170792 22.856981,23.263674 
	C23.268686,21.721352 23.178846,20.045149 23.312696,18.251926 
	C25.435278,18.251926 27.188681,18.251926 28.804073,18.251926 
	C29.279913,20.293703 29.696127,22.079636 30.112343,23.865570 
	C30.560099,23.975708 31.007854,24.085844 31.455612,24.195982 
	C32.642250,22.273500 33.828892,20.351019 35.163818,18.188293 
	C38.971462,18.188293 43.106510,18.188293 46.722881,18.188293 
	C48.112904,20.270323 49.264107,21.994640 50.999489,24.593967 
	C52.166424,21.533653 52.830070,19.793215 53.533958,17.947252 
	C55.282101,18.079052 56.888992,18.200203 58.648811,18.332882 
	C58.648811,29.893354 58.648811,41.133259 58.648811,53.023613 
	C52.021873,53.023613 45.728931,52.864994 39.455227,53.142029 
	C37.999096,53.206329 36.608547,54.755871 35.187820,55.621998 
	C36.594265,56.411968 37.968002,57.804928 39.413052,57.883320 
	C44.564617,58.162796 49.740871,58.038792 54.906937,57.985790 
	C60.904438,57.924259 62.952747,55.894135 62.983227,49.878826 
	C63.034737,39.712471 62.781059,29.538986 63.093693,19.381979 
	C63.242081,14.560994 61.508289,12.447732 56.820141,13.040767 
	C53.670464,13.439190 51.907063,12.299435 51.010365,9.276386 
	C50.703274,8.241079 49.685085,7.416695 48.452278,5.964844 
M3.027161,37.908928 
	C2.980232,44.382736 2.495012,50.900257 3.133924,57.305656 
	C3.345737,59.429180 6.298077,62.758396 8.258421,62.956711 
	C14.652951,63.603596 21.171139,63.155464 27.635361,62.938278 
	C31.510876,62.808075 33.817192,60.565762 33.928356,56.685032 
	C34.099438,50.712482 34.180294,44.719158 33.819244,38.763756 
	C33.739838,37.453899 31.715866,35.304989 30.469015,35.216854 
	C27.645519,35.017281 26.229145,34.155800 25.019209,31.483076 
	C22.787249,26.552713 17.054604,25.278517 13.727275,28.931574 
	C10.850385,32.090096 8.868314,36.197964 3.606687,35.696049 
	C3.475426,35.683529 3.260681,36.546188 3.027161,37.908928 
z"/>
<path fill="#000000" opacity="1.000000" stroke="none" 
	d="
M48.722031,6.230395 
	C49.685085,7.416695 50.703274,8.241079 51.010365,9.276386 
	C51.907063,12.299435 53.670464,13.439190 56.820141,13.040767 
	C61.508289,12.447732 63.242081,14.560994 63.093693,19.381979 
	C62.781059,29.538986 63.034737,39.712471 62.983227,49.878826 
	C62.952747,55.894135 60.904438,57.924259 54.906937,57.985790 
	C49.740871,58.038792 44.564617,58.162796 39.413052,57.883320 
	C37.968002,57.804928 36.594265,56.411968 35.187820,55.622002 
	C36.608547,54.755871 37.999096,53.206329 39.455227,53.142029 
	C45.728931,52.864994 52.021873,53.023613 58.648811,53.023613 
	C58.648811,41.133259 58.648811,29.893354 58.648811,18.332882 
	C56.888992,18.200203 55.282101,18.079052 53.533958,17.947252 
	C52.830070,19.793215 52.166424,21.533653 50.999489,24.593967 
	C49.264107,21.994640 48.112904,20.270323 46.722881,18.188293 
	C43.106510,18.188293 38.971462,18.188293 35.163818,18.188293 
	C33.828892,20.351019 32.642250,22.273500 31.455612,24.195982 
	C31.007854,24.085844 30.560099,23.975708 30.112343,23.865570 
	C29.696127,22.079636 29.279913,20.293703 28.804073,18.251926 
	C27.188681,18.251926 25.435278,18.251926 23.312696,18.251926 
	C23.178846,20.045149 23.268686,21.721352 22.856981,23.263674 
	C22.614840,24.170792 21.575991,24.865240 20.895481,25.655342 
	C20.279188,24.797625 19.238310,23.989981 19.130093,23.072344 
	C18.858467,20.769135 18.346569,18.124725 19.203781,16.177416 
	C19.863497,14.678749 22.450033,13.198110 24.193655,13.181660 
	C27.692699,13.148649 29.561790,12.326455 31.272865,8.866561 
	C34.668488,2.000417 42.266808,1.022690 48.722031,6.230395 
M44.157360,8.077392 
	C39.077530,6.241271 35.723244,7.935153 34.571304,12.852608 
	C38.923283,12.852608 43.290115,12.852608 48.861885,12.852608 
	C47.078529,10.900514 45.945107,9.659846 44.157360,8.077392 
z"/>
<path fill="#000000" opacity="1.000000" stroke="none" 
	d="
M3.056016,37.454803 
	C3.260681,36.546188 3.475426,35.683529 3.606687,35.696049 
	C8.868314,36.197964 10.850385,32.090096 13.727275,28.931574 
	C17.054604,25.278517 22.787249,26.552713 25.019209,31.483076 
	C26.229145,34.155800 27.645519,35.017281 30.469015,35.216854 
	C31.715866,35.304989 33.739838,37.453899 33.819244,38.763756 
	C34.180294,44.719158 34.099438,50.712482 33.928356,56.685032 
	C33.817192,60.565762 31.510876,62.808075 27.635361,62.938278 
	C21.171139,63.155464 14.652951,63.603596 8.258421,62.956711 
	C6.298077,62.758396 3.345737,59.429180 3.133924,57.305656 
	C2.495012,50.900257 2.980232,44.382736 3.056016,37.454803 
M20.137608,39.060143 
	C17.541405,39.861210 14.945203,40.662273 12.366285,41.458004 
	C11.246225,40.756153 9.621980,39.738373 7.038277,38.119373 
	C7.038277,45.011497 6.871651,50.313221 7.168073,55.588932 
	C7.233374,56.751156 8.897460,58.736156 9.899827,58.784081 
	C16.112949,59.081150 22.347336,58.933529 28.648849,58.933529 
	C28.648849,51.811577 28.648849,45.505058 28.648849,38.799255 
	C25.812998,39.605343 23.347118,44.374744 20.137608,39.060143 
z"/>
<path fill="#47704C" opacity="1.000000" stroke="none" 
	d="
M44.484520,8.248285 
	C45.945107,9.659846 47.078529,10.900514 48.861885,12.852608 
	C43.290115,12.852608 38.923283,12.852608 34.571304,12.852608 
	C35.723244,7.935153 39.077530,6.241271 44.484520,8.248285 
z"/>
<path fill="#47704C" opacity="1.000000" stroke="none" 
	d="
M20.528648,39.121002 
	C23.347118,44.374744 25.812998,39.605343 28.648849,38.799255 
	C28.648849,45.505058 28.648849,51.811577 28.648849,58.933529 
	C22.347336,58.933529 16.112949,59.081150 9.899827,58.784081 
	C8.897460,58.736156 7.233374,56.751156 7.168073,55.588932 
	C6.871651,50.313221 7.038277,45.011497 7.038277,38.119373 
	C9.621980,39.738373 11.246225,40.756153 12.366285,41.458004 
	C14.945203,40.662273 17.541405,39.861210 20.528648,39.121002 
z"/>
</svg>