<svg xmlns="http://www.w3.org/2000/svg" viewBox="0 0 750 500"><g id="freepik--background-complete--inject-2"><path d="M166.66,165.66c.93-6.8-8.66-12.4-15.87-13-3.44-.27-7,.25-10.27-.88-7.06-2.46-9.88-11.58-16.77-14.49-5.15-2.17-11.07-.24-16.07,2.28s-9.92,5.67-15.5,6c-4.85.31-10.12-1.49-14.36.88-3.16,1.76-4.82,5.41-7.74,7.56S63.51,156.61,60,156.8s-7.2.23-10.42,1.7-5.89,4.89-5.22,8.37Z" style="fill:#ebebeb"></path><rect x="48.66" y="310.58" width="67.16" height="155.25" style="fill:#ebebeb"></rect><rect x="58.52" y="324.98" width="46.95" height="18.14" rx="3.98" style="fill:#e0e0e0"></rect><path d="M116.28,355.25c0,.19-15,.34-33.58.34s-33.58-.15-33.58-.34,15-.34,33.58-.34S116.28,355.06,116.28,355.25Z" style="fill:#e0e0e0"></path><path d="M116.28,411.4c0,.19-15,.34-33.58.34s-33.58-.15-33.58-.34,15-.34,33.58-.34S116.28,411.21,116.28,411.4Z" style="fill:#e0e0e0"></path><rect x="626.33" y="310.58" width="67.16" height="155.25" style="fill:#ebebeb"></rect><rect x="636.19" y="324.98" width="46.95" height="18.14" rx="3.98" style="fill:#e0e0e0"></rect><path d="M694,355.25c0,.19-15,.34-33.58.34s-33.58-.15-33.58-.34,15-.34,33.58-.34S694,355.06,694,355.25Z" style="fill:#e0e0e0"></path><path d="M694,411.4c0,.19-15,.34-33.58.34s-33.58-.15-33.58-.34,15-.34,33.58-.34S694,411.21,694,411.4Z" style="fill:#e0e0e0"></path><rect x="215.48" y="20.86" width="9.19" height="366.42" style="fill:#e0e0e0"></rect><path d="M468.53,247.84c0,.16-76.45.29-170.72.29s-170.74-.13-170.74-.29,76.43-.29,170.74-.29S468.53,247.68,468.53,247.84Z" style="fill:#e0e0e0"></path><polyline points="274.72 247.84 314.67 234.9 331.72 234.9 385.05 227.53 446.25 221.96 474.32 209.06 549.44 223.06 571.79 225.14 583.84 232.69 600.62 247.84 274.72 247.84" style="fill:#f5f5f5"></polyline><rect x="269.86" y="222.12" width="46.19" height="25.88" style="fill:#ebebeb"></rect><rect x="274.49" y="226.69" width="37.13" height="7.26" style="fill:#e0e0e0"></rect><path d="M277.89,155.69v10.07l8.47,7.23v49.13h16V173l7.65-7.46v-9.84Z" style="fill:#ebebeb"></path><rect x="281.36" y="144.92" width="2.17" height="10.76" style="fill:#ebebeb"></rect><rect x="286.02" y="150.08" width="2.17" height="10.76" style="fill:#ebebeb"></rect><rect x="280.14" y="159.57" width="28.19" height="5.45" style="fill:#fafafa"></rect><rect x="517.05" y="26.14" width="9.19" height="366.42" style="fill:#e0e0e0"></rect><path d="M398.9,122.42c.1.13-27.28,21.13-61.15,46.9s-61.41,46.55-61.51,46.43,27.28-21.13,61.16-46.9S398.81,122.3,398.9,122.42Z" style="fill:#e0e0e0"></path><path d="M410.86,97.69c.1.13-18,14.58-40.4,32.27s-40.67,31.94-40.77,31.82,18-14.58,40.41-32.28S410.76,97.56,410.86,97.69Z" style="fill:#e0e0e0"></path><path d="M137.15,208.09c.1.13-20.1,17.18-45.12,38.09s-45.4,37.76-45.5,37.64,20.09-17.18,45.12-38.09S137,208,137.15,208.09Z" style="fill:#e0e0e0"></path><path d="M148.13,182.16c.1.12-17.55,15.11-39.42,33.46s-39.69,33.15-39.8,33,17.55-15.1,39.42-33.47S148,182,148.13,182.16Z" style="fill:#e0e0e0"></path><path d="M617.37,271.42c.1.12-20.1,17.17-45.12,38.08s-45.4,37.77-45.5,37.64,20.1-17.17,45.13-38.09S617.27,271.29,617.37,271.42Z" style="fill:#e0e0e0"></path><path d="M628.35,245.48c.1.12-17.55,15.11-39.42,33.47s-39.69,33.14-39.79,33,17.54-15.11,39.42-33.47S628.25,245.36,628.35,245.48Z" style="fill:#e0e0e0"></path><path d="M704.06,158.34c.79-5.74-7.32-10.47-13.41-11-2.9-.23-5.92.21-8.67-.75-6-2.08-8.35-9.78-14.17-12.23-4.35-1.84-9.35-.2-13.57,1.92s-8.38,4.79-13.09,5.09c-4.1.27-8.55-1.25-12.14.75-2.67,1.49-4.07,4.57-6.53,6.38s-5.55,2.16-8.54,2.32-6.08.19-8.81,1.44-5,4.12-4.4,7.06Z" style="fill:#f5f5f5"></path></g><g id="freepik--Floor--inject-2"><path d="M715.14,465.79c0,.15-149.72.26-334.37.26s-334.41-.11-334.41-.26,149.69-.26,334.41-.26S715.14,465.65,715.14,465.79Z" style="fill:#263238"></path></g><g id="freepik--suitcase-2--inject-2"><path d="M446.49,430.38c.18.35-1.28,1.28-2.94,3.3a14.13,14.13,0,0,0-.26,18.34c1.61,2.07,3,3,2.85,3.39s-2-.12-4.2-2.14a13.66,13.66,0,0,1-3.08-4.2,13.86,13.86,0,0,1,.17-12.56,13.87,13.87,0,0,1,3.2-4.12C444.5,430.44,446.37,430.09,446.49,430.38Z" style="fill:#263238"></path><rect x="445.98" y="410.34" width="101.47" height="69.57" rx="10.26" style="fill:#84CC16"></rect><path d="M547.45,420.6a12.67,12.67,0,0,0-.58-3.22,9.87,9.87,0,0,0-2-3.42,10.25,10.25,0,0,0-4.44-3,10.36,10.36,0,0,0-3.16-.53h-3.58l-8.13,0-19.8,0-24,0H457.84a18.28,18.28,0,0,0-3.56.19,10.13,10.13,0,0,0-6,3.73,10.23,10.23,0,0,0-2.08,6.91V437c0,10.56,0,21.49,0,32.69a10,10,0,0,0,3.13,7.27,10.17,10.17,0,0,0,7.34,2.74h16.11l30.45,0,27.56,0h6.36a11.57,11.57,0,0,0,3-.45A10.1,10.1,0,0,0,545,476a11.25,11.25,0,0,0,1.47-2.43,10.79,10.79,0,0,0,.72-2.7,25.37,25.37,0,0,0,.08-2.76c0-14.67.07-26.54.09-34.76,0-4.1,0-7.28,0-9.45,0-1.07,0-1.89,0-2.46s0-.84,0-.84,0,.28,0,.84,0,1.39,0,2.46c0,2.17,0,5.35,0,9.45,0,8.22.05,20.09.08,34.76a24.22,24.22,0,0,1-.08,2.81,11.23,11.23,0,0,1-.73,2.8,11.53,11.53,0,0,1-1.53,2.53,10.37,10.37,0,0,1-5,3.39,11.6,11.6,0,0,1-3.11.48h-6.36l-27.56,0H456.71a10.74,10.74,0,0,1-7.7-2.89,10.48,10.48,0,0,1-3.29-7.64V437c0-5.28,0-10.47,0-15.54a10.73,10.73,0,0,1,2.19-7.21,10.6,10.6,0,0,1,6.27-3.9,18,18,0,0,1,3.65-.2h23.94l24,0,19.8,0,8.13,0h3.58a10.38,10.38,0,0,1,7.71,3.63,9.83,9.83,0,0,1,2,3.49,10.07,10.07,0,0,1,.46,2.41C547.45,420.32,547.45,420.6,547.45,420.6Z" style="fill:#263238"></path><path d="M552.86,461.37a4.4,4.4,0,1,1-4.39,4.4A4.4,4.4,0,0,1,552.86,461.37Z" style="fill:#455a64"></path><path d="M478.11,479.91v.21a5.13,5.13,0,0,1-5.13,5.13h0a5.13,5.13,0,0,1-5.12-5.13v-.21Z" style="fill:#263238"></path><path d="M525.22,479.91v.21a5.13,5.13,0,0,1-5.12,5.13h0a5.13,5.13,0,0,1-5.13-5.13v-.21Z" style="fill:#263238"></path><polygon points="547.45 468.57 553.89 467.35 553.89 464.3 547.45 462.96 547.45 468.57" style="fill:#263238"></polygon><circle cx="552.86" cy="465.77" r="2.24" style="fill:#263238"></circle><path d="M552.86,417.24a4.39,4.39,0,1,1-4.39,4.39A4.39,4.39,0,0,1,552.86,417.24Z" style="fill:#455a64"></path><polygon points="547.45 424.44 553.89 423.21 553.89 420.16 547.45 418.82 547.45 424.44" style="fill:#263238"></polygon><circle cx="552.86" cy="421.63" r="2.24" style="fill:#263238"></circle><path d="M467.44,410.34c.15,0,.26,15.57.26,34.78s-.11,34.79-.26,34.79-.26-15.57-.26-34.79S467.3,410.34,467.44,410.34Z" style="fill:#263238"></path><path d="M464.8,410.34c.14,0,.26,15.57.26,34.78s-.12,34.79-.26,34.79-.27-15.57-.27-34.79S464.65,410.34,464.8,410.34Z" style="fill:#263238"></path><path d="M487.46,410.34c.14,0,.26,15.57.26,34.78s-.12,34.79-.26,34.79-.26-15.57-.26-34.79S487.32,410.34,487.46,410.34Z" style="fill:#263238"></path><path d="M484.81,410.34c.15,0,.26,15.57.26,34.78s-.11,34.79-.26,34.79-.26-15.57-.26-34.79S484.67,410.34,484.81,410.34Z" style="fill:#263238"></path><path d="M507.48,410.34c.14,0,.26,15.57.26,34.78s-.12,34.79-.26,34.79-.26-15.57-.26-34.79S507.33,410.34,507.48,410.34Z" style="fill:#263238"></path><path d="M504.83,410.34c.14,0,.26,15.57.26,34.78s-.12,34.79-.26,34.79-.26-15.57-.26-34.79S504.69,410.34,504.83,410.34Z" style="fill:#263238"></path><path d="M527.49,410.34c.15,0,.27,15.57.27,34.78s-.12,34.79-.27,34.79-.26-15.57-.26-34.79S527.35,410.34,527.49,410.34Z" style="fill:#263238"></path><path d="M524.85,410.34c.14,0,.26,15.57.26,34.78s-.12,34.79-.26,34.79-.26-15.57-.26-34.79S524.7,410.34,524.85,410.34Z" style="fill:#263238"></path><rect x="467.65" y="444.39" width="14.31" height="3.62" transform="translate(28.61 921) rotate(-90)" style="fill:#fff"></rect><path d="M476.64,453.37H473V439h3.67Zm-3.62-.05h3.57V439.07H473Z" style="fill:#263238"></path><g style="opacity:0.2"><rect x="430.84" y="444.3" width="69.57" height="1.65" transform="translate(20.5 910.75) rotate(-90)"></rect></g><g style="opacity:0.2"><rect x="450.77" y="444.3" width="69.57" height="1.65" transform="translate(40.43 930.68) rotate(-90)"></rect></g><g style="opacity:0.2"><rect x="470.68" y="444.3" width="69.57" height="1.65" transform="translate(60.34 950.59) rotate(-90)"></rect></g><g style="opacity:0.2"><rect x="490.58" y="444.3" width="69.57" height="1.65" transform="translate(80.24 970.49) rotate(-90)"></rect></g></g><g id="freepik--Bench--inject-2"><rect x="182.96" y="381.01" width="100.19" height="8.57" style="fill:#455a64"></rect><rect x="182.24" y="297.96" width="100.91" height="55.62" style="fill:#455a64"></rect><rect x="169" y="297.96" width="13.96" height="91.61" style="fill:#e0e0e0"></rect><path d="M183,389.57s0-.16,0-.47,0-.79,0-1.37c0-1.22,0-3,0-5.25,0-4.58,0-11.18-.08-19.39,0-16.43-.06-39.29-.11-65.13l.26.26H169l.26-.26c-.06,39.47-.11,73.86-.13,91.61l-.13-.13,10.33.08,2.7,0,.93,0s-.29,0-.89,0l-2.66,0L169,389.7h-.13v-.13c0-17.75-.08-52.14-.13-91.61l.26-.26h14.22V298c-.05,25.91-.09,48.84-.12,65.31,0,8.19,0,14.77-.07,19.33,0,2.24,0,4,0,5.19,0,.58,0,1,0,1.34S183,389.57,183,389.57Z" style="fill:#263238"></path><rect x="283.18" y="297.96" width="13.96" height="91.61" style="fill:#e0e0e0"></rect><path d="M297.14,389.57s0-.16,0-.47,0-.79,0-1.37c0-1.22,0-3,0-5.25,0-4.58,0-11.18-.07-19.39,0-16.43-.07-39.29-.12-65.13l.26.26h-14l.26-.26c-.06,39.47-.11,73.86-.13,91.61l-.13-.13,10.33.08,2.7,0,.93,0s-.29,0-.89,0l-2.66,0-10.41.07h-.13v-.13c0-17.75-.07-52.14-.13-91.61l.26-.26H297.4V298c0,25.91-.08,48.84-.11,65.31,0,8.19-.06,14.77-.08,19.33,0,2.24,0,4,0,5.19,0,.58,0,1,0,1.34S297.14,389.57,297.14,389.57Z" style="fill:#263238"></path><rect x="325.02" y="381.01" width="100.19" height="8.57" style="fill:#263238"></rect><rect x="324.3" y="297.96" width="100.91" height="55.62" style="fill:#455a64"></rect><rect x="311.06" y="297.96" width="13.96" height="91.61" style="fill:#e0e0e0"></rect><path d="M325,389.57s0-.16,0-.47,0-.79,0-1.37c0-1.22,0-3,0-5.25,0-4.58,0-11.18-.07-19.39,0-16.43-.07-39.29-.12-65.13l.26.26h-14l.26-.26c-.06,39.47-.11,73.86-.13,91.61l-.13-.13,10.33.08,2.7,0,.93,0s-.29,0-.89,0l-2.66,0-10.41.07h-.13v-.13c0-17.75-.07-52.14-.13-91.61l.26-.26h14.22V298c0,25.91-.08,48.84-.11,65.31,0,8.19-.06,14.77-.08,19.33,0,2.24,0,4,0,5.19,0,.58,0,1,0,1.34S325,389.57,325,389.57Z" style="fill:#263238"></path><rect x="425.24" y="297.96" width="13.96" height="91.61" style="fill:#e0e0e0"></rect><path d="M439.2,389.57s0-.16,0-.47,0-.79,0-1.37c0-1.22,0-3,0-5.25,0-4.58,0-11.18-.07-19.39,0-16.43-.07-39.29-.11-65.13l.25.26h-14l.26-.26c-.05,39.47-.1,73.86-.13,91.61l-.13-.13,10.34.08,2.69,0,.93,0s-.29,0-.88,0l-2.67,0-10.41.07h-.12v-.13c0-17.75-.07-52.14-.13-91.61l.26-.26h14.22V298c0,25.91-.08,48.84-.11,65.31,0,8.19-.06,14.77-.08,19.33,0,2.24,0,4,0,5.19,0,.58,0,1,0,1.34A3.52,3.52,0,0,1,439.2,389.57Z" style="fill:#263238"></path><rect x="467.09" y="381.01" width="100.19" height="8.57" style="fill:#455a64"></rect><rect x="466.37" y="297.96" width="100.91" height="55.62" style="fill:#455a64"></rect><rect x="453.12" y="297.96" width="13.96" height="91.61" style="fill:#e0e0e0"></rect><path d="M467.09,389.57a4.24,4.24,0,0,1,0-.47c0-.33,0-.79,0-1.37,0-1.22,0-3,0-5.25,0-4.58,0-11.18-.08-19.39,0-16.43-.07-39.29-.11-65.13l.25.26h-14l.26-.26c-.05,39.47-.1,73.86-.13,91.61l-.13-.13,10.34.08,2.69,0,.94,0-.89,0-2.67,0-10.41.07H453v-.13c0-17.75-.08-52.14-.14-91.61l.26-.26h14.22V298c0,25.91-.08,48.84-.11,65.31,0,8.19-.06,14.77-.08,19.33,0,2.24,0,4,0,5.19,0,.58,0,1,0,1.34S467.09,389.57,467.09,389.57Z" style="fill:#263238"></path><rect x="567.31" y="297.96" width="13.96" height="91.61" style="fill:#e0e0e0"></rect><path d="M581.27,389.57s0-.16,0-.47,0-.79,0-1.37c0-1.22,0-3,0-5.25,0-4.58-.05-11.18-.08-19.39,0-16.43-.07-39.29-.11-65.13l.26.26h-14l.26-.26c-.06,39.47-.11,73.86-.14,91.61l-.12-.13,10.33.08,2.69,0,.94,0s-.29,0-.89,0l-2.67,0-10.4.07h-.13v-.13c0-17.75-.08-52.14-.13-91.61l.26-.26h14.22V298c0,25.91-.09,48.84-.12,65.31,0,8.19-.06,14.77-.07,19.33,0,2.24,0,4,0,5.19,0,.58,0,1,0,1.34S581.27,389.57,581.27,389.57Z" style="fill:#263238"></path><rect x="158.01" y="389.33" width="425.82" height="10.69" style="fill:#455a64"></rect><rect x="581.27" y="339.91" width="13.91" height="125.89" style="fill:#e0e0e0"></rect><path d="M595.18,465.79s0-.22,0-.65,0-1.07,0-1.89c0-1.67,0-4.1,0-7.24,0-6.29,0-15.4-.07-26.71,0-22.62-.07-54.05-.11-89.39l.26.26H581.27l.26-.26c-.07,55.7-.13,103.76-.15,125.88l-.11-.11,10.32.06,2.67,0,.92,0s-.29,0-.88,0l-2.65,0-10.38.07h-.11v-.12c0-22.12-.09-70.18-.15-125.88v-.26h14.42v.26c0,35.42-.08,66.91-.11,89.58,0,11.28-.06,20.37-.07,26.65,0,3.11,0,5.53,0,7.18,0,.81,0,1.42,0,1.85S595.18,465.79,595.18,465.79Z" style="fill:#263238"></path><rect x="155.42" y="347.07" width="13.91" height="118.69" style="fill:#e0e0e0"></rect><path d="M169.32,465.76s0-.22,0-.62,0-1,0-1.78c0-1.57,0-3.86,0-6.82,0-5.93,0-14.51-.07-25.17,0-21.32-.07-50.95-.11-84.3l.25.26h-13.9l.26-.26c-.07,52.29-.12,97.49-.15,118.69l-.11-.12,10.32.07,2.67,0c.6,0,.91,0,.91,0l-.87,0-2.65,0-10.38.06h-.12v-.11c0-21.2-.08-66.4-.14-118.69v-.26h14.42v.26c0,33.42-.08,63.12-.11,84.48,0,10.64-.06,19.2-.07,25.12,0,2.93,0,5.2,0,6.76,0,.76,0,1.34,0,1.75S169.32,465.76,169.32,465.76Z" style="fill:#263238"></path><path d="M581.27,389.57c0,.15-92.09.16-205.65,0S170,389.25,170,389.1s92.06-.15,205.67,0S581.27,389.43,581.27,389.57Z" style="fill:#263238"></path><path d="M262.69,313.92c0,.13-14.9,4.94-33.37,10.73S195.84,335,195.8,334.89s14.89-4.95,33.37-10.74S262.64,313.78,262.69,313.92Z" style="fill:#263238"></path><path d="M257.38,330.88c0,.15-7.64,2-17.14,4.16S223,338.83,223,338.69s7.64-2,17.14-4.16S257.35,330.74,257.38,330.88Z" style="fill:#263238"></path><path d="M549.51,343.73a2.65,2.65,0,0,1-.59-.16l-1.67-.58c-1.45-.5-3.52-1.29-6.06-2.34s-5.51-2.4-8.76-4-6.75-3.53-10.34-5.68-6.9-4.39-9.85-6.5-5.53-4.13-7.63-5.88-3.79-3.21-4.9-4.26l-1.29-1.21c-.29-.28-.44-.44-.42-.45a2.23,2.23,0,0,1,.49.37l1.35,1.13c1.16,1,2.86,2.42,5,4.13s4.73,3.68,7.68,5.78,6.27,4.28,9.84,6.44,7.07,4.05,10.29,5.7,6.18,3,8.69,4.1,4.55,1.94,6,2.49l1.63.67A2.08,2.08,0,0,1,549.51,343.73Z" style="fill:#263238"></path><path d="M522.84,340.81c-.05.13-4.84-1.54-10.69-3.73s-10.56-4.09-10.51-4.22,4.84,1.53,10.69,3.73S522.89,340.67,522.84,340.81Z" style="fill:#263238"></path></g><g id="freepik--Character--inject-2"><path d="M313.34,436.41l1.87,23.26s-23,9.71-23.1,14.05l45.24-2-1.42-36.37Z" style="fill:#455a64"></path><path d="M329.11,457.1a1.85,1.85,0,0,1,1.37,2,1.77,1.77,0,0,1-2,1.37,1.94,1.94,0,0,1-1.44-2.18,1.84,1.84,0,0,1,2.26-1.2" style="fill:#e0e0e0"></path><path d="M337.35,471.72l-.29-3.66-43.26,3.28s-2,1-1.69,2.38Z" style="fill:#263238"></path><path d="M314.46,459.48c0,.22,1.13.27,2.25.93s1.74,1.57,1.94,1.47-.19-1.36-1.56-2.14S314.41,459.28,314.46,459.48Z" style="fill:#fff"></path><path d="M309.81,461.65c0,.21.93.55,1.72,1.45s1.05,1.88,1.27,1.86.31-1.28-.7-2.38S309.8,461.44,309.81,461.65Z" style="fill:#fff"></path><path d="M307.36,467.45c.21,0,.46-1.08-.16-2.27s-1.67-1.62-1.76-1.43.59.81,1.08,1.79S307.14,467.43,307.36,467.45Z" style="fill:#fff"></path><path d="M314.63,454.13c.1.19,1.1-.16,2.35-.13s2.24.38,2.35.19-.86-.94-2.34-1S314.51,454,314.63,454.13Z" style="fill:#fff"></path><path d="M430.05,436.46l-1.22,26.08,5,20.91a2.67,2.67,0,0,1-2.16,3.26h0a2.65,2.65,0,0,1-2.33-.74c-3.89-3.92-18.15-18.39-17.95-20.3.23-2.2-.55-27.6-.55-27.6Z" style="fill:#455a64"></path><path d="M431.66,486.71l-20.24-22.8,0,1.11a4,4,0,0,0,.89,2.63c1.61,2,6.18,7.38,17,18.32a2.69,2.69,0,0,0,2.41.74Z" style="fill:#263238"></path><g style="opacity:0.6000000000000001"><path d="M417,455.62a1.62,1.62,0,0,1,.39,2.12,1.55,1.55,0,0,1-2.1.41,1.71,1.71,0,0,1-.41-2.25,1.62,1.62,0,0,1,2.24-.18" style="fill:#fff"></path></g><path d="M426,475.16c.15.08.77-1.27,2.34-2a8.12,8.12,0,0,1,3-.51c0-.06-.3-.27-.91-.37a4.18,4.18,0,0,0-2.35.36,4.13,4.13,0,0,0-1.79,1.56C426,474.76,425.9,475.14,426,475.16Z" style="fill:#fff"></path><path d="M427.74,478.7a22.42,22.42,0,0,1,2.34-1.06,20.41,20.41,0,0,1,2.56-.27,3,3,0,0,0-2.71-.29C428.38,477.5,427.61,478.63,427.74,478.7Z" style="fill:#fff"></path><path d="M422.61,470.6a27.52,27.52,0,0,1,3.5-1.89,25.81,25.81,0,0,1,3.89-.81,5.89,5.89,0,0,0-4.09.27A6,6,0,0,0,422.61,470.6Z" style="fill:#fff"></path><path d="M422.32,462.64c.06.16,1.52-.41,3.4-.43s3.35.46,3.41.3a6.61,6.61,0,0,0-6.81.13Z" style="fill:#fff"></path><path d="M422.48,455a12.78,12.78,0,0,1,3.53-.55,12.94,12.94,0,0,1,3.44.95c0-.05-.24-.39-.83-.75a5.71,5.71,0,0,0-2.58-.77,5.6,5.6,0,0,0-2.65.47C422.76,454.62,422.44,454.92,422.48,455Z" style="fill:#fff"></path><path d="M426,453a2,2,0,0,0,.06-1,6.79,6.79,0,0,0-.72-2.6,3,3,0,0,0-1.27-1.48,1.06,1.06,0,0,0-1.22.21,1.77,1.77,0,0,0-.44,1.17,3.78,3.78,0,0,0,3.23,3.57,4.38,4.38,0,0,0,4.36-2.19,1.49,1.49,0,0,0,.11-1.26,1.07,1.07,0,0,0-1.09-.59,3.83,3.83,0,0,0-1.75.85,7.64,7.64,0,0,0-1.82,2,2.46,2.46,0,0,0-.43.89A12.35,12.35,0,0,1,427.5,450a3.48,3.48,0,0,1,1.54-.7.58.58,0,0,1,.6.31,1.07,1.07,0,0,1-.12.83,3.91,3.91,0,0,1-3.8,1.85,3.28,3.28,0,0,1-2.79-3,1.29,1.29,0,0,1,.27-.83.6.6,0,0,1,.67-.13,2.77,2.77,0,0,1,1.1,1.24A9.71,9.71,0,0,1,426,453Z" style="fill:#fff"></path><path d="M346.13,351.75s-17.55-2.5-23.2-1.83-15.82,4-17.56,12.72-1.19,35.71.8,57.45c.72,7.8,3.43,32.66,3.43,32.66l29-.87L336,396V389.1L372.32,387l5.72-.26L409.16,388s-1,30.94-1,35.94v14.59l.26,13.11s15.9,3.2,23.28-.06c0,0,5.26-43.8,6.13-50.7,1.41-11.26,3.37-34.63,1.41-39.62s-10.59-12.83-17.6-12.27-46.76,2.52-46.76,2.52Z" style="fill:#263238"></path><g style="opacity:0.30000000000000004"><path d="M394.6,351.69c-3.55,1.26-6.87,3.09-10.37,4.49s-7.29,2.38-11,1.81c-4.29-.66-10.4-3.23-14.66-2.45l4.32,3.17a29.59,29.59,0,0,0,8.76,7.14,15.21,15.21,0,0,0,7.67,2.31,16.62,16.62,0,0,0,6.8-2,24.63,24.63,0,0,0,8.14-5.82,36.36,36.36,0,0,1,4.79-4.82c2.29-1.8,4.74-2.92,6.64-4.76C402.06,349.76,398.15,350.43,394.6,351.69Z"></path></g><path d="M335.44,371.16a4.49,4.49,0,0,1,.13,1l.18,2.85c.13,2.41.29,5.74.39,9.41s.13,7,.09,9.43c0,1.21-.06,2.18-.1,2.86a4.24,4.24,0,0,1-.12,1,3.67,3.67,0,0,1-.09-1.05c0-.79,0-1.74-.06-2.85-.07-2.54-.15-5.8-.24-9.41s-.2-7-.24-9.41c0-1.21,0-2.19,0-2.86A3.79,3.79,0,0,1,335.44,371.16Z" style="fill:#455a64"></path><path d="M372.32,376.62c-.08,0-.44-1.39-1.17-3.61a41.05,41.05,0,0,0-3.7-8.31,27.1,27.1,0,0,0-5.87-6.88c-1.8-1.48-3.08-2.19-3-2.28a4.19,4.19,0,0,1,.92.45,19.67,19.67,0,0,1,2.33,1.54,24.84,24.84,0,0,1,6.08,6.9,35.18,35.18,0,0,1,3.61,8.47c.33,1.14.55,2.06.67,2.71A3.65,3.65,0,0,1,372.32,376.62Z" style="fill:#455a64"></path><path d="M404.22,351.9a8.32,8.32,0,0,1-1.28,1c-.43.29-.94.64-1.51,1.09s-1.26.91-1.95,1.5a55.23,55.23,0,0,0-4.73,4.31,58.3,58.3,0,0,0-5,6,57.09,57.09,0,0,0-4.1,6.67,54.5,54.5,0,0,0-2.6,5.85c-.34.84-.58,1.63-.81,2.32s-.42,1.28-.56,1.78a9.54,9.54,0,0,1-.49,1.51,8.43,8.43,0,0,1,.3-1.57c.11-.5.25-1.11.47-1.81s.42-1.5.75-2.36a47.73,47.73,0,0,1,2.51-5.94,50.22,50.22,0,0,1,9.22-12.78,48.48,48.48,0,0,1,4.85-4.27c.71-.58,1.41-1,2-1.45a17.52,17.52,0,0,1,1.57-1A9.65,9.65,0,0,1,404.22,351.9Z" style="fill:#455a64"></path><path d="M376.17,362.64a12.94,12.94,0,0,1-1-2.8,44.91,44.91,0,0,1-1.45-7.07,45.82,45.82,0,0,1-.33-7.21,12.77,12.77,0,0,1,.31-3,23.9,23.9,0,0,1,.06,3,65.49,65.49,0,0,0,.47,7.14,62.65,62.65,0,0,0,1.3,7A21.78,21.78,0,0,1,376.17,362.64Z" style="fill:#263238"></path><path d="M410,372.31a70.25,70.25,0,0,1-.09,8.44,66.23,66.23,0,0,1-.61,8.42,70.25,70.25,0,0,1,.09-8.44A66.23,66.23,0,0,1,410,372.31Z" style="fill:#455a64"></path><path d="M405.27,376.74c.15,0,.83,2.72,2,6s2.29,5.91,2.15,6a33.24,33.24,0,0,1-4.12-12Z" style="fill:#455a64"></path><path d="M358.56,275.59S343.27,278.88,340,281s-8,13.8-8,13.8-15.59,39.94-13,47.89,12.68,7.31,15.26,7.09,23.44-29,23.44-29-9.25-4.08-7.1-12.46l-4.51,4.58,4.8-26.07Z" style="fill:#84CC16"></path><path d="M421.1,291c-2.86-10.88-4.9-13.16-18.43-15.74l-14.12-1.83-2.33-3.16H361.4l-2.84,5.36-2.69,1-11.78,21,1,35.67L345.8,352s9.46,1.51,13.33,3.88,12.64,8.16,22,8,15.21-9.25,18.44-10.64a69.4,69.4,0,0,1,8.87-2.73l1.94-.61c.91.54-1-.35,0,0,6,2,12-1.4,12-1.4s5.81-7.4,6.24-13.85S422.7,297,421.1,291Z" style="fill:#84CC16"></path><path d="M349.39,310.19a3.67,3.67,0,0,1-.6.7L347,312.7c-1.53,1.53-3.7,3.65-6.19,6.06l0,0,0,0c-.94.56-1.94,1.12-3,1.62-1.94.95-3.85,1.69-5.52,2.48a18.89,18.89,0,0,0-4.14,2.54,25.84,25.84,0,0,0-3.1,3.27,5.26,5.26,0,0,1,.62-1.06,13.78,13.78,0,0,1,2.24-2.5,18.29,18.29,0,0,1,4.18-2.69c1.67-.82,3.57-1.57,5.49-2.5,1.05-.5,2-1,3-1.6l0,0c2.51-2.4,4.72-4.47,6.31-5.94l1.89-1.7A4,4,0,0,1,349.39,310.19Z" style="fill:#263238"></path><path d="M426.75,334.67c-.08.05-.73-1.14-2.12-2.81a31.77,31.77,0,0,0-6.29-5.66c-2.73-1.9-5.33-3.43-7.23-4.5a30.57,30.57,0,0,1-3.07-1.77,3.88,3.88,0,0,1,.9.33c.56.25,1.36.62,2.34,1.12a60.5,60.5,0,0,1,7.36,4.4,27.74,27.74,0,0,1,6.27,5.85,17.25,17.25,0,0,1,1.44,2.17A3,3,0,0,1,426.75,334.67Z" style="fill:#263238"></path><path d="M404.54,298.58c.14,0,1.13,4.8,2.22,10.78s1.84,10.86,1.7,10.88-1.13-4.8-2.22-10.78S404.4,298.6,404.54,298.58Z" style="fill:#263238"></path><path d="M408,319.93a1.21,1.21,0,0,1-.3-.14l-.84-.49-3.14-1.89-11.11-6.84.26,0-8.72,6.94.09-.22a14,14,0,0,0,2.19,5.89c1.28,2.08,2.66,4.06,3.9,6s2.48,3.82,3.68,5.57a59.7,59.7,0,0,0,7.08,8.76,30.3,30.3,0,0,0,5.95,4.7c1.54.92,2.46,1.32,2.43,1.38a4.77,4.77,0,0,1-.67-.28,14.32,14.32,0,0,1-1.86-.93,28.26,28.26,0,0,1-6.1-4.6,57.83,57.83,0,0,1-7.22-8.75c-1.22-1.76-2.46-3.63-3.72-5.57s-2.62-3.92-3.92-6a14.54,14.54,0,0,1-2.25-6.12v-.14l.11-.08,8.76-6.89.12-.1.14.08,11,7,3.07,2,.8.55A1.57,1.57,0,0,1,408,319.93Z" style="fill:#263238"></path><g style="opacity:0.30000000000000004"><path d="M345.27,337.57c4.19-.22,7.35-3.74,10-7l12.66-15.49a4.4,4.4,0,0,1,2.64-1.91c1.34-.14,2.46,1,3.33,2,4.94,5.89,8.8,12.6,13.57,18.63s10.74,11.52,18.13,13.64a60.6,60.6,0,0,1-11.9-12.78c-4.35-6.4-9.12-11.84-9.67-17.38-.61-6-7-11.46-10.1-15.22-.95-1.17-2-2.41-3.51-2.65-1.82-.29-3.48,1.05-4.76,2.38-5.8,6-9.71,13.53-13.54,20.95l-7.47,14.46"></path></g><path d="M358,320.43c.11.09-3,4.33-6.86,9.46s-7.16,9.23-7.27,9.15,2.95-4.32,6.85-9.46S357.9,320.35,358,320.43Z" style="fill:#263238"></path><path d="M346.1,312.53a47.23,47.23,0,0,1-1.23-6.94,47.31,47.31,0,0,1-.71-7,48.52,48.52,0,0,1,1.23,6.94A49,49,0,0,1,346.1,312.53Z" style="fill:#263238"></path><path d="M412.24,279.87a31.05,31.05,0,0,0-4.93,4.42,30.57,30.57,0,0,0-3.4,5.68,5.34,5.34,0,0,1,.54-1.91,16.14,16.14,0,0,1,2.46-4.1,16,16,0,0,1,3.56-3.19A5.55,5.55,0,0,1,412.24,279.87Z" style="fill:#263238"></path><path d="M343.11,290.12a30.68,30.68,0,0,1-1.52-4.08,33.23,33.23,0,0,1-1.45-4.12,13.39,13.39,0,0,1,1.94,3.94A13.24,13.24,0,0,1,343.11,290.12Z" style="fill:#263238"></path><path d="M388.55,273.39a2.66,2.66,0,0,1,.44.88,3,3,0,0,1,.16,1.18,4.22,4.22,0,0,1-.46,1.5,12.08,12.08,0,0,1-2.36,3.23c-1.06,1.06-2.26,2.16-3.51,3.35s-2.47,2.29-3.57,3.33l-.25.23-.13-.3a35.24,35.24,0,0,0-2.42-4.84c-.71-1.11-1.31-1.61-1.27-1.66s.18.08.46.32a7.28,7.28,0,0,1,1.05,1.17,28.68,28.68,0,0,1,2.61,4.8l-.38-.07c1.1-1,2.29-2.18,3.55-3.36,2.48-2.37,4.93-4.35,5.89-6.37a3.78,3.78,0,0,0,.5-1.36,2.9,2.9,0,0,0-.07-1.09A8.53,8.53,0,0,1,388.55,273.39Z" style="fill:#263238"></path><path d="M375.18,280.29c.05,0-.55.64-1.27,1.87a43.46,43.46,0,0,0-2.46,5.27l-.14.34-.26-.27c-1-1-2.06-2.07-3.23-3.15-2.57-2.35-5-4.4-6.71-5.91-.86-.75-1.56-1.37-2-1.8a3.67,3.67,0,0,1-.69-.72,3.59,3.59,0,0,1,.82.56l2.14,1.68c1.78,1.44,4.24,3.44,6.82,5.81,1.18,1.08,2.28,2.16,3.23,3.19l-.4.07a33.61,33.61,0,0,1,2.66-5.23,8.51,8.51,0,0,1,1-1.33C375,280.39,375.17,280.27,375.18,280.29Z" style="fill:#263238"></path><path d="M391.13,346.45a7.46,7.46,0,0,1-1.32-.43c-.85-.31-2.05-.8-3.52-1.47a73.27,73.27,0,0,1-10.92-6.18,74,74,0,0,1-9.69-8c-1.14-1.13-2-2.07-2.62-2.75a6.82,6.82,0,0,1-.88-1.09,7.9,7.9,0,0,1,1,.95c.63.63,1.56,1.54,2.73,2.63a83.55,83.55,0,0,0,20.51,14.1c1.44.7,2.61,1.25,3.43,1.61A7.24,7.24,0,0,1,391.13,346.45Z" style="fill:#263238"></path><path d="M384.58,346.5a13,13,0,0,1-2.61-.74c-1.59-.53-3.76-1.34-6.11-2.36s-4.42-2-5.89-2.85a13.13,13.13,0,0,1-2.33-1.41,16,16,0,0,1,2.49,1.08c1.51.71,3.6,1.68,5.94,2.7s4.48,1.88,6,2.5A15.18,15.18,0,0,1,384.58,346.5Z" style="fill:#263238"></path><path d="M373.38,336.63a2.73,2.73,0,0,1-.06-.56c0-.42-.05-.95-.09-1.6-.06-1.39-.13-3.4-.18-5.88-.11-5-.14-11.84.06-19.42s.57-14.45.94-19.4c.18-2.48.34-4.49.48-5.87.07-.64.12-1.17.17-1.59a2.08,2.08,0,0,1,.09-.55,2.17,2.17,0,0,1,0,.56c0,.42,0,.95-.07,1.6-.08,1.46-.19,3.45-.32,5.87-.26,5-.59,11.81-.78,19.39s-.22,14.44-.21,19.41c0,2.42,0,4.42,0,5.88,0,.65,0,1.17,0,1.6A2.28,2.28,0,0,1,373.38,336.63Z" style="fill:#263238"></path><path d="M375.49,342.86a5.68,5.68,0,0,1-.33-2.4,5.8,5.8,0,0,1,.19-2.41,5.68,5.68,0,0,1,.33,2.4A5.8,5.8,0,0,1,375.49,342.86Z" style="fill:#263238"></path><path d="M384,317.29s-1.37-3.88-3-5.42-5.26-3.67-6.12-4.81-2.18-5.43-2.18-5.43L370,302s-.38,3.61-2.28,3.06l-1.78-2.39.68-10.06,1.89-2.64,6.47-.8,5.26.75,1.08,3.93s2.5,7.51,3.11,8.54,8.38,7.95,8.38,7.95" style="fill:#ffbe9d"></path><path d="M350.4,309.59s7.11-5.4,7.34-6.7,2.71-15.15,3-15.91a2,2,0,0,1,2.05-1.08c.76.11,8.88-2.06,8.88-2.06l8.87,1.3,3.81,3.68s-.13,1.84-1.64,1.19l1.27,2.87s-1.8,1-2.28.11l-.73,1.24a6.48,6.48,0,0,1-4.32-.65l-2.71-.65L370.73,294l-1.51,2.7s-.54,7.69-2.49,10.28-3.25,2.92-5.09,5.46-4.95,7.78-4.95,7.78h0a9.2,9.2,0,0,1-6.38-10Z" style="fill:#ffbe9d"></path><path d="M350.4,309.59a7.13,7.13,0,0,1-.06.78,10.26,10.26,0,0,0,.05,2.24,9.2,9.2,0,0,0,4.53,6.68,8.17,8.17,0,0,0,1.23.58l.34.12.16.06.09,0-.19.07h0v0l0,0,.38-.64,1.62-2.67c.57-.92,1.17-1.87,1.81-2.85a22.61,22.61,0,0,1,2.16-2.92c.84-.94,1.86-1.73,2.74-2.66a15.15,15.15,0,0,0,1.26-1.5,7.83,7.83,0,0,0,.88-1.76A36.4,36.4,0,0,0,369,296.7v-.06l0-.05c.47-.84,1-1.76,1.51-2.7l.05-.08.09,0,3.25-1.09.07,0,.07,0,2.71.64h0a7,7,0,0,0,4.14.64l-.14.11.73-1.24.24-.42.21.42c.17.36,1,.21,1.53,0a3.7,3.7,0,0,0,.4-.18l-.12.34-1.27-2.87-.27-.6.61.25a.81.81,0,0,0,.89,0,1.47,1.47,0,0,0,.39-.94l.08.21-3.81-3.68.14.06-8.87-1.31h.1c-2.68.69-5.25,1.37-7.76,1.89-.32.06-.63.12-1,.15s-.35,0-.49,0a2,2,0,0,0-.41.05,1.69,1.69,0,0,0-1.2,1c-.29,1.12-.51,2.32-.73,3.43-.86,4.48-1.61,8.44-2.23,11.74,0,.2-.08.41-.11.61l-.14.32-.18.26a7.39,7.39,0,0,1-.78.87c-.53.54-1.06,1-1.55,1.43-1,.86-1.87,1.56-2.58,2.12s-1.28,1-1.66,1.25l-.43.32-.16.09a5.37,5.37,0,0,1,.54-.47l1.61-1.32c.69-.58,1.55-1.29,2.52-2.16.49-.44,1-.91,1.52-1.44a7.62,7.62,0,0,0,.74-.86l.16-.23.1-.24.1-.61c.57-3.29,1.27-7.26,2.12-11.76.23-1.14.42-2.27.73-3.49a2.09,2.09,0,0,1,1.5-1.28,3,3,0,0,1,.52-.07,3.67,3.67,0,0,0,.45,0c.29,0,.6-.09.91-.15,2.48-.53,5.06-1.21,7.72-1.91l.05,0h.05l8.88,1.29h.08l.06.06,3.81,3.68.09.08v.12a2,2,0,0,1-.56,1.29,1.35,1.35,0,0,1-1.45.12l.34-.34c.43.94.85,1.9,1.28,2.87l.1.22-.22.11a4.28,4.28,0,0,1-.44.2,3.84,3.84,0,0,1-1.07.28,1.56,1.56,0,0,1-.6-.06.9.9,0,0,1-.51-.41H382l-.73,1.24-.06.1-.08,0a7.42,7.42,0,0,1-4.52-.66h.05l-2.71-.65h.14l-3.25,1.08.14-.12-1.52,2.7,0-.11a36.25,36.25,0,0,1-1.6,8.51c-.93,2.79-3.38,4.28-5,6.05a22.8,22.8,0,0,0-2.14,2.85c-.64,1-1.25,1.91-1.82,2.83l-1.65,2.65-.38.63,0,0,0,0h0l-.2.08-.09,0-.17-.06-.34-.13a8.43,8.43,0,0,1-1.28-.62,9.31,9.31,0,0,1-4.54-6.93,8.93,8.93,0,0,1,0-2.27c0-.26.07-.46.09-.58S350.39,309.59,350.4,309.59Z" style="fill:#eb996e"></path><path d="M382.75,290a27.71,27.71,0,0,1-3.44-2.75l.09.05-4.54-1.2-1.77-.48h.15c-2,.61-3.72,1.13-5,1.47a8.88,8.88,0,0,1-2,.46,10.11,10.11,0,0,1,1.93-.78c1.22-.43,2.94-1,4.92-1.63l.07,0,.07,0,1.77.48,4.51,1.27.06,0,0,0A29.48,29.48,0,0,1,382.75,290Z" style="fill:#eb996e"></path><path d="M381.74,293a19.08,19.08,0,0,1-2.35-2.44l.11.07c-1.31-.3-2.94-.7-4.7-1.15l-1.13-.29h.12c-2,.41-3.68.75-4.93,1a7.72,7.72,0,0,1-2,.26,8.86,8.86,0,0,1,1.94-.59c1.23-.31,2.94-.71,4.89-1.14l.06,0,.06,0,1.13.28c1.76.45,3.38.89,4.68,1.25l.07,0,0,0A17,17,0,0,1,381.74,293Z" style="fill:#eb996e"></path><g style="opacity:0.30000000000000004"><path d="M366,330s12.83,12.21,24.18,15.93c3.15,1-6.79-1.81-11.49-4.24-3-1.52-3.6-2.35-6.23-4.38s-5.17-4.06-6.46-7"></path></g><path d="M386.22,271.91l-.46-4.89s9.89-2.72,8.86-12.8c-.5-4.87-2.34-14.81-4.11-23.79a18.89,18.89,0,0,0-20.68-15.11l-1,.11c-10.41,1.81-14.68,11.66-12.58,22l5.52,34.71,13.63,7.09Z" style="fill:#ffbe9d"></path><path d="M385.84,267a24.63,24.63,0,0,1-13.64-2.35s3.94,6.89,13.88,4.83Z" style="fill:#eb996e"></path><path d="M388.94,238.5a1.45,1.45,0,0,1-1.22,1.61,1.4,1.4,0,0,1-1.63-1.13,1.45,1.45,0,0,1,1.22-1.61A1.37,1.37,0,0,1,388.94,238.5Z" style="fill:#263238"></path><path d="M388.91,235.6c-.16.21-1.34-.47-2.89-.29s-2.59,1.08-2.78.91.05-.43.51-.85a3.92,3.92,0,0,1,2.2-1,3.78,3.78,0,0,1,2.32.46C388.79,235.18,389,235.51,388.91,235.6Z" style="fill:#263238"></path><path d="M374.34,240.94a1.46,1.46,0,0,1-1.22,1.61,1.38,1.38,0,0,1-1.63-1.13,1.44,1.44,0,0,1,1.22-1.61A1.39,1.39,0,0,1,374.34,240.94Z" style="fill:#263238"></path><path d="M373.73,237.63c-.15.21-1.34-.47-2.88-.29s-2.6,1.09-2.79.92.05-.44.51-.85a3.92,3.92,0,0,1,2.2-1,3.85,3.85,0,0,1,2.32.47C373.61,237.22,373.81,237.54,373.73,237.63Z" style="fill:#263238"></path><path d="M380.66,248.46a11.19,11.19,0,0,1,2.46-.74c.39-.08.76-.21.8-.48a2,2,0,0,0-.4-1.14c-.48-.92-1-1.88-1.52-2.88-2.11-4.1-3.69-7.48-3.52-7.57s2,3.17,4.12,7.27c.52,1,1,2,1.47,2.9a2.27,2.27,0,0,1,.38,1.53,1,1,0,0,1-.58.65,3.39,3.39,0,0,1-.66.17A10,10,0,0,1,380.66,248.46Z" style="fill:#263238"></path><path d="M366,234.05c0-.45,1.45-.93,3-1.9s2.69-2.06,3.07-1.82c.17.12.11.59-.25,1.21a6.24,6.24,0,0,1-4.63,2.84C366.5,234.42,366.06,234.26,366,234.05Z" style="fill:#263238"></path><path d="M382.59,229.92c.33-.32,1.46.16,2.87.31s2.61,0,2.85.42c.1.19-.12.52-.67.81a4.3,4.3,0,0,1-2.39.34,4.16,4.16,0,0,1-2.22-.93C382.56,230.46,382.44,230.08,382.59,229.92Z" style="fill:#263238"></path><path d="M389,225.92s-3.38-6-6.59-7.13c-3.88-1.35-5,2.87-8.62,2.29s-7.34-1.89-10.61,1.24c-3.58,3.42-1.51,5.29-1.24,9.78,1.1,18.23-1.62,23.73-3.54,15.31-.21-.93-2.89-1.37-3.73-5.28-1.08-5.06-2-11.26-1.27-15,.62-3.18,2.12-5.49,5-8.18,4.52-4.25,11.31-5.11,16-5.18S388.52,218,389,225.92Z" style="fill:#263238"></path><path d="M359,247.06a2.75,2.75,0,0,0-3.25-2.3c-1.86.4-3.83,1.7-3.26,5.57,1,6.86,7.69,4.43,7.67,4.23S359.47,249.92,359,247.06Z" style="fill:#ffbe9d"></path><path d="M358.31,252.2s-.11.1-.3.22a1.2,1.2,0,0,1-.89.15,3,3,0,0,1-1.76-2.45,4.11,4.11,0,0,1,.09-1.76,1.4,1.4,0,0,1,.76-1.05.62.62,0,0,1,.75.23c.12.17.1.32.14.32s.13-.13,0-.41a.79.79,0,0,0-.33-.39.89.89,0,0,0-.69-.07,1.71,1.71,0,0,0-1.09,1.24,4.16,4.16,0,0,0-.13,2c.25,1.38,1.14,2.57,2.18,2.71a1.3,1.3,0,0,0,1.06-.34C358.32,252.37,358.33,252.21,358.31,252.2Z" style="fill:#eb996e"></path><path d="M390.05,218.36c-1.11-.74-2.57-.77-3.67-1.52-2-1.36-2.28-4.7-4.58-5.44-1.36-.44-2.83.28-4.26.21-2.32-.11-3.31-1.8-6.81-1.61a6.38,6.38,0,0,0-5.82,3.72,5.26,5.26,0,0,0-5.21.79,5.83,5.83,0,0,0-1.95,4.31s-.74-.32-2.83,1.52a11.32,11.32,0,0,0-2.73,5.34c-.61,2.57.64,5.17,1.85,7.52.66,1.27,1.46,2.66,2.84,3,1.68.46,3.42-.93,4-2.59s1.48-3.33,2.18-4.93c1.2-2.78,2.45-5.37,1.21-7a7.86,7.86,0,0,1,4.86-.31c1.61.44,3,1.37,4.65,1.84s3.6.32,4.6-1a3.39,3.39,0,0,0,5.24.83,4.73,4.73,0,0,0,6.29,1.39C391.85,223.08,392,219.68,390.05,218.36Z" style="fill:#263238"></path><path d="M353.26,231.61a9.11,9.11,0,0,1,.89,1.54,3.45,3.45,0,0,0,1.21,1.33,3,3,0,0,0,2.16.13,5.32,5.32,0,0,0,2-1,8.73,8.73,0,0,0,1.27-1.37,9.82,9.82,0,0,1,1.08-1.41,6.31,6.31,0,0,1-.84,1.58,7.45,7.45,0,0,1-1.27,1.5,5.33,5.33,0,0,1-2.16,1.1,3.34,3.34,0,0,1-2.44-.2,3.47,3.47,0,0,1-1.29-1.52A7,7,0,0,1,353.26,231.61Z" style="fill:#455a64"></path><path d="M353.82,236.93a6.11,6.11,0,0,0,1.41.68,4,4,0,0,0,1.66,0,4.61,4.61,0,0,0,1.85-.83,9.27,9.27,0,0,0,2.44-2.88,7.25,7.25,0,0,1,.87-1.36,5.65,5.65,0,0,1-.61,1.5,8.41,8.41,0,0,1-2.46,3.08,4.88,4.88,0,0,1-2,.87,4,4,0,0,1-1.8-.14A2.18,2.18,0,0,1,353.82,236.93Z" style="fill:#455a64"></path><path d="M354.3,240.87a6,6,0,0,0,1.38.49,4.19,4.19,0,0,0,3.26-.93,9.69,9.69,0,0,0,2.26-2.74,6.2,6.2,0,0,1,.82-1.27,4.76,4.76,0,0,1-.57,1.41,8.24,8.24,0,0,1-2.26,2.92,4.78,4.78,0,0,1-1.87.91,3.82,3.82,0,0,1-1.69,0C354.66,241.41,354.26,240.89,354.3,240.87Z" style="fill:#455a64"></path><path d="M383.76,253c0,.29-1.12.52-2.51.52s-2.52-.23-2.52-.52,1.13-.52,2.52-.52S383.76,252.71,383.76,253Z" style="fill:#263238"></path></g><g id="freepik--Board--inject-2"><rect x="408.54" y="60.38" width="251.6" height="150.66" style="fill:#455a64"></rect><rect x="416.56" y="67" width="236.87" height="137.25" style="fill:#263238"></rect><path d="M653.44,92.91c0,.14-53,.26-118.44.26s-118.44-.12-118.44-.26,53-.26,118.44-.26S653.44,92.77,653.44,92.91Z" style="fill:#455a64"></path><path d="M653.44,114.92c0,.15-53.18.26-118.75.26s-118.76-.11-118.76-.26,53.16-.26,118.76-.26S653.44,114.78,653.44,114.92Z" style="fill:#455a64"></path><path d="M480.91,82.4c0,.14-5.19.26-11.6.26s-11.6-.12-11.6-.26,5.2-.26,11.6-.26S480.91,82.25,480.91,82.4Z" style="fill:#fff"></path><path d="M502.93,82.42a54.76,54.76,0,0,1-10.66,0,54.76,54.76,0,0,1,10.66,0Z" style="fill:#fff"></path><path d="M566.15,82.42c0,.14-10.84.26-24.22.26s-24.23-.12-24.23-.26,10.85-.26,24.23-.26S566.15,82.28,566.15,82.42Z" style="fill:#fff"></path><path d="M597.73,81.47a2.63,2.63,0,0,1,4.56-1.62l-.71.65a1.54,1.54,0,0,0-1.2-.56,1.53,1.53,0,1,0,0,3.06,1.52,1.52,0,0,0,1.2-.57l.71.66a2.63,2.63,0,0,1-4.56-1.62Z" style="fill:#84CC16"></path><path d="M606.07,82.83h-2.21l-.42,1H602.3l2.13-4.78h1.09l2.14,4.78H606.5Zm-.34-.83L605,80.17,604.21,82Z" style="fill:#84CC16"></path><path d="M612.53,79.08v4.78h-.91L609.24,81v2.9h-1.09V79.08h.91l2.38,2.9v-2.9Z" style="fill:#84CC16"></path><path d="M613.35,81.47a2.63,2.63,0,0,1,4.56-1.62l-.71.65a1.53,1.53,0,0,0-1.2-.56A1.53,1.53,0,1,0,616,83a1.51,1.51,0,0,0,1.2-.57l.71.66a2.63,2.63,0,0,1-4.56-1.62Z" style="fill:#84CC16"></path><path d="M622.35,83v.89h-3.7V79.08h3.61V80h-2.51v1H622v.86h-2.21V83Z" style="fill:#84CC16"></path><path d="M623.22,79.08h1.11V83h2.39v.9h-3.5Z" style="fill:#84CC16"></path><path d="M627.34,79.08h1.1V83h2.4v.9h-3.5Z" style="fill:#84CC16"></path><path d="M635.15,83v.89h-3.7V79.08h3.61V80h-2.51v1h2.22v.86h-2.22V83Z" style="fill:#84CC16"></path><path d="M636,79.08h2.16a2.4,2.4,0,1,1,0,4.78H636ZM638.14,83a1.48,1.48,0,1,0,0-3h-1v3Z" style="fill:#84CC16"></path><path d="M480.91,104.07c0,.14-5.19.26-11.6.26s-11.6-.12-11.6-.26,5.2-.26,11.6-.26S480.91,103.92,480.91,104.07Z" style="fill:#fff"></path><path d="M502.93,104.09a54.76,54.76,0,0,1-10.66,0,54.76,54.76,0,0,1,10.66,0Z" style="fill:#fff"></path><path d="M566.15,104.09c0,.14-10.84.26-24.22.26s-24.23-.12-24.23-.26,10.85-.26,24.23-.26S566.15,104,566.15,104.09Z" style="fill:#fff"></path><path d="M597.73,103.14a2.63,2.63,0,0,1,4.56-1.62l-.71.65a1.54,1.54,0,0,0-1.2-.56,1.53,1.53,0,1,0,0,3.06,1.52,1.52,0,0,0,1.2-.57l.71.66a2.63,2.63,0,0,1-4.56-1.62Z" style="fill:#84CC16"></path><path d="M606.07,104.5h-2.21l-.42,1H602.3l2.13-4.78h1.09l2.14,4.78H606.5Zm-.34-.83-.76-1.83-.76,1.83Z" style="fill:#84CC16"></path><path d="M612.53,100.75v4.78h-.91l-2.38-2.9v2.9h-1.09v-4.78h.91l2.38,2.9v-2.9Z" style="fill:#84CC16"></path><path d="M613.35,103.14a2.63,2.63,0,0,1,4.56-1.62l-.71.65a1.53,1.53,0,0,0-1.2-.56,1.53,1.53,0,1,0,0,3.06,1.51,1.51,0,0,0,1.2-.57l.71.66a2.63,2.63,0,0,1-4.56-1.62Z" style="fill:#84CC16"></path><path d="M622.35,104.64v.89h-3.7v-4.78h3.61v.89h-2.51v1H622v.86h-2.21v1.1Z" style="fill:#84CC16"></path><path d="M623.22,100.75h1.11v3.88h2.39v.9h-3.5Z" style="fill:#84CC16"></path><path d="M627.34,100.75h1.1v3.88h2.4v.9h-3.5Z" style="fill:#84CC16"></path><path d="M635.15,104.64v.89h-3.7v-4.78h3.61v.89h-2.51v1h2.22v.86h-2.22v1.1Z" style="fill:#84CC16"></path><path d="M636,100.75h2.16a2.4,2.4,0,1,1,0,4.78H636Zm2.11,3.87a1.48,1.48,0,1,0,0-3h-1v3Z" style="fill:#84CC16"></path><path d="M480.91,125.74c0,.14-5.19.26-11.6.26s-11.6-.12-11.6-.26,5.2-.26,11.6-.26S480.91,125.59,480.91,125.74Z" style="fill:#fff"></path><path d="M502.93,125.76a54.76,54.76,0,0,1-10.66,0,54.76,54.76,0,0,1,10.66,0Z" style="fill:#fff"></path><path d="M566.15,125.76c0,.14-10.84.26-24.22.26s-24.23-.12-24.23-.26,10.85-.26,24.23-.26S566.15,125.62,566.15,125.76Z" style="fill:#fff"></path><path d="M597.73,124.81a2.63,2.63,0,0,1,4.56-1.62l-.71.65a1.54,1.54,0,0,0-1.2-.56,1.53,1.53,0,1,0,0,3.06,1.52,1.52,0,0,0,1.2-.57l.71.66a2.63,2.63,0,0,1-4.56-1.62Z" style="fill:#84CC16"></path><path d="M606.07,126.18h-2.21l-.42,1H602.3l2.13-4.78h1.09l2.14,4.78H606.5Zm-.34-.84-.76-1.83-.76,1.83Z" style="fill:#84CC16"></path><path d="M612.53,122.42v4.78h-.91l-2.38-2.9v2.9h-1.09v-4.78h.91l2.38,2.9v-2.9Z" style="fill:#84CC16"></path><path d="M613.35,124.81a2.63,2.63,0,0,1,4.56-1.62l-.71.65a1.53,1.53,0,0,0-1.2-.56,1.53,1.53,0,1,0,0,3.06,1.51,1.51,0,0,0,1.2-.57l.71.66a2.63,2.63,0,0,1-4.56-1.62Z" style="fill:#84CC16"></path><path d="M622.35,126.31v.89h-3.7v-4.78h3.61v.89h-2.51v1H622v.86h-2.21v1.1Z" style="fill:#84CC16"></path><path d="M623.22,122.42h1.11v3.88h2.39v.9h-3.5Z" style="fill:#84CC16"></path><path d="M627.34,122.42h1.1v3.88h2.4v.9h-3.5Z" style="fill:#84CC16"></path><path d="M635.15,126.31v.89h-3.7v-4.78h3.61v.89h-2.51v1h2.22v.86h-2.22v1.1Z" style="fill:#84CC16"></path><path d="M636,122.42h2.16a2.4,2.4,0,1,1,0,4.78H636Zm2.11,3.87a1.48,1.48,0,1,0,0-3h-1v3Z" style="fill:#84CC16"></path><path d="M480.91,147.41c0,.14-5.19.26-11.6.26s-11.6-.12-11.6-.26,5.2-.26,11.6-.26S480.91,147.26,480.91,147.41Z" style="fill:#fff"></path><path d="M502.93,147.43a54.76,54.76,0,0,1-10.66,0,54.76,54.76,0,0,1,10.66,0Z" style="fill:#fff"></path><path d="M566.15,147.43c0,.14-10.84.26-24.22.26s-24.23-.12-24.23-.26,10.85-.26,24.23-.26S566.15,147.28,566.15,147.43Z" style="fill:#fff"></path><path d="M597.73,146.48a2.63,2.63,0,0,1,4.56-1.62l-.71.65a1.54,1.54,0,0,0-1.2-.56,1.53,1.53,0,1,0,0,3.06,1.52,1.52,0,0,0,1.2-.57l.71.66a2.63,2.63,0,0,1-4.56-1.62Z" style="fill:#84CC16"></path><path d="M606.07,147.84h-2.21l-.42,1H602.3l2.13-4.78h1.09l2.14,4.78H606.5Zm-.34-.83-.76-1.83-.76,1.83Z" style="fill:#84CC16"></path><path d="M612.53,144.09v4.78h-.91l-2.38-2.9v2.9h-1.09v-4.78h.91l2.38,2.9v-2.9Z" style="fill:#84CC16"></path><path d="M613.35,146.48a2.63,2.63,0,0,1,4.56-1.62l-.71.65A1.53,1.53,0,0,0,616,145a1.53,1.53,0,1,0,0,3.06,1.51,1.51,0,0,0,1.2-.57l.71.66a2.63,2.63,0,0,1-4.56-1.62Z" style="fill:#84CC16"></path><path d="M622.35,148v.89h-3.7v-4.78h3.61V145h-2.51v1H622v.86h-2.21V148Z" style="fill:#84CC16"></path><path d="M623.22,144.09h1.11V148h2.39v.9h-3.5Z" style="fill:#84CC16"></path><path d="M627.34,144.09h1.1V148h2.4v.9h-3.5Z" style="fill:#84CC16"></path><path d="M635.15,148v.89h-3.7v-4.78h3.61V145h-2.51v1h2.22v.86h-2.22V148Z" style="fill:#84CC16"></path><path d="M636,144.09h2.16a2.4,2.4,0,1,1,0,4.78H636Zm2.11,3.87a1.48,1.48,0,1,0,0-3h-1v3Z" style="fill:#84CC16"></path><path d="M480.91,169.08c0,.14-5.19.26-11.6.26s-11.6-.12-11.6-.26,5.2-.26,11.6-.26S480.91,168.93,480.91,169.08Z" style="fill:#fff"></path><path d="M502.93,169.1a54.76,54.76,0,0,1-10.66,0,54.76,54.76,0,0,1,10.66,0Z" style="fill:#fff"></path><path d="M566.15,169.1c0,.14-10.84.26-24.22.26s-24.23-.12-24.23-.26,10.85-.26,24.23-.26S566.15,169,566.15,169.1Z" style="fill:#fff"></path><path d="M597.73,168.15a2.63,2.63,0,0,1,4.56-1.62l-.71.65a1.54,1.54,0,0,0-1.2-.56,1.53,1.53,0,1,0,0,3.06,1.52,1.52,0,0,0,1.2-.57l.71.66a2.63,2.63,0,0,1-4.56-1.62Z" style="fill:#84CC16"></path><path d="M606.07,169.51h-2.21l-.42,1H602.3l2.13-4.78h1.09l2.14,4.78H606.5Zm-.34-.83-.76-1.83-.76,1.83Z" style="fill:#84CC16"></path><path d="M612.53,165.76v4.78h-.91l-2.38-2.9v2.9h-1.09v-4.78h.91l2.38,2.9v-2.9Z" style="fill:#84CC16"></path><path d="M613.35,168.15a2.63,2.63,0,0,1,4.56-1.62l-.71.65a1.53,1.53,0,0,0-1.2-.56,1.53,1.53,0,1,0,0,3.06,1.51,1.51,0,0,0,1.2-.57l.71.66a2.63,2.63,0,0,1-4.56-1.62Z" style="fill:#84CC16"></path><path d="M622.35,169.65v.89h-3.7v-4.78h3.61v.89h-2.51v1H622v.86h-2.21v1.1Z" style="fill:#84CC16"></path><path d="M623.22,165.76h1.11v3.88h2.39v.9h-3.5Z" style="fill:#84CC16"></path><path d="M627.34,165.76h1.1v3.88h2.4v.9h-3.5Z" style="fill:#84CC16"></path><path d="M635.15,169.65v.89h-3.7v-4.78h3.61v.89h-2.51v1h2.22v.86h-2.22v1.1Z" style="fill:#84CC16"></path><path d="M636,165.76h2.16a2.4,2.4,0,1,1,0,4.78H636Zm2.11,3.87a1.48,1.48,0,1,0,0-3h-1v3Z" style="fill:#84CC16"></path><path d="M480.91,190.75c0,.14-5.19.26-11.6.26s-11.6-.12-11.6-.26,5.2-.26,11.6-.26S480.91,190.6,480.91,190.75Z" style="fill:#fff"></path><path d="M502.93,190.77a54.76,54.76,0,0,1-10.66,0,54.76,54.76,0,0,1,10.66,0Z" style="fill:#fff"></path><path d="M566.15,190.77c0,.14-10.84.26-24.22.26s-24.23-.12-24.23-.26,10.85-.26,24.23-.26S566.15,190.62,566.15,190.77Z" style="fill:#fff"></path><path d="M597.73,189.82a2.63,2.63,0,0,1,4.56-1.62l-.71.65a1.54,1.54,0,0,0-1.2-.56,1.53,1.53,0,1,0,0,3.06,1.52,1.52,0,0,0,1.2-.57l.71.66a2.63,2.63,0,0,1-4.56-1.62Z" style="fill:#84CC16"></path><path d="M606.07,191.18h-2.21l-.42,1H602.3l2.13-4.78h1.09l2.14,4.78H606.5Zm-.34-.84-.76-1.82-.76,1.82Z" style="fill:#84CC16"></path><path d="M612.53,187.43v4.78h-.91l-2.38-2.9v2.9h-1.09v-4.78h.91l2.38,2.9v-2.9Z" style="fill:#84CC16"></path><path d="M613.35,189.82a2.63,2.63,0,0,1,4.56-1.62l-.71.65a1.53,1.53,0,0,0-1.2-.56,1.53,1.53,0,1,0,0,3.06,1.51,1.51,0,0,0,1.2-.57l.71.66a2.63,2.63,0,0,1-4.56-1.62Z" style="fill:#84CC16"></path><path d="M622.35,191.32v.89h-3.7v-4.78h3.61v.89h-2.51v1H622v.86h-2.21v1.11Z" style="fill:#84CC16"></path><path d="M623.22,187.43h1.11v3.88h2.39v.9h-3.5Z" style="fill:#84CC16"></path><path d="M627.34,187.43h1.1v3.88h2.4v.9h-3.5Z" style="fill:#84CC16"></path><path d="M635.15,191.32v.89h-3.7v-4.78h3.61v.89h-2.51v1h2.22v.86h-2.22v1.11Z" style="fill:#84CC16"></path><path d="M636,187.43h2.16a2.4,2.4,0,1,1,0,4.78H636Zm2.11,3.87a1.48,1.48,0,1,0,0-3h-1v3Z" style="fill:#84CC16"></path><rect x="427.7" y="97.35" width="12.99" height="12.99" rx="5.56" style="fill:#455a64"></rect><path d="M653.44,138.27c0,.15-53.18.27-118.75.27s-118.76-.12-118.76-.27,53.16-.26,118.76-.26S653.44,138.13,653.44,138.27Z" style="fill:#455a64"></path><rect x="427.7" y="120.7" width="12.99" height="12.99" rx="5.56" style="fill:#455a64"></rect><path d="M653.44,158.26c0,.15-52.68.26-117.64.26s-117.64-.11-117.64-.26S470.82,158,535.8,158,653.44,158.12,653.44,158.26Z" style="fill:#455a64"></path><rect x="427.7" y="141.78" width="12.99" height="12.99" rx="5.56" style="fill:#455a64"></rect><path d="M653.44,180.64c0,.14-52.68.26-117.64.26s-117.64-.12-117.64-.26,52.66-.26,117.64-.26S653.44,180.49,653.44,180.64Z" style="fill:#455a64"></path><rect x="427.7" y="164.15" width="12.99" height="12.99" rx="5.56" style="fill:#455a64"></rect><rect x="427.7" y="186.52" width="12.99" height="12.99" rx="5.56" style="fill:#455a64"></rect><rect x="427.7" y="73.59" width="12.99" height="12.99" rx="5.56" style="fill:#455a64"></rect><rect x="443.59" y="28.24" width="19.98" height="35.01" style="fill:#455a64"></rect><rect x="598.55" y="28.24" width="19.98" height="35.01" style="fill:#455a64"></rect><path d="M660.14,60.38c0,.14-56.33.26-125.8.26s-125.8-.12-125.8-.26,56.31-.26,125.8-.26S660.14,60.23,660.14,60.38Z" style="fill:#263238"></path></g><g id="freepik--Sign--inject-2"><path d="M141.76,63.39c-.17,0-.3-9.49-.3-21.19s.13-21.19.3-21.19.29,9.49.29,21.19S141.92,63.39,141.76,63.39Z" style="fill:#263238"></path><path d="M284.47,64c-.16,0-.29-9.62-.29-21.49s.13-21.51.29-21.51.29,9.63.29,21.51S284.63,64,284.47,64Z" style="fill:#263238"></path><rect x="112.58" y="62.11" width="205.82" height="50.58" rx="7.29" style="fill:#84CC16"></rect><path d="M311.1,112.72H119.87a7.32,7.32,0,0,1-7.32-7.32v-36a7.32,7.32,0,0,1,7.32-7.31H311.1a7.32,7.32,0,0,1,7.32,7.31v36A7.32,7.32,0,0,1,311.1,112.72ZM119.87,62.14a7.27,7.27,0,0,0-7.27,7.26v36a7.28,7.28,0,0,0,7.27,7.27H311.1a7.28,7.28,0,0,0,7.27-7.27v-36a7.27,7.27,0,0,0-7.27-7.26Z" style="fill:#263238"></path><path d="M176.88,82.88H181c3.26,0,5.45,2.09,5.45,5.08s-2.19,5.09-5.45,5.09h-4.13ZM181,92.12c2.7,0,4.44-1.72,4.44-4.16s-1.74-4.15-4.44-4.15h-3v8.31Z" style="fill:#fafafa"></path><path d="M195.3,89.55h-6.39a2.83,2.83,0,0,0,3,2.65,3,3,0,0,0,2.34-1l.58.67a4,4,0,0,1-7-2.64,3.68,3.68,0,0,1,3.74-3.88,3.64,3.64,0,0,1,3.7,3.88C195.32,89.31,195.3,89.43,195.3,89.55Zm-6.39-.77h5.42a2.72,2.72,0,0,0-5.42,0Z" style="fill:#fafafa"></path><path d="M205.16,89.23a3.69,3.69,0,0,1-3.8,3.89,3.31,3.31,0,0,1-2.9-1.51v4.25h-1V85.41h1v1.51a3.33,3.33,0,0,1,3-1.57A3.69,3.69,0,0,1,205.16,89.23Zm-1,0a2.85,2.85,0,1,0-2.84,3A2.81,2.81,0,0,0,204.13,89.23Z" style="fill:#fafafa"></path><path d="M213,88.31v4.74h-1V91.86a2.86,2.86,0,0,1-2.63,1.26c-1.72,0-2.78-.9-2.78-2.22s.75-2.17,2.94-2.17H212v-.46c0-1.31-.74-2-2.16-2a3.88,3.88,0,0,0-2.54.9l-.47-.77a4.87,4.87,0,0,1,3.11-1C211.87,85.35,213,86.34,213,88.31Zm-1,2.44V89.5h-2.4c-1.48,0-2,.58-2,1.37s.71,1.44,1.93,1.44A2.45,2.45,0,0,0,212,90.75Z" style="fill:#fafafa"></path><path d="M219.64,85.35v1h-.25c-1.59,0-2.57,1-2.57,2.81v3.9h-1V85.41h1V86.9A2.89,2.89,0,0,1,219.64,85.35Z" style="fill:#fafafa"></path><path d="M225.86,92.58a2.49,2.49,0,0,1-1.61.54A2,2,0,0,1,222,90.9V86.28h-1.37v-.87H222V83.74h1v1.67h2.32v.87H223v4.56a1.22,1.22,0,0,0,1.32,1.39,1.71,1.71,0,0,0,1.13-.39Z" style="fill:#fafafa"></path><path d="M234.61,85.41v7.64h-1v-1.4a3.05,3.05,0,0,1-2.75,1.47,3,3,0,0,1-3.22-3.28V85.41h1v4.33A2.14,2.14,0,0,0,231,92.19a2.48,2.48,0,0,0,2.6-2.77v-4Z" style="fill:#fafafa"></path><path d="M241.35,85.35v1h-.25c-1.59,0-2.57,1-2.57,2.81v3.9h-1V85.41h1V86.9A2.89,2.89,0,0,1,241.35,85.35Z" style="fill:#fafafa"></path><path d="M249.79,89.55H243.4a2.82,2.82,0,0,0,3,2.65,3,3,0,0,0,2.34-1l.58.67a4,4,0,0,1-6.95-2.64,3.68,3.68,0,0,1,3.73-3.88,3.64,3.64,0,0,1,3.7,3.88C249.8,89.31,249.79,89.43,249.79,89.55Zm-6.39-.77h5.41a2.71,2.71,0,0,0-5.41,0Z" style="fill:#fafafa"></path><path d="M250.85,92.17l.46-.81a4.61,4.61,0,0,0,2.72.86c1.45,0,2-.5,2-1.25,0-2-4.95-.42-4.95-3.44,0-1.25,1.07-2.18,3-2.18a5.26,5.26,0,0,1,2.71.71l-.45.83a4,4,0,0,0-2.26-.65c-1.37,0-2,.53-2,1.26,0,2.06,5,.51,5,3.44,0,1.32-1.17,2.18-3.15,2.18A5.07,5.07,0,0,1,250.85,92.17Z" style="fill:#fafafa"></path><path d="M283.4,82.73h0a1.11,1.11,0,0,0,0,1.56l4.81,4.86-13.77-.08a1.11,1.11,0,0,0-1.11,1.1h0a1.1,1.1,0,0,0,1.1,1.1l13.77.07-4.86,4.81a1.1,1.1,0,0,0,0,1.56h0a1.1,1.1,0,0,0,1.55,0l7.53-7.45L285,82.74A1.1,1.1,0,0,0,283.4,82.73Z" style="fill:#fafafa"></path><rect x="128.19" y="96.38" width="28.44" height="2.07" style="fill:#fafafa"></rect><path d="M159.74,78.61a2.29,2.29,0,0,0-.58-.54,18.53,18.53,0,0,0-4.52-1c-2.47,0-4.31,1-6.37,2.18l-2.54,1.52h0l-8.94-1.53a.68.68,0,0,0-.42,0l-1.42.64a.45.45,0,0,0,0,.82l5.91,2.85a0,0,0,0,1,0,.08l-6.13,3.63-.09.06a5.33,5.33,0,0,1-3.83.57l-3.16-.71a.79.79,0,0,0-.48,0,.8.8,0,0,0-.28,1.35l3.55,3.26a2,2,0,0,0,2.06.37l1.76-.72,10-4.22,14.18-6C159.83,80.71,160.38,79.55,159.74,78.61Z" style="fill:#fafafa"></path><path d="M146.93,87.4l-4.21,1.76-.79,3.48a.32.32,0,0,0,.31.4h.42a1.66,1.66,0,0,0,1.39-.76Z" style="fill:#fafafa"></path></g><g id="freepik--suitcase-1--inject-2"><polygon points="267.86 352.61 262.86 352.61 262.86 257.68 241.51 257.68 241.51 352.61 236.51 352.61 236.51 252.68 267.86 252.68 267.86 352.61" style="fill:#e0e0e0"></polygon><path d="M267.86,352.61s0-.63,0-1.84,0-3,0-5.32c0-4.66,0-11.49-.06-20.21,0-17.42-.06-42.38-.11-72.56l.21.21-31.35,0,.24-.23c0,28.63,0,60.9,0,94.92v5l-.26-.26h5l-.26.26c0-34.3,0-66.57,0-94.93v-.23h21.8v.22c-.08,48.05-.14,82.65-.16,94.93l-.06-.05,3.73,0,1.27,0-1.24,0-3.76,0h-.05v-.05c0-12.28-.08-46.88-.16-94.93l.21.21-21.35,0,.23-.23c0,28.36,0,60.63,0,94.93v.26h-5.52V347.6c0-34,0-66.29,0-94.92v-.24h.23l31.35,0h.22v.22c-.05,30.24-.09,55.24-.11,72.7,0,8.69,0,15.51-.06,20.16,0,2.31,0,4.07,0,5.28S267.86,352.61,267.86,352.61Z" style="fill:#263238"></path><path d="M235.08,262v-7.27a3.1,3.1,0,0,1,3.1-3.1h28a3.1,3.1,0,0,1,3.1,3.1V262h-7.65v-3.89H242.86V262Z" style="fill:#263238"></path><path d="M240.78,307.45c0,.15-.81.26-1.8.26s-1.81-.11-1.81-.26.81-.26,1.81-.26S240.78,307.31,240.78,307.45Z" style="fill:#263238"></path><ellipse cx="238.98" cy="313.36" rx="1.8" ry="0.26" style="fill:#263238"></ellipse><circle cx="239.01" cy="305.87" r="0.53" style="fill:#263238"></circle><path d="M267.13,307.45c0,.15-.81.26-1.8.26s-1.81-.11-1.81-.26.81-.26,1.81-.26S267.13,307.31,267.13,307.45Z" style="fill:#263238"></path><path d="M267.13,313.36c0,.14-.81.26-1.8.26s-1.81-.12-1.81-.26.81-.26,1.81-.26S267.13,313.21,267.13,313.36Z" style="fill:#263238"></path><circle cx="265.36" cy="305.87" r="0.53" style="fill:#263238"></circle><path d="M265.07,353.13c-.36.19-1.3-1.32-3.38-3a14.54,14.54,0,0,0-18.92-.26c-2.12,1.66-3.11,3.14-3.46,2.95s.14-2,2.21-4.3a14.28,14.28,0,0,1,4.32-3.17,14.28,14.28,0,0,1,12.9.18,14.21,14.21,0,0,1,4.23,3.28C265,351.1,265.35,353,265.07,353.13Z" style="fill:#263238"></path><rect x="214.09" y="352.61" width="71.6" height="104.43" rx="10.26" style="fill:#84CC16"></rect><path d="M275.43,457a11.86,11.86,0,0,0,3.32-.61,10.3,10.3,0,0,0,6.41-6.75c.63-2,.35-4.4.41-7s0-5.37,0-8.38c0-6,0-12.85,0-20.41s0-15.86,0-24.75q0-6.68,0-13.79v-7.21c0-1.21,0-2.44,0-3.68a17.79,17.79,0,0,0-.21-3.66,10.06,10.06,0,0,0-7.34-7.66,14.62,14.62,0,0,0-3.82-.31H224.36a10,10,0,0,0-7.43,3.32,10.15,10.15,0,0,0-2.08,3.56,11.73,11.73,0,0,0-.5,4.1v16.6c0,10.89,0,21.39,0,31.39s0,19.51,0,28.41c0,2.22,0,4.41,0,6.55a10.2,10.2,0,0,0,1.86,5.81,10,10,0,0,0,4.64,3.58,9.77,9.77,0,0,0,2.8.62c.94.08,1.92,0,2.86.05l35.83.08L272,457l2.54,0,.86,0-.86,0-2.54,0-9.74.05-35.83.08c-1,0-1.9,0-2.89,0a10.19,10.19,0,0,1-2.91-.64,10.44,10.44,0,0,1-4.83-3.71,10.55,10.55,0,0,1-2-6v-6.56c0-8.9,0-18.4,0-28.41s0-20.5,0-31.39q0-8.16,0-16.6a12.17,12.17,0,0,1,.53-4.26,10.56,10.56,0,0,1,10-7.24h49.72a14.6,14.6,0,0,1,3.94.34,10.36,10.36,0,0,1,3.56,1.66,10.53,10.53,0,0,1,4.13,6.37,18.47,18.47,0,0,1,.22,3.76v3.68q0,3.66,0,7.21,0,7.11,0,13.79c0,8.89,0,17.18,0,24.75s0,14.4,0,20.41c0,3,0,5.81,0,8.38,0,1.29,0,2.52,0,3.69a11.24,11.24,0,0,1-.44,3.34,10.24,10.24,0,0,1-3,4.71,10,10,0,0,1-6,2.57Z" style="fill:#263238"></path><path d="M233.17,462.61a4.53,4.53,0,1,1-4.52-4.52A4.52,4.52,0,0,1,233.17,462.61Z" style="fill:#455a64"></path><path d="M214.09,385.68h-.21a5.27,5.27,0,0,1-5.28-5.28h0a5.27,5.27,0,0,1,5.28-5.27h.21Z" style="fill:#263238"></path><path d="M214.09,434.17h-.21a5.27,5.27,0,0,1-5.28-5.28h0a5.28,5.28,0,0,1,5.28-5.28h.21Z" style="fill:#263238"></path><polygon points="225.76 457.04 227.02 463.68 230.16 463.68 231.53 457.04 225.76 457.04" style="fill:#263238"></polygon><path d="M231,462.61a2.31,2.31,0,1,1-2.3-2.31A2.3,2.3,0,0,1,231,462.61Z" style="fill:#263238"></path><path d="M278.59,462.61a4.52,4.52,0,1,1-4.52-4.52A4.52,4.52,0,0,1,278.59,462.61Z" style="fill:#455a64"></path><polygon points="271.18 457.04 272.44 463.68 275.58 463.68 276.96 457.04 271.18 457.04" style="fill:#263238"></polygon><path d="M276.38,462.61a2.31,2.31,0,1,1-2.31-2.31A2.3,2.3,0,0,1,276.38,462.61Z" style="fill:#263238"></path><path d="M285.69,374.7c0,.14-16,.26-35.8.26s-35.8-.12-35.8-.26,16-.26,35.8-.26S285.69,374.56,285.69,374.7Z" style="fill:#263238"></path><path d="M285.69,372c0,.14-16,.26-35.8.26s-35.8-.12-35.8-.26,16-.26,35.8-.26S285.69,371.83,285.69,372Z" style="fill:#263238"></path><path d="M285.69,395.3c0,.15-16,.26-35.8.26s-35.8-.11-35.8-.26,16-.26,35.8-.26S285.69,395.16,285.69,395.3Z" style="fill:#263238"></path><path d="M285.69,392.58c0,.14-16,.26-35.8.26s-35.8-.12-35.8-.26,16-.26,35.8-.26S285.69,392.43,285.69,392.58Z" style="fill:#263238"></path><path d="M285.69,415.9c0,.15-16,.26-35.8.26s-35.8-.11-35.8-.26,16-.26,35.8-.26S285.69,415.76,285.69,415.9Z" style="fill:#263238"></path><path d="M285.69,413.18c0,.14-16,.26-35.8.26s-35.8-.12-35.8-.26,16-.26,35.8-.26S285.69,413,285.69,413.18Z" style="fill:#263238"></path><path d="M285.69,436.51c0,.14-16,.26-35.8.26s-35.8-.12-35.8-.26,16-.27,35.8-.27S285.69,436.36,285.69,436.51Z" style="fill:#263238"></path><path d="M285.69,433.78c0,.14-16,.26-35.8.26s-35.8-.12-35.8-.26,16-.26,35.8-.26S285.69,433.64,285.69,433.78Z" style="fill:#263238"></path><rect x="241.43" y="380.42" width="14.72" height="3.72" style="fill:#fff"></rect><path d="M256.18,384.16H241.4v-3.77h14.78Zm-14.73-.05h14.68v-3.67H241.45Z" style="fill:#263238"></path><g style="opacity:0.2"><rect x="214.09" y="371.98" width="71.6" height="1.7"></rect></g><g style="opacity:0.2"><rect x="214.09" y="392.49" width="71.6" height="1.7"></rect></g><g style="opacity:0.2"><rect x="214.09" y="412.98" width="71.6" height="1.7"></rect></g><g style="opacity:0.2"><rect x="214.09" y="433.47" width="71.6" height="1.7"></rect></g></g></svg>