<svg xmlns="http://www.w3.org/2000/svg" viewBox="0 0 500 500"><g id="freepik--background-simple--inject-10"><path d="M459.15,356.11c34-80.54,38.32-194.37-20.31-265.07-32.34-39-83.22-52-131.79-54.86-43.53-2.6-90.13-1.56-129.67,19-67,34.92-68.69,117.94-118.91,166.93C18,261.64,1.2,317.92,35.76,392s98.75,90.85,161.94,67.15,91.83-28.64,167.87-16.79c34.94,5.45,60.3-20.78,75.63-49C447.77,381.2,453.8,368.78,459.15,356.11Z" style="fill:#84CC16"></path><path d="M459.15,356.11c34-80.54,38.32-194.37-20.31-265.07-32.34-39-83.22-52-131.79-54.86-43.53-2.6-90.13-1.56-129.67,19-67,34.92-68.69,117.94-118.91,166.93C18,261.64,1.2,317.92,35.76,392s98.75,90.85,161.94,67.15,91.83-28.64,167.87-16.79c34.94,5.45,60.3-20.78,75.63-49C447.77,381.2,453.8,368.78,459.15,356.11Z" style="fill:#fff;opacity:0.7000000000000001"></path></g><g id="freepik--Clouds--inject-10"><path d="M266.69,54.15c-.21-.64-.42-1.28-.65-1.92-8.51-23.67-48.11-25.3-48.11,3.79,0,5.6-13.44,0-18.49,7.28s.56,11.76-6.16,14S186,73.94,177.6,74.5s-7.29,8.41-10.09,10.65-2.8,1.12-9,1.68-7.28,5-7.28,5H298.6s5.6-16.81-4.48-23S284,71.14,276.19,67.78C269.71,65,268.5,59.73,266.69,54.15Z" style="fill:none;stroke:#b2b2b2;stroke-linecap:round;stroke-linejoin:round"></path><path d="M271.78,85.74s3.05-9.43-4.44-16.37-15.26-3.05-17.48,0-2.22,8.88-5.82,9.44-2.78-6.11-10.55-4.44-4.71,9.43-8.32,11.09S221.56,81,216.57,83s-4.72,5.55-4.72,5.55" style="fill:none;stroke:#b2b2b2;stroke-linecap:round;stroke-linejoin:round"></path><path d="M231.93,66.89a14.05,14.05,0,0,0-14.21-1.23c-8,3.7-4.32,11.43-8,13.28s-5.56-.31-10.19,1.85S195.17,86,195.17,86" style="fill:none;stroke:#b2b2b2;stroke-linecap:round;stroke-linejoin:round"></path><path d="M92.7,254.79c-.11-.35-.23-.69-.35-1-4.6-12.79-26-13.67-26,2.05,0,3-7.27,0-10,3.93s.3,6.36-3.33,7.57-3.94-1.82-8.48-1.51-3.94,4.54-5.45,5.75-1.51.6-4.84.91-3.94,2.72-3.94,2.72H110s3-9.08-2.43-12.41-5.44,1.21-9.68-.61C94.34,260.65,93.68,257.8,92.7,254.79Z" style="fill:none;stroke:#b2b2b2;stroke-linecap:round;stroke-linejoin:round"></path><path d="M95.45,271.86A8.91,8.91,0,0,0,93.06,263c-4-3.75-8.25-1.65-9.45,0s-1.2,4.8-3.15,5.1-1.5-3.3-5.7-2.4-2.54,5.1-4.49,6-2-2.4-4.65-1.35-2.55,3-2.55,3" style="fill:none;stroke:#b2b2b2;stroke-linecap:round;stroke-linejoin:round"></path><path d="M73.92,261.67a7.6,7.6,0,0,0-7.68-.67c-4.34,2-2.33,6.18-4.34,7.18s-3-.16-5.51,1S54.06,272,54.06,272" style="fill:none;stroke:#b2b2b2;stroke-linecap:round;stroke-linejoin:round"></path><path d="M386.55,176.21c-.4-1.24-.82-2.49-1.27-3.74-16.61-46.18-93.86-49.36-93.86,7.39,0,10.93-26.23,0-36.07,14.2s1.1,23-12,27.33-14.21-6.56-30.6-5.47-14.21,16.4-19.68,20.77-5.46,2.19-17.48,3.28-14.21,9.84-14.21,9.84H448.81S459.74,217,440.07,205s-19.68,4.38-35-2.18C392.45,197.39,390.09,187.11,386.55,176.21Z" style="fill:none;stroke:#b2b2b2;stroke-linecap:round;stroke-linejoin:round"></path><path d="M279.56,243.26s-.54-7,9.21-10.82,9.74,8.12,16.78,4.87,1.08-18.41,16.24-21.66,13.53,9.75,20.57,8.67,7-12.46,11.37-18.41,19.48-13.53,34.1,0,8.66,31.94,8.66,31.94" style="fill:none;stroke:#b2b2b2;stroke-linecap:round;stroke-linejoin:round"></path><path d="M318.74,201.07A27.42,27.42,0,0,0,291,198.66c-15.68,7.23-8.44,22.3-15.68,25.92s-10.84-.6-19.88,3.61S247,238.44,247,238.44" style="fill:none;stroke:#b2b2b2;stroke-linecap:round;stroke-linejoin:round"></path></g><g id="freepik--Building--inject-10"><polygon points="472.57 466.35 461.82 347.8 189.78 347.8 188.51 466.35 472.57 466.35" style="fill:#84CC16;stroke:#263238;stroke-linecap:round;stroke-linejoin:round"></polygon><polygon points="465.22 385.27 189.38 385.27 189.68 356.84 462.64 356.84 465.22 385.27" style="fill:#84CC16;stroke:#263238;stroke-linecap:round;stroke-linejoin:round"></polygon><polygon points="464.38 375.98 189.47 375.98 189.78 347.8 461.82 347.8 464.38 375.98" style="fill:#263238;stroke:#263238;stroke-linecap:round;stroke-linejoin:round"></polygon><polygon points="193.35 466.35 196.13 137.96 151.39 137.96 140.58 466.35 193.35 466.35" style="fill:#84CC16;stroke:#263238;stroke-linecap:round;stroke-linejoin:round"></polygon><polygon points="195.47 215.7 148.83 215.7 150.92 152.3 196.01 152.3 195.47 215.7" style="fill:#84CC16;stroke:#263238;stroke-linecap:round;stroke-linejoin:round"></polygon><polygon points="195.51 211.84 148.96 211.84 150.92 152.3 196.01 152.3 195.51 211.84" style="fill:#84CC16;stroke:#263238;stroke-linecap:round;stroke-linejoin:round"></polygon><polygon points="199.52 200.18 145.43 200.18 147.11 152.3 199.82 152.3 199.52 200.18" style="fill:#84CC16;stroke:#263238;stroke-linecap:round;stroke-linejoin:round"></polygon><polygon points="192.55 200.18 152.4 200.18 153.9 152.3 193.03 152.3 192.55 200.18" style="fill:#84CC16;stroke:#263238;stroke-linecap:round;stroke-linejoin:round"></polygon><polygon points="190.42 159.26 156.47 159.26 155.49 192.37 190.04 192.37 190.42 159.26" style="fill:#fff;stroke:#263238;stroke-linecap:round;stroke-linejoin:round"></polygon><path d="M188.74,175.93a15.14,15.14,0,0,0-15.45-15.11c-8.63,0-15.83,6.74-16.07,15.11a15.11,15.11,0,0,0,15.44,15.36C181.43,191.29,188.63,184.38,188.74,175.93Z" style="fill:#fff;stroke:#263238;stroke-linecap:round;stroke-linejoin:round"></path><path d="M183,175.93a9.58,9.58,0,0,0-9.78-9.59A10.05,10.05,0,0,0,163,175.93a9.56,9.56,0,0,0,9.77,9.69A10.05,10.05,0,0,0,183,175.93Z" style="fill:none;stroke:#0b0b0b;stroke-linejoin:round;stroke-width:0.5px"></path><line x1="173.29" y1="160.82" x2="173.17" y2="166.34" style="fill:none;stroke:#0b0b0b;stroke-linejoin:round;stroke-width:0.5px"></line><line x1="172.78" y1="185.62" x2="172.66" y2="191.29" style="fill:none;stroke:#0b0b0b;stroke-linejoin:round;stroke-width:0.5px"></line><line x1="188.74" y1="175.93" x2="182.95" y2="175.93" style="fill:none;stroke:#0b0b0b;stroke-linejoin:round;stroke-width:0.5px"></line><line x1="163.01" y1="175.93" x2="157.22" y2="175.93" style="fill:none;stroke:#0b0b0b;stroke-linejoin:round;stroke-width:0.5px"></line><line x1="182.09" y1="163.45" x2="178.75" y2="168.02" style="fill:none;stroke:#0b0b0b;stroke-linejoin:round;stroke-width:0.5px"></line><line x1="167.15" y1="183.91" x2="163.74" y2="188.58" style="fill:none;stroke:#0b0b0b;stroke-linejoin:round;stroke-width:0.5px"></line><line x1="186.88" y1="168.61" x2="181.78" y2="171.29" style="fill:none;stroke:#0b0b0b;stroke-linejoin:round;stroke-width:0.5px"></line><line x1="164.13" y1="180.59" x2="158.97" y2="183.31" style="fill:none;stroke:#0b0b0b;stroke-linejoin:round;stroke-width:0.5px"></line><line x1="187.45" y1="181.81" x2="182.12" y2="179.65" style="fill:none;stroke:#0b0b0b;stroke-linejoin:round;stroke-width:0.5px"></line><line x1="163.87" y1="172.23" x2="158.6" y2="170.08" style="fill:none;stroke:#0b0b0b;stroke-linejoin:round;stroke-width:0.5px"></line><line x1="182.09" y1="188.3" x2="178.73" y2="183.74" style="fill:none;stroke:#0b0b0b;stroke-linejoin:round;stroke-width:0.5px"></line><line x1="167.27" y1="168.19" x2="163.98" y2="163.72" style="fill:none;stroke:#0b0b0b;stroke-linejoin:round;stroke-width:0.5px"></line><line x1="175.72" y1="177.79" x2="161.32" y2="168.02" style="fill:none;stroke:#0b0b0b;stroke-linejoin:round;stroke-width:0.5px"></line><line x1="171.94" y1="178.34" x2="175.84" y2="171.29" style="fill:none;stroke:#0b0b0b;stroke-linejoin:round;stroke-width:0.5px"></line><polygon points="199.96 131.33 147.84 131.33 147.61 137.96 199.92 137.96 199.96 131.33" style="fill:#84CC16;stroke:#263238;stroke-linecap:round;stroke-linejoin:round"></polygon><path d="M187.06,108.81H162.15c-1.21,4.49-6.44,16.28-10,22.52h44v-.2C192.8,124.91,188.08,113.25,187.06,108.81Z" style="fill:#c4c4c4;stroke:#263238;stroke-linecap:round;stroke-linejoin:round"></path><polygon points="187.6 105.23 161.67 105.23 161.57 108.81 187.55 108.81 187.6 105.23" style="fill:#fff;stroke:#263238;stroke-linecap:round;stroke-linejoin:round"></polygon><polygon points="187.89 83.75 162.27 83.75 162.18 87.09 187.84 87.09 187.89 83.75" style="fill:#84CC16;stroke:#263238;stroke-linecap:round;stroke-linejoin:round"></polygon><polygon points="186.62 87.09 163.07 87.09 162.57 105.23 186.37 105.23 186.62 87.09" style="fill:#84CC16;stroke:#263238;stroke-linecap:round;stroke-linejoin:round"></polygon><path d="M176.2,44.43h-.6A184.18,184.18,0,0,1,163.16,83.6h23.51A180.78,180.78,0,0,1,176.2,44.43Z" style="fill:#c4c4c4;stroke:#263238;stroke-linecap:round;stroke-linejoin:round"></path><polygon points="169.08 119.56 165.99 119.56 166.13 114.05 167.7 112.89 169.21 114.05 169.08 119.56" style="fill:#fff;stroke:#263238;stroke-linecap:round;stroke-linejoin:round"></polygon><polygon points="175.89 119.56 172.79 119.56 172.91 114.05 174.48 112.89 176 114.05 175.89 119.56" style="fill:#fff;stroke:#263238;stroke-linecap:round;stroke-linejoin:round"></polygon><polygon points="182.69 119.56 179.6 119.56 179.7 114.05 181.26 112.89 182.78 114.05 182.69 119.56" style="fill:#fff;stroke:#263238;stroke-linecap:round;stroke-linejoin:round"></polygon><polygon points="170.25 103.81 167.75 103.81 167.98 94.22 169.27 92.22 170.47 94.22 170.25 103.81" style="fill:#263238;stroke:#263238;stroke-linecap:round;stroke-linejoin:round"></polygon><polygon points="175.75 103.81 173.25 103.81 173.45 94.22 174.74 92.22 175.94 94.22 175.75 103.81" style="fill:#263238;stroke:#263238;stroke-linecap:round;stroke-linejoin:round"></polygon><polygon points="181.25 103.81 178.75 103.81 178.92 94.22 180.2 92.22 181.41 94.22 181.25 103.81" style="fill:#263238;stroke:#263238;stroke-linecap:round;stroke-linejoin:round"></polygon><polygon points="165.5 128.8 162.39 128.8 162.54 123.23 164.12 122.06 165.64 123.23 165.5 128.8" style="fill:#fff;stroke:#263238;stroke-linecap:round;stroke-linejoin:round"></polygon><polygon points="172.34 128.8 169.23 128.8 169.36 123.23 170.94 122.06 172.46 123.23 172.34 128.8" style="fill:#fff;stroke:#263238;stroke-linecap:round;stroke-linejoin:round"></polygon><polygon points="179.19 128.8 176.08 128.8 176.19 123.23 177.76 122.06 179.28 123.23 179.19 128.8" style="fill:#fff;stroke:#263238;stroke-linecap:round;stroke-linejoin:round"></polygon><polygon points="185.91 128.8 182.8 128.8 182.89 123.23 184.46 122.06 185.99 123.23 185.91 128.8" style="fill:#fff;stroke:#263238;stroke-linecap:round;stroke-linejoin:round"></polygon><polygon points="158.5 150.27 155.12 150.27 155.45 139.5 158.81 139.5 158.5 150.27" style="fill:#263238;stroke:#263238;stroke-linecap:round;stroke-linejoin:round"></polygon><polygon points="165.18 150.27 161.8 150.27 162.09 139.5 165.45 139.5 165.18 150.27" style="fill:#263238;stroke:#263238;stroke-linecap:round;stroke-linejoin:round"></polygon><polygon points="171.86 150.27 168.48 150.27 168.73 139.5 172.09 139.5 171.86 150.27" style="fill:#263238;stroke:#263238;stroke-linecap:round;stroke-linejoin:round"></polygon><polygon points="178.54 150.27 175.16 150.27 175.37 139.5 178.73 139.5 178.54 150.27" style="fill:#263238;stroke:#263238;stroke-linecap:round;stroke-linejoin:round"></polygon><polygon points="185.22 150.27 181.84 150.27 182.01 139.5 185.37 139.5 185.22 150.27" style="fill:#263238;stroke:#263238;stroke-linecap:round;stroke-linejoin:round"></polygon><polygon points="191.89 150.27 188.51 150.27 188.65 139.5 192.01 139.5 191.89 150.27" style="fill:#263238;stroke:#263238;stroke-linecap:round;stroke-linejoin:round"></polygon><polygon points="156.73 211.67 153.24 211.67 153.59 200.18 157.06 200.18 156.73 211.67" style="fill:#263238;stroke:#263238;stroke-linecap:round;stroke-linejoin:round"></polygon><polygon points="163.63 211.67 160.14 211.67 160.45 200.18 163.92 200.18 163.63 211.67" style="fill:#263238;stroke:#263238;stroke-linecap:round;stroke-linejoin:round"></polygon><polygon points="170.53 211.67 167.04 211.67 167.31 200.18 170.78 200.18 170.53 211.67" style="fill:#263238;stroke:#263238;stroke-linecap:round;stroke-linejoin:round"></polygon><polygon points="177.43 211.67 173.94 211.67 174.17 200.18 177.64 200.18 177.43 211.67" style="fill:#263238;stroke:#263238;stroke-linecap:round;stroke-linejoin:round"></polygon><polygon points="184.34 211.67 180.84 211.67 181.03 200.18 184.5 200.18 184.34 211.67" style="fill:#263238;stroke:#263238;stroke-linecap:round;stroke-linejoin:round"></polygon><polygon points="191.24 211.67 187.74 211.67 187.89 200.18 191.36 200.18 191.24 211.67" style="fill:#263238;stroke:#263238;stroke-linecap:round;stroke-linejoin:round"></polygon><polygon points="155.59 251.15 152.03 251.15 153.04 218.18 156.54 218.18 155.59 251.15" style="fill:#84CC16;stroke:#263238;stroke-linecap:round;stroke-linejoin:round"></polygon><polygon points="162.64 251.15 159.07 251.15 159.96 218.18 163.47 218.18 162.64 251.15" style="fill:#84CC16;stroke:#263238;stroke-linecap:round;stroke-linejoin:round"></polygon><polygon points="169.68 251.15 166.12 251.15 166.89 218.18 170.39 218.18 169.68 251.15" style="fill:#84CC16;stroke:#263238;stroke-linecap:round;stroke-linejoin:round"></polygon><polygon points="176.72 251.15 173.16 251.15 173.81 218.18 177.32 218.18 176.72 251.15" style="fill:#84CC16;stroke:#263238;stroke-linecap:round;stroke-linejoin:round"></polygon><polygon points="183.77 251.15 180.2 251.15 180.74 218.18 184.24 218.18 183.77 251.15" style="fill:#84CC16;stroke:#263238;stroke-linecap:round;stroke-linejoin:round"></polygon><polygon points="190.81 251.15 187.25 251.15 187.66 218.18 191.17 218.18 190.81 251.15" style="fill:#84CC16;stroke:#263238;stroke-linecap:round;stroke-linejoin:round"></polygon><polygon points="155.29 261.65 151.71 261.65 151.97 253.08 155.54 253.08 155.29 261.65" style="fill:#84CC16;stroke:#263238;stroke-linecap:round;stroke-linejoin:round"></polygon><polygon points="162.37 261.65 158.79 261.65 159.02 253.08 162.59 253.08 162.37 261.65" style="fill:#84CC16;stroke:#263238;stroke-linecap:round;stroke-linejoin:round"></polygon><polygon points="169.45 261.65 165.87 261.65 166.07 253.08 169.64 253.08 169.45 261.65" style="fill:#84CC16;stroke:#263238;stroke-linecap:round;stroke-linejoin:round"></polygon><polygon points="176.54 261.65 172.95 261.65 173.12 253.08 176.69 253.08 176.54 261.65" style="fill:#84CC16;stroke:#263238;stroke-linecap:round;stroke-linejoin:round"></polygon><polygon points="183.62 261.65 180.03 261.65 180.17 253.08 183.74 253.08 183.62 261.65" style="fill:#84CC16;stroke:#263238;stroke-linecap:round;stroke-linejoin:round"></polygon><polygon points="190.7 261.65 187.12 261.65 187.22 253.08 190.79 253.08 190.7 261.65" style="fill:#84CC16;stroke:#263238;stroke-linecap:round;stroke-linejoin:round"></polygon><polygon points="153.88 310.55 150.21 310.55 150.48 301.54 154.14 301.54 153.88 310.55" style="fill:#84CC16;stroke:#263238;stroke-linecap:round;stroke-linejoin:round"></polygon><polygon points="161.14 310.55 157.47 310.55 157.71 301.54 161.37 301.54 161.14 310.55" style="fill:#84CC16;stroke:#263238;stroke-linecap:round;stroke-linejoin:round"></polygon><polygon points="168.4 310.55 164.72 310.55 164.94 301.54 168.59 301.54 168.4 310.55" style="fill:#84CC16;stroke:#263238;stroke-linecap:round;stroke-linejoin:round"></polygon><polygon points="175.66 310.55 171.98 310.55 172.16 301.54 175.82 301.54 175.66 310.55" style="fill:#84CC16;stroke:#263238;stroke-linecap:round;stroke-linejoin:round"></polygon><polygon points="182.92 310.55 179.24 310.55 179.39 301.54 183.05 301.54 182.92 310.55" style="fill:#84CC16;stroke:#263238;stroke-linecap:round;stroke-linejoin:round"></polygon><polygon points="190.18 310.55 186.5 310.55 186.62 301.54 190.27 301.54 190.18 310.55" style="fill:#84CC16;stroke:#263238;stroke-linecap:round;stroke-linejoin:round"></polygon><polygon points="154.2 299.51 150.54 299.51 151.65 263.6 155.23 263.6 154.2 299.51" style="fill:#84CC16;stroke:#263238;stroke-linecap:round;stroke-linejoin:round"></polygon><polygon points="161.42 299.51 157.76 299.51 158.74 263.6 162.32 263.6 161.42 299.51" style="fill:#84CC16;stroke:#263238;stroke-linecap:round;stroke-linejoin:round"></polygon><polygon points="168.64 299.51 164.98 299.51 165.82 263.6 169.41 263.6 168.64 299.51" style="fill:#84CC16;stroke:#263238;stroke-linecap:round;stroke-linejoin:round"></polygon><polygon points="175.86 299.51 172.2 299.51 172.91 263.6 176.5 263.6 175.86 299.51" style="fill:#84CC16;stroke:#263238;stroke-linecap:round;stroke-linejoin:round"></polygon><polygon points="183.07 299.51 179.42 299.51 180 263.6 183.59 263.6 183.07 299.51" style="fill:#84CC16;stroke:#263238;stroke-linecap:round;stroke-linejoin:round"></polygon><polygon points="190.29 299.51 186.64 299.51 187.09 263.6 190.68 263.6 190.29 299.51" style="fill:#84CC16;stroke:#263238;stroke-linecap:round;stroke-linejoin:round"></polygon><polygon points="152.73 350.34 148.99 350.34 150.14 312.6 153.82 312.6 152.73 350.34" style="fill:#84CC16;stroke:#263238;stroke-linecap:round;stroke-linejoin:round"></polygon><polygon points="160.14 350.34 156.39 350.34 157.41 312.6 161.09 312.6 160.14 350.34" style="fill:#84CC16;stroke:#263238;stroke-linecap:round;stroke-linejoin:round"></polygon><polygon points="167.54 350.34 163.79 350.34 164.68 312.6 168.35 312.6 167.54 350.34" style="fill:#84CC16;stroke:#263238;stroke-linecap:round;stroke-linejoin:round"></polygon><polygon points="174.94 350.34 171.2 350.34 171.94 312.6 175.62 312.6 174.94 350.34" style="fill:#84CC16;stroke:#263238;stroke-linecap:round;stroke-linejoin:round"></polygon><polygon points="182.35 350.34 178.6 350.34 179.21 312.6 182.89 312.6 182.35 350.34" style="fill:#84CC16;stroke:#263238;stroke-linecap:round;stroke-linejoin:round"></polygon><polygon points="189.75 350.34 186 350.34 186.48 312.6 190.15 312.6 189.75 350.34" style="fill:#84CC16;stroke:#263238;stroke-linecap:round;stroke-linejoin:round"></polygon><polygon points="150.84 415.97 146.97 415.97 147.28 405.99 151.13 405.99 150.84 415.97" style="fill:#84CC16;stroke:#263238;stroke-linecap:round;stroke-linejoin:round"></polygon><polygon points="158.48 415.97 154.62 415.97 154.88 405.99 158.73 405.99 158.48 415.97" style="fill:#84CC16;stroke:#263238;stroke-linecap:round;stroke-linejoin:round"></polygon><polygon points="166.12 415.97 162.26 415.97 162.49 405.99 166.34 405.99 166.12 415.97" style="fill:#84CC16;stroke:#263238;stroke-linecap:round;stroke-linejoin:round"></polygon><polygon points="173.76 415.97 169.9 415.97 170.09 405.99 173.94 405.99 173.76 415.97" style="fill:#84CC16;stroke:#263238;stroke-linecap:round;stroke-linejoin:round"></polygon><polygon points="181.41 415.97 177.54 415.97 177.7 405.99 181.55 405.99 181.41 415.97" style="fill:#84CC16;stroke:#263238;stroke-linecap:round;stroke-linejoin:round"></polygon><polygon points="189.05 415.97 185.18 415.97 185.3 405.99 189.15 405.99 189.05 415.97" style="fill:#84CC16;stroke:#263238;stroke-linecap:round;stroke-linejoin:round"></polygon><polygon points="149.57 460.1 145.62 460.1 146.91 418.24 150.78 418.24 149.57 460.1" style="fill:#84CC16;stroke:#263238;stroke-linecap:round;stroke-linejoin:round"></polygon><polygon points="157.37 460.1 153.42 460.1 154.55 418.24 158.43 418.24 157.37 460.1" style="fill:#84CC16;stroke:#263238;stroke-linecap:round;stroke-linejoin:round"></polygon><polygon points="165.17 460.1 161.22 460.1 162.2 418.24 166.07 418.24 165.17 460.1" style="fill:#84CC16;stroke:#263238;stroke-linecap:round;stroke-linejoin:round"></polygon><polygon points="172.97 460.1 169.02 460.1 169.85 418.24 173.72 418.24 172.97 460.1" style="fill:#84CC16;stroke:#263238;stroke-linecap:round;stroke-linejoin:round"></polygon><polygon points="180.77 460.1 176.82 460.1 177.5 418.24 181.37 418.24 180.77 460.1" style="fill:#84CC16;stroke:#263238;stroke-linecap:round;stroke-linejoin:round"></polygon><polygon points="188.57 460.1 184.62 460.1 185.15 418.24 189.02 418.24 188.57 460.1" style="fill:#84CC16;stroke:#263238;stroke-linecap:round;stroke-linejoin:round"></polygon><polygon points="152.25 367.13 148.47 367.13 148.92 352.5 152.67 352.5 152.25 367.13" style="fill:#84CC16;stroke:#263238;stroke-linecap:round;stroke-linejoin:round"></polygon><polygon points="159.71 367.13 155.94 367.13 156.33 352.5 160.08 352.5 159.71 367.13" style="fill:#84CC16;stroke:#263238;stroke-linecap:round;stroke-linejoin:round"></polygon><polygon points="167.18 367.13 163.4 367.13 163.74 352.5 167.49 352.5 167.18 367.13" style="fill:#84CC16;stroke:#263238;stroke-linecap:round;stroke-linejoin:round"></polygon><polygon points="174.64 367.13 170.86 367.13 171.15 352.5 174.9 352.5 174.64 367.13" style="fill:#84CC16;stroke:#263238;stroke-linecap:round;stroke-linejoin:round"></polygon><polygon points="182.1 367.13 178.33 367.13 178.56 352.5 182.31 352.5 182.1 367.13" style="fill:#84CC16;stroke:#263238;stroke-linecap:round;stroke-linejoin:round"></polygon><polygon points="189.57 367.13 185.79 367.13 185.97 352.5 189.73 352.5 189.57 367.13" style="fill:#84CC16;stroke:#263238;stroke-linecap:round;stroke-linejoin:round"></polygon><polygon points="151.19 403.86 147.34 403.86 148.41 369.3 152.19 369.3 151.19 403.86" style="fill:#84CC16;stroke:#263238;stroke-linecap:round;stroke-linejoin:round"></polygon><polygon points="158.79 403.86 154.94 403.86 155.88 369.3 159.66 369.3 158.79 403.86" style="fill:#84CC16;stroke:#263238;stroke-linecap:round;stroke-linejoin:round"></polygon><polygon points="166.38 403.86 162.54 403.86 163.35 369.3 167.13 369.3 166.38 403.86" style="fill:#84CC16;stroke:#263238;stroke-linecap:round;stroke-linejoin:round"></polygon><polygon points="173.98 403.86 170.14 403.86 170.82 369.3 174.6 369.3 173.98 403.86" style="fill:#84CC16;stroke:#263238;stroke-linecap:round;stroke-linejoin:round"></polygon><polygon points="181.58 403.86 177.73 403.86 178.29 369.3 182.07 369.3 181.58 403.86" style="fill:#84CC16;stroke:#263238;stroke-linecap:round;stroke-linejoin:round"></polygon><polygon points="189.18 403.86 185.33 403.86 185.76 369.3 189.55 369.3 189.18 403.86" style="fill:#84CC16;stroke:#263238;stroke-linecap:round;stroke-linejoin:round"></polygon><polygon points="176.48 35.82 175.76 35.82 175.57 45.4 176.28 45.4 176.48 35.82" style="fill:#625d40"></polygon><polygon points="179.94 40.92 179.95 40.28 172.11 40.28 172.1 40.92 179.94 40.92" style="fill:#625d40"></polygon><polygon points="176.29 59.84 174.72 59.84 174.78 57.13 175.57 56.57 176.34 57.13 176.29 59.84" style="fill:#fff;stroke:#263238;stroke-linecap:round;stroke-linejoin:round"></polygon><polygon points="175.89 79.51 174.31 79.51 174.36 76.75 175.17 76.17 175.94 76.75 175.89 79.51" style="fill:#fff;stroke:#263238;stroke-linecap:round;stroke-linejoin:round"></polygon><polygon points="170.76 79.51 169.18 79.51 169.24 76.75 170.05 76.17 170.82 76.75 170.76 79.51" style="fill:#fff;stroke:#263238;stroke-linecap:round;stroke-linejoin:round"></polygon><polygon points="180.99 79.51 179.41 79.51 179.46 76.75 180.26 76.17 181.04 76.75 180.99 79.51" style="fill:#fff;stroke:#263238;stroke-linecap:round;stroke-linejoin:round"></polygon><polygon points="173.44 70.75 171.86 70.75 171.93 68.01 172.72 67.44 173.5 68.01 173.44 70.75" style="fill:#fff;stroke:#263238;stroke-linecap:round;stroke-linejoin:round"></polygon><polygon points="178.69 70.75 177.12 70.75 177.17 68.01 177.97 67.44 178.74 68.01 178.69 70.75" style="fill:#fff;stroke:#263238;stroke-linecap:round;stroke-linejoin:round"></polygon><polygon points="225.55 466.35 224.85 357.92 218.95 357.92 219.34 466.35 225.55 466.35" style="fill:#84CC16;stroke:#263238;stroke-linecap:round;stroke-linejoin:round"></polygon><polygon points="223.35 351.05 220.45 351.05 220.47 353.69 223.37 353.69 223.35 351.05" style="fill:#84CC16;stroke:#263238;stroke-linecap:round;stroke-linejoin:round"></polygon><polygon points="223.26 341.75 220.38 341.75 221.22 344.37 222.35 344.37 223.26 341.75" style="fill:#84CC16;stroke:#263238;stroke-linecap:round;stroke-linejoin:round"></polygon><polygon points="223.97 353.16 219.86 353.16 219.87 355.81 223.98 355.81 223.97 353.16" style="fill:#84CC16;stroke:#263238;stroke-linecap:round;stroke-linejoin:round"></polygon><polygon points="224.88 354.96 218.97 354.96 218.97 357.19 224.9 357.19 224.88 354.96" style="fill:#84CC16;stroke:#263238;stroke-linecap:round;stroke-linejoin:round"></polygon><polygon points="225.6 357.08 218.27 357.08 218.28 359.1 225.61 359.1 225.6 357.08" style="fill:#84CC16;stroke:#263238;stroke-linecap:round;stroke-linejoin:round"></polygon><polygon points="222.12 336.8 221.47 336.8 221.54 351.02 222.2 351.02 222.12 336.8" style="fill:#84CC16;stroke:#263238;stroke-linecap:round;stroke-linejoin:round"></polygon><polygon points="260.09 466.35 257.66 357.92 251.76 357.92 253.88 466.35 260.09 466.35" style="fill:#84CC16;stroke:#263238;stroke-linecap:round;stroke-linejoin:round"></polygon><polygon points="256.05 351.05 253.15 351.05 253.2 353.69 256.11 353.69 256.05 351.05" style="fill:#84CC16;stroke:#263238;stroke-linecap:round;stroke-linejoin:round"></polygon><polygon points="255.81 341.75 252.92 341.75 253.81 344.37 254.94 344.37 255.81 341.75" style="fill:#84CC16;stroke:#263238;stroke-linecap:round;stroke-linejoin:round"></polygon><polygon points="256.7 353.16 252.59 353.16 252.65 355.81 256.76 355.81 256.7 353.16" style="fill:#84CC16;stroke:#263238;stroke-linecap:round;stroke-linejoin:round"></polygon><polygon points="257.64 354.96 251.73 354.96 251.77 357.19 257.69 357.19 257.64 354.96" style="fill:#84CC16;stroke:#263238;stroke-linecap:round;stroke-linejoin:round"></polygon><polygon points="258.39 357.08 251.06 357.08 251.1 359.1 258.44 359.1 258.39 357.08" style="fill:#84CC16;stroke:#263238;stroke-linecap:round;stroke-linejoin:round"></polygon><polygon points="254.59 336.8 253.94 336.8 254.23 351.02 254.89 351.02 254.59 336.8" style="fill:#84CC16;stroke:#263238;stroke-linecap:round;stroke-linejoin:round"></polygon><polygon points="294.63 466.35 290.46 357.92 284.56 357.92 288.42 466.35 294.63 466.35" style="fill:#84CC16;stroke:#263238;stroke-linecap:round;stroke-linejoin:round"></polygon><polygon points="288.75 351.05 285.85 351.05 285.94 353.69 288.85 353.69 288.75 351.05" style="fill:#84CC16;stroke:#263238;stroke-linecap:round;stroke-linejoin:round"></polygon><polygon points="288.36 341.75 285.47 341.75 286.39 344.37 287.53 344.37 288.36 341.75" style="fill:#84CC16;stroke:#263238;stroke-linecap:round;stroke-linejoin:round"></polygon><polygon points="289.43 353.16 285.32 353.16 285.42 355.81 289.53 355.81 289.43 353.16" style="fill:#84CC16;stroke:#263238;stroke-linecap:round;stroke-linejoin:round"></polygon><polygon points="290.4 354.96 284.49 354.96 284.56 357.19 290.49 357.19 290.4 354.96" style="fill:#84CC16;stroke:#263238;stroke-linecap:round;stroke-linejoin:round"></polygon><polygon points="291.18 357.08 283.86 357.08 283.93 359.1 291.26 359.1 291.18 357.08" style="fill:#84CC16;stroke:#263238;stroke-linecap:round;stroke-linejoin:round"></polygon><polygon points="287.06 336.8 286.4 336.8 286.93 351.02 287.59 351.02 287.06 336.8" style="fill:#84CC16;stroke:#263238;stroke-linecap:round;stroke-linejoin:round"></polygon><polygon points="329.17 466.35 323.27 357.92 317.37 357.92 322.96 466.35 329.17 466.35" style="fill:#84CC16;stroke:#263238;stroke-linecap:round;stroke-linejoin:round"></polygon><polygon points="321.44 351.05 318.54 351.05 318.68 353.69 321.59 353.69 321.44 351.05" style="fill:#84CC16;stroke:#263238;stroke-linecap:round;stroke-linejoin:round"></polygon><polygon points="320.91 341.75 318.02 341.75 318.98 344.37 320.12 344.37 320.91 341.75" style="fill:#84CC16;stroke:#263238;stroke-linecap:round;stroke-linejoin:round"></polygon><polygon points="322.16 353.16 318.05 353.16 318.19 355.81 322.3 355.81 322.16 353.16" style="fill:#84CC16;stroke:#263238;stroke-linecap:round;stroke-linejoin:round"></polygon><polygon points="323.16 354.96 317.24 354.96 317.36 357.19 323.28 357.19 323.16 354.96" style="fill:#84CC16;stroke:#263238;stroke-linecap:round;stroke-linejoin:round"></polygon><polygon points="323.98 357.08 316.65 357.08 316.75 359.1 324.09 359.1 323.98 357.08" style="fill:#84CC16;stroke:#263238;stroke-linecap:round;stroke-linejoin:round"></polygon><polygon points="319.53 336.8 318.87 336.8 319.63 351.02 320.29 351.02 319.53 336.8" style="fill:#84CC16;stroke:#263238;stroke-linecap:round;stroke-linejoin:round"></polygon><polygon points="363.71 466.35 356.07 357.92 350.18 357.92 357.5 466.35 363.71 466.35" style="fill:#84CC16;stroke:#263238;stroke-linecap:round;stroke-linejoin:round"></polygon><polygon points="354.14 351.05 351.24 351.05 351.42 353.69 354.32 353.69 354.14 351.05" style="fill:#84CC16;stroke:#263238;stroke-linecap:round;stroke-linejoin:round"></polygon><polygon points="353.46 341.75 350.57 341.75 351.57 344.37 352.71 344.37 353.46 341.75" style="fill:#84CC16;stroke:#263238;stroke-linecap:round;stroke-linejoin:round"></polygon><polygon points="354.89 353.16 350.78 353.16 350.96 355.81 355.07 355.81 354.89 353.16" style="fill:#84CC16;stroke:#263238;stroke-linecap:round;stroke-linejoin:round"></polygon><polygon points="355.92 354.96 350 354.96 350.15 357.19 356.07 357.19 355.92 354.96" style="fill:#84CC16;stroke:#263238;stroke-linecap:round;stroke-linejoin:round"></polygon><polygon points="356.77 357.08 349.44 357.08 349.58 359.1 356.91 359.1 356.77 357.08" style="fill:#84CC16;stroke:#263238;stroke-linecap:round;stroke-linejoin:round"></polygon><polygon points="352 336.8 351.34 336.8 352.32 351.02 352.98 351.02 352 336.8" style="fill:#84CC16;stroke:#263238;stroke-linecap:round;stroke-linejoin:round"></polygon><polygon points="398.25 466.35 388.88 357.92 382.98 357.92 392.04 466.35 398.25 466.35" style="fill:#84CC16;stroke:#263238;stroke-linecap:round;stroke-linejoin:round"></polygon><polygon points="386.84 351.05 383.94 351.05 384.16 353.69 387.06 353.69 386.84 351.05" style="fill:#84CC16;stroke:#263238;stroke-linecap:round;stroke-linejoin:round"></polygon><polygon points="386 341.75 383.12 341.75 384.16 344.37 385.3 344.37 386 341.75" style="fill:#84CC16;stroke:#263238;stroke-linecap:round;stroke-linejoin:round"></polygon><polygon points="387.62 353.16 383.51 353.16 383.74 355.81 387.85 355.81 387.62 353.16" style="fill:#84CC16;stroke:#263238;stroke-linecap:round;stroke-linejoin:round"></polygon><polygon points="388.68 354.96 382.76 354.96 382.95 357.19 388.87 357.19 388.68 354.96" style="fill:#84CC16;stroke:#263238;stroke-linecap:round;stroke-linejoin:round"></polygon><polygon points="389.56 357.08 382.24 357.08 382.4 359.1 389.74 359.1 389.56 357.08" style="fill:#84CC16;stroke:#263238;stroke-linecap:round;stroke-linejoin:round"></polygon><polygon points="384.47 336.8 383.81 336.8 385.02 351.02 385.68 351.02 384.47 336.8" style="fill:#84CC16;stroke:#263238;stroke-linecap:round;stroke-linejoin:round"></polygon><polygon points="209.86 367.04 199.91 367.04 199.86 376.01 209.85 376.01 209.86 367.04" style="fill:#84CC16;stroke:#263238;stroke-linecap:round;stroke-linejoin:round"></polygon><polygon points="204.92 357.37 203.55 366.79 206.22 366.79 204.92 357.37" style="fill:#84CC16;stroke:#263238;stroke-linecap:round;stroke-linejoin:round"></polygon><polygon points="242.64 367.04 232.7 367.04 232.79 376.01 242.78 376.01 242.64 367.04" style="fill:#84CC16;stroke:#263238;stroke-linecap:round;stroke-linejoin:round"></polygon><polygon points="237.55 357.37 236.33 366.79 239 366.79 237.55 357.37" style="fill:#84CC16;stroke:#263238;stroke-linecap:round;stroke-linejoin:round"></polygon><polygon points="275.43 367.04 265.48 367.04 265.72 376.01 275.7 376.01 275.43 367.04" style="fill:#84CC16;stroke:#263238;stroke-linecap:round;stroke-linejoin:round"></polygon><polygon points="270.18 357.37 269.11 366.79 271.78 366.79 270.18 357.37" style="fill:#84CC16;stroke:#263238;stroke-linecap:round;stroke-linejoin:round"></polygon><polygon points="308.21 367.04 298.27 367.04 298.64 376.01 308.63 376.01 308.21 367.04" style="fill:#84CC16;stroke:#263238;stroke-linecap:round;stroke-linejoin:round"></polygon><polygon points="302.81 357.37 301.89 366.79 304.56 366.79 302.81 357.37" style="fill:#84CC16;stroke:#263238;stroke-linecap:round;stroke-linejoin:round"></polygon><polygon points="340.99 367.04 331.05 367.04 331.57 376.01 341.56 376.01 340.99 367.04" style="fill:#84CC16;stroke:#263238;stroke-linecap:round;stroke-linejoin:round"></polygon><polygon points="335.44 357.37 334.67 366.79 337.34 366.79 335.44 357.37" style="fill:#84CC16;stroke:#263238;stroke-linecap:round;stroke-linejoin:round"></polygon><polygon points="373.78 367.04 363.83 367.04 364.5 376.01 374.48 376.01 373.78 367.04" style="fill:#84CC16;stroke:#263238;stroke-linecap:round;stroke-linejoin:round"></polygon><polygon points="368.07 357.37 367.45 366.79 370.12 366.79 368.07 357.37" style="fill:#84CC16;stroke:#263238;stroke-linecap:round;stroke-linejoin:round"></polygon><polygon points="211.78 407.68 198.18 407.68 198.31 387.34 211.78 387.34 211.78 407.68" style="fill:#84CC16;stroke:#263238;stroke-linecap:round;stroke-linejoin:round"></polygon><polygon points="245.38 407.68 231.78 407.68 231.59 387.34 245.06 387.34 245.38 407.68" style="fill:#84CC16;stroke:#263238;stroke-linecap:round;stroke-linejoin:round"></polygon><polygon points="278.98 407.68 265.38 407.68 264.86 387.34 278.33 387.34 278.98 407.68" style="fill:#84CC16;stroke:#263238;stroke-linecap:round;stroke-linejoin:round"></polygon><polygon points="312.59 407.68 298.99 407.68 298.14 387.34 311.61 387.34 312.59 407.68" style="fill:#84CC16;stroke:#263238;stroke-linecap:round;stroke-linejoin:round"></polygon><polygon points="346.19 407.68 332.59 407.68 331.42 387.34 344.89 387.34 346.19 407.68" style="fill:#84CC16;stroke:#263238;stroke-linecap:round;stroke-linejoin:round"></polygon><polygon points="379.79 407.68 366.19 407.68 364.69 387.34 378.16 387.34 379.79 407.68" style="fill:#84CC16;stroke:#263238;stroke-linecap:round;stroke-linejoin:round"></polygon><polygon points="211.78 434.29 198.01 434.29 198.14 413.44 211.78 413.44 211.78 434.29" style="fill:#84CC16;stroke:#263238;stroke-linecap:round;stroke-linejoin:round"></polygon><polygon points="245.81 434.29 232.04 434.29 231.84 413.44 245.47 413.44 245.81 434.29" style="fill:#84CC16;stroke:#263238;stroke-linecap:round;stroke-linejoin:round"></polygon><polygon points="279.84 434.29 266.06 434.29 265.53 413.44 279.17 413.44 279.84 434.29" style="fill:#84CC16;stroke:#263238;stroke-linecap:round;stroke-linejoin:round"></polygon><polygon points="313.86 434.29 300.09 434.29 299.23 413.44 312.86 413.44 313.86 434.29" style="fill:#84CC16;stroke:#263238;stroke-linecap:round;stroke-linejoin:round"></polygon><polygon points="347.89 434.29 334.12 434.29 332.92 413.44 346.56 413.44 347.89 434.29" style="fill:#84CC16;stroke:#263238;stroke-linecap:round;stroke-linejoin:round"></polygon><polygon points="381.92 434.29 368.15 434.29 366.61 413.44 380.25 413.44 381.92 434.29" style="fill:#84CC16;stroke:#263238;stroke-linecap:round;stroke-linejoin:round"></polygon><polygon points="211.78 461.59 197.83 461.59 197.97 440.2 211.78 440.2 211.78 461.59" style="fill:#84CC16;stroke:#263238;stroke-linecap:round;stroke-linejoin:round"></polygon><polygon points="246.25 461.59 232.3 461.59 232.09 440.2 245.9 440.2 246.25 461.59" style="fill:#84CC16;stroke:#263238;stroke-linecap:round;stroke-linejoin:round"></polygon><polygon points="280.71 461.59 266.76 461.59 266.21 440.2 280.03 440.2 280.71 461.59" style="fill:#84CC16;stroke:#263238;stroke-linecap:round;stroke-linejoin:round"></polygon><polygon points="315.18 461.59 301.23 461.59 300.34 440.2 314.15 440.2 315.18 461.59" style="fill:#84CC16;stroke:#263238;stroke-linecap:round;stroke-linejoin:round"></polygon><polygon points="349.64 461.59 335.69 461.59 334.46 440.2 348.27 440.2 349.64 461.59" style="fill:#84CC16;stroke:#263238;stroke-linecap:round;stroke-linejoin:round"></polygon><polygon points="384.1 461.59 370.15 461.59 368.58 440.2 382.39 440.2 384.1 461.59" style="fill:#84CC16;stroke:#263238;stroke-linecap:round;stroke-linejoin:round"></polygon><polygon points="431.96 466.35 422.59 357.92 416.69 357.92 425.75 466.35 431.96 466.35" style="fill:#84CC16;stroke:#263238;stroke-linecap:round;stroke-linejoin:round"></polygon><polygon points="420.55 351.05 417.64 351.05 417.87 353.69 420.77 353.69 420.55 351.05" style="fill:#84CC16;stroke:#263238;stroke-linecap:round;stroke-linejoin:round"></polygon><polygon points="419.71 341.75 416.82 341.75 417.87 344.37 419.01 344.37 419.71 341.75" style="fill:#84CC16;stroke:#263238;stroke-linecap:round;stroke-linejoin:round"></polygon><polygon points="421.33 353.16 417.22 353.16 417.44 355.81 421.56 355.81 421.33 353.16" style="fill:#84CC16;stroke:#263238;stroke-linecap:round;stroke-linejoin:round"></polygon><polygon points="422.38 354.96 416.47 354.96 416.66 357.19 422.58 357.19 422.38 354.96" style="fill:#84CC16;stroke:#263238;stroke-linecap:round;stroke-linejoin:round"></polygon><polygon points="423.27 357.08 415.94 357.08 416.11 359.1 423.45 359.1 423.27 357.08" style="fill:#84CC16;stroke:#263238;stroke-linecap:round;stroke-linejoin:round"></polygon><polygon points="418.18 336.8 417.52 336.8 418.73 351.02 419.38 351.02 418.18 336.8" style="fill:#84CC16;stroke:#263238;stroke-linecap:round;stroke-linejoin:round"></polygon><polygon points="413.5 407.68 399.9 407.68 398.4 387.34 411.87 387.34 413.5 407.68" style="fill:#84CC16;stroke:#263238;stroke-linecap:round;stroke-linejoin:round"></polygon><polygon points="415.63 434.29 401.85 434.29 400.32 413.44 413.96 413.44 415.63 434.29" style="fill:#84CC16;stroke:#263238;stroke-linecap:round;stroke-linejoin:round"></polygon><polygon points="417.81 461.59 403.86 461.59 402.29 440.2 416.1 440.2 417.81 461.59" style="fill:#84CC16;stroke:#263238;stroke-linecap:round;stroke-linejoin:round"></polygon><polygon points="465.66 466.35 456.3 357.92 450.4 357.92 459.45 466.35 465.66 466.35" style="fill:#84CC16;stroke:#263238;stroke-linecap:round;stroke-linejoin:round"></polygon><polygon points="454.25 351.05 451.35 351.05 451.57 353.69 454.48 353.69 454.25 351.05" style="fill:#84CC16;stroke:#263238;stroke-linecap:round;stroke-linejoin:round"></polygon><polygon points="453.42 341.75 450.53 341.75 451.58 344.37 452.71 344.37 453.42 341.75" style="fill:#84CC16;stroke:#263238;stroke-linecap:round;stroke-linejoin:round"></polygon><polygon points="455.04 353.16 450.93 353.16 451.15 355.81 455.26 355.81 455.04 353.16" style="fill:#84CC16;stroke:#263238;stroke-linecap:round;stroke-linejoin:round"></polygon><polygon points="456.09 354.96 450.18 354.96 450.36 357.19 456.29 357.19 456.09 354.96" style="fill:#84CC16;stroke:#263238;stroke-linecap:round;stroke-linejoin:round"></polygon><polygon points="456.98 357.08 449.65 357.08 449.82 359.1 457.15 359.1 456.98 357.08" style="fill:#84CC16;stroke:#263238;stroke-linecap:round;stroke-linejoin:round"></polygon><polygon points="451.88 336.8 451.23 336.8 452.43 351.02 453.09 351.02 451.88 336.8" style="fill:#84CC16;stroke:#263238;stroke-linecap:round;stroke-linejoin:round"></polygon><polygon points="447.21 407.68 433.61 407.68 432.11 387.34 445.58 387.34 447.21 407.68" style="fill:#84CC16;stroke:#263238;stroke-linecap:round;stroke-linejoin:round"></polygon><polygon points="449.33 434.29 435.56 434.29 434.03 413.44 447.67 413.44 449.33 434.29" style="fill:#84CC16;stroke:#263238;stroke-linecap:round;stroke-linejoin:round"></polygon><polygon points="451.52 461.59 437.57 461.59 436 440.2 449.81 440.2 451.52 461.59" style="fill:#84CC16;stroke:#263238;stroke-linecap:round;stroke-linejoin:round"></polygon></g><g id="freepik--Trees--inject-10"><path d="M155.69,409.26l-6.22,2.4,11.93-16.37q.38-1.6.69-3.27l1.36-14.24s-6.7,5.67-7.54,5.87,5.68-19.24,7.28-24.06c-.17-3.61-.39-7.43-.67-11.39l-8.21,3.65,6.63-9-1-19.09-4.23,1.51,3.57-9c-.89-6.64-1.92-13.21-3.08-19.45l-3.36-9.49-2.42,8,.94-19.34c-3.78-12.85-8.41-21.56-13.87-21.9-6.59-.42-13.5,11.42-19.76,28.15l-.83,11-1-5.86c-3.28,9.44-6.34,20.09-9,30.79l1.07,4.19-1.88-.95c-1.63,6.67-3.12,13.32-4.42,19.67l4.37,7.79-5.29-3.19c-1.22,6.19-2.24,12-3,17.23,1.46,7.61,3.27,17.51,2.78,17.32A37.26,37.26,0,0,1,96,376c-.06.7-.12,1.39-.16,2a75.28,75.28,0,0,0,1.31,19.68l6.14,11.12-3.56-1.92c5.18,14.19,14.93,23.93,26.63,24.66,11.85.74,22.85-7.94,29.75-21.65Z" style="fill:#84CC16"></path><polygon points="122.56 372.91 127.44 380.49 125.12 402.61 119.18 398.02 124.64 407.19 119.47 466.35 126.12 466.35 130 390.6 148.48 381.87 138.03 385.01 140.47 378.99 135.13 385.88 130.15 387.38 131.06 367.17 150.27 344.7 140.17 353.62 142.19 347.1 137.05 356.37 131.32 361.43 132.74 329.85 127.94 375.74 112.23 356.87 120.69 370 112.04 368.49 122.56 372.91" style="fill:#263238"></polygon><path d="M151.29,331.11a7.31,7.31,0,0,1-6.65,7.85,7.35,7.35,0,0,1,6.65-7.85Z" style="fill:#fff"></path><path d="M160.57,346a7.33,7.33,0,0,1-6.65,7.85,7.35,7.35,0,0,1,6.65-7.85Z" style="fill:#fff"></path><path d="M158.83,373.84a7.35,7.35,0,0,1-8.91,5.16,7.35,7.35,0,0,1,8.91-5.16Z" style="fill:#fff"></path><path d="M103,370.35a7.34,7.34,0,0,0,8.2,6.23,7.36,7.36,0,0,0-8.2-6.23Z" style="fill:#fff"></path><path d="M147.81,361.56a7.35,7.35,0,0,1-6.65,7.86,7.33,7.33,0,0,1,6.65-7.86Z" style="fill:#fff"></path><path d="M148.05,315.31a7.35,7.35,0,0,1-6.65,7.85,7.33,7.33,0,0,1,6.65-7.85Z" style="fill:#fff"></path><path d="M141.25,326.78a7.35,7.35,0,0,1-6.65,7.86,7.35,7.35,0,0,1,6.65-7.86Z" style="fill:#fff"></path><path d="M156.17,319.05a7.33,7.33,0,0,1-6.65,7.85,7.35,7.35,0,0,1,6.65-7.85Z" style="fill:#fff"></path><path d="M109.44,316.13a7.35,7.35,0,0,0,5.62,8.62,7.35,7.35,0,0,0-5.62-8.62Z" style="fill:#fff"></path><path d="M150.27,300.9a7.35,7.35,0,0,1-6.65,7.86,7.35,7.35,0,0,1,6.65-7.86Z" style="fill:#fff"></path><path d="M148.25,285.33a7.33,7.33,0,0,1-4.46,9.27,7.35,7.35,0,0,1,4.46-9.27Z" style="fill:#fff"></path><path d="M127.17,280a7.33,7.33,0,0,1,2.9,9.87,7.33,7.33,0,0,1-2.9-9.87Z" style="fill:#fff"></path><path d="M136,299a7.33,7.33,0,0,1-1.23,10.22A7.35,7.35,0,0,1,136,299Z" style="fill:#fff"></path><path d="M137.16,271.57a7.36,7.36,0,0,1-1.23,10.22,7.33,7.33,0,0,1,1.23-10.22Z" style="fill:#fff"></path><path d="M111.18,328.6a7.36,7.36,0,0,0,5.62,8.63,7.34,7.34,0,0,0-5.62-8.63Z" style="fill:#fff"></path><path d="M104.34,345.1a7.33,7.33,0,0,0,5.62,8.62,7.35,7.35,0,0,0-5.62-8.62Z" style="fill:#fff"></path><path d="M119.34,352.18A7.33,7.33,0,0,0,125,360.8a7.35,7.35,0,0,0-5.62-8.62Z" style="fill:#fff"></path><path d="M125,329.08a7.34,7.34,0,0,0,2.91,9.87,7.33,7.33,0,0,0-2.91-9.87Z" style="fill:#fff"></path><path d="M110.23,390.56a7.37,7.37,0,0,0,8.13-6.31,7.33,7.33,0,0,0-8.13,6.31Z" style="fill:#fff"></path><path d="M140.32,389a7.36,7.36,0,0,0,8.39,6,7.34,7.34,0,0,0-8.39-6Z" style="fill:#fff"></path><path d="M118.53,313.46a7.33,7.33,0,0,0,5.62,8.62,7.35,7.35,0,0,0-5.62-8.62Z" style="fill:#fff"></path><path d="M119.33,299.76a7.36,7.36,0,0,0,5.62,8.63,7.35,7.35,0,0,0-5.62-8.63Z" style="fill:#fff"></path><path d="M80,398.08l-3.77,1.45,7.23-9.92c.16-.65.3-1.32.42-2l.83-8.64a51.24,51.24,0,0,1-4.58,3.56c-.44.11,3.45-11.67,4.42-14.6-.1-2.19-.24-4.5-.41-6.9l-5,2.21,4-5.44-.61-11.58-2.57.92,2.16-5.48c-.54-4-1.16-8-1.86-11.8l-2-5.75L76.76,329l.57-11.73c-2.29-7.79-5.1-13.08-8.41-13.28-4-.25-8.19,6.93-12,17.07l-.51,6.67-.62-3.56c-2,5.73-3.85,12.19-5.48,18.68l.65,2.54-1.14-.58c-1,4.05-1.9,8.08-2.69,11.93l2.66,4.73-3.21-1.94c-.74,3.76-1.36,7.3-1.84,10.45.89,4.62,2,10.62,1.68,10.51a23.49,23.49,0,0,1-2.66-2.58c0,.43-.07.85-.09,1.24A45.57,45.57,0,0,0,44.48,391l3.73,6.75L46,396.63c3.15,8.6,9.06,14.51,16.16,14.95s13.86-4.81,18-13.13Z" style="fill:#84CC16"></path><polygon points="75.6 381.47 69.26 383.37 70.74 379.72 67.5 383.9 64.48 384.81 65.03 372.55 76.69 358.92 70.56 364.33 71.78 360.38 68.66 366 65.19 369.07 66.05 349.92 63.14 377.75 53.61 366.3 58.74 374.27 53.49 373.35 59.88 376.04 62.83 380.63 61.43 394.05 57.83 391.26 61.14 396.83 55.08 466.02 60.31 466.35 64.39 386.76 75.6 381.47" style="fill:#263238"></polygon><path d="M77.3,350.68a4.44,4.44,0,0,1-4,4.76,4.45,4.45,0,0,1,4-4.76Z" style="fill:#fff"></path><path d="M82.93,359.73a4.44,4.44,0,0,1-4,4.76,4.45,4.45,0,0,1,4-4.76Z" style="fill:#fff"></path><path d="M81.87,376.6a4.45,4.45,0,0,1-5.4,3.13,4.45,4.45,0,0,1,5.4-3.13Z" style="fill:#fff"></path><path d="M48,374.48a5.27,5.27,0,0,0,1.71,2.91,5.25,5.25,0,0,0,3.26.87,5.24,5.24,0,0,0-1.72-2.91A5.23,5.23,0,0,0,48,374.48Z" style="fill:#fff"></path><path d="M75.19,369.15a4.44,4.44,0,0,1-4,4.76,4.47,4.47,0,0,1,4-4.76Z" style="fill:#fff"></path><path d="M75.34,341.1a4.47,4.47,0,0,1-4,4.76,4.44,4.44,0,0,1,4-4.76Z" style="fill:#fff"></path><path d="M71.21,348.05a4.45,4.45,0,0,1-4,4.77,4.45,4.45,0,0,1,4-4.77Z" style="fill:#fff"></path><path d="M80.26,343.36a4.45,4.45,0,0,1-4,4.77,4.45,4.45,0,0,1,4-4.77Z" style="fill:#fff"></path><path d="M51.92,341.6a4.43,4.43,0,0,0,3.41,5.22,4.45,4.45,0,0,0-3.41-5.22Z" style="fill:#fff"></path><path d="M76.68,332.36a4.44,4.44,0,0,1-4,4.76,4.45,4.45,0,0,1,4-4.76Z" style="fill:#fff"></path><path d="M75.46,322.91a4.45,4.45,0,0,1-2.71,5.63,4.47,4.47,0,0,1,2.71-5.63Z" style="fill:#fff"></path><path d="M62.67,319.67a4.44,4.44,0,0,1,1.76,6,4.47,4.47,0,0,1-1.76-6Z" style="fill:#fff"></path><path d="M68,331.2a5.23,5.23,0,0,1,.89,3.26,5.18,5.18,0,0,1-1.64,2.94,5.21,5.21,0,0,1-.89-3.25A5.28,5.28,0,0,1,68,331.2Z" style="fill:#fff"></path><path d="M68.73,314.57a4.46,4.46,0,0,1-.75,6.2,4.46,4.46,0,0,1,.75-6.2Z" style="fill:#fff"></path><path d="M53,349.16a4.45,4.45,0,0,0,3.4,5.23,4.45,4.45,0,0,0-3.4-5.23Z" style="fill:#fff"></path><path d="M48.82,359.17a4.45,4.45,0,0,0,3.41,5.22,4.43,4.43,0,0,0-3.41-5.22Z" style="fill:#fff"></path><path d="M57.92,363.46a4.45,4.45,0,0,0,3.41,5.23,5.26,5.26,0,0,0-.64-3.31A5.2,5.2,0,0,0,57.92,363.46Z" style="fill:#fff"></path><path d="M61.35,349.45a5.3,5.3,0,0,0-.34,3.36,5.25,5.25,0,0,0,2.11,2.63,4.45,4.45,0,0,0-1.77-6Z" style="fill:#fff"></path><path d="M52.4,386.74a4.47,4.47,0,0,0,4.93-3.83,4.44,4.44,0,0,0-4.93,3.83Z" style="fill:#fff"></path><path d="M70.65,385.8a4.45,4.45,0,0,0,5.09,3.62,4.47,4.47,0,0,0-5.09-3.62Z" style="fill:#fff"></path><path d="M57.43,340a5.22,5.22,0,0,0,.63,3.31,5.31,5.31,0,0,0,2.78,1.92A4.45,4.45,0,0,0,57.43,340Z" style="fill:#fff"></path><path d="M57.92,331.67a4.45,4.45,0,0,0,3.4,5.23,4.45,4.45,0,0,0-3.4-5.23Z" style="fill:#fff"></path><path d="M347.21,375.66l5.06,1.95-9.71-13.33c-.21-.88-.4-1.77-.57-2.66L340.89,350s5.45,4.62,6.14,4.79-4.62-15.68-5.93-19.61c.14-2.94.32-6.05.55-9.27l6.68,3-5.4-7.31.83-15.55,3.45,1.23-2.91-7.36c.73-5.41,1.57-10.76,2.51-15.85l2.73-7.72,2,6.48-.77-15.75c3.08-10.47,6.85-17.57,11.3-17.84,5.37-.34,11,9.31,16.1,22.93l.68,9,.83-4.78c2.67,7.7,5.17,16.37,7.37,25.09l-.88,3.41,1.53-.77c1.33,5.43,2.54,10.84,3.61,16l-3.57,6.35,4.32-2.6c1,5,1.81,9.8,2.46,14-1.19,6.2-2.67,14.27-2.26,14.11a30.76,30.76,0,0,0,3.58-3.45c0,.57.09,1.13.12,1.66a61.7,61.7,0,0,1-1.06,16l-5,9.05,2.91-1.56c-4.23,11.56-12.17,19.5-21.7,20.09s-18.62-6.46-24.24-17.63Z" style="fill:#84CC16"></path><polygon points="367.28 341.37 368.02 357.83 363.96 356.61 359.61 351 361.6 355.9 353.08 353.34 368.14 360.46 373.57 466.35 380.59 466.35 372.5 373.97 376.95 366.5 372.11 370.24 370.23 352.22 374.2 346.05 382.77 342.44 375.73 343.67 382.61 332.97 369.82 348.35 365.9 310.96 367.07 336.69 362.4 332.57 358.21 325.02 359.85 330.32 351.62 323.06 367.28 341.37" style="fill:#263238"></polygon><path d="M350.79,312a7,7,0,0,0,1.4,4.31,7.09,7.09,0,0,0,4,2.09,6,6,0,0,0-5.42-6.4Z" style="fill:#fff"></path><path d="M343.24,324.14a6,6,0,0,0,5.41,6.4,6,6,0,0,0-5.41-6.4Z" style="fill:#fff"></path><path d="M344.65,346.8a6,6,0,0,0,7.26,4.2,6,6,0,0,0-7.26-4.2Z" style="fill:#fff"></path><path d="M390.14,344a6,6,0,0,1-6.67,5.07,6,6,0,0,1,6.67-5.07Z" style="fill:#fff"></path><path d="M353.63,336.8a6,6,0,0,0,5.42,6.4,6,6,0,0,0-5.42-6.4Z" style="fill:#fff"></path><path d="M353.43,299.12a6,6,0,0,0,5.42,6.4,6,6,0,0,0-5.42-6.4Z" style="fill:#fff"></path><path d="M359,308.46a6,6,0,0,0,5.42,6.4,7,7,0,0,0-1.4-4.3A7.06,7.06,0,0,0,359,308.46Z" style="fill:#fff"></path><path d="M346.82,302.16a6,6,0,0,0,5.41,6.4,6,6,0,0,0-5.41-6.4Z" style="fill:#fff"></path><path d="M384.89,299.79a6,6,0,0,1-4.58,7,6,6,0,0,1,4.58-7Z" style="fill:#fff"></path><path d="M351.62,287.38a6,6,0,0,0,5.42,6.4,6,6,0,0,0-5.42-6.4Z" style="fill:#fff"></path><path d="M353.27,274.69a6,6,0,0,0,3.63,7.56,6,6,0,0,0-3.63-7.56Z" style="fill:#fff"></path><path d="M370.44,270.33a6,6,0,0,0-2.36,8.05,6,6,0,0,0,2.36-8.05Z" style="fill:#fff"></path><path d="M363.27,285.83a6,6,0,0,0,1,8.32,6,6,0,0,0-1-8.32Z" style="fill:#fff"></path><path d="M362.31,263.49a6,6,0,0,0,1,8.32,6,6,0,0,0-1-8.32Z" style="fill:#fff"></path><path d="M383.47,310a6,6,0,0,1-4.58,7,6,6,0,0,1,4.58-7Z" style="fill:#fff"></path><path d="M389.05,323.39a6,6,0,0,1-4.58,7,6,6,0,0,1,4.58-7Z" style="fill:#fff"></path><path d="M376.83,329.16a6,6,0,0,1-4.58,7,6,6,0,0,1,4.58-7Z" style="fill:#fff"></path><path d="M372.21,310.34a6,6,0,0,1-2.37,8,7,7,0,0,1-.46-4.5A7.08,7.08,0,0,1,372.21,310.34Z" style="fill:#fff"></path><path d="M384.25,360.42a6,6,0,0,1-6.63-5.14A7.06,7.06,0,0,1,382,356.5,7,7,0,0,1,384.25,360.42Z" style="fill:#fff"></path><path d="M359.73,359.16a6,6,0,0,1-6.84,4.86,6,6,0,0,1,6.84-4.86Z" style="fill:#fff"></path><path d="M377.48,297.61a6,6,0,0,1-4.57,7,6,6,0,0,1,4.57-7Z" style="fill:#fff"></path><path d="M376.83,286.45a6,6,0,0,1-4.58,7,6,6,0,0,1,4.58-7Z" style="fill:#fff"></path></g><g id="freepik--Character--inject-10"><rect x="275.96" y="304.48" width="47.58" height="161.87" style="fill:#fff;stroke:#263238;stroke-linecap:round;stroke-linejoin:round"></rect><path d="M293.85,466.35H255.27c-.05-1.66-.11-5.47,0-11.68.19-8.63,3.64-54.07,3.64-54.07l-.38-16.87s-2.68,4.6-12.27,14-36.24,28-36.24,28l-.58-49.86s20.33-18.6,20.33-19.17a38,38,0,0,1,6.32-16.3c5.18-7.29,15.54-12.08,15.54-12.08l21.86-8.44.57,1.54s6.9,13.8,8.82,21.28,4.75,16.25,4.75,16.25-1.3,19.61-1.49,42.62C286,422.52,292.66,459.86,293.85,466.35Z" style="fill:#263238;stroke:#263238;stroke-linecap:round;stroke-linejoin:round"></path><line x1="240.15" y1="365.46" x2="237.66" y2="362.63" style="fill:#fff;stroke:#263238;stroke-linecap:round;stroke-linejoin:round"></line><line x1="257.22" y1="384.88" x2="242.95" y2="368.66" style="fill:#fff;stroke:#263238;stroke-linecap:round;stroke-linejoin:round"></line><line x1="254.53" y1="380.27" x2="241.69" y2="358.99" style="fill:#fff;stroke:#263238;stroke-linecap:round;stroke-linejoin:round"></line><path d="M266,321s-15.73,5.18-17.64,11.32.19,24.92,1.91,34.9,5.18,17.06,6.91,17.64,3.64-2.88,4.41-7.1,5-41.61,5.94-47.55S267.38,320.45,266,321Z" style="fill:#b0b0b0;stroke:#263238;stroke-linecap:round;stroke-linejoin:round"></path><path d="M261.63,322.94a374.55,374.55,0,0,0-2.3,39.89c0,20.9-.39,37.77-.39,37.77s-3.64-24.16-4.22-39.5.39-35.28.39-35.28S260.09,322.75,261.63,322.94Z" style="fill:#263238;stroke:#263238;stroke-linecap:round;stroke-linejoin:round"></path><path d="M369,343.9s12.52,26,17.92,33.86,4.66,10.55,2.45,10.06a12.7,12.7,0,0,1-3.44-1.22s12.28,21.1,13.26,29,2.94,16.19-10.31,23.06-24.54-8.09-26.51-10.3-4.41-71.42-3.92-78.78S365.53,340.7,369,343.9Z" style="fill:#b0b0b0;stroke:#263238;stroke-linecap:round;stroke-linejoin:round"></path><path d="M385.89,386.6a4.43,4.43,0,0,1-1.71-2.21c-.49-1.47-9.33-11.78-11.78-17.18s-5.16-8.59-6.14-5.65-4.17,4.91-4.42-2.2,5.65-16.45,7.12-15.46a17.89,17.89,0,0,1,4.66,4.9c1.23,2,13.26,23.81,16.45,29.7s3.68,9.57,2.21,10.8S387.86,387.58,385.89,386.6Z" style="fill:#b0b0b0;stroke:#263238;stroke-linecap:round;stroke-linejoin:round"></path><path d="M385.89,402.06s3.93,19.39,5.16,24.05,4.66,5.15,5.89,4.42" style="fill:none;stroke:#263238;stroke-linecap:round;stroke-linejoin:round"></path><path d="M391.54,394.45s-8.59-2-7.85,1.72,1.47,8.59,3.43,9.32,8.59-2.2,8.59-2.2S394,396.17,391.54,394.45Z" style="fill:#b0b0b0;stroke:#263238;stroke-linecap:round;stroke-linejoin:round"></path><path d="M370.05,360.24v18.14c0,3.11-.26,9.06-.26,9.06l12.08,78.91H318.12c-.75-4.07-5-27.13-9.21-50.41-4.67-25.65,0-36,0-36s4.66-31.87,5.44-36.53,1.29-23.58,1.29-23.58,3.11-19.69,3.37-21.5,4.92.52,4.92.52,14.25.26,17.62-.78,11.4-7.51,18.14-6,14.77,6.48,14.77,6.48l16.32-8.29s-4.92,5.7-4.66,26.94,3.36,22,8.8,23.58a68.22,68.22,0,0,0,7.26,1.81s-26.49,2.82-30.38,3.86S370.05,347.29,370.05,360.24Z" style="fill:#263238;stroke:#263238;stroke-linecap:round;stroke-linejoin:round"></path><path d="M371.09,301.43s-6.74,0-12.7,12.69" style="fill:none;stroke:#263238;stroke-linecap:round;stroke-linejoin:round"></path><path d="M354.58,323.42c-.05.85-.07,1.73-.07,2.62" style="fill:none;stroke:#263238;stroke-linecap:round;stroke-linejoin:round"></path><path d="M358.13,308.16A43.33,43.33,0,0,0,354.79,321" style="fill:none;stroke:#263238;stroke-linecap:round;stroke-linejoin:round"></path><path d="M364.5,387.63a106.34,106.34,0,0,1-7.12-17.46" style="fill:none;stroke:#263238;stroke-linecap:round;stroke-linejoin:round"></path><path d="M314.14,394.52s12.8-1.19,17.58-3.13,11-6.19,13.45-6.88,4,2.79,4.15,3.93,3.84,7.64,2.75,9.71-10.66,17-13.82,17.94-22.05-1.73-23.29-2.35-2.18-3.59-2.37-5.12S312,396,312,396,311.28,394.88,314.14,394.52Z" style="fill:#b0b0b0;stroke:#263238;stroke-linecap:round;stroke-linejoin:round"></path><path d="M343.88,296a222.55,222.55,0,0,0-.77,36.27c1.29,18.39,4.14,25.65,2.59,28.76s-7.26,3.11-10.37,0-9.84-6.74-11.4-26.43,2.85-35.75,3.89-36.27S340.26,293.91,343.88,296Z" style="fill:#b0b0b0;stroke:#263238;stroke-linecap:round;stroke-linejoin:round"></path><path d="M338.57,295.14s-3.66,38.27,1.53,56.15,42.13,56.1,42.65,57.66-3.63,1.29-5.44-.26-24-18.34-36.14-36.74-11.58-33.84-11.79-48.76a101.18,101.18,0,0,1,2.72-25.53S332.46,294.06,338.57,295.14Z" style="fill:#263238;stroke:#263238;stroke-linecap:round;stroke-linejoin:round"></path><path d="M488.46,271.7l-73.61,7.65s-15-.24-19.14,11-5.64,24.55-4.42,34.12,2.7,11.29,7.86,13.74,22.33,1,22.33,1l63.13-9.71" style="fill:#fff;stroke:#263238;stroke-linecap:round;stroke-linejoin:round"></path><path d="M414.85,279.35s-13.25,0-18.89,15.22-2.95,29-1.23,36.07,18.16,8.84,21.35,8.84a53.16,53.16,0,0,0,5.4-.25,19.38,19.38,0,0,1-4.66,5.65c-2.7,2-18.41,1-25.77-.74s-15-13-15.71-22.58,5.65-27,12.27-33.13S409,277.88,414.85,279.35Z" style="fill:#8c8c8c;stroke:#263238;stroke-linecap:round;stroke-linejoin:round"></path><circle cx="335.33" cy="409.68" r="2.3" transform="translate(-104.7 115.3) rotate(-16.92)" style="fill:#fff;stroke:#263238;stroke-linecap:round;stroke-linejoin:round"></circle><path d="M335.23,334.2s-8.15-5.07-10.5-6.7-5.07-2.53-5.62-2.17a12.28,12.28,0,0,0-1.62,2.9s-1.45-5.8-.73-8.33,3.26-.72,6,.72A27.79,27.79,0,0,1,330,327C331.61,329,335.23,334.2,335.23,334.2Z" style="fill:#263238;stroke:#263238;stroke-linecap:round;stroke-linejoin:round"></path><path d="M307.35,284.85s4.41-1.56,7.26.26,13.73,11.4,13.73,11.4-.52,16.06,2.07,24.09,6.63,13.08,4.82,13.6-10-10.49-12.59-11.53-4.92-2.33-4.92-1,2.07,29.53,1,34.71S307.87,382,307.87,382s5.44-57,6.22-67.62S307.35,284.85,307.35,284.85Z" style="fill:#8c8c8c;stroke:#263238;stroke-linecap:round;stroke-linejoin:round"></path><path d="M310.1,278.34s4.11,21,4.11,27.41-5.09,20.9-14.81,22c-14.82,1.65-18.53-9.88-21.2-14.41s-6-15.43-6-15.43,9.26,4.32,14.2,1.85S310.1,278.34,310.1,278.34Z" style="fill:#fff;stroke:#263238;stroke-linecap:round;stroke-linejoin:round"></path><path d="M292.5,306.31l-14.3,7a110.92,110.92,0,0,1-6-15.43Z" style="fill:#263238;stroke:#263238;stroke-linecap:round;stroke-linejoin:round"></path><path d="M287.66,358.94s-11.74-20.17-14-20.58-8,3.28-8,1.85,4.5-11.48,5.12-12.3,1.64-.41,3.28,2.26S287.66,358.94,287.66,358.94Z" style="fill:#263238;stroke:#263238;stroke-linecap:round;stroke-linejoin:round"></path><path d="M287.66,358.94s-8.55-15.28-11.66-19.69a49.51,49.51,0,0,1-4.66-8s-5.18,10.88-7.51,10.88-2.33,1.3-.52-5.18,2.63-20.3,5.22-29.11,4.7-13.29,6.51-12.52.45,4.58,3.81,22.2,7.1,26.25,8.14,30.92A44.57,44.57,0,0,1,287.66,358.94Z" style="fill:#8c8c8c;stroke:#263238;stroke-linecap:round;stroke-linejoin:round"></path><path d="M277.9,312.4s-1.83-4.41-3.5-5.91-4.2-3.35-4.2-3.35l2-5.25,3.73,6.59S278.4,308.56,277.9,312.4Z" style="fill:#263238;stroke:#263238;stroke-linecap:round;stroke-linejoin:round"></path><path d="M248,257.59s-4-1.65-4.41,3.13,2.76,7.72,4.78,9.19a17.53,17.53,0,0,0,5.51,2.21l-2-10.85Z" style="fill:#fff;stroke:#263238;stroke-linecap:round;stroke-linejoin:round"></path><path d="M248.56,231.85s3.86,34,5.33,43,22.25,30,24.09,31.44,9.19,1.29,14.52,0,14-17.83,16.55-21.14,4-5.33,4.23-9.75,1.1-11.39,1.1-11.39,4.23-1.11,7.72-7,2.94-15.44-2.21-16.91-5.88,2.57-7,7-2-10.66-2.39-12.68-.19-7.17-16.73-10.48-25.56-1.84-28.31-1.1S250,228.91,248.56,231.85Z" style="fill:#fff;stroke:#263238;stroke-linecap:round;stroke-linejoin:round"></path><path d="M310.52,220.82s9.74,6.07,8.45,11.22-6.8,12.5-6.06,15.07.55,7-.55,6.07-5.89-19.12-5.89-19.12-5.88-3.68-20.59-5.7-17.65-.73-17.65-.73,17.84,4,14.89,5.51-5.14,3.86-20,5S251,236.63,251,236.63s.37,7.73.37,10.67.92,16.54.92,16.54a7.84,7.84,0,0,1-2.21-1.65,27.44,27.44,0,0,1-2-4.6s-8.09-7.35-8.64-12.32,6.25-11.58,6.25-11.58a18.45,18.45,0,0,1-1.29-11.4c1.29-6.61,10.85-18.38,20.23-21.87S280,194.35,296,201.7s19.49,15.63,18,17.28A5.8,5.8,0,0,1,310.52,220.82Z" style="fill:#263238;stroke:#263238;stroke-linecap:round;stroke-linejoin:round"></path><path d="M287.14,254a8.8,8.8,0,0,1,9.77-1.8" style="fill:#fff;stroke:#263238;stroke-linecap:round;stroke-linejoin:round"></path><path d="M267.31,259.52s-5.11-1.8-8.11,1.51" style="fill:#fff;stroke:#263238;stroke-linecap:round;stroke-linejoin:round"></path><path d="M291.49,253.36a2,2,0,1,0,2-2A2,2,0,0,0,291.49,253.36Z" style="fill:#263238;stroke:#263238;stroke-linecap:round;stroke-linejoin:round"></path><path d="M262.88,260.8a2,2,0,1,0,2-2A2,2,0,0,0,262.88,260.8Z" style="fill:#263238;stroke:#263238;stroke-linecap:round;stroke-linejoin:round"></path><path d="M300.51,243.3s-9.76-3-17.58,2.25" style="fill:#fff;stroke:#263238;stroke-linecap:round;stroke-linejoin:round;stroke-width:3px"></path><path d="M265.51,250.36s-7.06-1.35-11.27,4.21" style="fill:#fff;stroke:#263238;stroke-linecap:round;stroke-linejoin:round;stroke-width:3px"></path><path d="M287.29,274.25s-4.36,4.65-7.21,5.1-6.76-2-7.06-2.55" style="fill:#fff;stroke:#263238;stroke-linecap:round;stroke-linejoin:round"></path><path d="M296,276.5s-7.52,7.51-13.38,8.71-14.72-1.5-14.72-1.5,11.12,9.62,15,9.92a7.78,7.78,0,0,0,7.52-3.61C292,287.92,296,276.5,296,276.5Z" style="fill:#fff;stroke:#263238;stroke-linecap:round;stroke-linejoin:round"></path><path d="M304.57,244.8s1.8,11.57.3,12.92-11.57,4.36-16.08,4.51-5.86-.9-6.46-1.65-3.15-8.72-2.85-9.77S293.9,244.65,304.57,244.8Z" style="fill:none;stroke:#263238;stroke-linecap:round;stroke-linejoin:round"></path><path d="M246.42,258.55s3.46,11.19,5.4,11.74,12.31-1.16,16.42-3,4.87-3.38,5.08-4.32-1-9.22-1.72-10S255.94,253.73,246.42,258.55Z" style="fill:none;stroke:#263238;stroke-linecap:round;stroke-linejoin:round"></path><line x1="304.57" y1="244.8" x2="312.33" y2="244.83" style="fill:none;stroke:#263238;stroke-linecap:round;stroke-linejoin:round"></line><path d="M279.48,250.81s-4.83-.5-7.88,2.13" style="fill:none;stroke:#263238;stroke-linecap:round;stroke-linejoin:round"></path><path d="M279.72,252.86s-4.39-.66-7.36,2.07" style="fill:none;stroke:#263238;stroke-linecap:round;stroke-linejoin:round"></path><path d="M213.69,393.51s7.67,5.36,8.25,10.16,2.49,16.87-.2,21.09S210.05,437,190.87,434.92s-19.56-17.25-18.79-22.82,2.11-14.38,5.37-16.49S196.62,386.22,213.69,393.51Z" style="fill:#8c8c8c;stroke:#263238;stroke-linecap:round;stroke-linejoin:round"></path><path d="M215.82,285.49s5.4-8.35,5.4-14,.25-9.08,3.19-8.1,5.89,7.85,5.65,12.76a47.92,47.92,0,0,1-2,10.31s-1-.74-5.15-1A54.62,54.62,0,0,0,215.82,285.49Z" style="fill:#fff;stroke:#263238;stroke-linecap:round;stroke-linejoin:round"></path><path d="M221,282.3s23.31,4.17,25,5.89a5.55,5.55,0,0,1,1.72,5.64,8.2,8.2,0,0,1-2,3.68,13.47,13.47,0,0,1-.73,7.86c-1.72,3.68-1.48,2.45-1.48,2.45s-.24,7.36-2.69,8.1-3.69,1.22-3.69,1.22,0,5.4-2.45,6.14-8.59-.25-8.59-.25-4.17,5.4-7.61,5.65a31.16,31.16,0,0,1-7.11-.49s3.92,58.16,4.9,64.05,3.93,23.32-3.68,29-18.89,5.89-26,1.47-9.08-9.08-9.33-18.16S191,330.4,193.74,324.75s17.67-34.36,20.37-38.28A9.67,9.67,0,0,1,221,282.3Z" style="fill:#fff;stroke:#263238;stroke-linecap:round;stroke-linejoin:round"></path><path d="M245.76,297.51s-14.48-1.72-16.68-2.21-10.8-1.71-10.8-1.71" style="fill:#fff;stroke:#263238;stroke-linecap:round;stroke-linejoin:round"></path><path d="M243.55,307.82s-13.25-1.47-17.67-2.21l-8.83-1.47" style="fill:#fff;stroke:#263238;stroke-linecap:round;stroke-linejoin:round"></path><path d="M237.17,317.14s-15.21-2-20.37-3.19" style="fill:#fff;stroke:#263238;stroke-linecap:round;stroke-linejoin:round"></path><path d="M212.76,333.14s-3.4,2.34-9.94,1.67c-8.72-.89-11.78-5.15-11.78-5.15l-1.48,8.1s5.32,5.32,12.77,5.64A21,21,0,0,0,213,340.75Z" style="fill:#263238;stroke:#263238;stroke-linecap:round;stroke-linejoin:round"></path><path d="M258.75,398.3s14.45-.13,16.18-.2,2.79-.81,2.75,1.53,2.55,13,1.72,13.9-11.07,6.32-12.15,6.87-4.43-1.07-4.43-1.07-4.44-2.43-4.74-3.16S258.75,398.3,258.75,398.3Z" style="fill:#b0b0b0;stroke:#263238;stroke-linecap:round;stroke-linejoin:round"></path><path d="M262.4,414a2.3,2.3,0,1,0,1.93-2.62A2.3,2.3,0,0,0,262.4,414Z" style="fill:#fff;stroke:#263238;stroke-linecap:round;stroke-linejoin:round"></path><path d="M281.38,361.48a1.92,1.92,0,1,0,1.92-2.11A2,2,0,0,0,281.38,361.48Z" style="fill:#fff;stroke:#263238;stroke-linecap:round;stroke-linejoin:round"></path><path d="M280.8,391.59a1.93,1.93,0,1,0,1.92-2.11A2,2,0,0,0,280.8,391.59Z" style="fill:#fff;stroke:#263238;stroke-linecap:round;stroke-linejoin:round"></path><path d="M281.57,421.5a1.92,1.92,0,1,0,1.92-2.11A2,2,0,0,0,281.57,421.5Z" style="fill:#fff;stroke:#263238;stroke-linecap:round;stroke-linejoin:round"></path><path d="M286.94,456.4a1.92,1.92,0,1,0,1.92-2.11A2,2,0,0,0,286.94,456.4Z" style="fill:#fff;stroke:#263238;stroke-linecap:round;stroke-linejoin:round"></path></g><g id="freepik--Table--inject-10"><line x1="18.23" y1="466.35" x2="493.28" y2="466.35" style="fill:none;stroke:#263238;stroke-linecap:round;stroke-linejoin:round"></line></g></svg>
