<svg xmlns="http://www.w3.org/2000/svg" xmlns:xlink="http://www.w3.org/1999/xlink" viewBox="0 0 500 500"><defs><clipPath id="freepik--clip-path--inject-202"><path d="M461.18,454H372.71c.39-.38,8.79-12.09,20.35-28.28h40.17Z" style="fill:#84CC16"></path></clipPath><clipPath id="freepik--clip-path-2--inject-202"><path d="M421.54,289.62,344.43,397.68H113.32s-42,42.51-39.92,42.51,287.8,1.41,289.2,0,86-117.17,86-117.17Z" style="fill:#84CC16;stroke:#263238;stroke-linecap:round;stroke-linejoin:round"></path></clipPath><clipPath id="freepik--clip-path-3--inject-202"><path d="M421.54,289.62,344.43,397.68H113.32s-42,42.51-39.92,42.51,287.8,1.41,289.2,0,86-117.17,86-117.17Z" style="stroke:#263238;stroke-linecap:round;stroke-linejoin:round"></path></clipPath><clipPath id="freepik--clip-path-4--inject-202"><path d="M371.51,252.9a56.34,56.34,0,0,0-3.05,6.66c-.9,2.71-.77,7.72-1.06,8.55s-4.33,5.65-4.36,6.62,3.64,2.92,3.64,2.92.94,6.7,1.63,9.53.56,4.41,4.27,4.36,8.77-1.5,15.08-4.73,12.06-5.21,13.3-11.7-16.63-21.89-19.1-23.59S371.51,252.9,371.51,252.9Z" style="fill:#bfbfbf;stroke:#263238;stroke-linecap:round;stroke-linejoin:round"></path></clipPath><clipPath id="freepik--clip-path-5--inject-202"><path d="M303.48,34.66a46.22,46.22,0,0,0-46.23,46.22c0,25.53,46.23,90.55,46.23,90.55s46.23-65,46.23-90.55A46.22,46.22,0,0,0,303.48,34.66Zm.41,68.43a21.89,21.89,0,1,1,21.89-21.88A21.89,21.89,0,0,1,303.89,103.09Z" style="fill:#84CC16;stroke:#263238;stroke-linecap:round;stroke-linejoin:round"></path></clipPath></defs><g id="freepik--background-simple--inject-202"><path d="M474.71,360.14c-.29,19.55-8,35.16-20.4,47.54a92.23,92.23,0,0,1-9.37,8.14c-1.25.95-2.54,1.89-3.86,2.79l-1.33.9c-1.34.9-2.7,1.76-4.08,2.61l-1.41.84q-2.1,1.23-4.29,2.43l-1.46.78c-1,.51-2,1-3,1.52a177.32,177.32,0,0,1-23.91,9.64q-3.35,1.1-6.75,2.08c-2.27.66-4.56,1.29-6.86,1.87-8.2,2.13-16.58,3.85-24.92,5.23-2,.33-4.05.65-6.06.94-8.39,1.22-16.7,2.08-24.71,2.68-2.07.14-4.13.28-6.16.39-10.86.59-21.05.66-30.05.32-4.93-.17-9.5-.47-13.61-.87q-3.52-.33-6.59-.77-13.77-1.93-27.25-4.78t-26.53-6.5q-5.22-1.46-10.38-3.06A391.48,391.48,0,0,1,167.07,418q-4.75-2.11-9.42-4.37-9.33-4.48-18.22-9.42c-.67-.37-1.34-.74-2-1.14q-10-5.62-19.49-11.79c-1.58-1-3.16-2.08-4.71-3.15l-.55-.38c-2.15-1.46-4.28-3-6.37-4.49q-2.26-1.63-4.49-3.32c-1.48-1.13-2.93-2.26-4.37-3.41-16.53-13.22-30.27-28.15-38-44.91-10.84-23.39-9.37-48.82-4-73.17.17-.79.35-1.59.54-2.39s.33-1.42.51-2.13.37-1.51.56-2.27c.14-.57.29-1.15.44-1.71s.3-1.16.46-1.73c.1-.36.19-.72.3-1.07.2-.77.42-1.52.63-2.27.33-1.13.66-2.26,1-3.4.27-.87.54-1.75.82-2.62s.51-1.6.78-2.38c.59-1.82,1.22-3.64,1.87-5.45.31-.87.62-1.74.94-2.6l.84-2.23q1.05-2.75,2.18-5.48a.05.05,0,0,0,0,0c.1-.25.2-.51.31-.76.43-1,.87-2.09,1.32-3.13s.9-2.08,1.36-3.12c.1-.23.2-.46.31-.69,0,0,0,0,0,0,.21-.5.44-1,.67-1.49L72,210c.25-.54.5-1.07.76-1.6h0l.24-.51c.5-1.07,1-2.12,1.54-3.19l1-1.91c.36-.72.73-1.46,1.1-2.17l.18-.36c1.23-2.39,2.5-4.76,3.81-7.13h0l1.24-2.21c.57-1,1.15-2.05,1.75-3.08L84,187q.58-1,1.2-2c.31-.53.63-1,1-1.58l1.11-1.85q4-6.56,8.44-13l.06-.09,1.3-1.87c.48-.69,1-1.38,1.45-2.06.8-1.14,1.62-2.28,2.45-3.42.55-.76,1.11-1.53,1.68-2.3.44-.59.88-1.18,1.34-1.78.17-.24.34-.48.53-.72l1.39-1.82c1.6-2.09,3.23-4.19,4.9-6.25,1-1.19,1.94-2.39,2.92-3.58.11-.14.22-.28.34-.41l1.65-2a2.33,2.33,0,0,1,.19-.23c.76-.9,1.51-1.79,2.28-2.68.32-.37.64-.75,1-1.12,1.11-1.27,2.22-2.56,3.35-3.81l1.74-1.94c.59-.64,1.17-1.29,1.76-1.94l1.69-1.83q2.72-2.91,5.5-5.79l.06-.05v0c.87-.9,1.77-1.81,2.69-2.72q2.82-2.81,5.85-5.64l1.91-1.77h0l2.73-2.46.18-.16c.61-.55,1.23-1.08,1.85-1.61h0c1.48-1.3,3-2.58,4.53-3.86.56-.47,1.12-.94,1.69-1.4q1.71-1.39,3.47-2.79,3.5-2.76,7.18-5.47c1.23-.91,2.47-1.79,3.72-2.68s2.51-1.77,3.79-2.64,2.57-1.73,3.87-2.59l2-1.26c1.32-.84,2.64-1.67,4-2.49,23.39-14.34,50.21-25.17,77.61-26.81a258.45,258.45,0,0,1,62.91,3.75c2.4.44,4.77.93,7.11,1.44a218.33,218.33,0,0,1,49.79,17.19c5.39,2.65,10.45,5.44,15.17,8.33q2.36,1.45,4.61,2.92c.75.49,1.49,1,2.22,1.48a140.67,140.67,0,0,1,20.53,16.79q1.53,1.53,2.95,3.06A70.37,70.37,0,0,1,437.88,129c.27.58.53,1.17.79,1.75,1.28,2.91,2.4,5.83,3.39,8.76.4,1.18.77,2.36,1.12,3.54s.68,2.34,1,3.52c.36,1.38.7,2.77,1,4.16q.26,1.14.48,2.28A139.33,139.33,0,0,1,448,170.47c.07.81.12,1.64.17,2.46.28,4.43.39,8.88.39,13.33q0,2,0,4c0,1.47-.05,2.95-.09,4.42s-.08,2.7-.13,4.05-.11,2.79-.17,4.18a2,2,0,0,1,0,.25c0,.75-.07,1.5-.1,2.25-.09,1.87-.18,3.77-.28,5.66-.18,3.55-.37,7.09-.54,10.65,0,.46-.05.91-.07,1.37-.08,1.66-.15,3.32-.22,5l0,.76L446.8,232l0,1c-.06,2-.11,4.07-.13,6.09-.08,5.32,0,10.64.28,15.94,0,.53.06,1.09.1,1.64.16,2.48.37,5,.64,7.45.06.63.14,1.28.22,1.91s.16,1.27.25,1.91.17,1.27.27,1.91.19,1.26.3,1.9.21,1.26.33,1.91.23,1.27.36,1.9.24,1.24.37,1.86a.08.08,0,0,1,0,0q.19.94.42,1.89t.45,1.89c.29,1.21.61,2.41,1,3.61.21.75.43,1.5.65,2.24.15.48.3,1,.46,1.45l.11.35c.39,1.22.8,2.42,1.25,3.62.22.63.45,1.24.7,1.87s.47,1.25.74,1.87q1.13,2.79,2.46,5.56c.28.62.59,1.23.91,1.85.14.3.29.59.44.88l.84,1.66c.27.52.53,1,.78,1.56a.3.3,0,0,1,0,.08c.73,1.47,1.42,2.94,2.08,4.39.29.63.57,1.26.85,1.88q2.93,6.56,5,12.7c.15.45.3.9.44,1.35a110.83,110.83,0,0,1,3.54,13.27c.1.51.2,1,.3,1.53l.27,1.52.24,1.51c.07.46.14.92.2,1.37s.15,1.1.21,1.64c.13,1,.22,1.93.3,2.88.13,1.44.22,2.87.26,4.28S474.73,358.83,474.71,360.14Z" style="fill:#84CC16"></path><path d="M454.31,407.68a92.23,92.23,0,0,1-9.37,8.14q-1.89,1.43-3.86,2.79l-1.33.9q-2,1.33-4.08,2.61l-1.41.84q-2.1,1.25-4.29,2.43l-1.46.78c-1,.51-2,1-3,1.52a179.44,179.44,0,0,1-23.91,9.64c-2.23.72-4.48,1.42-6.75,2.08s-4.56,1.28-6.86,1.88c-8.2,2.12-16.58,3.84-24.92,5.22-2,.34-4.05.65-6.06.94-8.39,1.22-16.7,2.09-24.71,2.68-2.07.15-4.13.28-6.16.39-10.86.59-21.05.66-30.05.33-4.93-.18-9.5-.48-13.61-.88q-3.52-.35-6.59-.78-13.77-1.94-27.25-4.77t-26.53-6.5q-5.22-1.47-10.38-3.06A397.17,397.17,0,0,1,167.07,418q-4.75-2.14-9.42-4.38-8.81-4.25-17.22-8.88l-1-.54c-.67-.37-1.34-.74-2-1.13h0q-10-5.64-19.49-11.81l-1.86-1.23c-1-.63-1.91-1.27-2.85-1.91l-.55-.38c-2.15-1.46-4.28-3-6.37-4.48q-2.26-1.65-4.49-3.33c-1.48-1.12-2.93-2.26-4.37-3.41-16.53-13.22-30.27-28.15-38-44.91-10.84-23.39-9.37-48.82-4-73.17.17-.79.35-1.59.54-2.38s.33-1.43.51-2.14.37-1.51.56-2.27c.14-.57.29-1.14.44-1.71s.3-1.16.46-1.73c.1-.36.19-.72.3-1.07.2-.76.42-1.51.63-2.26.33-1.14.66-2.27,1-3.41.27-.87.54-1.75.82-2.62s.51-1.59.78-2.38c.59-1.82,1.22-3.64,1.87-5.45.31-.87.62-1.74.94-2.6l.84-2.23q1.05-2.75,2.18-5.48a.05.05,0,0,0,0,0c.1-.25.2-.51.31-.76.43-1,.87-2.09,1.32-3.13s.9-2.08,1.36-3.12c.1-.23.2-.46.31-.69,0,0,0,0,0,0,.21-.5.44-1,.67-1.49L72,210c.25-.54.5-1.07.76-1.6h0l.24-.51c.5-1.07,1-2.12,1.54-3.18.31-.64.63-1.28,1-1.92s.63-1.26,1-1.89l.15-.28.18-.36c1.23-2.39,2.5-4.76,3.81-7.13h0l1.24-2.21c.57-1,1.15-2.05,1.75-3.07.15-.27.31-.53.47-.8q.58-1,1.2-2c.31-.53.63-1,1-1.58l1.11-1.84q4-6.57,8.44-13l.06-.1,1.3-1.87c.31-.45.62-.89.94-1.33.16-.25.34-.49.51-.73l.76-1.07c.55-.78,1.12-1.57,1.69-2.35s1.11-1.53,1.68-2.29c.44-.6.88-1.19,1.34-1.79.17-.24.34-.47.53-.71l1.39-1.83c1.6-2.09,3.23-4.18,4.9-6.25q1.44-1.8,2.92-3.58c.11-.14.22-.28.34-.41l1.65-2,.19-.23.08-.09c.63-.76,1.27-1.5,1.91-2.25l.29-.34c.32-.37.64-.75,1-1.12,1.11-1.27,2.22-2.55,3.35-3.81l1.74-1.94,1.76-1.93,1.69-1.84q2.72-2.91,5.5-5.79l.07-.07c.87-.9,1.77-1.81,2.69-2.72q2.81-2.81,5.85-5.64c.63-.59,1.26-1.18,1.91-1.77h0l2.73-2.46.18-.16c.61-.54,1.23-1.09,1.85-1.62,1.48-1.3,3-2.58,4.53-3.86l1.69-1.4q1.71-1.39,3.47-2.78,3.5-2.77,7.18-5.48c1.23-.9,2.47-1.8,3.72-2.68s2.51-1.77,3.79-2.64,2.57-1.73,3.87-2.58l2-1.27c1.32-.84,2.64-1.67,4-2.49,23.39-14.34,50.21-25.17,77.61-26.81a258.45,258.45,0,0,1,62.91,3.75q3.6.66,7.11,1.44a218.33,218.33,0,0,1,49.79,17.19c5.39,2.65,10.45,5.44,15.17,8.33,1.58,1,3.11,1.93,4.61,2.92.75.49,1.49,1,2.22,1.48a139.61,139.61,0,0,1,20.53,16.79q1.54,1.53,2.95,3.06A70.73,70.73,0,0,1,437.88,129c.27.58.53,1.17.79,1.75.6,1.36,1.17,2.74,1.7,4.11l.21.54c.52,1.37,1,2.74,1.48,4.12.4,1.17.77,2.35,1.12,3.53s.68,2.34,1,3.52c.36,1.38.7,2.77,1,4.16q.26,1.14.48,2.28A139.33,139.33,0,0,1,448,170.47c.07.82.13,1.64.17,2.46.28,4.43.39,8.88.39,13.33q0,2,0,4c0,1.47-.05,2.95-.09,4.42s-.08,2.7-.13,4.05-.11,2.79-.17,4.18a2.26,2.26,0,0,1,0,.26c0,.75-.07,1.49-.1,2.24-.09,1.88-.18,3.77-.28,5.66-.18,3.55-.37,7.1-.54,10.65,0,.46-.05.91-.07,1.37-.08,1.66-.16,3.32-.22,5l0,.76L446.8,232l0,1c-.06,2-.11,4.05-.13,6.08-.08,5.32,0,10.64.28,15.94,0,.55.06,1.09.1,1.64.16,2.48.37,5,.64,7.45.07.64.14,1.27.22,1.91s.16,1.28.25,1.91.17,1.27.27,1.91l.3,1.9c.1.64.21,1.27.33,1.91s.23,1.26.36,1.9.25,1.24.37,1.86a.08.08,0,0,1,0,0l.42,1.89.45,1.89c.3,1.21.62,2.41,1,3.61.21.75.43,1.5.65,2.24.15.49.3,1,.46,1.45l.11.35c.39,1.21.81,2.42,1.25,3.63.22.62.46,1.24.7,1.86s.48,1.25.74,1.87q1.14,2.79,2.46,5.56c.3.62.6,1.24.91,1.85.14.3.29.59.44.88l.84,1.66c.27.52.53,1,.78,1.57a.25.25,0,0,1,0,.07q1.09,2.22,2.08,4.39c.29.63.57,1.26.85,1.88q2.93,6.56,5,12.71c.15.45.3.89.44,1.34a110.83,110.83,0,0,1,3.54,13.27c.1.51.2,1,.3,1.53l.27,1.52.24,1.51c.07.46.14.92.2,1.37s.15,1.1.21,1.64q.18,1.46.3,2.88c.12,1.45.21,2.88.26,4.28C475.43,377.59,467.51,394.47,454.31,407.68Z" style="fill:#fff;opacity:0.7000000000000001"></path></g><g id="freepik--Beach--inject-202"><path d="M474.71,360.14c-.29,19.55-8,35.16-20.4,47.54a92.23,92.23,0,0,1-9.37,8.14q-1.87,1.44-3.86,2.79l-1.33.9q-2,1.35-4.08,2.61l-1.41.84q-2.1,1.23-4.29,2.43l-1.46.78c-1,.51-2,1-3,1.52a177.32,177.32,0,0,1-23.91,9.64q-3.35,1.1-6.75,2.08c-2.27.66-4.56,1.29-6.86,1.87-8.2,2.13-16.58,3.85-24.92,5.23-2,.33-4.05.65-6.06.94-8.39,1.22-16.7,2.09-24.71,2.68-2.07.15-4.13.28-6.16.39-10.86.59-21.05.66-30.05.32-4.93-.17-9.5-.47-13.61-.88-2.35-.21-4.55-.47-6.59-.76q-13.77-1.93-27.25-4.78t-26.53-6.5q-5.22-1.46-10.38-3.06A391.48,391.48,0,0,1,167.07,418q-4.75-2.11-9.42-4.37-9.33-4.48-18.22-9.43c-.67-.36-1.34-.73-2-1.13q-10-5.62-19.49-11.79c-1.58-1-3.16-2.08-4.71-3.15l-.55-.38c-2.15-1.46-4.28-3-6.37-4.49q-2.26-1.63-4.49-3.32c-1.48-1.13-2.93-2.26-4.37-3.41-16.53-13.22-30.27-28.15-38-44.91-10.84-23.39-9.37-48.82-4-73.18.17-.78.35-1.58.54-2.38s.33-1.42.51-2.13.37-1.51.56-2.27c.14-.57.29-1.14.44-1.72l.12-.45c58.7.4,117.21,4,171.71,17.15,4.53,1.1,9.21,2.35,12.33,4.76s4.1,6.35.88,8.79-9.56,2.71-11.92,5.57c-2,2.39.12,5.47,3.48,7s7.6,1.76,11.65,2c37.57,1.9,75.55,1.23,112.76,4.92,21.93,2.17,79.21,14.15,108.9,22.82.56,1.48,1.09,2.95,1.58,4.4.15.45.3.89.44,1.35a110.83,110.83,0,0,1,3.54,13.27c.1.51.2,1,.3,1.53l.27,1.52.24,1.51c.07.45.14.92.2,1.37s.15,1.1.21,1.64c.13,1,.22,1.93.3,2.88.13,1.44.22,2.88.26,4.28S474.73,358.83,474.71,360.14Z" style="fill:#84CC16"></path><path d="M474.71,360.14c-.29,19.55-8,35.16-20.4,47.54a92.23,92.23,0,0,1-9.37,8.14q-1.87,1.44-3.86,2.79l-1.33.9q-2,1.35-4.08,2.61l-1.41.84q-2.1,1.23-4.29,2.43l-1.46.78c-1,.51-2,1-3,1.52a177.32,177.32,0,0,1-23.91,9.64q-3.35,1.1-6.75,2.08c-2.27.66-4.56,1.29-6.86,1.87-8.2,2.13-16.58,3.85-24.92,5.23-2,.33-4.05.65-6.06.94-8.39,1.22-16.7,2.09-24.71,2.68-2.07.15-4.13.28-6.16.39-10.86.59-21.05.66-30.05.32-4.93-.17-9.5-.47-13.61-.88-2.35-.21-4.55-.47-6.59-.76q-13.77-1.93-27.25-4.78t-26.53-6.5q-5.22-1.46-10.38-3.06A391.48,391.48,0,0,1,167.07,418q-4.75-2.11-9.42-4.37-9.33-4.48-18.22-9.43c-.67-.36-1.34-.73-2-1.13q-10-5.62-19.49-11.79c-1.58-1-3.16-2.08-4.71-3.15l-.55-.38c-2.15-1.46-4.28-3-6.37-4.49q-2.26-1.63-4.49-3.32c-1.48-1.13-2.93-2.26-4.37-3.41-16.53-13.22-30.27-28.15-38-44.91-10.84-23.39-9.37-48.82-4-73.18.17-.78.35-1.58.54-2.38s.33-1.42.51-2.13.37-1.51.56-2.27c.14-.57.29-1.14.44-1.72l.12-.45c58.7.4,117.21,4,171.71,17.15,4.53,1.1,9.21,2.35,12.33,4.76s4.1,6.35.88,8.79-9.56,2.71-11.92,5.57c-2,2.39.12,5.47,3.48,7s7.6,1.76,11.65,2c37.57,1.9,75.55,1.23,112.76,4.92,21.93,2.17,79.21,14.15,108.9,22.82.56,1.48,1.09,2.95,1.58,4.4.15.45.3.89.44,1.35a110.83,110.83,0,0,1,3.54,13.27c.1.51.2,1,.3,1.53l.27,1.52.24,1.51c.07.45.14.92.2,1.37s.15,1.1.21,1.64c.13,1,.22,1.93.3,2.88.13,1.44.22,2.88.26,4.28S474.73,358.83,474.71,360.14Z" style="fill:#fff;opacity:0.4"></path><path d="M264.82,309.44c34.69,1.55,72.62,3.48,99.76,6.13,31.59,3.09,63.64,11,91.68,18.43" style="fill:none;stroke:#999;stroke-linecap:round;stroke-linejoin:round"></path><path d="M250.14,308.8l7.44.32" style="fill:none;stroke:#999;stroke-linecap:round;stroke-linejoin:round"></path><path d="M125.17,267.89a673.15,673.15,0,0,1,72.65,11.4c5.05,1.1,10.26,2.35,13.74,4.76s4.57,6.35,1,8.79-10.65,2.71-13.28,5.57c-2.18,2.39.13,5.47,3.88,6.95s8.47,1.75,13,2c8.49.38,18,.79,28,1.22" style="fill:none;stroke:#999;stroke-linecap:round;stroke-linejoin:round"></path><path d="M113.22,266.72l5.36.5" style="fill:none;stroke:#999;stroke-linecap:round;stroke-linejoin:round"></path><path d="M61.36,263.36q21.4.88,42.56,2.56" style="fill:none;stroke:#999;stroke-linecap:round;stroke-linejoin:round"></path></g><g id="freepik--Sea--inject-202"><path d="M215.92,192.56a8.09,8.09,0,0,0,.59-3.48,8.22,8.22,0,0,0-6.81-7.7,16.58,16.58,0,0,0-33,.11,7,7,0,0,0-1.66-.11,7.26,7.26,0,0,0-4.5,1.84A5.63,5.63,0,0,0,160,181.73a15.66,15.66,0,0,0-30.76-2.22,9,9,0,0,0-1.38,0,8.87,8.87,0,0,0-8.22,6.91,6.21,6.21,0,0,0-8.61,3.11,4.37,4.37,0,0,0-7.8,2.91,4,4,0,0,0,.1.69,2.4,2.4,0,0,0-4.52,1.22,3,3,0,0,0,.08.52,2.35,2.35,0,0,0-.43.19,2.54,2.54,0,0,0-3.64,3.53Z" style="fill:none;stroke:#a8a8a8;stroke-linecap:round;stroke-linejoin:round"></path><path d="M418.84,156.4h-76a9.58,9.58,0,0,1,15.82-7.28,13.65,13.65,0,0,1,26.55,4.46v.08a4.78,4.78,0,0,1,7.13-.46,10.74,10.74,0,0,1,21.42,1.09,3.13,3.13,0,0,1,1.86-.6A3.24,3.24,0,0,1,418.84,156.4Z" style="fill:none;stroke:#a8a8a8;stroke-linecap:round;stroke-linejoin:round"></path><path d="M448.83,203l-114.09-6.19a14.42,14.42,0,0,1,24.36-9.65A20.52,20.52,0,0,1,398.6,196v.12a7.21,7.21,0,0,1,10.75-.11,16.15,16.15,0,0,1,32.07,3.38,4.86,4.86,0,0,1,7.42,3.59Z" style="fill:none;stroke:#a8a8a8;stroke-linecap:round;stroke-linejoin:round"></path><path d="M460.86,307.83c-22.33-8.73-48.39-13.69-74.38-16.26-37.21-3.69-75.19-3-112.76-4.92-4.05-.21-8.29-.48-11.65-2s-5.44-4.56-3.48-6.95c2.36-2.87,8.68-3.11,11.92-5.57s2.24-6.38-.88-8.8-7.8-3.66-12.33-4.75C194.79,243.48,127,241,59.7,241.47c.27-.87.54-1.75.82-2.62s.51-1.59.78-2.38c.59-1.82,1.22-3.64,1.87-5.45.31-.87.62-1.74.94-2.6l.84-2.23q2.42-6.3,5.19-12.53c.32-.74.65-1.47,1-2.2l.7-1.53c.33-.71.66-1.42,1-2.12.5-1.07,1-2.12,1.54-3.18.62-1.27,1.26-2.54,1.9-3.81l.33-.64c123.8-17,324-7.77,371.45,2.69a2.26,2.26,0,0,1,0,.26c-1.48,34-5.54,68.22,10.72,100.52.14.3.29.59.44.88l.84,1.66c.27.52.53,1.05.78,1.57A.25.25,0,0,1,460.86,307.83Z" style="fill:#999"></path><path d="M59.82,241.5c67.62-.47,135.75,1.93,198.56,17.14,4.53,1.1,9.21,2.35,12.33,4.76s4.1,6.35.88,8.79-9.56,2.71-11.92,5.57c-2,2.39.12,5.47,3.48,6.95s7.6,1.76,11.65,2c37.57,1.9,75.55,1.23,112.76,4.92,25.53,2.53,51.12,7.36,73.18,15.79" style="fill:none;stroke:#263238;stroke-linecap:round;stroke-linejoin:round"></path><line x1="357.47" y1="215.86" x2="393.4" y2="215.86" style="fill:none;stroke:#fff;stroke-linecap:round;stroke-linejoin:round"></line><line x1="379.93" y1="221.48" x2="373.75" y2="221.48" style="fill:none;stroke:#fff;stroke-linecap:round;stroke-linejoin:round"></line><line x1="356.35" y1="219.79" x2="364.21" y2="219.79" style="fill:none;stroke:#fff;stroke-linecap:round;stroke-linejoin:round"></line><line x1="260.9" y1="215.3" x2="222.16" y2="215.3" style="fill:none;stroke:#fff;stroke-linecap:round;stroke-linejoin:round"></line><line x1="212.62" y1="216.55" x2="244.06" y2="216.55" style="fill:none;stroke:#fff;stroke-linecap:round;stroke-linejoin:round"></line><line x1="231.15" y1="222.6" x2="246.87" y2="222.6" style="fill:none;stroke:#fff;stroke-linecap:round;stroke-linejoin:round"></line><line x1="264.83" y1="225.97" x2="248.55" y2="225.97" style="fill:none;stroke:#fff;stroke-linecap:round;stroke-linejoin:round"></line><line x1="337.82" y1="236.64" x2="361.96" y2="236.64" style="fill:none;stroke:#fff;stroke-linecap:round;stroke-linejoin:round"></line><line x1="295.62" y1="222.6" x2="274.63" y2="222.6" style="fill:none;stroke:#fff;stroke-linecap:round;stroke-linejoin:round"></line><line x1="345.27" y1="223.58" x2="336.28" y2="223.58" style="fill:none;stroke:#fff;stroke-linecap:round;stroke-linejoin:round"></line><line x1="357.62" y1="232.14" x2="348.64" y2="232.14" style="fill:none;stroke:#fff;stroke-linecap:round;stroke-linejoin:round"></line><line x1="263.71" y1="232.14" x2="273.82" y2="232.14" style="fill:none;stroke:#fff;stroke-linecap:round;stroke-linejoin:round"></line><line x1="293.55" y1="229.18" x2="303.66" y2="229.18" style="fill:none;stroke:#fff;stroke-linecap:round;stroke-linejoin:round"></line><line x1="258.09" y1="232.14" x2="223.85" y2="232.14" style="fill:none;stroke:#fff;stroke-linecap:round;stroke-linejoin:round"></line><line x1="318.36" y1="236.64" x2="328.47" y2="236.64" style="fill:none;stroke:#fff;stroke-linecap:round;stroke-linejoin:round"></line><line x1="312.75" y1="236.64" x2="278.5" y2="236.64" style="fill:none;stroke:#fff;stroke-linecap:round;stroke-linejoin:round"></line><line x1="363.64" y1="225.97" x2="379.93" y2="225.97" style="fill:none;stroke:#fff;stroke-linecap:round;stroke-linejoin:round"></line><line x1="310.22" y1="229.18" x2="326.5" y2="229.18" style="fill:none;stroke:#fff;stroke-linecap:round;stroke-linejoin:round"></line><line x1="386.1" y1="225.97" x2="395.09" y2="225.97" style="fill:none;stroke:#fff;stroke-linecap:round;stroke-linejoin:round"></line><line x1="352.42" y1="215.86" x2="346.8" y2="215.86" style="fill:none;stroke:#fff;stroke-linecap:round;stroke-linejoin:round"></line><line x1="249.43" y1="219.67" x2="260.66" y2="219.67" style="fill:none;stroke:#fff;stroke-linecap:round;stroke-linejoin:round"></line><line x1="217.11" y1="223.16" x2="223.29" y2="223.16" style="fill:none;stroke:#fff;stroke-linecap:round;stroke-linejoin:round"></line><line x1="367.58" y1="236.64" x2="373.75" y2="236.64" style="fill:none;stroke:#fff;stroke-linecap:round;stroke-linejoin:round"></line><line x1="327.15" y1="245.06" x2="349.05" y2="245.06" style="fill:none;stroke:#fff;stroke-linecap:round;stroke-linejoin:round"></line><line x1="266.52" y1="244.5" x2="258.66" y2="244.5" style="fill:none;stroke:#fff;stroke-linecap:round;stroke-linejoin:round"></line><line x1="254.59" y1="244.5" x2="236.9" y2="244.5" style="fill:none;stroke:#fff;stroke-linecap:round;stroke-linejoin:round"></line></g><g id="freepik--Tree--inject-202"><path d="M184.64,156l1-.87-19.53,8.5-.82.35-14.95,6.49-3,1.32-9,3.91a5.37,5.37,0,0,1-.36.52l-4.55,2s0,0,.07,0c1.68.85,5.39,3.26,9.86,6.28C155.05,192.41,172,204.6,172,204.6s17.69,9.88,6.67,6.12l1.31.37-9.84-6.17,0,0-27.7-17.35-8.66-5.43a15.42,15.42,0,0,1,.64,3.66,5.91,5.91,0,0,1-.78,4.71c1.52-1.4,4.4-3.61,2.89-.5q-1.59,3.6-3.16,7.2c.86-2,4.36-2,5.16.08a10,10,0,0,0-4.8,6.23,3.81,3.81,0,0,1,4.77-.61,10.81,10.81,0,0,0-2.22,2.36,11.2,11.2,0,0,0-1.23,2.32l2.57,63.81.08,2,.73,18.12L141,357.14c5.41,24,.88,42.56-.61,47.63l-1-.54c-.67-.37-1.34-.74-2-1.13h0q-10-5.64-19.49-11.81l-1.86-1.23c-.14-7.34-2.71-18.34,4.19-33l3.7-80.46.24-5.23.3-6.51.15-3.51.25-5.19.21-4.77,0-.85.2-4.46,0-.81.29-6.18.06-1.34.27-6,.36-7.59.3-6.59.08-1.7.29-6.39v-.19c-1.53-3.19-3.06-6.36-4.58-9.54l2.94.21a12.47,12.47,0,0,1-1.67-6.72l3.42,2.82c-.1-2.11-1.82-10.79-.37-15l-10.61,4.54-30,12.88-2.28,1,1.34-.15c-7.14,1.25-2.45-1,2.09-2.88,2.75-1.15,5.45-2.15,5.45-2.15s7.45-3.77,16.16-8.07c5.48-2.7,11.46-5.62,16.39-7.93l-12.68-6-7.45-3.55L98,165.23,75.3,154.41l1,.9c-9.08-7.28,8.75,2.35,8.75,2.35s6.34,2.54,14.2,5.77c2.4,1,4.94,2,7.49,3.09s4.93,2.07,7.27,3.07c6.33,2.71,11.77,5.13,13.83,6.32l-7.6-21.74-1.15-3.28-3.13-9-6.55-18.74.07,1.36c-1.21-11.57.43-5.39.43-5.39s3.66,9.36,8,20.52c1.09,2.83,2.23,5.79,3.35,8.73.69,1.81,1.37,3.61,2,5.38,3.15,8.33,6,16,7.26,19.9l5.08-17.57L145,123.59h0l.81-2.81-.73,1.14c5.71-10.14,3.47-4.14,3.47-4.14s-.3,1.25-.84,3.37c-1.8,7.19-6.16,24.49-9.72,37.92-1.69,6.39-3.2,11.91-4.17,15,2.24-1,5.93-2.54,10.22-4.2l1.12-.45c13-5,30.63-11.4,30.63-11.4S194,149,184.64,156Z" style="fill:#999"></path><path d="M41,229.9A298.14,298.14,0,0,1,81.67,198c12.48-8.13,21.66-12.66,36.91-12.46-2.41,2.72-3.59,10.87-3.7,12.6a2.49,2.49,0,0,1-1.95,2,6.84,6.84,0,0,1-3-.14,52.92,52.92,0,0,1-13.2-4.66c3,2.9,5.83,7.51,8,11.1.4.68.74,1.67.12,2.16s-1.41,0-2-.45l-11.1-8.59c3.76,5,3.25,13.86-.32,19q-1.91-7.84-3.82-15.68c2.23,7.2,1.2,15.34-1.94,22.19a53.42,53.42,0,0,1-.8-19c-.61,9.31-4,19.65-9.51,27.19a92.93,92.93,0,0,1,4.76-24.65l-1,.85a61.13,61.13,0,0,1-9.48,21.55c-.38.51-.86,1.07-1.5,1.08a1.46,1.46,0,0,1-1.28-1.41,4.12,4.12,0,0,1,.52-2l8.29-18.58c-4.49,7.11-10.27,13.32-15.74,19.71a4.42,4.42,0,0,1-1.72,1.41,1.53,1.53,0,0,1-1.93-.64,2.29,2.29,0,0,1,.51-2l9.16-14.29c-3.25,4.86-6.17,9.34-9.42,14.2-1.27,1.91-7.86,8.37-7.66,6.09.45-5.38,9.21-14.5,9.21-14.5-2.06-.22-17.54,14.09-19.51,13.53C39,233.05,40.43,230.41,41,229.9Z" style="fill:#84CC16"></path><path d="M214.46,235.2a298.06,298.06,0,0,0-37.76-35.29c-11.72-9.19-20.48-14.5-35.69-15.64,2.16,2.93,2.63,11.15,2.59,12.88a2.48,2.48,0,0,0,1.77,2.2,6.61,6.61,0,0,0,3,.12c4.65-.56,6,1.21,10.33-.54-3.26,2.62-3.23,4-5.68,7.41-.47.65-.89,1.61-.31,2.15s1.4.12,2-.28c3.94-2.53,4.64-2.11,8.58-4.64-4.19,4.64-1.23,10.58,1.88,16l5.18-15.29c-2.85,7-2.53,15.18,0,22.28a53.75,53.75,0,0,0,2.45-18.85c-.21,9.33,2.27,19.93,7.1,27.92a93,93,0,0,0-2.59-25l.94.95a61,61,0,0,0,7.57,22.28c.33.55.75,1.15,1.39,1.21a1.46,1.46,0,0,0,1.41-1.29,4.28,4.28,0,0,0-.35-2l-6.63-19.23c3.85,7.48,9.06,14.17,14,21a4.45,4.45,0,0,0,1.59,1.55,1.54,1.54,0,0,0,2-.46,2.29,2.29,0,0,0-.33-2.08l-7.88-15c2.81,5.13,5.34,9.84,8.15,15,1.1,2,7.09,9,7.1,6.74,0-5.41-7.92-15.26-7.92-15.26,2.08,0,16.25,15.57,18.26,15.18C216.15,238.52,215,235.76,214.46,235.2Z" style="fill:#84CC16"></path><path d="M123.08,150.32a299.18,299.18,0,0,0-19.67-47.8c-6.84-13.22-12.59-21.69-26-29a12.3,12.3,0,0,0,6.45,8.34c2.65,1.31,4.37,4.54,6.52,6.57-3.73-1.19-7.54-1.68-11.27-2.87-1.66-.53-3.94-.82-4.69.75A2.45,2.45,0,0,0,75.15,89a6.74,6.74,0,0,0,2.65,1.35A53.41,53.41,0,0,0,91.58,92.8c-4,1-8.77,3.66-12.41,5.72-.69.39-1.48,1.09-1.18,1.82s1.23.69,2,.59l13.9-2c-5.74,2.49-9.68,10.45-9.11,16.68l11.07-11.75c-5.49,5.16-8.61,12.75-9.26,20.26A53.7,53.7,0,0,0,96.61,108c-4.07,8.4-6.22,19.06-5.15,28.33a92.53,92.53,0,0,0,8-23.78c.15.41.31.83.47,1.25a60.69,60.69,0,0,0-2.39,23.41,2.09,2.09,0,0,0,.77,1.68,1.45,1.45,0,0,0,1.81-.59,4.27,4.27,0,0,0,.54-2l2-20.24c.4,8.39,2.36,16.65,4,24.9a4.29,4.29,0,0,0,.79,2.07,1.53,1.53,0,0,0,2,.4,2.28,2.28,0,0,0,.56-2q-.46-8.47-.92-17c.42,5.84.76,11.17,1.19,17,.16,2.28,2.6,6.69,3.68,8.71,2.17,4.08,4.92,3.5,9.41,4.6C123.24,154,123.3,151,123.08,150.32Z" style="fill:#84CC16"></path><path d="M29.16,149.13c17.25.3,29.07-.34,46,3,14.62,2.84,29.76,8.42,40.59,19.17-3.63.28-10.14,5.32-11.43,6.48a2.48,2.48,0,0,1-2.81.11c-.87-.5.77.71.21-.12-2.63-3.88-7-10.15-8.51-14.58.16,4.18-1,9.45-2,13.52-.18.77-.63,1.72-1.42,1.64s-1-1-1.12-1.71q-1-6.94-2-13.9c-.76,6.21-7.3,12.23-13.43,13.44l8.16-13.93c-3.41,6.72-9.81,11.86-16.83,14.59A53.66,53.66,0,0,1,77.23,162.6c-6.91,6.26-16.54,11.33-25.74,12.92a93,93,0,0,1,20.56-14.4l-1.33-.1a60.94,60.94,0,0,1-21.79,8.89,2.12,2.12,0,0,1-1.82-.27,1.45,1.45,0,0,1,0-1.9,4.24,4.24,0,0,1,1.77-1.08l18.88-7.58c-8.17,2-16.64,2.43-25,3.21a4.49,4.49,0,0,1-2.22-.17,1.56,1.56,0,0,1-1-1.81c.26-.68,1.08-.94,1.79-1.11l16.52-3.89C52.21,156.55,47,157.73,41.28,159c-2.24.49-11.47.55-9.74-1,4.07-3.55,16.71-4,16.71-4-1.33-1.6-22.41-2.08-23.43-3.85C25.55,150,28.42,149.11,29.16,149.13Z" style="fill:#84CC16"></path><path d="M141.19,156.22a298.46,298.46,0,0,0,10.18-50.67c1.66-14.8,1.58-25-5.44-38.58a12.3,12.3,0,0,0,.73,10.52c1.47,2.56,1.11,6.21,1.76,9.08-2.44-3.06-5.33-5.58-7.77-8.65-1.08-1.35-2.82-2.86-4.32-2a2.46,2.46,0,0,0-.94,2.65,6.56,6.56,0,0,0,1.46,2.59,53,53,0,0,0,10.09,9.71c-3.94-1.4-9.33-1.83-13.5-2.14-.79-.06-1.83.08-2,.86s.64,1.26,1.31,1.58l12.66,6c-6.15-1.12-13.85,3.32-16.83,8.81l15.72-3.62c-7.43,1.24-14.24,5.82-19,11.7a53.78,53.78,0,0,0,17.32-7.81c-8,4.72-15.76,12.4-20,20.7a92.49,92.49,0,0,0,19.89-15.32c-.1.43-.2.86-.31,1.3a60.88,60.88,0,0,0-15,18.14A2.09,2.09,0,0,0,127,133a1.45,1.45,0,0,0,1.83.52,4.16,4.16,0,0,0,1.56-1.36l12.87-15.75c-4.33,7.2-7.29,15.15-10.53,22.91a4.48,4.48,0,0,0-.5,2.16,1.56,1.56,0,0,0,1.44,1.45c.73,0,1.22-.75,1.59-1.38q4.34-7.29,8.66-14.6c-2.89,5.09-5.58,9.71-8.46,14.8a16.46,16.46,0,0,0-2.51,6.33c-.46,4.6,2.88,8.61,6,12A44.05,44.05,0,0,0,141.19,156.22Z" style="fill:#84CC16"></path><path d="M148.16,171.08a297.85,297.85,0,0,0,48.63-17.51C210.31,147.33,219,142,227,128.94a12.32,12.32,0,0,0-8.62,6.07c-1.43,2.58-4.73,4.16-6.86,6.21,1.36-3.67,2-7.45,3.38-11.13.6-1.63,1-3.9-.54-4.72a2.48,2.48,0,0,0-2.76.57,6.72,6.72,0,0,0-1.47,2.59A53.35,53.35,0,0,0,207,142.19c-.85-4.1-3.26-8.93-5.16-12.66-.36-.7-1-1.52-1.77-1.25s-.74,1.2-.67,1.93q.69,7,1.37,14c-2.22-5.84-10-10.14-16.25-9.84l11.24,11.58c-4.91-5.72-12.35-9.18-19.82-10.16a53.71,53.71,0,0,0,15.65,10.77c-8.2-4.43-18.77-7.06-28.08-6.41A92.91,92.91,0,0,0,187,149.21l-1.27.41a60.61,60.61,0,0,0-23.28-3.43,2.07,2.07,0,0,0-1.71.69,1.44,1.44,0,0,0,.5,1.83,4.21,4.21,0,0,0,2,.63l20.13,2.86c-8.4,0-16.74,1.61-25.05,2.85a4.51,4.51,0,0,0-2.11.69,1.55,1.55,0,0,0-.49,2,2.27,2.27,0,0,0,2,.65l17-.16c-5.85.17-11.19.27-17,.43a16.41,16.41,0,0,0-6.72,1.13c-4.17,2-5.87,6.92-7.17,11.36C144.44,171.08,147.44,171.27,148.16,171.08Z" style="fill:#84CC16"></path><path d="M229.44,145a297.14,297.14,0,0,0-51.12,7.62c-14.48,3.46-24.09,7-34.44,18.22,3.64.13,10.36,4.87,11.7,6a2.48,2.48,0,0,0,2.82,0,6.73,6.73,0,0,0,1.94-2.26,52.74,52.74,0,0,0,5.7-12.79c0,4.19,1.45,9.4,2.57,13.43.22.76.7,1.69,1.49,1.57s1-1,1-1.76q.71-7,1.4-14c1,6.16,7.82,11.9,14,12.84l-8.75-13.56c3.69,6.56,10.31,11.42,17.44,13.85A53.45,53.45,0,0,0,182,160.51c7.18,6,17,10.61,26.27,11.8a92.74,92.74,0,0,0-21.16-13.5l1.32-.16a60.92,60.92,0,0,0,22.16,7.94,2.1,2.1,0,0,0,1.81-.34,1.44,1.44,0,0,0-.13-1.9,4.25,4.25,0,0,0-1.81-1l-19.19-6.76c8.25,1.63,16.73,1.71,25.13,2.13a4.41,4.41,0,0,0,2.2-.27,1.56,1.56,0,0,0,.87-1.85c-.28-.67-1.11-.89-1.83-1L201,152.4c5.76,1,11,1.94,16.79,2.93,2.26.38,11.48,0,9.69-1.38-4.22-3.37-16.87-3.28-16.87-3.28,1.26-1.65,22.3-3,23.25-4.86A44.61,44.61,0,0,0,229.44,145Z" style="fill:#84CC16"></path><path d="M159.41,270.39a5.94,5.94,0,0,0-1.94-1.75,42.11,42.11,0,0,0-11.15-5.22c3.68.05,8.28-1.11,11.84-2,.68-.17,1.5-.58,1.41-1.27s-.89-.87-1.53-.94q-6.12-.75-12.25-1.46c5.44-.81,10.59-6.68,11.51-12.1-3.27,2-6.53,4-9.8,6.07a18.85,18.85,0,0,1-2.26,1.4l2.26-1.4A28.62,28.62,0,0,0,157.7,238a47.26,47.26,0,0,0-10.17,8.86c-.66.89-1.33,1.74-2,2.53.64-.86,1.31-1.71,2-2.53a47.18,47.18,0,0,0,8.77-20.36,81.36,81.36,0,0,0-12.22,18.38c0-.39-.07-.78-.11-1.16a53.45,53.45,0,0,0,7.34-19.34,1.82,1.82,0,0,0-.27-1.59,1.25,1.25,0,0,0-1.66.07,3.69,3.69,0,0,0-.92,1.58q-3.14,8.37-6.26,16.75c1.57-7.23,1.78-14.68,2.29-22.05a4,4,0,0,0-.2-1.94,1.36,1.36,0,0,0-1.6-.79c-.61.24-.81,1-.95,1.59l-2,9.73c1-5.05.86-4.79,1.83-9.84a14.55,14.55,0,0,0,.3-6c-.68-2.92-3-5-5.58-6.66-.92-.58-1.88-1.13-2.82-1.64,0,.15-.09.43-.17.77-.31-.62-.6-1.19-.72-1.45-2.11,1.89-4.35,4-5.5,6.53a8.42,8.42,0,0,0-.8,3.44,9.52,9.52,0,0,0,.51,2.95h0c.32,1,.73,1.9,1.14,2.82,2.07,4.69,1.52,3.37,3.6,8.07-2.09-4.5-1.69-3.41-3.79-7.92a2.36,2.36,0,0,0-1-1.27.51.51,0,0,0-.24-.07,1.34,1.34,0,0,0-1.38,1.13,3.8,3.8,0,0,0,.24,1.94c.36,1.19.71,2.39,1.08,3.59a119.69,119.69,0,0,0,6.13,17.37L126,231.73c-1.12-1.71-2.26-3.41-3.39-5.13a3.93,3.93,0,0,0-1.24-1.32,1.27,1.27,0,0,0-1.65.29,1.8,1.8,0,0,0,.1,1.62,46.64,46.64,0,0,0,5.91,10.55,60.25,60.25,0,0,0,5.6,6.64l.15,1.15a77.39,77.39,0,0,0-5.81-6.45,80.49,80.49,0,0,0-10.23-8.69,45.52,45.52,0,0,0,9.94,14.87c1.06,1.08,2.16,2.1,3.28,3.05-1.07-.79-2.18-1.55-3.32-2.24a46.75,46.75,0,0,0-8.67-4.17,29.88,29.88,0,0,0,8.47,8.63,25.61,25.61,0,0,0,4.51,2.39c.85.3,1.72.58,2.57.87a22.18,22.18,0,0,1-2.57-.87l-4.55-1.54-6.32-2.14a15.9,15.9,0,0,0,6.11,6.91,13,13,0,0,0,7.83,2.27l-8.08,2.92-3.52,1.27c-.6.22-1.34.62-1.27,1.26s1,.91,1.66.93c.94,0,1.94.05,3,.05a38.05,38.05,0,0,0,9-.74,46.49,46.49,0,0,0-9.31,7.25l-.36.35a5.8,5.8,0,0,0-1.51,2.16,2.16,2.16,0,0,0,.6,2.39,1.73,1.73,0,0,0,1,.33,4.87,4.87,0,0,0,2.92-1.68c2.39-2.47,5.15-4.42,7.55-6.89-.82,2.46-.82,5.68-2.33,7.79a10.8,10.8,0,0,0-1.57,9.14,80.64,80.64,0,0,0,7.06-13.57c.12-.33.24-.65.37-1,0,.57-.09,1.13-.14,1.66s-.11.88-.15,1.32a121.73,121.73,0,0,0-.75,14.15,6.66,6.66,0,0,0,.46,2.85,2.63,2.63,0,0,0,1,1.12,1.86,1.86,0,0,0,1.3.27c.57-5.9,1.12-11.79,1.69-17.69,1.07,3.7,2.65,8.83,3.25,10.5,1,2.6.39,5.28,2.55,7,1.06-6.21-.67-12.5-2.59-18.54a89,89,0,0,0,9.34,10,10.83,10.83,0,0,0-3.59-8.54c-1.95-1.71-2.68-4.85-4-7.06,2.9,1.86,6,3.15,8.91,5,1.29.83,3.16,1.58,4.16.42A2.17,2.17,0,0,0,159.41,270.39Zm-30.72-22.06c.84.6,1.66,1.24,2.45,1.92C130.31,249.65,129.49,249,128.69,248.33Z" style="fill:#84CC16"></path><path d="M159.41,270.39a5.94,5.94,0,0,0-1.94-1.75,42.11,42.11,0,0,0-11.15-5.22c3.68.05,8.28-1.11,11.84-2,.68-.17,1.5-.58,1.41-1.27s-.89-.87-1.53-.94q-6.12-.75-12.25-1.46c5.44-.81,10.59-6.68,11.51-12.1-3.27,2-6.53,4-9.8,6.07a18.85,18.85,0,0,1-2.26,1.4l2.26-1.4A28.62,28.62,0,0,0,157.7,238a47.26,47.26,0,0,0-10.17,8.86c-.66.89-1.33,1.74-2,2.53.64-.86,1.31-1.71,2-2.53a47.18,47.18,0,0,0,8.77-20.36,81.36,81.36,0,0,0-12.22,18.38c0-.39-.07-.78-.11-1.16a53.45,53.45,0,0,0,7.34-19.34,1.82,1.82,0,0,0-.27-1.59,1.25,1.25,0,0,0-1.66.07,3.69,3.69,0,0,0-.92,1.58q-3.14,8.37-6.26,16.75c1.57-7.23,1.78-14.68,2.29-22.05a4,4,0,0,0-.2-1.94,1.36,1.36,0,0,0-1.6-.79c-.61.24-.81,1-.95,1.59l-2,9.73c1-5.05.86-4.79,1.83-9.84a14.55,14.55,0,0,0,.3-6c-.68-2.92-3-5-5.58-6.66-.92-.58-1.88-1.13-2.82-1.64,0,.15-.09.43-.17.77-.31-.62-.6-1.19-.72-1.45-2.11,1.89-4.35,4-5.5,6.53a8.42,8.42,0,0,0-.8,3.44,9.52,9.52,0,0,0,.51,2.95h0c.32,1,.73,1.9,1.14,2.82,2.07,4.69,1.52,3.37,3.6,8.07-2.09-4.5-1.69-3.41-3.79-7.92a2.36,2.36,0,0,0-1-1.27.51.51,0,0,0-.24-.07,1.34,1.34,0,0,0-1.38,1.13,3.8,3.8,0,0,0,.24,1.94c.36,1.19.71,2.39,1.08,3.59a119.69,119.69,0,0,0,6.13,17.37L126,231.73c-1.12-1.71-2.26-3.41-3.39-5.13a3.93,3.93,0,0,0-1.24-1.32,1.27,1.27,0,0,0-1.65.29,1.8,1.8,0,0,0,.1,1.62,46.64,46.64,0,0,0,5.91,10.55,60.25,60.25,0,0,0,5.6,6.64l.15,1.15a77.39,77.39,0,0,0-5.81-6.45,80.49,80.49,0,0,0-10.23-8.69,45.52,45.52,0,0,0,9.94,14.87c1.06,1.08,2.16,2.1,3.28,3.05-1.07-.79-2.18-1.55-3.32-2.24a46.75,46.75,0,0,0-8.67-4.17,29.88,29.88,0,0,0,8.47,8.63,25.61,25.61,0,0,0,4.51,2.39c.85.3,1.72.58,2.57.87a22.18,22.18,0,0,1-2.57-.87l-4.55-1.54-6.32-2.14a15.9,15.9,0,0,0,6.11,6.91,13,13,0,0,0,7.83,2.27l-8.08,2.92-3.52,1.27c-.6.22-1.34.62-1.27,1.26s1,.91,1.66.93c.94,0,1.94.05,3,.05a38.05,38.05,0,0,0,9-.74,46.49,46.49,0,0,0-9.31,7.25l-.36.35a5.8,5.8,0,0,0-1.51,2.16,2.16,2.16,0,0,0,.6,2.39,1.73,1.73,0,0,0,1,.33,4.87,4.87,0,0,0,2.92-1.68c2.39-2.47,5.15-4.42,7.55-6.89-.82,2.46-.82,5.68-2.33,7.79a10.8,10.8,0,0,0-1.57,9.14,80.64,80.64,0,0,0,7.06-13.57c.12-.33.24-.65.37-1,0,.57-.09,1.13-.14,1.66s-.11.88-.15,1.32a121.73,121.73,0,0,0-.75,14.15,6.66,6.66,0,0,0,.46,2.85,2.63,2.63,0,0,0,1,1.12,1.86,1.86,0,0,0,1.3.27c.57-5.9,1.12-11.79,1.69-17.69,1.07,3.7,2.65,8.83,3.25,10.5,1,2.6.39,5.28,2.55,7,1.06-6.21-.67-12.5-2.59-18.54a89,89,0,0,0,9.34,10,10.83,10.83,0,0,0-3.59-8.54c-1.95-1.71-2.68-4.85-4-7.06,2.9,1.86,6,3.15,8.91,5,1.29.83,3.16,1.58,4.16.42A2.17,2.17,0,0,0,159.41,270.39Zm-30.72-22.06c.84.6,1.66,1.24,2.45,1.92C130.31,249.65,129.49,249,128.69,248.33Z" style="fill:#84CC16"></path></g><g id="freepik--beach-bed--inject-202"><path d="M461.18,454H372.71c.39-.38,8.79-12.09,20.35-28.28h40.17Z" style="fill:#84CC16"></path><g style="clip-path:url(#freepik--clip-path--inject-202)"><path d="M461.18,454H372.71c.39-.38,8.79-12.09,20.35-28.28h40.17Z" style="opacity:0.4"></path></g><polygon points="471.86 454.04 471.86 465.65 460.39 454.04 432.44 425.76 390.83 425.76 396.4 416.82 434.64 416.82 471.86 454.04" style="fill:#999;stroke:#263238;stroke-linecap:round;stroke-linejoin:round"></polygon><path d="M433.2,455.25a2.52,2.52,0,0,1-1.82-.78L395.3,416.32a2.49,2.49,0,0,1-.22-3.17L416,383.74a2.5,2.5,0,0,1,4.48.91l15.14,67.56a2.5,2.5,0,0,1-1.27,2.75A2.44,2.44,0,0,1,433.2,455.25Zm-32.86-40.87,28.43,30.06-11.92-53.23Z" style="fill:#999;stroke:#263238;stroke-linecap:round;stroke-linejoin:round"></path><path d="M371.92,454c-1.08,1.08-207.2.36-276.26.09L73.4,454V440.19H362.6l86-117.17-27.09-33.4,9.81.38,31.71,36.33s-37.51,52.79-64.41,90.49l-6.38,8.94L371.92,454" style="fill:#84CC16;stroke:#263238;stroke-linecap:round;stroke-linejoin:round"></path><path d="M421.54,289.62,344.43,397.68H113.32s-42,42.51-39.92,42.51,287.8,1.41,289.2,0,86-117.17,86-117.17Z" style="fill:#84CC16"></path><g style="clip-path:url(#freepik--clip-path-2--inject-202)"><path d="M121.2,408.12l-12.36,7.94c-1.72,1.11-3.69,2.74-3.26,4.75.34,1.62,2.09,2.49,3.67,3,7.32,2.28,15.23,1.58,22.77.22s15-3.38,22.67-3.69c3.83-.15,10.66.43,14.1,2.17,4.27,2.16,5.06,5.34,10.69,5.57l26.57,1.06c6.51.26,14-.56,17.85-5.84,5.08-.87,10.32-2.7,15.41-3.57A102.4,102.4,0,0,0,287.8,428c1.76,3.07,5.94,4.66,9.41,5.38a34.12,34.12,0,0,0,10.58.06c19.79-2.08,38.56-6.32,56.58-14.45A2,2,0,0,1,367,420.3,15.18,15.18,0,0,0,372.2,407a88.22,88.22,0,0,0,18.23-25.7c6.81-14.9,21.15-25.32,27.83-40.27,4.28,2.23,9.09,3.22,13.43,1.11.57-.28,1.84.2,2.48.2,2.56-9.44,2.29-19.16-1.73-28.08-2.51-5.55-7.41-11.13-13.47-10.5-3.2.34-5.94,2.36-8.4,4.43a111.57,111.57,0,0,0-36.52,58.33c-5.1,20.58-22.31,36.47-39.29,49.18l1-1.13c-27.5.46-56.48-1.35-83.38-7.1-29.29-6.25-59.65-3-89.61-2.59-7,.1-15,3.55-21.77,5.5-2.93.83-6,1.68-9,1.09C128.12,410.66,124.58,406,121.2,408.12Z" style="opacity:0.2"></path><g style="opacity:0.2"><path d="M421.54,289.62,344.43,397.68H113.32s-42,42.51-39.92,42.51,287.8,1.41,289.2,0,86-117.17,86-117.17Z"></path><g style="clip-path:url(#freepik--clip-path-3--inject-202)"><path d="M121.2,408.12l-12.36,7.94c-1.72,1.11-3.69,2.74-3.26,4.75.34,1.62,2.09,2.49,3.67,3,7.32,2.28,15.23,1.58,22.77.22s15-3.38,22.67-3.69c3.83-.15,10.66.43,14.1,2.17,4.27,2.16,5.06,5.34,10.69,5.57l26.57,1.06c6.51.26,14-.56,17.85-5.84,5.08-.87,10.32-2.7,15.41-3.57A102.4,102.4,0,0,0,287.8,428c1.76,3.07,5.94,4.66,9.41,5.38a34.12,34.12,0,0,0,10.58.06c19.79-2.08,38.56-6.32,56.58-14.45A2,2,0,0,1,367,420.3,15.18,15.18,0,0,0,372.2,407a88.22,88.22,0,0,0,18.23-25.7c6.81-14.9,21.15-25.32,27.83-40.27,4.28,2.23,9.09,3.22,13.43,1.11.57-.28,1.84.2,2.48.2,2.56-9.44,2.29-19.16-1.73-28.08-2.51-5.55-7.41-11.13-13.47-10.5-3.2.34-5.94,2.36-8.4,4.43a111.57,111.57,0,0,0-36.52,58.33c-5.1,20.58-22.31,36.47-39.29,49.18l1-1.13c-27.5.46-56.48-1.35-83.38-7.1-29.29-6.25-59.65-3-89.61-2.59-7,.1-15,3.55-21.77,5.5-2.93.83-6,1.68-9,1.09C128.12,410.66,124.58,406,121.2,408.12Z" style="opacity:0.2"></path></g><path d="M421.54,289.62,344.43,397.68H113.32s-42,42.51-39.92,42.51,287.8,1.41,289.2,0,86-117.17,86-117.17Z" style="fill:none;stroke:#263238;stroke-linecap:round;stroke-linejoin:round"></path></g></g><path d="M421.54,289.62,344.43,397.68H113.32s-42,42.51-39.92,42.51,287.8,1.41,289.2,0,86-117.17,86-117.17Z" style="fill:none;stroke:#263238;stroke-linecap:round;stroke-linejoin:round"></path><rect x="95.66" y="454.04" width="376.4" height="11.61" style="fill:#bfbfbf;stroke:#263238;stroke-linecap:round;stroke-linejoin:round"></rect><path d="M355.6,423.63c.34,1,.67,2.07,1,3.11" style="fill:none;stroke:#263238;stroke-linecap:round;stroke-linejoin:round"></path><path d="M347,403.33a136.23,136.23,0,0,1,7.6,17.39" style="fill:none;stroke:#263238;stroke-linecap:round;stroke-linejoin:round"></path></g><g id="freepik--Floor--inject-202"><line x1="45.1" y1="465.65" x2="25.48" y2="465.65" style="fill:none;stroke:#263238;stroke-linecap:round;stroke-linejoin:round"></line><line x1="61.37" y1="465.65" x2="53.26" y2="465.65" style="fill:none;stroke:#263238;stroke-linecap:round;stroke-linejoin:round"></line><line x1="474.52" y1="465.65" x2="69.22" y2="465.65" style="fill:none;stroke:#263238;stroke-linecap:round;stroke-linejoin:round"></line></g><g id="freepik--character--inject-202"><path d="M397.82,295.69a.74.74,0,0,1,.38.2" style="fill:none;stroke:#263238;stroke-linecap:round;stroke-linejoin:round"></path><path d="M347.33,354.41l4.9-8.1-27.87-13a97.43,97.43,0,0,0,4,9.55C331,347.58,347.33,354.41,347.33,354.41Z" style="fill:#bfbfbf"></path><path d="M347.33,354.41l4.9-8.1-27.87-13a97.43,97.43,0,0,0,4,9.55C331,347.58,347.33,354.41,347.33,354.41Z" style="fill:none;stroke:#263238;stroke-linecap:round;stroke-linejoin:round"></path><path d="M397.23,309.51s-12.89-6.5-17.09,7.23c-8.87,29-17.85,44.54-17.85,44.54-4.41-1-11.21-4.31-17.27-7.58l-6.33,11.67-.53,1s-2.85,5.29-2.87,7.38a172.63,172.63,0,0,1,9.14,18.56c4.32,4.17,10.6,8.21,19.72,11.26.23.09,1.18.17,1.42.25,0,0,4.17-2.79,14.55-32.21.5-1.41,2.82-10.52,2.82-10.52a113.21,113.21,0,0,0,11.63-14c2.5-4.12,4.75-8.08,6.47-11.55C409.82,317.89,397.46,309.7,397.23,309.51Zm-17.12-17a26.5,26.5,0,0,1,2,5.15l-.52.35a1.85,1.85,0,0,1,0,2c-.48.79-1.27,1.5-1.22,2.42.06,1.23,1.67,1.86,2.84,1.46a7.9,7.9,0,0,0,2.85-2.31,16.37,16.37,0,0,1,12.62-4.92c0,.22,0,.22,0,0,.45,0,.89.08,1.34.15a12,12,0,0,0-1.75-1.24h0l-.32-.18-.06,0,0,0-.21-.07a13.34,13.34,0,0,1-2.05-10.55,7.39,7.39,0,0,0-2.75-.42,6,6,0,0,0-.73.05,11,11,0,0,0-5.31,2.28c-2.49,1.95-6.28,1-8,3.63a1.55,1.55,0,0,1,.19.23A13.33,13.33,0,0,1,380.11,292.49Z" style="fill:#bfbfbf;stroke:#263238;stroke-linecap:round;stroke-linejoin:round"></path><path d="M398.62,296.6c.45,0,.89.08,1.34.15a18.27,18.27,0,0,1,5.06,7.14c1.57,3.84,2.51,9.25,1.49,16.67a36.19,36.19,0,0,1-1,4.86c-2.12,7.85-6.55,15.5-10.93,21.69,2.5-4.12,4.75-8.08,6.47-11.55,8.78-17.67-3.58-25.86-3.81-26.05,0,0-12.89-6.5-17.09,7.23-8.87,29-17.85,44.54-17.85,44.54-4.41-1-11.21-4.31-17.27-7.58l.24-.45,0,0,4.36-8.08.09-.14c.47-.8,2.69-4.94,1.56-9.06l0-.14a13.89,13.89,0,0,1,4.6-14.12c6.07-5.08,16.07-13.76,21.91-20.32a21.54,21.54,0,0,1,3.78-3.38,1.85,1.85,0,0,1,0,2c-.48.79-1.27,1.5-1.22,2.42.06,1.23,1.67,1.86,2.84,1.46a7.9,7.9,0,0,0,2.85-2.31,16.37,16.37,0,0,1,12.62-4.92" style="fill:#263238;stroke:#263238;stroke-linecap:round;stroke-linejoin:round"></path><path d="M397.82,295.3a.74.74,0,0,1,.38.2" style="fill:none;stroke:#263238;stroke-linecap:round;stroke-linejoin:round"></path><path d="M397.58,295.21a5.84,5.84,0,0,0,.47.64" style="fill:none;stroke:#263238;stroke-linecap:round;stroke-linejoin:round"></path><polygon points="299.47 302.61 313.58 335.13 321.91 334.81 308.82 303.61 299.47 302.61" style="fill:#263238"></polygon><polygon points="299.47 302.61 298.51 303.3 312.8 336.05 320.88 335.59 321.91 334.81 313.58 335.13 299.47 302.61" style="fill:#fff"></polygon><path d="M323.6,331.09l-2.67-10.54s-6-.93-7.33-2.88c0,0-2.07,2.74.88,4.25s5.42,5.23,5.42,5.23Z" style="fill:#bfbfbf;stroke:#263238;stroke-linecap:round;stroke-linejoin:round"></path><path d="M386.23,290.25c-1.27,1.14-2.66,2.31-4.35,2.51s-3.65-1-3.52-2.74c.11-1.47,1.59-2.39,2.9-3.06,1.6-.83,10-6.3,11.31-5.15C394.33,283.34,387.29,289.26,386.23,290.25Z" style="fill:#263238;stroke:#263238;stroke-linecap:round;stroke-linejoin:round"></path><path d="M371.51,252.9a56.34,56.34,0,0,0-3.05,6.66c-.9,2.71-.77,7.72-1.06,8.55s-4.33,5.65-4.36,6.62,3.64,2.92,3.64,2.92.94,6.7,1.63,9.53.56,4.41,4.27,4.36,8.77-1.5,15.08-4.73,12.06-5.21,13.3-11.7-16.63-21.89-19.1-23.59S371.51,252.9,371.51,252.9Z" style="fill:#bfbfbf"></path><g style="clip-path:url(#freepik--clip-path-4--inject-202)"><path d="M363.68,277.48c4.47,1.67,9.47.71,14-.75s9-3.44,13.76-3.79a17.15,17.15,0,0,0,5.07-.68c1.59-.64,3-2.28,2.58-3.95a3.53,3.53,0,0,0-2.61-2.42,10.61,10.61,0,0,0-3.73-.11c-7.51.68-15.44.69-22.87,1.94C366.66,268.27,357.61,275.46,363.68,277.48Z" style="opacity:0.2"></path></g><path d="M371.51,252.9a56.34,56.34,0,0,0-3.05,6.66c-.9,2.71-.77,7.72-1.06,8.55s-4.33,5.65-4.36,6.62,3.64,2.92,3.64,2.92.94,6.7,1.63,9.53.56,4.41,4.27,4.36,8.77-1.5,15.08-4.73,12.06-5.21,13.3-11.7-16.63-21.89-19.1-23.59S371.51,252.9,371.51,252.9Z" style="fill:none;stroke:#263238;stroke-linecap:round;stroke-linejoin:round"></path><path d="M369.83,268.26c.05,1.27.52,2.29,1,2.28s.91-1.09.86-2.37-.54-2.3-1-2.28S369.77,267,369.83,268.26Z" style="fill:#263238"></path><path d="M374.27,265.16s-1.82-4.72-4.7-3.1" style="fill:none;stroke:#263238;stroke-linecap:round;stroke-linejoin:round"></path><path d="M367.66,280.07s3.47,1.44,5.32-1.41" style="fill:none;stroke:#263238;stroke-linecap:round;stroke-linejoin:round"></path><path d="M401,335.56c-1.72,3.47-4,7.43-6.47,11.55-4.17,6.88-9,14.21-13.33,20.47-6.25,9.12-11.32,16-11.32,16-7.78-1.16-21.33-10.58-31.23-18.2-7-5.39-12.2-9.88-12.2-9.88h0L322,351.7a44.34,44.34,0,0,0-4.63-2.48c-1.89-.78-4.26-1.78-5.9-2.56a3.81,3.81,0,0,1-1.69-1.7,12.13,12.13,0,0,1-1.18-4.46c-.06-.58-.09-1.07-.1-1.45h0a13.11,13.11,0,0,1-1-1.42c-.2-.32-.39-.66-.58-1-.83-.91.47-4.77.47-4.77l-2-1.23a2.46,2.46,0,0,1-2.35-1.22,2.56,2.56,0,0,1,0-2.15c.05-.13.1-.24.14-.33a0,0,0,0,1,0,0l.06-.1a.26.26,0,0,1,.07-.1l1.54.17H305a22.9,22.9,0,0,1,3.12.34h.11l.08,0h.05a7.44,7.44,0,0,1,1,.34l.47.19.1,0q.84.31,1.65.57h0l.18.05.22.08.14,0,.87.31,2.32.8-.13-.06-.08,0a12.5,12.5,0,0,1-2.67-1.58,2.85,2.85,0,0,1-1-1.59v-.05c0-.76.33-1.42,1.23-1.21,3.13,1.11,4.27.4,5.84,1.61v0c1.29,1,2.69,2.15,4,3.2l.9.71.14.4c.09.23.2.55.33.93s.27.84.44,1.34l.15.43a57.07,57.07,0,0,0,3.83,9.12,6.65,6.65,0,0,0,.9,1.21c.19.18,1.3,1.1,2.53,2.07.19,0,6.23,3.74,13.26,7.53,6.06,3.27,12.86,6.58,17.27,7.58,0,0,9-15.54,17.85-44.54,4.2-13.73,17.09-7.23,17.09-7.23C397.46,309.7,409.82,317.89,401,335.56Z" style="fill:#bfbfbf;stroke:#263238;stroke-linecap:round;stroke-linejoin:round"></path><path d="M312.17,328.55l3,1C314.12,329.15,313.15,328.85,312.17,328.55Z" style="fill:#fff;stroke:#263238;stroke-linecap:round;stroke-linejoin:round"></path><line x1="309.05" y1="332" x2="315.94" y2="334.26" style="fill:none;stroke:#263238;stroke-linecap:round;stroke-linejoin:round"></line><path d="M313.58,342.8a15.36,15.36,0,0,1-3.75-3.37" style="fill:none;stroke:#263238;stroke-linecap:round;stroke-linejoin:round"></path><path d="M315.26,338.92a41.85,41.85,0,0,1-7-3.85" style="fill:none;stroke:#263238;stroke-linecap:round;stroke-linejoin:round"></path><line x1="398.62" y1="296.6" x2="398.61" y2="296.6" style="fill:none;stroke:#263238;stroke-linecap:round;stroke-linejoin:round"></line><path d="M369.82,268.65c.06,1.28.53,2.3,1,2.28s.91-1.09.86-2.36-.54-2.31-1-2.29S369.77,267.36,369.82,268.65Z" style="fill:#263238"></path><path d="M374.27,265.55s-1.82-4.72-4.7-3.1" style="fill:none;stroke:#263238;stroke-linecap:round;stroke-linejoin:round"></path><path d="M392.08,262.56l-2.58,5.58a7.38,7.38,0,0,0-.89,3c0,1.05-12.58,17.86,2.21,25.27a101.1,101.1,0,0,1,10,6.55c10.82,8.31.6,22.52,12,30.52,1.34.95,1.59,2.93,2.91,3.9a5.48,5.48,0,0,0,4.64,1c-2.67-.72-4.82-3.94-4.06-6.6a5.44,5.44,0,0,1,6.54-3.56,8,8,0,0,0,4.08,9.13c3.34,1.56,7.22,1.41,10.87.9s7.32-1.35,11-1.06c3.44.27,6.87,3,7.42,6.42,1.66-1.76,1.93-6.55,1.36-8.9a7.45,7.45,0,0,0-4.67-5.16,6.35,6.35,0,0,1,8.66,3.31c1.25-3.36,2.37-8.08,1.51-11.56-.95-3.85-4.25-6.6-7.36-9.06-3.8-16.72-34.37-15.18-35.58-36.24C418,238.37,395.44,255.26,392.08,262.56Z" style="fill:#263238;stroke:#263238;stroke-linecap:round;stroke-linejoin:round"></path><path d="M389.61,277.65c-1.66,5.51-1.63,12.22,6.33,16.21a99.34,99.34,0,0,1,10,6.55c6.65,5.11,5.35,12.44,6,19.19" style="fill:none;stroke:#bfbfbf;stroke-linecap:round;stroke-linejoin:round;stroke-width:0.75px"></path><path d="M393.23,269.32c0,.35-1,1.49-2.31,4.48" style="fill:none;stroke:#bfbfbf;stroke-linecap:round;stroke-linejoin:round;stroke-width:0.75px"></path><path d="M396.53,281.39c-.93,2,.3,4.45,2.08,5.77s4,1.86,6.05,2.71a21,21,0,0,1,12,26" style="fill:none;stroke:#bfbfbf;stroke-linecap:round;stroke-linejoin:round;stroke-width:0.75px"></path><path d="M416,280.61a54.79,54.79,0,0,0,11,9.6c6.12,3.93,12.79,6.91,19.09,10.54,4.37,2.52,9,5.93,9.67,10.93" style="fill:none;stroke:#bfbfbf;stroke-linecap:round;stroke-linejoin:round;stroke-width:0.75px"></path><path d="M412,274.68a29.67,29.67,0,0,0,1.66,3" style="fill:none;stroke:#bfbfbf;stroke-linecap:round;stroke-linejoin:round;stroke-width:0.75px"></path><path d="M447.28,269.07a8.55,8.55,0,0,1-6.61,3.36c-3.74-.07-7.15-1.7-10.67-3-5.08-1.95-10.32-3.93-15.74-4.17-6.52-.28-12.54,2-18.63,3.57a68.58,68.58,0,0,1-30.83,1.12c-10.32-2.14-20.15-7.52-26.61-15.13a233.55,233.55,0,0,1,26.57-8.64l-.14.37.32.1,0,.11a77.13,77.13,0,0,0,12.77,3h.12c14.83,2.61,26.1.88,32-.56l.06,0c4-.69,6.32-1.35,6.32-1.35l-.21-.62c7.6,1.34,25.73,5,30.39,8.75a11.37,11.37,0,0,1,2.47,2.42,6.71,6.71,0,0,1,.91,3.95A10.72,10.72,0,0,1,447.28,269.07Z" style="fill:#fff;stroke:#263238;stroke-linecap:round;stroke-linejoin:round"></path><path d="M416.16,247.83s-2.35.66-6.32,1.35l-.06,0a102,102,0,0,1-32,.56h-.12a99.87,99.87,0,0,1-12.74-3.14l.09-.27,3.42-9.54a14.44,14.44,0,0,1,14-9.62l16.81.38a14.47,14.47,0,0,1,13.37,9.81l3.26,9.54.1.3Z" style="fill:#fff;stroke:#263238;stroke-linecap:round;stroke-linejoin:round"></path><circle cx="398.72" cy="249.84" r="2.5" style="fill:#263238;stroke:#263238;stroke-linecap:round;stroke-linejoin:round"></circle><circle cx="401.22" cy="249.84" r="2.5" style="fill:#fff;stroke:#263238;stroke-linecap:round;stroke-linejoin:round"></circle><path d="M406.58,249.84a2.51,2.51,0,1,1-2.5-2.5A2.5,2.5,0,0,1,406.58,249.84Z" style="fill:#bfbfbf;stroke:#263238;stroke-miterlimit:10"></path><path d="M357.36,390.28c-.11,8.73-2.68,19.9-15.44,26.3a20.74,20.74,0,0,1-3.45,1.32h0c-.63.19-1.29.36-2,.52l.76-.32.45-.21c-3.24,1-35.58,1.92-42.35,1.44-23.38-1.67-60.43-9.12-60.43-9.12s-7.44.93-16.79,1.8c-10.12.94-22.47,1.79-30,1.3-.66-.05-1.64-.09-2.89-.15h0c-6.41-.26-19.63-.69-30.57-2.2.07.13.15.25.22.37,2-.4-4.6-.88-9.86-1.13a13.28,13.28,0,0,0-9.77,3.66,12.27,12.27,0,0,1-3.25,2.28c-6.47,3-8.61-2.19-12.4-11.82-1.06-2.69-1.34-4.34-2.91-5.85a9.33,9.33,0,0,0-1.64-1.25l-.07-.05c-3.22-2-11.53-11.9-13.71-16.6a2.63,2.63,0,0,1,3.94-3.25,9.28,9.28,0,0,1,2.15,2.55c.45.75,1.78,1.08,2.72,1.53,7.54,3.6,18.47,13.44,29.09,14l11.14.33,64.65-6.34,8.22-.81c1.93-.7,8.3-1.39,16.33-2,18.63-1.46,46.16-2.58,47.72-2.71l2.06-.18c8.07-.7,16.24-1.23,24-1.66,6.16-.33,12-.59,17.39-.79,5.16-.2,9.81-.34,13.71-.44l1.85,1.46C350.23,385.41,354.06,388.11,357.36,390.28Z" style="fill:#bfbfbf;stroke:#263238;stroke-linecap:round;stroke-linejoin:round"></path><path d="M139.89,404.58a9.82,9.82,0,0,1-3,1.49,2.87,2.87,0,0,1-2.93-.74" style="fill:none;stroke:#263238;stroke-linecap:round;stroke-linejoin:round"></path><path d="M120.09,400.18c-3.39-.63-9.12-6.49-11.33-9.13" style="fill:none;stroke:#263238;stroke-linecap:round;stroke-linejoin:round"></path><path d="M109.62,383.39a12,12,0,0,1-2.25-3.16" style="fill:none;stroke:#263238;stroke-linecap:round;stroke-linejoin:round"></path><path d="M122,405.36a12.79,12.79,0,0,0,1.78,7.66" style="fill:none;stroke:#263238;stroke-linecap:round;stroke-linejoin:round"></path><path d="M106.55,385.4a9.35,9.35,0,0,1-5.26-5.19" style="fill:#fff;stroke:#263238;stroke-linecap:round;stroke-linejoin:round"></path><path d="M362.28,393.38a8.2,8.2,0,0,1,3.22,10.56,1.87,1.87,0,0,1-.17.3c-4.25,6.2-12.64,14.56-26.86,13.66h0a38.05,38.05,0,0,1-6.78-1.06c-9.13-2.24-24-15-37.62-28.39-1.63-1.6-3.24-3.22-4.83-4.82-14.82-15-27.09-29.41-27.09-29.41s-3.81,14-10.64,20.43c-1.56,1.46-6.37,6.3-12.05,11.87-5.38,5.26-11.53,11.2-16.41,15.53-.82.94-1.6,1.88-2.31,2.77a12.07,12.07,0,0,0-2.62,7.19,10.73,10.73,0,0,0,.09,2,13.66,13.66,0,0,1-.06,3.62c-.77,5.64-14,2.38-14,2.38-11.33.78-25.85,1.77-28.66,1.23a2.41,2.41,0,0,1-.28-4.65,8.24,8.24,0,0,1,3-.21c.8.06,1.75-.74,2.58-1.19a45.09,45.09,0,0,1,4.34-2h0c7-2.85,16.56-5.85,21.48-12l4.3-5.56,3.94-6.28,30.7-49s4.92-9.19,15-11c5.94-1,18.53,5.35,33.05,14.63,0,0,31.83,22.28,38.6,27.43,4.24,3.23,8.29,6.38,12,9.31l1.85,1.46c4.07,3.21,7.9,5.91,11.2,8.08C359.18,391.48,360.84,392.51,362.28,393.38Z" style="fill:#bfbfbf;stroke:#263238;stroke-linecap:round;stroke-linejoin:round"></path><path d="M213.88,405.55a9,9,0,0,1-.48,3,2.65,2.65,0,0,1-2.12,1.76" style="fill:none;stroke:#263238;stroke-linecap:round;stroke-linejoin:round"></path><path d="M181.19,420a6.85,6.85,0,0,1-5.9,1" style="fill:#fff;stroke:#263238;stroke-linecap:round;stroke-linejoin:round"></path><path d="M184.72,416c-2,.57-3,1.42-5,2-.56.15-2.21,0-2.71.35a2.06,2.06,0,0,0-1,1.36,1.27,1.27,0,0,0,.78,1.4" style="fill:none;stroke:#263238;stroke-linecap:round;stroke-linejoin:round"></path><path d="M181.82,415.69a9,9,0,0,1-5.3,1.42,2,2,0,0,0-2.11,1.45,1.8,1.8,0,0,0,.56,2.17" style="fill:none;stroke:#263238;stroke-linecap:round;stroke-linejoin:round"></path><path d="M263.38,348.84a33.36,33.36,0,0,1-3.54,12" style="fill:none;stroke:#263238;stroke-linecap:round;stroke-linejoin:round"></path><path d="M251.6,333.31a26.49,26.49,0,0,0-8.49,15.88" style="fill:none;stroke:#263238;stroke-linecap:round;stroke-linejoin:round"></path><path d="M298.67,392.1c-1.48,4.7-2.82,9-4.3,13.66a172.31,172.31,0,0,0-5.56-21.91A40.47,40.47,0,0,0,298.67,392.1Z" style="fill:#263238;stroke:#263238;stroke-linecap:round;stroke-linejoin:round"></path><path d="M335.23,371.9c0,.12.29-1.88,0,.36,0-1.6.52-4,2.52-5.14,8.05,12.4,20.65,21.18,33,29.29-1,3.77-3.76,6.15-4.87,7.57.32.95-9.31,17.76-28.89,21.22-13.22,2.33-25.78,3.47-38.55-.69-6.35-10.06-4.15-23.35.59-34.26S310.8,369.38,314,357.92c3.91,2.22,7.8,4.56,11.71,6.78C329.33,366.77,335.09,367.72,335.23,371.9Z" style="fill:#fff;stroke:#263238;stroke-linecap:round;stroke-linejoin:round"></path><path d="M366.43,401.84c.12-1.91-1.71-3.5-3.6-3.79a10.77,10.77,0,0,0-5.56,1.12,14.33,14.33,0,0,1-5.5,1.49,5.5,5.5,0,0,0,4.86,4.18,12.15,12.15,0,0,0,6.66-2C364.17,402.32,365.62,401.23,366.43,401.84Z" style="fill:#fff;stroke:#263238;stroke-linecap:round;stroke-linejoin:round"></path><path d="M359.83,400.85l3.92-.11" style="fill:#fff;stroke:#263238;stroke-linecap:round;stroke-linejoin:round"></path><path d="M368.37,402.91a2.78,2.78,0,1,1-2.77-2.77A2.78,2.78,0,0,1,368.37,402.91Z" style="fill:#fff;stroke:#263238;stroke-linecap:round;stroke-linejoin:round"></path><path d="M367.42,417.85a11.43,11.43,0,0,0,5.4-10c-.07-2.18-1-4.62-3.11-5.29a3.45,3.45,0,0,0-4.36,4.26C365.35,406.71,368.37,414.28,367.42,417.85Z" style="fill:#fff;stroke:#263238;stroke-linecap:round;stroke-linejoin:round"></path><path d="M367.82,403.9a11.73,11.73,0,0,1,2.23,5.68" style="fill:#fff;stroke:#263238;stroke-linecap:round;stroke-linejoin:round"></path><path d="M336.46,375.7a51.92,51.92,0,0,0,14,19.92" style="fill:none;stroke:#263238;stroke-linecap:round;stroke-linejoin:round"></path><path d="M339.84,399.44c.46,1,1,2,1.49,3" style="fill:#fff;stroke:#263238;stroke-linecap:round;stroke-linejoin:round"></path><path d="M335.26,379.27a51.51,51.51,0,0,0,3.32,17.14" style="fill:none;stroke:#263238;stroke-linecap:round;stroke-linejoin:round"></path></g><g id="freepik--current-location--inject-202"><rect x="223.47" y="173.11" width="158.99" height="43.92" rx="12.42" style="fill:#fff;stroke:#263238;stroke-linecap:round;stroke-linejoin:round"></rect><path d="M262.3,188.21v1.48c0,1.79-.9,2.81-2.62,2.81s-2.61-1-2.61-2.81V183.9c0-1.79.89-2.81,2.61-2.81s2.62,1,2.62,2.81V185h-1.66v-1.2c0-.79-.35-1.1-.91-1.1s-.91.31-.91,1.1v6c0,.79.35,1.08.91,1.08s.91-.29.91-1.08v-1.6Z" style="fill:#263238"></path><path d="M265,181.22v8.6c0,.8.35,1.08.9,1.08s.91-.28.91-1.08v-8.6h1.66v8.49c0,1.78-.89,2.8-2.61,2.8s-2.62-1-2.62-2.8v-8.49Z" style="fill:#263238"></path><path d="M273.37,192.37a3.34,3.34,0,0,1-.16-1.37v-1.75c0-1-.35-1.42-1.15-1.42h-.6v4.54h-1.75V181.22h2.64c1.82,0,2.6.84,2.6,2.56v.88a2.21,2.21,0,0,1-1.15,2.26c.87.37,1.16,1.21,1.16,2.38V191a3.35,3.35,0,0,0,.19,1.35Zm-1.91-9.56v3.43h.68c.65,0,1.05-.29,1.05-1.18V184c0-.8-.27-1.15-.89-1.15Z" style="fill:#263238"></path><path d="M279.77,192.37a3.54,3.54,0,0,1-.16-1.37v-1.75c0-1-.35-1.42-1.14-1.42h-.61v4.54h-1.75V181.22h2.64c1.82,0,2.6.84,2.6,2.56v.88a2.21,2.21,0,0,1-1.15,2.26c.88.37,1.17,1.21,1.17,2.38V191a3.18,3.18,0,0,0,.19,1.35Zm-1.91-9.56v3.43h.69c.65,0,1.05-.29,1.05-1.18V184c0-.8-.27-1.15-.89-1.15Z" style="fill:#263238"></path><path d="M284.27,185.92h2.4v1.59h-2.4v3.27h3v1.59h-4.78V181.22h4.78v1.59h-3Z" style="fill:#263238"></path><path d="M289.94,184.29v8.08h-1.58V181.22h2.2l1.8,6.67v-6.67h1.56v11.15h-1.8Z" style="fill:#263238"></path><path d="M294.67,181.22h5.41v1.59h-1.83v9.56H296.5v-9.56h-1.83Z" style="fill:#263238"></path><path d="M303.32,181.22h1.75v9.56H308v1.59h-4.64Z" style="fill:#263238"></path><path d="M308.58,183.9a2.66,2.66,0,1,1,5.32,0v5.79a2.66,2.66,0,1,1-5.32,0Zm1.75,5.91c0,.79.35,1.09.91,1.09s.91-.3.91-1.09v-6c0-.79-.36-1.1-.91-1.1s-.91.31-.91,1.1Z" style="fill:#263238"></path><path d="M320.11,188.21v1.48c0,1.79-.89,2.81-2.61,2.81s-2.61-1-2.61-2.81V183.9c0-1.79.89-2.81,2.61-2.81s2.61,1,2.61,2.81V185h-1.66v-1.2c0-.79-.35-1.1-.9-1.1s-.91.31-.91,1.1v6c0,.79.35,1.08.91,1.08s.9-.29.9-1.08v-1.6Z" style="fill:#263238"></path><path d="M326.85,192.37h-1.77l-.3-2h-2.15l-.3,2h-1.61l1.78-11.15h2.57Zm-4-3.54h1.69l-.84-5.64Z" style="fill:#263238"></path><path d="M326.55,181.22H332v1.59h-1.83v9.56h-1.75v-9.56h-1.83Z" style="fill:#263238"></path><path d="M332.73,181.22h1.75v11.15h-1.75Z" style="fill:#263238"></path><path d="M335.61,183.9a2.66,2.66,0,1,1,5.32,0v5.79a2.66,2.66,0,1,1-5.32,0Zm1.75,5.91c0,.79.35,1.09.91,1.09s.91-.3.91-1.09v-6c0-.79-.35-1.1-.91-1.1s-.91.31-.91,1.1Z" style="fill:#263238"></path><path d="M343.63,184.29v8.08h-1.58V181.22h2.2l1.8,6.67v-6.67h1.56v11.15h-1.8Z" style="fill:#263238"></path><path d="M260.1,208.13v-7.54h-1.55v-.85h4v.85H261v7.54Z" style="fill:#999"></path><path d="M265.1,199.74c1.32,0,1.87.67,1.87,1.92v.68c0,.92-.32,1.5-1,1.73.77.22,1.06.85,1.06,1.75v1.31a2.13,2.13,0,0,0,.16,1h-.94a2.14,2.14,0,0,1-.16-1v-1.32c0-.94-.44-1.24-1.22-1.24h-.66v3.58h-.94v-8.39Zm-.24,4c.75,0,1.19-.24,1.19-1.16v-.8c0-.76-.28-1.15-1-1.15h-.91v3.11Z" style="fill:#999"></path><path d="M267.89,201.76c0-1.28.63-2.11,1.92-2.11s1.93.83,1.93,2.11v4.35a1.85,1.85,0,0,1-1.93,2.11c-1.29,0-1.92-.84-1.92-2.11Zm.92,4.39c0,.77.32,1.22,1,1.22s1-.45,1-1.22v-4.43c0-.76-.31-1.22-1-1.22s-1,.46-1,1.22Z" style="fill:#999"></path><path d="M274.46,199.74c1.32,0,1.88.78,1.88,2v1c0,1.33-.62,2-1.95,2h-.83v3.31h-.93v-8.39Zm-.07,4.24c.7,0,1-.32,1-1.12v-1.12c0-.77-.27-1.15-1-1.15h-.9V204Z" style="fill:#999"></path><path d="M278,199.74v8.39h-.93v-8.39Z" style="fill:#999"></path><path d="M282.68,201.76v.76h-.89v-.8c0-.76-.3-1.22-1-1.22s-1,.46-1,1.22v4.43c0,.76.31,1.22,1,1.22s1-.46,1-1.22v-1.09h.89v1.05c0,1.27-.6,2.11-1.89,2.11s-1.89-.84-1.89-2.11v-4.35c0-1.27.6-2.11,1.89-2.11S282.68,200.49,282.68,201.76Z" style="fill:#999"></path><path d="M284.48,206.44l-.32,1.69h-.87l1.61-8.39h1.36l1.6,8.39h-.93l-.33-1.69Zm.12-.8h1.87l-.94-4.85Z" style="fill:#999"></path><path d="M288.6,208.13v-8.39h.93v7.54h2.4v.85Z" style="fill:#999"></path><path d="M296.38,199.74c1.31,0,1.83.62,1.83,1.86V202c0,.89-.25,1.44-1,1.67.82.23,1.13.87,1.13,1.8v.71a1.72,1.72,0,0,1-1.92,2H294.5v-8.39Zm-.22,3.56c.74,0,1.13-.24,1.13-1.12v-.49c0-.74-.26-1.1-.93-1.1h-.92v2.71Zm.27,4c.69,0,1-.36,1-1.14v-.74c0-.94-.37-1.25-1.18-1.25h-.81v3.13Z" style="fill:#999"></path><path d="M302.19,203.46v.83h-2.05v3h2.52v.85h-3.45v-8.39h3.45v.85h-2.52v2.87Z" style="fill:#999"></path><path d="M304.47,206.44l-.32,1.69h-.86l1.6-8.39h1.36l1.61,8.39h-.94l-.32-1.69Zm.12-.8h1.87l-.94-4.85Z" style="fill:#999"></path><path d="M312.28,201.76v.76h-.88v-.8c0-.76-.3-1.22-1-1.22s-1,.46-1,1.22v4.43c0,.76.31,1.22,1,1.22s1-.46,1-1.22v-1.09h.88v1.05c0,1.27-.6,2.11-1.89,2.11s-1.88-.84-1.88-2.11v-4.35c0-1.27.6-2.11,1.88-2.11S312.28,200.49,312.28,201.76Z" style="fill:#999"></path><path d="M314.07,204.35v3.78h-.93v-8.39h.93v3.78h2.07v-3.78h.93v8.39h-.93v-3.78Z" style="fill:#999"></path><path d="M318.44,208.13h-.35V207h.9v1.08l-.46,1.14h-.39Z" style="fill:#999"></path><path d="M322.75,199.74v8.39h-.94v-8.39Z" style="fill:#999"></path><path d="M327.34,201.75V202h-.88v-.28c0-.75-.29-1.2-1-1.2s-1,.45-1,1.19c0,1.89,2.82,2.07,2.82,4.43,0,1.27-.62,2.1-1.9,2.1s-1.88-.83-1.88-2.1v-.48h.87v.53c0,.75.32,1.2,1,1.2s1-.45,1-1.2c0-1.88-2.81-2-2.81-4.42,0-1.29.6-2.1,1.86-2.1S327.34,200.48,327.34,201.75Z" style="fill:#999"></path><path d="M328.17,208.13v-8.39h.94v7.54h2.4v.85Z" style="fill:#999"></path><path d="M333.17,206.44l-.33,1.69H332l1.6-8.39h1.36l1.61,8.39h-.94l-.32-1.69Zm.12-.8h1.87l-1-4.85Z" style="fill:#999"></path><path d="M338.11,208.13h-.84v-8.39h1.19l1.94,6.07v-6.07h.83v8.39h-1l-2.15-6.79Z" style="fill:#999"></path><path d="M344.16,199.74c1.3,0,1.9.79,1.9,2.08v4.24c0,1.28-.6,2.07-1.9,2.07h-2v-8.39Zm0,7.54c.68,0,1-.42,1-1.19v-4.31c0-.77-.32-1.19-1-1.19h-1v6.69Z" style="fill:#999"></path><path d="M303.48,34.66a46.22,46.22,0,0,0-46.23,46.22c0,25.53,46.23,90.55,46.23,90.55s46.23-65,46.23-90.55A46.22,46.22,0,0,0,303.48,34.66Zm.41,68.43a21.89,21.89,0,1,1,21.89-21.88A21.89,21.89,0,0,1,303.89,103.09Z" style="fill:#84CC16"></path><g style="clip-path:url(#freepik--clip-path-5--inject-202)"><path d="M333.66,81.21a29.77,29.77,0,1,1-29.77-29.77A29.77,29.77,0,0,1,333.66,81.21Z" style="opacity:0.1"></path></g><path d="M303.48,34.66a46.22,46.22,0,0,0-46.23,46.22c0,25.53,46.23,90.55,46.23,90.55s46.23-65,46.23-90.55A46.22,46.22,0,0,0,303.48,34.66Zm.41,68.43a21.89,21.89,0,1,1,21.89-21.88A21.89,21.89,0,0,1,303.89,103.09Z" style="fill:none;stroke:#263238;stroke-linecap:round;stroke-linejoin:round"></path></g></svg>