<svg xmlns="http://www.w3.org/2000/svg" xmlns:xlink="http://www.w3.org/1999/xlink" viewBox="0 0 500 500"><defs><clipPath id="freepik--clip-path--inject-2"><path d="M153.87,189.26s-13.44-6.81-21.91-6.81c-9.6,0-27.38-14.71-27.38-14.71L89.2,129l-8,2.17s1.46,23.62,2.41,30.24,6,19.56,6.62,20.76S93.8,187,95,187.3s15.35,10.83,18.66,12.64,16.55,9.63,16.55,9.63,6.62,16.85,7.52,20.16,3.91,18,4.21,20.39-6.07,26.06-4.86,28.16,16.45.32,28.49.32,26.53,5.46,27.73,1.84-3.5-46.8-3.5-46.8,6.32,12.94,9,17.16,6.93,9.93,9.94,9.93S250,237.25,250,237.25l-1.8-7.52a73.07,73.07,0,0,1-17.46,5.42c-8.42,1.2-19.86,4.21-19.86,4.21s-11.92-33.22-17.56-39.22c-3.83-4.09-21.26-8.33-24-8.33S153.87,189.26,153.87,189.26Z" style="fill:#84CC16;stroke:#263238;stroke-linecap:round;stroke-linejoin:round;stroke-width:1.2037407309770503px"></path></clipPath></defs><g id="freepik--background-simple--inject-2"><path d="M290.79,256.85c-3.21,15.43-10.2,32.84-22.37,34-9.5.91-17.56-8.83-23.33-18.76S234,250.75,225.35,245.63s-19-2.62-27.24,3.51-14.73,15.52-20.92,24.92c-20.66,31.36-41.49,66.45-73.39,75a21.51,21.51,0,0,1-16.2-1.84c-15.26-8.44-15-29.43-12.34-46.85C85,237.51,117.77,184.05,156.93,145.6c35.77-35.12,78.16-59.88,122.66-65.18s91.06,9.94,125.79,46.8,56.18,96.12,51.74,154.42c-.48,6.29-1.35,12.87-4.41,17.76a15.48,15.48,0,0,1-17.65,6.73c-6.31-1.77-11.83-6.68-16.85-12-22.84-24.08-38.61-57.5-57.46-86.93l-.51-.79c-20.49-31.79-59.93-17.22-65.08,23.85C293.91,240.26,292.33,249.44,290.79,256.85Z" style="fill:#84CC16"></path><path d="M290.79,256.85c-3.21,15.43-10.2,32.84-22.37,34-9.5.91-17.56-8.83-23.33-18.76S234,250.75,225.35,245.63s-19-2.62-27.24,3.51-14.73,15.52-20.92,24.92c-20.66,31.36-41.49,66.45-73.39,75a21.51,21.51,0,0,1-16.2-1.84c-15.26-8.44-15-29.43-12.34-46.85C85,237.51,117.77,184.05,156.93,145.6c35.77-35.12,78.16-59.88,122.66-65.18s91.06,9.94,125.79,46.8,56.18,96.12,51.74,154.42c-.48,6.29-1.35,12.87-4.41,17.76a15.48,15.48,0,0,1-17.65,6.73c-6.31-1.77-11.83-6.68-16.85-12-22.84-24.08-38.61-57.5-57.46-86.93l-.51-.79c-20.49-31.79-59.93-17.22-65.08,23.85C293.91,240.26,292.33,249.44,290.79,256.85Z" style="fill:#fff;opacity:0.7000000000000001"></path></g><g id="freepik--Plant--inject-2"><path d="M402.38,415.87s7.28-34.4-6-53,12-.21,14.89,17.23c0,0,4.35-31.19-8.51-53.13S414,323,416,345.62c0,0,3.94-27.82-2-43.45s4.37-5.58,8.32,4.22-1.23,34.06-1.23,34.06,10.31-44.87,20.07-41.3-14.59,33-18,48.27c0,0,11.51-20.58,20.24-16.3s-13.52,6.42-23.71,37.11l-3.58,14.39s10.59-20.32,17.52-13.91S413.17,386.18,406.79,417Z" style="fill:#84CC16"></path><path d="M402.38,415.87s7.28-34.4-6-53,12-.21,14.89,17.23c0,0,4.35-31.19-8.51-53.13S414,323,416,345.62c0,0,3.94-27.82-2-43.45s4.37-5.58,8.32,4.22-1.23,34.06-1.23,34.06,10.31-44.87,20.07-41.3-14.59,33-18,48.27c0,0,11.51-20.58,20.24-16.3s-13.52,6.42-23.71,37.11l-3.58,14.39s10.59-20.32,17.52-13.91S413.17,386.18,406.79,417Z" style="opacity:0.2"></path><path d="M403.81,417.85s1.53-43.37,22.95-61.73-14.28-3.83-22.95,16.19c0,0,4.08-38.64,26-61.09s-12.25-8-21.43,18.43c0,0,3.57-34.5,15.3-51.46s-3.57-8-11.22,2.57-8.67,41.17-8.67,41.17,1-56.82-11.74-55.45,7.66,43.84,7.15,63.17c0,0-7.66-28.08-19.39-25.55s14.28,11.71,17.34,51.5v18.31s-6.63-27.49-16.83-21.88,19.39,27,17.85,65.82Z" style="fill:#84CC16"></path><path d="M388.71,448.37h25.37c3.76,0,7.91-3.22,9.48-7.74l3.54-10.21H375.69l3.54,10.21C380.79,445.15,385,448.37,388.71,448.37Z" style="fill:#fff;stroke:#263238;stroke-linecap:round;stroke-linejoin:round"></path><path d="M375.07,437.26h52.65c1.72,0,3.87-1.72,4.85-4l5.81-13.3c1.48-3.38.88-6.33-1.45-6.33H365.86c-2.33,0-2.93,2.95-1.45,6.33l5.81,13.3C371.2,435.54,373.35,437.26,375.07,437.26Z" style="fill:#fff;stroke:#263238;stroke-linecap:round;stroke-linejoin:round"></path><line x1="427.1" y1="420" x2="438.38" y2="420" style="fill:#fff;stroke:#263238;stroke-linecap:round;stroke-linejoin:round"></line><line x1="412.38" y1="420" x2="419.03" y2="420" style="fill:#fff;stroke:#263238;stroke-linecap:round;stroke-linejoin:round"></line><line x1="364.41" y1="420" x2="409.05" y2="420" style="fill:#fff;stroke:#263238;stroke-linecap:round;stroke-linejoin:round"></line></g><g id="freepik--Suitcase--inject-2"><path d="M95.24,282.44l-2.41-4a2,2,0,0,1,1.75-3.09h3.58a2,2,0,0,1,1.87,2.86l-1.85,4.25Z" style="fill:#263238;stroke:#263238;stroke-linecap:round;stroke-linejoin:round;stroke-width:1.0086380243301392px"></path><path d="M98.18,420.72H95.24V279.88a1.47,1.47,0,0,1,1.47-1.47h0a1.47,1.47,0,0,1,1.47,1.47Z" style="fill:#fff;stroke:#263238;stroke-linecap:round;stroke-linejoin:round;stroke-width:1.0086380243301392px"></path><circle cx="62.73" cy="443.21" r="5.73" style="fill:#263238"></circle><circle cx="93.3" cy="443.21" r="5.73" style="fill:#263238"></circle><rect x="57" y="437.48" width="5.73" height="5.73" style="fill:#5c5c5c"></rect><rect x="93.38" y="437.48" width="5.73" height="5.73" style="fill:#5c5c5c"></rect><path d="M61.39,313.43H94.8a4.38,4.38,0,0,1,4.38,4.38V437.48a0,0,0,0,1,0,0H57a0,0,0,0,1,0,0V317.81A4.38,4.38,0,0,1,61.39,313.43Z" style="fill:#bfbfbf;stroke:#263238;stroke-miterlimit:10;stroke-width:1.0086380243301392px"></path><rect x="80.72" y="367.45" width="5.03" height="23.67" style="fill:#263238;stroke:#263238;stroke-linecap:round;stroke-linejoin:round;stroke-width:1.0086380243301392px"></rect><path d="M85.75,313.42h-5v-2.51a2.52,2.52,0,0,1,2.52-2.52h0a2.51,2.51,0,0,1,2.51,2.52Z" style="fill:#263238;stroke:#263238;stroke-linecap:round;stroke-linejoin:round;stroke-width:1.0086380243301392px"></path><path d="M57,320.35c0-.36,7.54-6.92,7.54-6.92" style="fill:none;stroke:#263238;stroke-linecap:round;stroke-linejoin:round;stroke-width:1.0086380243301392px"></path><path d="M98.58,320.35c0-.36-7.54-6.92-7.54-6.92" style="fill:none;stroke:#263238;stroke-linecap:round;stroke-linejoin:round;stroke-width:1.0086380243301392px"></path><path d="M57,430.06c0,.36,7.54,6.93,7.54,6.93" style="fill:none;stroke:#263238;stroke-linecap:round;stroke-linejoin:round;stroke-width:1.0086380243301392px"></path><path d="M99.19,430.77c0,.36-7.54,6.93-7.54,6.93" style="fill:none;stroke:#263238;stroke-linecap:round;stroke-linejoin:round;stroke-width:1.0086380243301392px"></path><rect x="75.69" y="313.43" width="5.03" height="123.68" style="fill:#5c5c5c;stroke:#263238;stroke-linecap:round;stroke-linejoin:round;stroke-width:1.0086380243301392px"></rect></g><g id="freepik--Device--inject-2"><path d="M378.5,146.28v91.91H221.14V146.28a10.25,10.25,0,0,1,10.38-10.13H280.6a7.88,7.88,0,0,1,7,4.15,14,14,0,0,0,24.42,0l0-.05a7.91,7.91,0,0,1,6.93-4.1h49.15A10.28,10.28,0,0,1,378.5,146.28Z" style="fill:#84CC16"></path><path d="M378.5,238.19V423.5a10.29,10.29,0,0,1-10.41,10.13H231.52a10.25,10.25,0,0,1-10.38-10.13V238.19Z" style="fill:#fff"></path><path d="M347.24,178.11a4.34,4.34,0,0,1-2.83-.59L341,175.76l-5.79-3-4.3-2.24a2.74,2.74,0,0,1-1.23-3.59l1.24-2.66.88.42,1.2,4.38,12.42,5.79a5.07,5.07,0,0,1,2.22,2.17A.74.74,0,0,1,347.24,178.11Z" style="fill:#263238"></path><polygon points="341.03 175.76 331.03 176.14 328.88 175.14 335.24 172.75 341.03 175.76" style="fill:#263238"></polygon><path d="M267.89,167.64a4.32,4.32,0,0,1-2.28,1.79l-3.51,1.45-6,2.51-4.47,1.86a2.75,2.75,0,0,1-3.54-1.37l-1.24-2.66.88-.41,4.13,1.9,12.42-5.79a5.08,5.08,0,0,1,3.09-.31A.75.75,0,0,1,267.89,167.64Z" style="fill:#263238"></path><polygon points="262.1 170.88 255.96 178.79 253.81 179.79 256.07 173.39 262.1 170.88" style="fill:#263238"></polygon><rect x="233.57" y="181.32" width="48.25" height="11.96" style="fill:#fff;opacity:0.5"></rect><rect x="246.82" y="198.3" width="35.01" height="11.96" style="fill:#84CC16"></rect><rect x="312.84" y="198.3" width="35.01" height="11.96" style="fill:#84CC16"></rect><rect x="312.84" y="179.79" width="48.25" height="11.96" style="fill:#fff;opacity:0.5"></rect><rect x="290.44" y="187.3" width="13.79" height="1.49" style="fill:#fff"></rect><rect x="221.14" y="238.19" width="157.36" height="17.47" style="fill:#bfbfbf"></rect><path d="M221.14,255.66V238.19h37.47a17.47,17.47,0,0,1,17.47,17.47H221.14Z" style="fill:#fff"></path><path d="M228.43,243.51c.77,0,1.07.36,1.07,1.08v.23c0,.52-.15.84-.58,1,.48.13.66.51.66,1v.41a1,1,0,0,1-1.12,1.15h-1.13v-4.9Zm-.13,2.08c.43,0,.66-.14.66-.65v-.29c0-.44-.15-.65-.54-.65h-.54v1.59Zm.16,2.32c.4,0,.58-.21.58-.66v-.44c0-.54-.22-.72-.68-.72h-.48v1.82Z" style="fill:#263238"></path><path d="M230,244.69c0-.75.37-1.23,1.12-1.23s1.12.48,1.12,1.23v2.54c0,.74-.37,1.23-1.12,1.23S230,248,230,247.23Zm.53,2.56c0,.45.19.71.59.71s.58-.26.58-.71v-2.59c0-.44-.19-.7-.58-.7s-.59.26-.59.7Z" style="fill:#263238"></path><path d="M232.76,244.69c0-.75.37-1.23,1.12-1.23a1.08,1.08,0,0,1,1.13,1.23v2.54a1.08,1.08,0,0,1-1.13,1.23c-.75,0-1.12-.49-1.12-1.23Zm.54,2.56c0,.45.19.71.58.71s.58-.26.58-.71v-2.59c0-.44-.18-.7-.58-.7s-.58.26-.58.7Z" style="fill:#263238"></path><path d="M236.36,246.28l-.29.48v1.65h-.55v-4.9h.55v2.37l1.3-2.37h.55l-1.24,2.23,1.29,2.67h-.56Z" style="fill:#263238"></path><path d="M241.14,245.79v.5H240v2.12h-.55v-4.9h1.95V244H240v1.79Z" style="fill:#263238"></path><path d="M241.85,248.41v-4.9h.55v4.4h1.4v.5Z" style="fill:#263238"></path><path d="M244.76,243.51v4.9h-.55v-4.9Z" style="fill:#263238"></path><path d="M247.48,244.69v.42H247v-.45c0-.44-.17-.7-.57-.7s-.58.26-.58.7v2.59c0,.45.19.71.58.71s.57-.26.57-.71v-1h-.5v-.49h1v1.45c0,.74-.35,1.23-1.11,1.23s-1.1-.49-1.1-1.23v-2.54c0-.74.35-1.23,1.1-1.23S247.48,244,247.48,244.69Z" style="fill:#263238"></path><path d="M248.54,246.2v2.21H248v-4.9h.54v2.2h1.21v-2.2h.54v4.9h-.54V246.2Z" style="fill:#263238"></path><path d="M251.56,248.41V244h-.9v-.49H253V244h-.9v4.41Z" style="fill:#263238"></path><path d="M281.27,244.68v.14h-.52v-.16c0-.45-.16-.7-.56-.7s-.56.25-.56.69c0,1.1,1.65,1.2,1.65,2.58,0,.75-.36,1.23-1.11,1.23s-1.1-.48-1.1-1.23V247h.52v.31c0,.44.18.7.57.7s.57-.26.57-.7c0-1.09-1.63-1.2-1.63-2.58,0-.75.35-1.22,1.08-1.22S281.27,243.94,281.27,244.68Z" style="fill:#263238"></path><path d="M283.5,245.68v.49h-1.2v1.74h1.47v.5h-2v-4.9h2V244H282.3v1.68Z" style="fill:#263238"></path><path d="M284.27,248.41v-4.9h.55v4.4h1.4v.5Z" style="fill:#263238"></path><path d="M288.38,245.68v.49h-1.2v1.74h1.47v.5h-2v-4.9h2V244h-1.47v1.68Z" style="fill:#263238"></path><path d="M291.32,244.69v.44h-.52v-.47c0-.44-.18-.7-.58-.7s-.57.26-.57.7v2.59c0,.45.18.71.57.71s.58-.26.58-.71v-.63h.52v.61c0,.74-.35,1.23-1.11,1.23s-1.1-.49-1.1-1.23v-2.54c0-.74.35-1.23,1.1-1.23S291.32,244,291.32,244.69Z" style="fill:#263238"></path><path d="M292.52,248.41V244h-.9v-.49H294V244h-.9v4.41Z" style="fill:#263238"></path><path d="M297.54,244.68v.14H297v-.16c0-.45-.17-.7-.56-.7s-.56.25-.56.69c0,1.1,1.65,1.2,1.65,2.58,0,.75-.36,1.23-1.11,1.23s-1.1-.48-1.1-1.23V247h.51v.31c0,.44.18.7.58.7s.57-.26.57-.7c0-1.09-1.64-1.2-1.64-2.58,0-.75.35-1.22,1.09-1.22S297.54,243.94,297.54,244.68Z" style="fill:#263238"></path><path d="M299.77,245.68v.49h-1.2v1.74H300v.5h-2v-4.9h2V244h-1.47v1.68Z" style="fill:#263238"></path><path d="M301.09,247.42l-.18,1h-.51l.94-4.9h.79l.94,4.9h-.55l-.19-1Zm.07-.47h1.1l-.56-2.83Z" style="fill:#263238"></path><path d="M303.94,248.41V244H303v-.49h2.35V244h-.9v4.41Z" style="fill:#263238"></path><path d="M332.79,244.69v.44h-.52v-.47c0-.44-.17-.7-.57-.7s-.58.26-.58.7v2.6c0,.44.18.7.58.7s.57-.26.57-.7v-.64h.52v.61c0,.74-.35,1.23-1.11,1.23s-1.1-.49-1.1-1.23v-2.54c0-.74.35-1.23,1.1-1.23S332.79,244,332.79,244.69Z" style="fill:#263238"></path><path d="M333.24,244.69c0-.75.37-1.23,1.12-1.23s1.13.48,1.13,1.23v2.54a1.08,1.08,0,0,1-1.13,1.23c-.75,0-1.12-.49-1.12-1.23Zm.54,2.57c0,.44.19.7.58.7s.59-.26.59-.7v-2.6c0-.44-.19-.7-.59-.7s-.58.26-.58.7Z" style="fill:#263238"></path><path d="M336.49,248.41H336v-4.9h.69l1.14,3.54v-3.54h.48v4.9h-.57l-1.25-4Z" style="fill:#263238"></path><path d="M340.54,245.79v.5h-1.12v2.12h-.55v-4.9h1.95v.5h-1.4v1.78Z" style="fill:#263238"></path><path d="M341.8,243.51v4.9h-.55v-4.9Z" style="fill:#263238"></path><path d="M343.45,243.51c.77,0,1.09.39,1.09,1.12v.4a.92.92,0,0,1-.61,1c.45.13.62.49.62,1v.76a1.25,1.25,0,0,0,.1.59h-.56a1.33,1.33,0,0,1-.09-.59V247c0-.55-.26-.72-.71-.72h-.39v2.09h-.54v-4.9Zm-.14,2.31c.43,0,.69-.14.69-.67v-.47c0-.44-.16-.67-.57-.67h-.53v1.81Z" style="fill:#263238"></path><path d="M346.92,248.4h-.52l-.82-3.9v3.91h-.47v-4.9h.76l.81,3.91.77-3.91h.77v4.9h-.52v-3.94Z" style="fill:#263238"></path><path d="M349.33,247.42l-.19,1h-.51l.94-4.9h.8l.93,4.9h-.54l-.19-1Zm.07-.47h1.09l-.55-2.82Z" style="fill:#263238"></path><path d="M352.17,248.41V244h-.9v-.5h2.34v.5h-.9v4.4Z" style="fill:#263238"></path><path d="M354.53,243.51v4.9H354v-4.9Z" style="fill:#263238"></path><path d="M355.05,244.69c0-.75.37-1.23,1.12-1.23s1.12.48,1.12,1.23v2.54c0,.74-.37,1.23-1.12,1.23s-1.12-.49-1.12-1.23Zm.54,2.57c0,.44.19.7.58.7s.58-.26.58-.7v-2.6c0-.44-.18-.7-.58-.7s-.58.26-.58.7Z" style="fill:#263238"></path><path d="M358.29,248.41h-.49v-4.9h.7l1.13,3.54v-3.54h.49v4.9h-.57l-1.26-4Z" style="fill:#263238"></path><path d="M234.05,352.83l-.15.82h-.42l.78-4h.65l.77,4h-.45l-.16-.82Zm.06-.38h.9l-.45-2.33Z" style="fill:#263238"></path><path d="M237,349.61c.63,0,.91.38.91,1v2c0,.62-.28,1-.91,1H236v-4Zm0,3.63c.32,0,.48-.2.48-.57v-2.08c0-.37-.16-.57-.49-.57h-.48v3.22Z" style="fill:#263238"></path><path d="M238.74,352.69c0,.37.14.59.47.59s.47-.22.47-.59v-3.08h.42v3.06c0,.61-.28,1-.9,1s-.9-.41-.9-1v-3.06h.44Z" style="fill:#263238"></path><path d="M240.54,353.65v-4H241v3.63h1.16v.41Z" style="fill:#263238"></path><path d="M242.78,353.65V350H242v-.41H244V350h-.75v3.63Z" style="fill:#263238"></path><path d="M234.48,367.76c.64,0,.91.38.91,1v.49c0,.64-.3,1-.94,1h-.4v1.59h-.45v-4Zm0,2.05c.33,0,.49-.16.49-.55v-.53c0-.37-.13-.56-.46-.56h-.43v1.64Z" style="fill:#263238"></path><path d="M236.13,371l-.15.81h-.42l.78-4H237l.77,4h-.45l-.15-.81Zm.06-.39h.9l-.45-2.33Z" style="fill:#263238"></path><path d="M239.86,368.73v.11h-.43v-.13c0-.36-.14-.58-.46-.58s-.46.22-.46.57c0,.91,1.36,1,1.36,2.13,0,.61-.3,1-.92,1s-.9-.4-.9-1v-.23h.42v.26c0,.36.15.57.47.57s.47-.21.47-.57c0-.9-1.34-1-1.34-2.13,0-.62.28-1,.89-1S239.86,368.12,239.86,368.73Z" style="fill:#263238"></path><path d="M242,368.73v.11h-.42v-.13c0-.36-.14-.58-.46-.58s-.47.22-.47.57c0,.91,1.36,1,1.36,2.13,0,.61-.29,1-.91,1s-.91-.4-.91-1v-.23h.42v.26c0,.36.15.57.48.57s.47-.21.47-.57c0-.9-1.35-1-1.35-2.13,0-.62.29-1,.89-1S242,368.12,242,368.73Z" style="fill:#263238"></path><path d="M243.84,369.55V370h-1v1.43h1.21v.41H242.4v-4h1.66v.41h-1.21v1.38Z" style="fill:#263238"></path><path d="M244.87,371.8h-.4v-4H245l.94,2.92v-2.92h.39v4h-.46l-1-3.26Z" style="fill:#263238"></path><path d="M248.62,368.74v.34h-.43v-.36c0-.37-.15-.59-.47-.59s-.48.22-.48.59v2.13c0,.36.15.58.48.58s.47-.22.47-.58V370h-.42v-.4h.85v1.19c0,.61-.29,1-.92,1s-.9-.4-.9-1v-2.09c0-.61.29-1,.9-1S248.62,368.13,248.62,368.74Z" style="fill:#263238"></path><path d="M250.48,369.55V370h-1v1.43h1.21v.41H249v-4h1.66v.41h-1.21v1.38Z" style="fill:#263238"></path><path d="M252,367.76c.63,0,.9.33.9.93V369a.76.76,0,0,1-.51.83c.37.11.51.41.51.84v.63a1.06,1.06,0,0,0,.08.48h-.45a1.05,1.05,0,0,1-.08-.49v-.63c0-.46-.21-.6-.59-.6h-.31v1.72h-.45v-4Zm-.12,1.91c.36,0,.57-.12.57-.56v-.38c0-.37-.13-.56-.47-.56h-.43v1.5Z" style="fill:#263238"></path><path d="M254.71,369v.56h-.43V369Zm0,2.2v.56h-.43v-.56Z" style="fill:#263238"></path><path d="M288,349.86v4h-.45v-4Z" style="fill:#263238"></path><path d="M288.81,353.9h-.4v-4H289l.94,2.92v-2.92h.39v4h-.46l-1-3.27Z" style="fill:#263238"></path><path d="M292.15,351.74v.41h-.93v1.75h-.45v-4h1.61v.41h-1.16v1.47Z" style="fill:#263238"></path><path d="M293.11,353.08l-.15.82h-.42l.78-4H294l.77,4h-.45l-.16-.82Zm.06-.38h.9l-.45-2.33Z" style="fill:#263238"></path><path d="M295.49,353.9h-.41v-4h.58l.93,2.92v-2.92h.4v4h-.47l-1-3.27Z" style="fill:#263238"></path><path d="M298,353.9v-3.63h-.74v-.41h1.93v.41h-.75v3.63Z" style="fill:#263238"></path><path d="M339.11,350.58V351h-.43v-.39c0-.36-.14-.58-.47-.58s-.47.22-.47.58v2.13c0,.37.15.59.47.59s.47-.22.47-.59v-.52h.43v.5c0,.61-.29,1-.91,1s-.91-.41-.91-1v-2.09c0-.61.29-1,.91-1S339.11,350,339.11,350.58Z" style="fill:#263238"></path><path d="M340,351.83v1.82h-.45v-4H340v1.82h1v-1.82h.45v4H341v-1.82Z" style="fill:#263238"></path><path d="M342.32,349.61v4h-.45v-4Z" style="fill:#263238"></path><path d="M342.78,353.65v-4h.45v3.63h1.15v.41Z" style="fill:#263238"></path><path d="M345.67,349.61c.63,0,.92.38.92,1v2c0,.62-.29,1-.92,1h-.95v-4Zm0,3.63c.33,0,.48-.2.48-.57v-2.08c0-.37-.15-.57-.48-.57h-.49v3.22Z" style="fill:#263238"></path><rect x="325.11" y="258.87" width="49.03" height="14.17" style="fill:#84CC16"></rect><rect x="325.11" y="258.87" width="49.03" height="14.17" style="opacity:0.2"></rect><path d="M340.53,264.19c.87,0,1.22.41,1.22,1.24v.26c0,.59-.17,1-.66,1.11.54.15.75.58.75,1.2v.47a1.15,1.15,0,0,1-1.28,1.31h-1.28v-5.59Zm-.15,2.37c.5,0,.75-.16.75-.74v-.33c0-.5-.17-.74-.61-.74h-.62v1.81Zm.18,2.66c.46,0,.67-.24.67-.76V268c0-.62-.25-.83-.79-.83h-.54v2.09Z" style="fill:#fff"></path><path d="M343,268.46c0,.51.2.81.66.81s.65-.3.65-.81v-4.27h.58v4.24c0,.85-.39,1.42-1.26,1.42s-1.24-.57-1.24-1.42v-4.24H343Z" style="fill:#fff"></path><path d="M347.93,265.53v.15h-.59v-.18c0-.51-.19-.8-.64-.8s-.64.29-.64.79c0,1.26,1.88,1.38,1.88,2.95,0,.85-.41,1.4-1.27,1.4s-1.25-.55-1.25-1.4v-.32H346v.35c0,.51.21.8.66.8s.65-.29.65-.8c0-1.25-1.87-1.37-1.87-2.94,0-.86.4-1.4,1.24-1.4S347.93,264.68,347.93,265.53Z" style="fill:#fff"></path><path d="M349.11,264.19v5.59h-.63v-5.59Z" style="fill:#fff"></path><path d="M350.3,269.78h-.56v-5.59h.79l1.3,4v-4h.55v5.59h-.65l-1.43-4.52Z" style="fill:#fff"></path><path d="M355,266.67v.55h-1.37v2h1.68v.56H353v-5.59h2.3v.56h-1.68v1.92Z" style="fill:#fff"></path><path d="M358.32,265.53v.15h-.59v-.18c0-.51-.19-.8-.64-.8s-.64.29-.64.79c0,1.26,1.88,1.38,1.88,2.95,0,.85-.41,1.4-1.26,1.4s-1.26-.55-1.26-1.4v-.32h.58v.35c0,.51.21.8.66.8s.66-.29.66-.8c0-1.25-1.88-1.37-1.88-2.94,0-.86.4-1.4,1.24-1.4S358.32,264.68,358.32,265.53Z" style="fill:#fff"></path><path d="M361.3,265.53v.15h-.59v-.18c0-.51-.2-.8-.64-.8s-.64.29-.64.79c0,1.26,1.87,1.38,1.87,2.95,0,.85-.4,1.4-1.26,1.4s-1.25-.55-1.25-1.4v-.32h.58v.35c0,.51.21.8.66.8s.65-.29.65-.8c0-1.25-1.87-1.37-1.87-2.94,0-.86.4-1.4,1.24-1.4S361.3,264.68,361.3,265.53Z" style="fill:#fff"></path><rect x="227.05" y="258.87" width="49.03" height="14.17" style="fill:#84CC16"></rect><path d="M242.56,266.67v.55H241.2v2h1.68v.56h-2.31v-5.59h2.31v.56H241.2v1.92Z" style="fill:#fff"></path><path d="M245.92,265.54v.5h-.59v-.53c0-.51-.2-.81-.65-.81s-.66.3-.66.81v2.95c0,.51.21.81.66.81s.65-.3.65-.81v-.72h.59v.69c0,.85-.4,1.41-1.26,1.41s-1.25-.56-1.25-1.41v-2.89c0-.85.4-1.41,1.25-1.41S245.92,264.69,245.92,265.54Z" style="fill:#fff"></path><path d="M246.45,265.54c0-.86.42-1.41,1.27-1.41s1.29.55,1.29,1.41v2.89c0,.85-.42,1.41-1.29,1.41s-1.27-.56-1.27-1.41Zm.61,2.92c0,.52.22.81.66.81s.67-.29.67-.81v-2.95c0-.51-.21-.81-.67-.81s-.66.3-.66.81Z" style="fill:#fff"></path><path d="M250.16,269.78h-.56v-5.59h.79l1.29,4v-4h.56v5.59h-.65l-1.43-4.52Z" style="fill:#fff"></path><path d="M252.83,265.54c0-.86.42-1.41,1.28-1.41s1.29.55,1.29,1.41v2.89a1.23,1.23,0,0,1-1.29,1.41c-.86,0-1.28-.56-1.28-1.41Zm.62,2.92c0,.52.21.81.66.81s.66-.29.66-.81v-2.95c0-.51-.2-.81-.66-.81s-.66.3-.66.81Z" style="fill:#fff"></path><path d="M258.05,269.78h-.6l-.92-4.46v4.46H256v-5.59h.87l.92,4.47.89-4.47h.87v5.59h-.59v-4.5Z" style="fill:#fff"></path><path d="M261.17,267.78,260,264.19h.65l.87,2.75.88-2.75H263l-1.19,3.59v2h-.61Z" style="fill:#fff"></path><rect x="276.08" y="258.87" width="49.03" height="14.17" style="fill:#84CC16"></rect><rect x="276.08" y="258.87" width="49.03" height="14.17" style="opacity:0.2"></rect><path d="M289,266.79v.57h-1.29v2.42h-.62v-5.59h2.22v.56h-1.6v2Z" style="fill:#fff"></path><path d="M290.4,264.19v5.59h-.62v-5.59Z" style="fill:#fff"></path><path d="M292.29,264.19c.88,0,1.25.44,1.25,1.28v.45c0,.62-.22,1-.7,1.15.51.15.7.57.7,1.17v.87a1.32,1.32,0,0,0,.12.67H293a1.5,1.5,0,0,1-.1-.68v-.88c0-.63-.29-.83-.82-.83h-.43v2.39H291v-5.59Zm-.16,2.64c.5,0,.79-.16.79-.77v-.54c0-.5-.18-.77-.65-.77h-.6v2.08Z" style="fill:#fff"></path><path d="M296.62,265.53v.15H296v-.18c0-.51-.19-.8-.64-.8s-.63.29-.63.79c0,1.26,1.88,1.38,1.88,2.95,0,.85-.41,1.4-1.27,1.4s-1.25-.55-1.25-1.4v-.32h.58v.35c0,.51.21.8.66.8s.65-.29.65-.8c0-1.25-1.87-1.37-1.87-2.94,0-.86.4-1.4,1.24-1.4S296.62,264.68,296.62,265.53Z" style="fill:#fff"></path><path d="M298,269.78v-5h-1v-.56h2.67v.56h-1v5Z" style="fill:#fff"></path><path d="M303.76,265.54v.5h-.59v-.53c0-.51-.2-.81-.66-.81s-.65.3-.65.81v2.95c0,.51.21.81.65.81s.66-.3.66-.81v-.72h.59v.69c0,.85-.4,1.41-1.26,1.41s-1.26-.56-1.26-1.41v-2.89c0-.85.4-1.41,1.26-1.41S303.76,264.69,303.76,265.54Z" style="fill:#fff"></path><path d="M304.33,269.78v-5.59H305v5h1.6v.56Z" style="fill:#fff"></path><path d="M307.66,268.66l-.22,1.12h-.57l1.07-5.59h.9l1.07,5.59h-.62l-.22-1.12Zm.08-.54H309l-.63-3.23Z" style="fill:#fff"></path><path d="M312.82,265.53v.15h-.59v-.18c0-.51-.19-.8-.64-.8s-.64.29-.64.79c0,1.26,1.88,1.38,1.88,2.95,0,.85-.41,1.4-1.26,1.4s-1.26-.55-1.26-1.4v-.32h.59v.35c0,.51.21.8.65.8s.66-.29.66-.8c0-1.25-1.87-1.37-1.87-2.94,0-.86.4-1.4,1.24-1.4S312.82,264.68,312.82,265.53Z" style="fill:#fff"></path><path d="M315.8,265.53v.15h-.59v-.18c0-.51-.19-.8-.64-.8s-.64.29-.64.79c0,1.26,1.88,1.38,1.88,2.95,0,.85-.41,1.4-1.27,1.4s-1.25-.55-1.25-1.4v-.32h.58v.35c0,.51.21.8.66.8s.65-.29.65-.8c0-1.25-1.87-1.37-1.87-2.94,0-.86.4-1.4,1.24-1.4S315.8,264.68,315.8,265.53Z" style="fill:#fff"></path><rect x="227.05" y="279.69" width="45.96" height="30.64" style="fill:#84CC16"></rect><rect x="227.05" y="279.69" width="45.96" height="30.64" style="fill:#84CC16"></rect><rect x="227.05" y="279.69" width="45.96" height="30.64" style="opacity:0.2"></rect><path d="M234,293.46h-.77l-1.2-5.75v5.76h-.7v-7.22h1.13l1.18,5.77,1.15-5.77h1.12v7.22h-.76v-5.81Z" style="fill:#fff"></path><path d="M236.68,288c0-1.1.54-1.81,1.65-1.81s1.66.71,1.66,1.81v3.74a1.58,1.58,0,0,1-1.66,1.81c-1.11,0-1.65-.72-1.65-1.81Zm.79,3.78c0,.66.28,1,.86,1s.85-.38.85-1V288c0-.65-.26-1-.85-1s-.86.39-.86,1Z" style="fill:#fff"></path><path d="M241.46,293.47h-.72v-7.22h1l1.67,5.22v-5.22h.72v7.22h-.84l-1.85-5.84Z" style="fill:#fff"></path><path d="M245.32,293.47H245v-1h.78v.93l-.41,1h-.33Z" style="fill:#fff"></path><path d="M249.7,287.56a2.11,2.11,0,0,1-1,.31v-.66a1.22,1.22,0,0,0,1.23-1h.56v7.22h-.79Z" style="fill:#fff"></path><path d="M255,288v3.69c0,1.14-.52,1.86-1.67,1.86s-1.63-.71-1.63-1.81v-.14h.75v.19c0,.65.28,1,.85,1s.89-.39.89-1.15V290a1.15,1.15,0,0,1-1.16.76c-.93,0-1.35-.66-1.35-1.7V288c0-1.1.54-1.81,1.66-1.81S255,286.89,255,288Zm-2.52,0V289c0,.65.28,1,.86,1s.85-.39.85-1V288c0-.66-.27-1-.85-1S252.43,287.29,252.43,288Z" style="fill:#fff"></path><path d="M258.13,292l-.27,1.45h-.75l1.39-7.22h1.16l1.38,7.22h-.8L260,292Zm.11-.69h1.61l-.82-4.17Z" style="fill:#fff"></path><path d="M262.44,291.77c0,.65.25,1,.84,1s.84-.39.84-1v-5.52h.75v5.48c0,1.09-.5,1.82-1.62,1.82s-1.61-.73-1.61-1.82v-5.48h.8Z" style="fill:#fff"></path><path d="M268.85,288v.62h-.76V288c0-.65-.26-1-.85-1s-.84.39-.84,1v3.82c0,.65.27,1,.84,1s.85-.39.85-1v-1.45h-.74v-.72h1.5v2.13c0,1.09-.51,1.81-1.63,1.81s-1.62-.72-1.62-1.81V288c0-1.09.52-1.81,1.62-1.81S268.85,286.9,268.85,288Z" style="fill:#fff"></path><path d="M245.46,298.66c.87.13,1.27.81,1.27,1.78v.19H246v-.25c0-.64-.26-1-.83-1s-.83.39-.83,1c0,1.62,2.43,1.63,2.43,3.67,0,1-.42,1.66-1.29,1.78v.55h-.66v-.55c-.9-.12-1.3-.8-1.3-1.78v-.45h.75v.5c0,.65.27,1,.84,1s.85-.37.85-1c0-1.61-2.41-1.63-2.41-3.66,0-1,.4-1.65,1.27-1.78v-.58h.66Z" style="fill:#fff"></path><path d="M249,299.94a2,2,0,0,1-1,.31v-.66a1.22,1.22,0,0,0,1.24-1h.56v7.22H249Z" style="fill:#fff"></path><path d="M253.42,299.35H251v-.72h3.27v.7l-1.85,6.52h-.81Z" style="fill:#fff"></path><path d="M255,300.37c0-1.1.54-1.81,1.65-1.81s1.66.71,1.66,1.81v3.73c0,1.1-.55,1.82-1.66,1.82S255,305.2,255,304.1Zm.79,3.78c0,.65.28,1,.86,1s.85-.39.85-1v-3.82c0-.66-.27-1.05-.85-1.05s-.86.39-.86,1.05Z" style="fill:#fff"></path><rect x="327.65" y="279.69" width="45.96" height="30.64" style="fill:#84CC16"></rect><rect x="327.65" y="279.69" width="45.96" height="30.64" style="fill:#84CC16"></rect><rect x="327.65" y="279.69" width="45.96" height="30.64" style="opacity:0.2"></rect><path d="M333.93,293.47h-1.1l-1-7.22h.78l.85,6.15.8-6.14h.79l.8,6.15.81-6.16h.71l-1,7.22h-1.06l-.69-4.9Z" style="fill:#fff"></path><path d="M340.59,289.45v.72h-1.76v2.57H341v.73h-3v-7.22h3V287h-2.17v2.47Z" style="fill:#fff"></path><path d="M343.43,286.25c1.12,0,1.64.68,1.64,1.79v3.65c0,1.1-.52,1.78-1.64,1.78h-1.69v-7.22Zm0,6.49c.58,0,.86-.36.86-1V288c0-.66-.28-1-.87-1h-.87v5.76Z" style="fill:#fff"></path><path d="M346.07,293.47h-.3v-1h.78v.93l-.41,1h-.33Z" style="fill:#fff"></path><path d="M352.22,288c0,2.18-2.44,3-2.46,4.63v.11h2.38v.73H349v-.62c0-2.33,2.45-2.78,2.45-4.81,0-.75-.25-1.14-.85-1.14s-.85.42-.85,1.06v.64H349V288c0-1.1.51-1.83,1.62-1.83S352.22,286.9,352.22,288Z" style="fill:#fff"></path><path d="M354.44,287.56a2.11,2.11,0,0,1-1,.31v-.66a1.22,1.22,0,0,0,1.23-1h.56v7.22h-.79Z" style="fill:#fff"></path><path d="M358.86,292l-.28,1.45h-.74l1.38-7.22h1.17l1.38,7.22H361l-.28-1.45Zm.11-.69h1.61l-.82-4.17Z" style="fill:#fff"></path><path d="M363.17,291.77c0,.65.25,1,.84,1s.84-.39.84-1v-5.52h.75v5.48c0,1.09-.51,1.82-1.62,1.82s-1.61-.73-1.61-1.82v-5.48h.8Z" style="fill:#fff"></path><path d="M369.58,288v.62h-.76V288c0-.65-.26-1-.85-1s-.84.39-.84,1v3.82c0,.65.26,1,.84,1s.85-.39.85-1v-1.45h-.74v-.72h1.5v2.13c0,1.09-.51,1.81-1.63,1.81s-1.62-.72-1.62-1.81V288c0-1.09.52-1.81,1.62-1.81S369.58,286.9,369.58,288Z" style="fill:#fff"></path><path d="M346.13,298.66c.87.13,1.28.81,1.28,1.78v.19h-.76v-.25c0-.64-.25-1-.83-1s-.83.39-.83,1c0,1.62,2.43,1.63,2.43,3.67,0,1-.42,1.66-1.29,1.78v.55h-.66v-.55c-.9-.12-1.3-.8-1.3-1.78v-.45h.75v.5c0,.65.27,1,.85,1s.84-.37.84-1c0-1.61-2.41-1.63-2.41-3.66,0-1,.4-1.65,1.27-1.78v-.58h.66Z" style="fill:#fff"></path><path d="M349.68,299.94a2.11,2.11,0,0,1-1,.31v-.66a1.22,1.22,0,0,0,1.23-1h.56v7.22h-.79Z" style="fill:#fff"></path><path d="M355,300.34v.23a1.41,1.41,0,0,1-.83,1.48,1.47,1.47,0,0,1,.83,1.53v.54a1.7,1.7,0,1,1-3.4,0v-.54a1.46,1.46,0,0,1,.83-1.53,1.39,1.39,0,0,1-.83-1.48v-.23a1.7,1.7,0,1,1,3.4,0Zm-2.61,0v.35c0,.71.34,1,.91,1s.91-.3.91-1v-.35c0-.74-.34-1.08-.91-1.08S352.39,299.62,352.39,300.36Zm0,3.13v.61c0,.74.33,1.09.91,1.09s.9-.35.91-1.09v-.61c0-.7-.31-1-.91-1S352.39,302.79,352.39,303.49Z" style="fill:#fff"></path><path d="M355.67,300.37c0-1.1.55-1.81,1.65-1.81s1.66.71,1.66,1.81v3.73c0,1.1-.54,1.82-1.66,1.82s-1.65-.72-1.65-1.82Zm.79,3.78c0,.65.28,1,.86,1s.86-.39.86-1v-3.82c0-.66-.27-1.05-.86-1.05s-.86.39-.86,1.05Z" style="fill:#fff"></path><rect x="227.05" y="315.47" width="70.28" height="22.4" style="fill:#84CC16"></rect><rect x="303.23" y="315.47" width="70.28" height="22.4" style="fill:#84CC16"></rect><rect x="303.23" y="315.47" width="70.28" height="22.4" style="opacity:0.2"></rect><path d="M249,331v-6.77h.75v6.08h1.94V331Z" style="fill:#fff"></path><path d="M252.2,325.84c0-1,.51-1.7,1.55-1.7s1.55.67,1.55,1.7v3.51c0,1-.51,1.7-1.55,1.7s-1.55-.68-1.55-1.7Zm.74,3.54c0,.62.26,1,.81,1s.8-.36.8-1V325.8c0-.6-.25-1-.8-1s-.81.37-.81,1Z" style="fill:#fff"></path><path d="M257.82,331h-1l-.93-6.77h.74l.79,5.76.76-5.75h.74l.75,5.76.76-5.77h.66l-.92,6.77h-1l-.65-4.59Z" style="fill:#fff"></path><path d="M265.46,327.36v.69h-1.55V331h-.76v-6.77h2.69v.69h-1.93v2.46Z" style="fill:#fff"></path><path d="M267.08,329.62l-.26,1.36h-.7l1.3-6.77h1.09l1.3,6.77h-.76l-.26-1.36Zm.09-.65h1.51l-.76-3.91Z" style="fill:#fff"></path><path d="M271.9,324.21c1.07,0,1.51.54,1.51,1.55v.55c0,.74-.26,1.21-.84,1.39.62.18.85.69.85,1.41v1.06a1.63,1.63,0,0,0,.14.81h-.77a1.89,1.89,0,0,1-.12-.82v-1.07c0-.76-.36-1-1-1h-.53V331h-.76v-6.77Zm-.19,3.19c.6,0,1-.19,1-.93v-.65c0-.61-.23-.92-.79-.92h-.73v2.5Z" style="fill:#fff"></path><path d="M276.61,327.21v.67H275v2.41h2V331H274.2v-6.77H277v.69h-2v2.31Z" style="fill:#fff"></path><path d="M318.15,324.21c1.07,0,1.52.63,1.52,1.65v.82c0,1.07-.5,1.63-1.58,1.63h-.66V331h-.76v-6.77Zm-.06,3.42c.57,0,.84-.26.84-.91v-.9c0-.61-.23-.92-.78-.92h-.72v2.73Z" style="fill:#fff"></path><path d="M321.77,324.21c1.06,0,1.51.54,1.51,1.55v.55c0,.74-.26,1.21-.84,1.39.61.18.85.69.85,1.41v1.06a1.75,1.75,0,0,0,.13.81h-.76a1.71,1.71,0,0,1-.13-.82v-1.07c0-.76-.36-1-1-1H321V331h-.75v-6.77Zm-.2,3.19c.6,0,1-.19,1-.93v-.65c0-.61-.22-.92-.78-.92H321v2.5Z" style="fill:#fff"></path><path d="M326.48,327.21v.67h-1.66v2.41h2V331h-2.78v-6.77h2.78v.69h-2v2.31Z" style="fill:#fff"></path><path d="M330,331h-.72l-1.12-5.39V331h-.66v-6.77h1l1.12,5.41,1.07-5.41h1.05V331h-.71v-5.45Z" style="fill:#fff"></path><path d="M333.36,324.21V331h-.75v-6.77Z" style="fill:#fff"></path><path d="M334.85,329.38c0,.61.24,1,.79,1s.79-.37.79-1v-5.17h.7v5.14c0,1-.47,1.71-1.52,1.71s-1.51-.69-1.51-1.71v-5.14h.75Z" style="fill:#fff"></path><path d="M340.37,331h-.72l-1.13-5.39V331h-.65v-6.77h1.05l1.11,5.41,1.08-5.41h1.05V331h-.71v-5.45Z" style="fill:#fff"></path><path d="M345.91,324.21c1.07,0,1.52.63,1.52,1.65v.82c0,1.07-.5,1.63-1.58,1.63h-.66V331h-.76v-6.77Zm-.06,3.42c.56,0,.83-.26.83-.91v-.9c0-.61-.22-.92-.77-.92h-.72v2.73Z" style="fill:#fff"></path><path d="M348,331v-6.77h.75v6.08h1.94V331Z" style="fill:#fff"></path><path d="M352,329.62l-.26,1.36h-.7l1.3-6.77h1.09l1.3,6.77H354l-.26-1.36Zm.1-.65h1.51l-.77-3.91Z" style="fill:#fff"></path><path d="M356,331h-.67v-6.77h.95l1.57,4.89v-4.89h.67V331h-.78L356,325.5Z" style="fill:#fff"></path><rect x="262.02" y="347.01" width="12.74" height="9.75" style="fill:#84CC16"></rect><rect x="302.19" y="347.01" width="12.74" height="9.75" style="fill:#84CC16"></rect><rect x="348.86" y="347.01" width="12.74" height="9.75" style="fill:#84CC16"></rect><rect x="227.05" y="343.02" width="145.46" height="81.98" rx="8.54" style="fill:none;stroke:#84CC16;stroke-linecap:round;stroke-linejoin:round"></rect><path d="M315.11,233.52H297a5.92,5.92,0,0,1-5.92-5.92h0a5.92,5.92,0,0,1,5.92-5.91h18.11A5.92,5.92,0,0,1,321,227.6h0A5.92,5.92,0,0,1,315.11,233.52Z" style="fill:#84CC16"></path><g style="opacity:0.2"><path d="M315.11,233.52H297a5.92,5.92,0,0,1-5.92-5.92h0a5.92,5.92,0,0,1,5.92-5.91h18.11A5.92,5.92,0,0,1,321,227.6h0A5.92,5.92,0,0,1,315.11,233.52Z"></path></g><path d="M297.67,233.52H279.56a5.92,5.92,0,0,1-5.92-5.92h0a5.92,5.92,0,0,1,5.92-5.91h18.11a5.92,5.92,0,0,1,5.91,5.91h0A5.92,5.92,0,0,1,297.67,233.52Z" style="fill:#84CC16"></path><g style="opacity:0.5"><path d="M297.67,233.52H279.56a5.92,5.92,0,0,1-5.92-5.92h0a5.92,5.92,0,0,1,5.92-5.91h18.11a5.92,5.92,0,0,1,5.91,5.91h0A5.92,5.92,0,0,1,297.67,233.52Z" style="fill:#fff"></path></g><path d="M306.86,226.14a.57.57,0,0,1,.64.65V227c0,.32-.11.51-.36.59.27.08.36.29.36.6v.45a.76.76,0,0,0,.06.34h-.32a.68.68,0,0,1-.06-.35v-.45c0-.32-.15-.43-.42-.43h-.22V229h-.32v-2.87Zm-.08,1.35c.25,0,.4-.08.4-.39v-.28c0-.25-.09-.39-.33-.39h-.31v1.06Z" style="fill:#263238"></path><path d="M307.81,226.83c0-.44.22-.72.66-.72s.66.28.66.72v1.49a.66.66,0,1,1-1.32,0Zm.32,1.5c0,.27.11.42.34.42s.34-.15.34-.42v-1.51c0-.26-.1-.42-.34-.42s-.34.16-.34.42Z" style="fill:#263238"></path><path d="M309.74,228.33c0,.26.1.42.34.42s.33-.16.33-.42v-2.19h.3v2.18c0,.43-.2.72-.64.72s-.64-.29-.64-.72v-2.18h.31Z" style="fill:#263238"></path><path d="M311.31,229H311v-2.87h.4l.67,2.08v-2.08h.28V229h-.33l-.74-2.32Z" style="fill:#263238"></path><path d="M313.38,226.14c.45,0,.66.27.66.71v1.45c0,.44-.21.71-.66.71h-.67v-2.87Zm0,2.58c.23,0,.34-.14.34-.41v-1.47c0-.27-.11-.41-.34-.41H313v2.29Z" style="fill:#263238"></path><path d="M284,226.83c0-.44.22-.72.66-.72s.66.28.66.72v1.49a.66.66,0,1,1-1.32,0Zm.32,1.5c0,.27.11.42.34.42s.34-.15.34-.42v-1.51c0-.26-.11-.42-.34-.42s-.34.16-.34.42Z" style="fill:#263238"></path><path d="M285.87,229h-.29v-2.87H286l.67,2.08v-2.08h.28V229h-.33l-.74-2.32Z" style="fill:#263238"></path><path d="M288.29,227.41v.29h-.7v1h.86V229h-1.18v-2.87h1.18v.29h-.86v1Z" style="fill:#263238"></path><path d="M290.15,229h-.44l-.39-2.87h.31l.34,2.45.32-2.45h.31l.32,2.45.32-2.45h.28l-.39,2.87h-.42l-.28-1.95Z" style="fill:#263238"></path><path d="M292.05,228.43l-.11.58h-.3l.55-2.87h.47l.55,2.87h-.32l-.12-.58Zm0-.27h.64l-.32-1.66Z" style="fill:#263238"></path><path d="M294,228l-.61-1.84h.33l.45,1.41.45-1.41h.31l-.62,1.84v1H294Z" style="fill:#263238"></path><path d="M234.37,414.86v-4.49h-.92v-.51h2.39v.51h-.92v4.49Z" style="fill:#263238"></path><path d="M236.18,411.07c0-.76.38-1.26,1.15-1.26s1.14.5,1.14,1.26v2.59c0,.75-.37,1.25-1.14,1.25a1.1,1.1,0,0,1-1.15-1.25Zm.55,2.61c0,.46.19.73.6.73s.59-.27.59-.73V411c0-.45-.19-.72-.59-.72s-.6.27-.6.72Z" style="fill:#263238"></path><path d="M239.73,414.86v-4.49h-.92v-.51h2.39v.51h-.92v4.49Z" style="fill:#263238"></path><path d="M241.87,413.86l-.19,1h-.52l1-5h.81l.95,5h-.55l-.2-1Zm.07-.48h1.12l-.57-2.89Z" style="fill:#263238"></path><path d="M244.32,414.86v-5h.56v4.5h1.43v.5Z" style="fill:#263238"></path><rect x="231.96" y="394.04" width="20.24" height="11.65" rx="3.56" style="fill:none;stroke:#84CC16;stroke-linecap:round;stroke-linejoin:round"></rect><line x1="238.14" y1="395.04" x2="238.14" y2="395.04" style="fill:none;stroke:#263238;stroke-linecap:round;stroke-linejoin:round"></line><line x1="238.14" y1="396.74" x2="238.14" y2="398.44" style="fill:none;stroke:#263238;stroke-linecap:round;stroke-linejoin:round;stroke-dasharray:0,0,1.6966500282287598,0"></line><line x1="238.14" y1="398.44" x2="238.14" y2="405.22" style="fill:none;stroke:#263238;stroke-linecap:round;stroke-linejoin:round;stroke-dasharray:0,1.6966500282287598,0,0,1.6966500282287598,0"></line><line x1="238.14" y1="405.22" x2="238.14" y2="405.22" style="fill:none;stroke:#263238;stroke-linecap:round;stroke-linejoin:round"></line><path d="M355.4,416.74H335.73a12.55,12.55,0,0,1-12.55-12.56h0a12.55,12.55,0,0,1,12.55-12.55H355.4A12.55,12.55,0,0,1,368,404.18h0A12.55,12.55,0,0,1,355.4,416.74Z" style="fill:#84CC16"></path><path d="M340.24,401.24v.36a2,2,0,0,1-1,2,2,2,0,0,1,1.17,2.14v.82a2.12,2.12,0,0,1-2.38,2.37h-2.47v-10h2.37C339.54,398.94,340.24,399.7,340.24,401.24Zm-3.13-.87V403h.61c.59,0,.95-.26.95-1.06v-.55c0-.72-.25-1-.8-1Zm0,4.07v3.07h.9c.53,0,.81-.24.81-1v-.87c0-.93-.3-1.21-1-1.21Z" style="fill:#263238"></path><path d="M341.21,401.34a2.39,2.39,0,1,1,4.77,0v5.2a2.39,2.39,0,1,1-4.77,0Zm1.57,5.3c0,.71.32,1,.82,1s.81-.27.81-1v-5.4c0-.72-.31-1-.81-1s-.82.27-.82,1Z" style="fill:#263238"></path><path d="M346.87,401.34a2.39,2.39,0,1,1,4.77,0v5.2a2.39,2.39,0,1,1-4.77,0Zm1.57,5.3c0,.71.31,1,.81,1s.82-.27.82-1v-5.4c0-.72-.32-1-.82-1s-.81.27-.81,1Z" style="fill:#263238"></path><path d="M354.71,405l-.48.92v3.07h-1.57v-10h1.57v4.35l2-4.35h1.57l-2.18,4.45,2.18,5.55h-1.61Z" style="fill:#263238"></path><line x1="256.17" y1="391.63" x2="256.17" y2="416.74" style="fill:none;stroke:#263238;stroke-linecap:round;stroke-linejoin:round"></line><line x1="317.82" y1="391.63" x2="317.82" y2="416.74" style="fill:none;stroke:#263238;stroke-linecap:round;stroke-linejoin:round"></line><path d="M271.94,397.4c1.82.26,2.65,1.67,2.65,3.68v.41H273V401c0-1.32-.53-2.14-1.73-2.14s-1.71.82-1.71,2.14c0,3.36,5,3.38,5,7.59,0,2-.86,3.44-2.68,3.7v1.13h-1.36v-1.13c-1.86-.26-2.7-1.67-2.7-3.7v-.92h1.56v1c0,1.35.56,2.12,1.76,2.12S273,410,273,408.67c0-3.34-5-3.38-5-7.59,0-2.05.83-3.4,2.63-3.68v-1.19h1.36Z" style="fill:#263238"></path><path d="M279.3,400.05a4.36,4.36,0,0,1-2.07.64v-1.36a2.56,2.56,0,0,0,2.56-2H281v15H279.3Z" style="fill:#263238"></path><path d="M290.18,400.93v.28h-1.56v-.39c0-1.34-.56-2.13-1.77-2.13s-1.82.81-1.82,2.41v3.36a2.41,2.41,0,0,1,2.41-1.61c1.93,0,2.78,1.39,2.78,3.55v2.27c0,2.29-1.13,3.78-3.42,3.78s-3.44-1.49-3.44-3.78V401c0-2.38,1.07-3.85,3.44-3.85S290.18,398.64,290.18,400.93Zm-5.15,5.6v2.25c0,1.34.55,2.15,1.77,2.15s1.78-.81,1.78-2.15v-2.25c0-1.35-.58-2.16-1.78-2.16S285,405.18,285,406.53Z" style="fill:#263238"></path><path d="M291.66,401c0-2.29,1.13-3.76,3.42-3.76s3.44,1.47,3.44,3.76v7.72c0,2.29-1.13,3.78-3.44,3.78s-3.42-1.49-3.42-3.78Zm1.64,7.83c0,1.34.58,2.15,1.78,2.15s1.77-.81,1.77-2.15v-7.91c0-1.37-.55-2.18-1.77-2.18s-1.78.81-1.78,2.18Z" style="fill:#263238"></path><path d="M300,401c0-2.29,1.14-3.76,3.43-3.76s3.44,1.47,3.44,3.76v7.72c0,2.29-1.14,3.78-3.44,3.78S300,411,300,408.67Zm1.65,7.83c0,1.34.58,2.15,1.78,2.15s1.77-.81,1.77-2.15v-7.91c0-1.37-.56-2.18-1.77-2.18s-1.78.81-1.78,2.18Z" style="fill:#263238"></path><path d="M263.43,368.5a1.19,1.19,0,0,1-.55.17v-.37a.7.7,0,0,0,.69-.54h.31v4h-.45Z" style="fill:#263238"></path><path d="M265,371l-.15.81h-.42l.78-4h.65l.77,4h-.45L266,371Zm.06-.39h.9l-.45-2.33Z" style="fill:#263238"></path><path d="M267.94,367.76c.63,0,.91.38.91,1v2c0,.62-.28,1-.91,1H267v-4Zm0,3.63c.32,0,.48-.2.48-.57v-2.08c0-.36-.16-.57-.49-.57h-.48v3.22Z" style="fill:#263238"></path><path d="M269.7,370.85c0,.36.14.58.47.58s.47-.22.47-.58v-3.09h.42v3.07c0,.61-.28,1-.9,1s-.9-.41-.9-1v-3.07h.44Z" style="fill:#263238"></path><path d="M271.5,371.8v-4H272v3.63h1.16v.41Z" style="fill:#263238"></path><path d="M273.74,371.8v-3.63H273v-.41h1.93v.41h-.74v3.63Z" style="fill:#263238"></path><path d="M275.08,371.8h-.16v-.56h.43v.52l-.23.55h-.18Z" style="fill:#263238"></path><path d="M276.63,368.5a1.19,1.19,0,0,1-.55.17v-.37a.7.7,0,0,0,.69-.54h.31v4h-.45Z" style="fill:#263238"></path><path d="M278.44,370.05l-.23.4v1.35h-.45v-4h.45v1.95l1.07-1.95h.46l-1,1.84,1,2.2h-.46Z" style="fill:#263238"></path><path d="M280.57,367.76v4h-.45v-4Z" style="fill:#263238"></path><path d="M282,367.76c.63,0,.92.38.92,1v2c0,.62-.29,1-.92,1H281v-4Zm0,3.63c.32,0,.48-.2.48-.57v-2.08c0-.36-.16-.57-.49-.57h-.48v3.22Z" style="fill:#263238"></path><path d="M285.06,368.73v.11h-.43v-.13c0-.36-.14-.58-.46-.58s-.46.22-.46.57c0,.91,1.35,1,1.35,2.13,0,.61-.29,1-.91,1s-.9-.4-.9-1v-.23h.42v.25c0,.37.15.58.47.58s.47-.21.47-.58c0-.89-1.35-1-1.35-2.12,0-.62.29-1,.9-1S285.06,368.12,285.06,368.73Z" style="fill:#263238"></path><path d="M285.62,371.8h-.17v-.56h.44v.52l-.23.55h-.18Z" style="fill:#263238"></path><path d="M287.21,368.74c0-.62.3-1,.92-1s.93.4.93,1v2.09a.89.89,0,0,1-.93,1c-.62,0-.92-.4-.92-1Zm.44,2.11c0,.37.16.58.48.58s.48-.21.48-.58v-2.14c0-.36-.15-.58-.48-.58s-.48.22-.48.58Z" style="fill:#263238"></path><path d="M289.88,371.8h-.4v-4h.57l.93,2.92v-2.92h.4v4h-.47l-1-3.26Z" style="fill:#263238"></path><path d="M293.28,369.55V370h-1v1.43h1.21v.41h-1.66v-4h1.66v.41h-1.21v1.38Z" style="fill:#263238"></path><path d="M295.88,371.8h-.61l-.56-4h.44l.47,3.44.45-3.43h.45l.44,3.44.46-3.45h.39l-.55,4h-.59l-.39-2.74Z" style="fill:#263238"></path><path d="M298.54,371l-.16.81H298l.77-4h.65l.78,4h-.45l-.16-.81Zm.06-.39h.9l-.46-2.33Z" style="fill:#263238"></path><path d="M301,370.35l-.85-2.59h.46l.63,2,.64-2h.42l-.86,2.59v1.45H301Z" style="fill:#263238"></path><rect x="227.05" y="251.95" width="37.27" height="2.3" style="fill:#84CC16"></rect><path d="M257.82,203.09a1.34,1.34,0,0,1,1.24-.7c1.08,0,1.56.8,1.56,2V206c0,1.28-.61,2.12-1.89,2.12s-1.89-.84-1.89-2.12v-.57h.88v.63c0,.75.31,1.21,1,1.21s1-.46,1-1.21v-1.63c0-.76-.31-1.21-1-1.21a.89.89,0,0,0-.94.9v.19h-.88l.23-4.67h3.31v.84H258Z" style="fill:#fff"></path><path d="M262.42,202.33v1.17h-.9v-1.17Zm0,4.57v1.17h-.9V206.9Z" style="fill:#fff"></path><path d="M263.31,201.7c0-1.28.64-2.11,1.92-2.11s1.93.83,1.93,2.11V206c0,1.28-.63,2.12-1.93,2.12s-1.92-.84-1.92-2.12Zm.93,4.39c0,.75.32,1.21,1,1.21s1-.46,1-1.21v-4.44c0-.77-.31-1.22-1-1.22s-1,.45-1,1.22Z" style="fill:#fff"></path><path d="M268,201.7c0-1.28.64-2.11,1.92-2.11s1.93.83,1.93,2.11V206c0,1.28-.63,2.12-1.93,2.12S268,207.31,268,206Zm.92,4.39c0,.75.33,1.21,1,1.21s1-.46,1-1.21v-4.44c0-.77-.32-1.22-1-1.22s-1,.45-1,1.22Z" style="fill:#fff"></path><path d="M322.59,201.19a2.37,2.37,0,0,1-1.16.36v-.76a1.45,1.45,0,0,0,1.44-1.12h.65v8.4h-.93Z" style="fill:#fff"></path><path d="M328.66,201.7v.21a1.66,1.66,0,0,1-1,1.73,1.66,1.66,0,0,1,1,1.74V206c0,1.28-.6,2.12-1.89,2.12s-1.89-.84-1.89-2.12v-.58h.88v.64c0,.75.31,1.21,1,1.21s1-.44,1-1.3v-.64c0-.83-.35-1.23-1.06-1.25h-.5v-.84h.55a1,1,0,0,0,1-1.15v-.39c0-.86-.3-1.3-1-1.3s-1,.47-1,1.22v.43h-.88v-.38c0-1.28.6-2.11,1.89-2.11S328.66,200.42,328.66,201.7Z" style="fill:#fff"></path><path d="M330.48,202.33v1.17h-.9v-1.17Zm0,4.57v1.17h-.9V206.9Z" style="fill:#fff"></path><path d="M331.37,201.7c0-1.28.63-2.11,1.91-2.11s1.93.83,1.93,2.11V206c0,1.28-.63,2.12-1.93,2.12s-1.91-.84-1.91-2.12Zm.92,4.39c0,.75.32,1.21,1,1.21s1-.46,1-1.21v-4.44c0-.77-.31-1.22-1-1.22s-1,.45-1,1.22Z" style="fill:#fff"></path><path d="M336,201.7c0-1.28.64-2.11,1.92-2.11s1.93.83,1.93,2.11V206c0,1.28-.63,2.12-1.93,2.12S336,207.31,336,206Zm.93,4.39c0,.75.32,1.21,1,1.21s1-.46,1-1.21v-4.44c0-.77-.31-1.22-1-1.22s-1,.45-1,1.22Z" style="fill:#fff"></path><line x1="233.37" y1="362.17" x2="365.66" y2="362.17" style="fill:none;stroke:#263238;stroke-linecap:round;stroke-linejoin:round"></line><rect x="277.35" y="279.69" width="45.96" height="30.64" style="fill:#84CC16"></rect><path d="M283,293.47V287h-1.33v-.73h3.46V287h-1.33v6.49Z" style="fill:#fff"></path><path d="M286.41,291.77c0,.65.26,1,.85,1s.83-.39.83-1v-5.52h.76v5.48c0,1.09-.51,1.82-1.62,1.82s-1.61-.73-1.61-1.82v-5.48h.79Z" style="fill:#fff"></path><path d="M292.21,289.45v.72h-1.76v2.57h2.16v.73h-3v-7.22h3V287h-2.16v2.47Z" style="fill:#fff"></path><path d="M293.71,293.47h-.3v-1h.77v.93l-.4,1h-.33Z" style="fill:#fff"></path><path d="M299.85,288c0,2.18-2.44,3-2.45,4.63v.11h2.37v.73h-3.16v-.62c0-2.33,2.44-2.78,2.44-4.81,0-.75-.25-1.14-.85-1.14s-.84.42-.84,1.06v.64h-.75V288c0-1.1.5-1.83,1.62-1.83S299.85,286.9,299.85,288Z" style="fill:#fff"></path><path d="M300.54,288c0-1.1.54-1.81,1.65-1.81s1.66.71,1.66,1.81v3.73c0,1.1-.55,1.82-1.66,1.82s-1.65-.72-1.65-1.82Zm.79,3.78c0,.65.28,1,.86,1s.85-.39.85-1V288c0-.66-.27-1.05-.85-1.05s-.86.39-.86,1.05Z" style="fill:#fff"></path><path d="M307,292l-.27,1.45H306l1.39-7.22h1.16l1.38,7.22h-.8l-.28-1.45Zm.11-.69h1.61l-.82-4.17Z" style="fill:#fff"></path><path d="M311.33,291.77c0,.65.25,1,.84,1s.84-.39.84-1v-5.52h.75v5.48c0,1.09-.5,1.82-1.62,1.82s-1.61-.73-1.61-1.82v-5.48h.8Z" style="fill:#fff"></path><path d="M317.74,288v.62H317V288c0-.65-.26-1-.85-1s-.84.39-.84,1v3.82c0,.65.27,1,.84,1s.85-.39.85-1v-1.45h-.74v-.72h1.5v2.13c0,1.09-.51,1.81-1.63,1.81s-1.62-.72-1.62-1.81V288c0-1.09.52-1.81,1.62-1.81S317.74,286.9,317.74,288Z" style="fill:#fff"></path><path d="M295.17,298.66c.88.13,1.28.81,1.28,1.78v.19h-.75v-.25c0-.64-.26-1-.84-1s-.82.39-.82,1c0,1.62,2.42,1.63,2.42,3.67,0,1-.41,1.66-1.29,1.78v.55h-.66v-.55c-.9-.12-1.3-.8-1.3-1.78v-.45H294v.5c0,.65.27,1,.85,1s.85-.37.85-1c0-1.61-2.42-1.63-2.42-3.66,0-1,.41-1.65,1.27-1.78v-.58h.66Z" style="fill:#fff"></path><path d="M298.72,299.94a2.11,2.11,0,0,1-1,.31v-.66a1.24,1.24,0,0,0,1.24-1h.55v7.22h-.79Z" style="fill:#fff"></path><path d="M304,300.36v.14h-.75v-.19c0-.65-.27-1-.86-1s-.87.39-.87,1.17v1.62a1.15,1.15,0,0,1,1.16-.78c.93,0,1.34.67,1.34,1.71v1.1c0,1.1-.54,1.82-1.65,1.82s-1.66-.72-1.66-1.82v-3.68c0-1.15.52-1.86,1.66-1.86S304,299.26,304,300.36Zm-2.48,2.71v1.08c0,.65.26,1,.85,1s.86-.39.86-1v-1.08c0-.65-.28-1.05-.86-1.05S301.49,302.42,301.49,303.07Z" style="fill:#fff"></path><path d="M304.68,300.37c0-1.1.55-1.81,1.65-1.81s1.66.71,1.66,1.81v3.73c0,1.1-.54,1.82-1.66,1.82s-1.65-.72-1.65-1.82Zm.8,3.78c0,.65.28,1,.85,1s.86-.39.86-1v-3.82c0-.66-.27-1.05-.86-1.05s-.85.39-.85,1.05Z" style="fill:#fff"></path><line x1="227.05" y1="151.04" x2="237.13" y2="151.04" style="fill:none;stroke:#263238;stroke-linecap:round;stroke-linejoin:round"></line><line x1="227.05" y1="153.18" x2="237.13" y2="153.18" style="fill:none;stroke:#263238;stroke-linecap:round;stroke-linejoin:round"></line><line x1="227.05" y1="155.32" x2="237.13" y2="155.32" style="fill:none;stroke:#263238;stroke-linecap:round;stroke-linejoin:round"></line><polygon points="336.19 129.01 244.14 448.71 280.69 448.67 369.33 129.01 336.19 129.01" style="fill:#fff;opacity:0.2"></polygon><polygon points="322.46 129.01 225.14 448.72 230.47 448.68 325.96 129.01 322.46 129.01" style="fill:#fff;opacity:0.2"></polygon><path d="M383.27,143.19A14.18,14.18,0,0,0,369.08,129H230.51a14.18,14.18,0,0,0-14.2,14.17h0V434.53a14.19,14.19,0,0,0,14.19,14.19H369.08a14.19,14.19,0,0,0,14.19-14.18h0Zm-4.79,280.29a10.29,10.29,0,0,1-10.41,10.13H231.51a10.28,10.28,0,0,1-10.4-10.13V146.26a10.27,10.27,0,0,1,10.4-10.13h49.11a7.9,7.9,0,0,1,7,4.15h0a14,14,0,0,0,24.42,0l0-.05a7.91,7.91,0,0,1,6.93-4.1h49.15a10.28,10.28,0,0,1,10.41,10.13Z" style="fill:#263238"></path></g><g id="freepik--Floor--inject-2"><line x1="41.05" y1="448.67" x2="454.61" y2="448.67" style="fill:none;stroke:#263238;stroke-linecap:round;stroke-linejoin:round"></line></g><g id="freepik--Character--inject-2"><path d="M114.85,426.05a5.44,5.44,0,0,0-.13,2.47c.54,2,3.17,2.65,5.27,2.45a8.26,8.26,0,0,0,5.9-2.79,11.22,11.22,0,0,0,1.61-3.89q3.93-14.44,7.85-28.89a66.25,66.25,0,0,0,2.21-10.2,3.63,3.63,0,0,0-.16-1.91c-.55-1.2-2.09-1.5-3.41-1.58a44.25,44.25,0,0,0-8.61.29c-9.85,1.29-6.72,7.91-7,15.6A169.28,169.28,0,0,1,114.85,426.05Z" style="fill:#fff;stroke:#263238;stroke-linecap:round;stroke-linejoin:round;stroke-width:1.2037407309770503px"></path><path d="M127.23,445a10,10,0,0,1-4,2.35c-8.8,3.37-18.3,6.79-27.41,4.43a3.78,3.78,0,0,1-2.38-1.36,3,3,0,0,1-.39-2c5,1.18,16.64.68,17.09.18a2.79,2.79,0,0,0,.57-1.73,11.87,11.87,0,0,0-1.43-7.16,7.06,7.06,0,0,0-4.47-3.18,29.79,29.79,0,0,0,4.07-3.43c.07-.07.14-.16.23-.24l.43.08c3.07,1.17,4.67,4.48,6,7.5.62,1.43,1,5.12,1.23,5.25s5.77-1,8.22-2.85c1.63-1.22,1.52-4.8.89-6.73a9.22,9.22,0,0,0-3.72-4.66c-.86-.58-5.81-1.71-10.2-2.68,1.27-2,2.44-3.71,3.1-3.48,4.07,1.48,10.37,2.33,11.49,1.9,2.67-1,2.24,8.18,2.27,11C128.82,440.57,128.78,443.17,127.23,445Z" style="fill:#263238;stroke:#263238;stroke-linecap:round;stroke-linejoin:round;stroke-width:1.2037407309770503px"></path><path d="M109.26,439.68a11.87,11.87,0,0,1,1.43,7.16,2.79,2.79,0,0,1-.57,1.73c-.45.5-12.12,1-17.09-.18a.71.71,0,0,1,0-.14c.46-4,4.13-6.72,7.49-8.91,1.42-.91,2.86-1.84,4.26-2.84A7.06,7.06,0,0,1,109.26,439.68Z" style="fill:#fff;stroke:#263238;stroke-linecap:round;stroke-linejoin:round;stroke-width:1.2037407309770503px"></path><path d="M125,442.81c-2.45,1.84-8,3-8.22,2.85s-.61-3.82-1.23-5.25c-1.31-3-2.91-6.33-6-7.5l-.43-.08a36.74,36.74,0,0,0,2.83-4.09c4.39,1,9.34,2.1,10.2,2.68a9.22,9.22,0,0,1,3.72,4.66C126.47,438,126.58,441.59,125,442.81Z" style="fill:#fff;stroke:#263238;stroke-linecap:round;stroke-linejoin:round;stroke-width:1.2037407309770503px"></path><path d="M103.36,444.51a3.86,3.86,0,0,1-2.6.42,2.48,2.48,0,0,0-1.17,3.37,2.1,2.1,0,0,0,2.28.71c.82-.23,2.09-.37,2.61-1,2-.73,2.74,1.59,5.17.57" style="fill:none;stroke:#263238;stroke-linecap:round;stroke-linejoin:round;stroke-width:1.2037407309770503px"></path><path d="M97.58,445.6a2.41,2.41,0,0,0-.73,1.34,1.89,1.89,0,0,0,1.09,1.84,4.5,4.5,0,0,0,2.1.31l-.3,0" style="fill:none;stroke:#263238;stroke-linecap:round;stroke-linejoin:round;stroke-width:1.2037407309770503px"></path><path d="M95.25,445.25a2,2,0,0,0-.64,1.79,1.61,1.61,0,0,0,.63,1.09,1.19,1.19,0,0,0,1.22.1" style="fill:none;stroke:#263238;stroke-linecap:round;stroke-linejoin:round;stroke-width:1.2037407309770503px"></path><path d="M208.1,426.05a5.31,5.31,0,0,1,.13,2.47c-.54,2-3.16,2.65-5.27,2.45a8.26,8.26,0,0,1-5.9-2.79,11.22,11.22,0,0,1-1.61-3.89q-3.93-14.44-7.85-28.89a67.44,67.44,0,0,1-2.21-10.2,3.63,3.63,0,0,1,.16-1.91c.55-1.2,2.09-1.5,3.41-1.58a44.25,44.25,0,0,1,8.61.29c9.85,1.29,6.72,7.91,7,15.6A169.28,169.28,0,0,0,208.1,426.05Z" style="fill:#fff;stroke:#263238;stroke-linecap:round;stroke-linejoin:round;stroke-width:1.2037407309770503px"></path><path d="M143.68,262.05c-2.17-1.4-18.87,58.65-26.48,86.49a106.38,106.38,0,0,0-3.75,28v8.31s12.67,9.16,28.88,6.46l6.23-26.68,17.31-54.17,12.26,59.1L181,390.23s6.42,1.77,16.53.78a50.51,50.51,0,0,0,14.57-4l-.39-6.57a217.75,217.75,0,0,0-4-30.63L190.84,267S171.85,280.14,143.68,262.05Z" style="fill:#263238;stroke:#263238;stroke-linecap:round;stroke-linejoin:round;stroke-width:1.2037407309770503px"></path><g id="freepik--group--inject-2"><path d="M153.87,189.26s-13.44-6.81-21.91-6.81c-9.6,0-27.38-14.71-27.38-14.71L89.2,129l-8,2.17s1.46,23.62,2.41,30.24,6,19.56,6.62,20.76S93.8,187,95,187.3s15.35,10.83,18.66,12.64,16.55,9.63,16.55,9.63,6.62,16.85,7.52,20.16,3.91,18,4.21,20.39-6.07,26.06-4.86,28.16,16.45.32,28.49.32,26.53,5.46,27.73,1.84-3.5-46.8-3.5-46.8,6.32,12.94,9,17.16,6.93,9.93,9.94,9.93S250,237.25,250,237.25l-1.8-7.52a73.07,73.07,0,0,1-17.46,5.42c-8.42,1.2-19.86,4.21-19.86,4.21s-11.92-33.22-17.56-39.22c-3.83-4.09-21.26-8.33-24-8.33S153.87,189.26,153.87,189.26Z" style="fill:#84CC16"></path><g style="clip-path:url(#freepik--clip-path--inject-2)"><g style="opacity:0.2"><path d="M127.17,194l8.06,12.4c2.42,3.72,4.84,7.44,7.37,11.07a209.7,209.7,0,0,0,36.1,39.8,13.89,13.89,0,0,1-7.77-.94,17,17,0,0,0,8.27,7.78,73.9,73.9,0,0,1-23.64-11.18,3.87,3.87,0,0,0-.15,4.18,10.55,10.55,0,0,0,3,3.17A102.25,102.25,0,0,0,171.72,269l-12-2.54a3.18,3.18,0,0,0-2.09,0c-1.08.53-1.18,2.16-.5,3.16a6.48,6.48,0,0,0,3,2l10.39,4.46c1.27.55,2.71,1.3,2.93,2.67l-33.54-.06a3.33,3.33,0,0,1-2.5-.69,3.1,3.1,0,0,1-.63-2.07c-.24-7.26,3.56-14.06,4.25-21.28.64-6.55-1.24-17.75-3.15-24a152.85,152.85,0,0,0-8.33-22.9A29.17,29.17,0,0,1,127.17,194Z"></path></g><path d="M194.29,221.48s-6.58,10.5-2,18.16S192.54,236.47,194.29,221.48Z" style="opacity:0.2"></path><path d="M88.93,178.66a13.82,13.82,0,0,1-2-5.34,2.45,2.45,0,0,1,.12-1.47c.49-1,16.33,13.15,23.22,18.78a.46.46,0,0,0,.73-.52,24.24,24.24,0,0,1-1.39-5c1.36,2.38,5.81,6.46,8.65,9.07a.93.93,0,0,0,1.55-.67c0-1.92.1-5.41,0-6.4,5.41,11.07,8.17,16,10.59,23.09.13.32-2.73-1.82-3.86-2.53-10.1-6.28-22.71-15-32.82-21.29C90.63,184.44,88.93,178.66,88.93,178.66Z" style="opacity:0.2"></path></g><path d="M153.87,189.26s-13.44-6.81-21.91-6.81c-9.6,0-27.38-14.71-27.38-14.71L89.2,129l-8,2.17s1.46,23.62,2.41,30.24,6,19.56,6.62,20.76S93.8,187,95,187.3s15.35,10.83,18.66,12.64,16.55,9.63,16.55,9.63,6.62,16.85,7.52,20.16,3.91,18,4.21,20.39-6.07,26.06-4.86,28.16,16.45.32,28.49.32,26.53,5.46,27.73,1.84-3.5-46.8-3.5-46.8,6.32,12.94,9,17.16,6.93,9.93,9.94,9.93S250,237.25,250,237.25l-1.8-7.52a73.07,73.07,0,0,1-17.46,5.42c-8.42,1.2-19.86,4.21-19.86,4.21s-11.92-33.22-17.56-39.22c-3.83-4.09-21.26-8.33-24-8.33S153.87,189.26,153.87,189.26Z" style="fill:none;stroke:#263238;stroke-linecap:round;stroke-linejoin:round;stroke-width:1.2037407309770503px"></path><path d="M147.69,238.7s16.25,18.66,33.1,22.87" style="fill:none;stroke:#263238;stroke-linecap:round;stroke-linejoin:round;stroke-width:1.2037407309770503px"></path><line x1="193.14" y1="210.92" x2="193.67" y2="207.4" style="fill:none;stroke:#263238;stroke-linecap:round;stroke-linejoin:round;stroke-width:1.2037407309770503px"></line><line x1="190.06" y1="231.17" x2="192.62" y2="214.31" style="fill:none;stroke:#263238;stroke-linecap:round;stroke-linejoin:round;stroke-width:1.2037407309770503px"></line><line x1="190.36" y1="228.47" x2="196.38" y2="215.22" style="fill:none;stroke:#263238;stroke-linecap:round;stroke-linejoin:round;stroke-width:1.2037407309770503px"></line><line x1="242.98" y1="232.36" x2="245.84" y2="239.64" style="fill:none;stroke:#263238;stroke-linecap:round;stroke-linejoin:round;stroke-width:1.2037407309770503px"></line><line x1="81.45" y1="136.65" x2="90.88" y2="134.03" style="fill:none;stroke:#263238;stroke-linecap:round;stroke-linejoin:round;stroke-width:1.2037407309770503px"></line><line x1="126.2" y1="186.79" x2="125.66" y2="184.23" style="fill:none;stroke:#263238;stroke-linecap:round;stroke-linejoin:round;stroke-width:1.2037407309770503px"></line><line x1="118.89" y1="181.76" x2="117.23" y2="178.21" style="fill:none;stroke:#263238;stroke-linecap:round;stroke-linejoin:round;stroke-width:1.2037407309770503px"></line><line x1="129.87" y1="205.29" x2="120.25" y2="184.67" style="fill:none;stroke:#263238;stroke-linecap:round;stroke-linejoin:round;stroke-width:1.2037407309770503px"></line><path d="M104.35,166.77s3,12,6.92,18.06" style="fill:none;stroke:#263238;stroke-linecap:round;stroke-linejoin:round;stroke-width:1.2037407309770503px"></path><path d="M211.11,238.73a14.46,14.46,0,0,0-4.6,11.64" style="fill:none;stroke:#263238;stroke-linecap:round;stroke-linejoin:round;stroke-width:1.2037407309770503px"></path><path d="M148.63,258.16a52.41,52.41,0,0,0,24.55,11.36" style="fill:none;stroke:#263238;stroke-linecap:round;stroke-linejoin:round;stroke-width:1.2037407309770503px"></path><path d="M151.31,177.31s2.35,12,3.16,14,1.49,10.4,8.87,10.4c6.7,0,5.79-8.14,6-9.93s.23-8.7.23-8.7-6.81,1.81-10-.4-6-7.6-7.23-7.6S151.31,177.31,151.31,177.31Z" style="fill:#fff"></path><path d="M159.53,182.71c-3.21-2.2-6-7.6-7.22-7.6s-1,2.2-1,2.2,1.21,5.63,2.12,9.47a15.65,15.65,0,0,0,8.1,4.07,12.58,12.58,0,0,0,7.85-2c.17-1.93.17-5.73.17-5.73S162.74,185,159.53,182.71Z" style="fill:#263238"></path><path d="M151.31,177.31s2.35,12,3.16,14,1.49,10.4,8.87,10.4c6.7,0,5.79-8.14,6-9.93s.23-8.7.23-8.7-6.81,1.81-10-.4-6-7.6-7.23-7.6S151.31,177.31,151.31,177.31Z" style="fill:none;stroke:#263238;stroke-linecap:round;stroke-linejoin:round;stroke-width:1.2037407309770503px"></path><path d="M175.16,153.46s.6,9.82,1.2,14.23.8,9.63-1.41,13-4.4,5.6-9,6.21-10.41-2.21-12.22-5-3.41-5.61-3.41-5.61a8.71,8.71,0,0,1-3.8-1c-1.81-1-3.41-5.61-2.8-7.42s3.61-2,3.61-2-1.4-6.21-2.21-10.42a8.87,8.87,0,0,1,6.42-10.21c5-1.61,12.42-1.41,16.23.6S174.16,150.06,175.16,153.46Z" style="fill:#fff"></path><path d="M175.16,153.46s.6,9.82,1.2,14.23.8,9.63-1.41,13-4.4,5.6-9,6.21-10.41-2.21-12.22-5-3.41-5.61-3.41-5.61a8.71,8.71,0,0,1-3.8-1c-1.81-1-3.13-5.54-2.8-7.42.76-4.4,4.31-.59,4.31-.59s-2.1-7.62-2.91-11.83a8.87,8.87,0,0,1,6.42-10.21c5-1.61,12.42-1.41,16.23.6S174.16,150.06,175.16,153.46Z" style="fill:none;stroke:#263238;stroke-linecap:round;stroke-linejoin:round;stroke-width:1.2037407309770503px"></path><path d="M172.35,158.07a5.12,5.12,0,0,0-4,1.21c-1.81,1.6.8,9.21.8,10.41s-3.81,2.2-3.81,2.2" style="fill:none;stroke:#263238;stroke-linecap:round;stroke-linejoin:round;stroke-width:1.2037407309770503px"></path><path d="M161.66,161.61a4.44,4.44,0,0,0-6.17-1.16l-.33.24" style="fill:none;stroke:#263238;stroke-linecap:round;stroke-linejoin:round;stroke-width:1.2037407309770503px"></path><path d="M172.25,165c.1.87-.29,1.65-.89,1.72s-1.21-.57-1.31-1.45.29-1.65.9-1.73S172.13,164.07,172.25,165Z" style="fill:#263238"></path><path d="M248.07,229.24s1.5-6,2.71-7.52,3.91-2.41,4.81-4.22,2.11-4.21,3-3a3.26,3.26,0,0,1,.56,3.55,10.64,10.64,0,0,1-2.16,3.27,5,5,0,0,0-1.2,2.05,1.54,1.54,0,0,1-.21.72l17.93-7a1.8,1.8,0,0,1,1,1.34c.2,1-1.12,1.63-1.73,1.84s-8.09,3.61-8.09,3.61l.82,1.32,7.74-.69a1.31,1.31,0,0,1,1.37,1.25,1.32,1.32,0,0,1-1,1.34l-7.6,1.39-.3,1.32,6.74,1.21a1.2,1.2,0,0,1,1,1.28,1.13,1.13,0,0,1-1.14,1l-6.72-.18c2.08,1.2,2.9,1.61,5,2.75,3.31,1.37,1.76,3.49-.21,3-.91-.18-6.06-2.62-6.06-2.62s-2.41.2-4.5.5-4.82.93-5.95.93a24.3,24.3,0,0,1-4.05-.85Z" style="fill:#fff;stroke:#263238;stroke-linecap:round;stroke-linejoin:round;stroke-width:1.2037407309770503px"></path><path d="M272.75,212.71l-4.13-.48a.66.66,0,0,0-.63.27h0a1.18,1.18,0,0,1-1.65.26,1.12,1.12,0,0,1-.4-.51h0a.64.64,0,0,0-.55-.41l-4.12-.49a.88.88,0,0,0-1,.75l-2.74,23.3a.87.87,0,0,0,.77,1l11.48,1.35a.85.85,0,0,0,1-.75l2.75-23.29A.87.87,0,0,0,272.75,212.71Z" style="fill:#84CC16"></path><path d="M274,213.46a1.2,1.2,0,0,0-1.05-1.34h0l-11.64-1.37a1.2,1.2,0,0,0-1.34,1.05h0L257,236.29a1.19,1.19,0,0,0,1,1.33h0L269.73,239a1.2,1.2,0,0,0,1.34-1.05h0ZM270.77,237a.85.85,0,0,1-1,.75l-11.48-1.35a.87.87,0,0,1-.77-1l2.74-23.3a.88.88,0,0,1,1-.75l4.13.49a.64.64,0,0,1,.54.41h0a1.18,1.18,0,0,0,1.54.65,1.27,1.27,0,0,0,.51-.4h0a.65.65,0,0,1,.62-.27l4.13.48a.87.87,0,0,1,.77,1Z" style="fill:#263238;stroke:#263238;stroke-linecap:round;stroke-linejoin:round;stroke-width:1.2037407309770503px"></path><g style="opacity:0.2"><polygon points="270.14 211.8 259.23 237.75 262.31 238.11 272.92 212.13 270.14 211.8" style="fill:#fff"></polygon></g><g style="opacity:0.2"><polygon points="268.98 211.66 257.64 237.57 258.09 237.62 269.28 211.7 268.98 211.66" style="fill:#fff"></polygon></g><path d="M158.19,163.54a4.09,4.09,0,0,1,2.87,2.84,3.25,3.25,0,0,0-3.08-.52" style="fill:none;stroke:#263238;stroke-linecap:round;stroke-linejoin:round;stroke-width:1.2037407309770503px"></path><path d="M158.85,174.36a4.68,4.68,0,0,0,2,1.78,10.61,10.61,0,0,0,3.81,1.32,6.88,6.88,0,0,0,4-.64" style="fill:none;stroke:#263238;stroke-linecap:round;stroke-linejoin:round;stroke-width:1.2037407309770503px"></path><path d="M143.84,146.75a17.67,17.67,0,0,0-1.37,5.21c-.62,4.51-.5,9.38,1.93,13.22a1.6,1.6,0,0,0,.82.78c.39.12.82,0,1.21.08a1.78,1.78,0,0,1,.79.7l2.25,3a18.17,18.17,0,0,1-1.3-9.21,14.49,14.49,0,0,1,4-8.33,4.7,4.7,0,0,0,2.51,3.38,14.14,14.14,0,0,0,4.15,1.3,12,12,0,0,1-3.22-4.06c2.08,1.87,5.14,2,7.94,2s5.84.07,8,1.82a9.87,9.87,0,0,1,3,5.84c.38-2.08,1.73-3.82,2.66-5.72a14.58,14.58,0,0,0,1.41-5.22,8.74,8.74,0,0,0-.39-3.67,9.64,9.64,0,0,0-1.74-2.88,22.3,22.3,0,0,0-12-7.5A16.37,16.37,0,0,0,152.64,139a27.35,27.35,0,0,0-2.39,1.87c-.74.55-1.61.83-2.39,1.33A11.24,11.24,0,0,0,143.84,146.75Z" style="fill:#263238"></path><path d="M89.1,118.36l-.92,1a1.87,1.87,0,0,1-1.93.47l-.88-.39c0-1.08,1.28-2.52,1.81-3.47a1.35,1.35,0,0,1,.53-.58,1.64,1.64,0,0,1,.63-.12l1.76,0,.88,0a.72.72,0,0,1,.46.12,1,1,0,0,1,.19.43A15.75,15.75,0,0,1,89,128.9s-6.21,1.83-7.53,3.27L76,119.75c-.87-1.94-.79-3.28-.13-4.36C77.32,113,80.07,108.92,82,109s5.78,6.43,5.78,6.43l-5.15,5.07s-5.58-4-3.43-4H81.3l.22.85,1.71-1.93a2.91,2.91,0,0,1-1.18-3" style="fill:#fff;stroke:#263238;stroke-linecap:round;stroke-linejoin:round;stroke-width:1.2037407309770503px"></path><path d="M83,109c.46-.13.56-.8,1-1s1,.19,1.29.57l.11.13a72.81,72.81,0,0,1,4.6,5.69,1.59,1.59,0,0,1,.34.72.3.3,0,0,1,0,.16" style="fill:none;stroke:#263238;stroke-linecap:round;stroke-linejoin:round;stroke-width:1.2037407309770503px"></path><path d="M86.68,120.15h-.44a1.71,1.71,0,0,1-.27.2c-.2.15-.94-.25-1.19-.19-.69.17-1.06.3-1.13-.4" style="fill:none;stroke:#263238;stroke-linecap:round;stroke-linejoin:round;stroke-width:1.2037407309770503px"></path><path d="M85.42,108.7c.19-.25.32-.57.61-.7.46-.22,1,.19,1.29.57,1.66,1.86,3.24,3.8,4.71,5.82a1.5,1.5,0,0,1,.34.72,1.45,1.45,0,0,1-.52,1" style="fill:none;stroke:#263238;stroke-linecap:round;stroke-linejoin:round;stroke-width:1.2037407309770503px"></path><path d="M87.07,120a10.22,10.22,0,0,0-1.64,6.75" style="fill:none;stroke:#263238;stroke-linecap:round;stroke-linejoin:round;stroke-width:1.2037407309770503px"></path></g><polyline points="145.93 165.19 149.83 144.99 151.87 144.87" style="fill:none;stroke:#bfbfbf;stroke-linecap:round;stroke-linejoin:round;stroke-width:1.2037407309770503px"></polyline><path d="M163.54,144.87c0,1.13-2.22,4.95-5.84,4.95-4.78,0-5.83-3.82-5.83-4.95s2.94-2.05,6.56-2.05S163.54,143.74,163.54,144.87Z" style="fill:none;stroke:#bfbfbf;stroke-linecap:round;stroke-linejoin:round;stroke-width:1.2037407309770503px"></path><path d="M166,144.87c0,1.13,2.22,4.95,5.84,4.95,4.78,0,5.83-3.82,5.83-4.95s-2.94-2.05-6.56-2.05S166,143.74,166,144.87Z" style="fill:none;stroke:#bfbfbf;stroke-linecap:round;stroke-linejoin:round;stroke-width:1.2037407309770503px"></path><line x1="163.42" y1="144.35" x2="165.75" y2="144.35" style="fill:none;stroke:#bfbfbf;stroke-linecap:round;stroke-linejoin:round;stroke-width:1.2037407309770503px"></line><path d="M166.43,278.61s0,22.27-.56,31.85" style="fill:none;stroke:#bfbfbf;stroke-linecap:round;stroke-linejoin:round;stroke-width:1.2037407309770503px"></path><path d="M166.19,302.2c2.17-.57,6-2,6.86-4.13s.13-19.13.13-19.13" style="fill:none;stroke:#bfbfbf;stroke-linecap:round;stroke-linejoin:round;stroke-width:1.2037407309770503px"></path><path d="M118,345.18A81.92,81.92,0,0,0,116.78,359a27.46,27.46,0,0,0,3.37,13.29" style="fill:none;stroke:#bfbfbf;stroke-linecap:round;stroke-linejoin:round;stroke-width:1.2037407309770503px"></path><path d="M209,356.09a44.38,44.38,0,0,1-3.66,17.74,11.22,11.22,0,0,1-3.8,5.2" style="fill:none;stroke:#bfbfbf;stroke-linecap:round;stroke-linejoin:round;stroke-width:1.2037407309770503px"></path><path d="M118.09,367.54A134.16,134.16,0,0,0,117,386.16" style="fill:none;stroke:#bfbfbf;stroke-linecap:round;stroke-linejoin:round;stroke-width:1.2037407309770503px"></path><path d="M121.93,345.18c-.24,1.13-.47,2.25-.7,3.37" style="fill:none;stroke:#bfbfbf;stroke-linecap:round;stroke-linejoin:round;stroke-width:1.2037407309770503px"></path><path d="M140.43,280c-1.82,5.71-10.7,30.77-17.05,59.19" style="fill:none;stroke:#bfbfbf;stroke-linecap:round;stroke-linejoin:round;stroke-width:1.2037407309770503px"></path><path d="M195.72,445a9.86,9.86,0,0,0,4,2.35c8.8,3.37,18.3,6.79,27.41,4.43a3.8,3.8,0,0,0,2.38-1.36,3,3,0,0,0,.39-2c-5,1.18-16.64.68-17.1.18a2.78,2.78,0,0,1-.56-1.73,11.87,11.87,0,0,1,1.43-7.16,7.06,7.06,0,0,1,4.47-3.18,29.79,29.79,0,0,1-4.07-3.43l-.23-.24-.43.08c-3.07,1.17-4.67,4.48-6,7.5-.61,1.43-1,5.12-1.22,5.25s-5.77-1-8.23-2.85c-1.62-1.22-1.51-4.8-.89-6.73a9.32,9.32,0,0,1,3.72-4.66c.87-.58,5.82-1.71,10.21-2.68-1.28-2-2.44-3.71-3.11-3.48-4.06,1.48-10.36,2.33-11.48,1.9-2.67-1-2.24,8.18-2.27,11C194.13,440.57,194.17,443.17,195.72,445Z" style="fill:#263238;stroke:#263238;stroke-linecap:round;stroke-linejoin:round;stroke-width:1.2037407309770503px"></path><path d="M213.69,439.68a11.87,11.87,0,0,0-1.43,7.16,2.78,2.78,0,0,0,.56,1.73c.46.5,12.13,1,17.1-.18a.36.36,0,0,0,0-.14c-.45-4-4.12-6.72-7.48-8.91-1.42-.91-2.87-1.84-4.26-2.84A7.06,7.06,0,0,0,213.69,439.68Z" style="fill:#fff;stroke:#263238;stroke-linecap:round;stroke-linejoin:round;stroke-width:1.2037407309770503px"></path><path d="M198,442.81c2.46,1.84,8,3,8.23,2.85s.61-3.82,1.22-5.25c1.32-3,2.92-6.33,6-7.5l.43-.08a36.74,36.74,0,0,1-2.83-4.09c-4.39,1-9.34,2.1-10.21,2.68a9.32,9.32,0,0,0-3.72,4.66C196.48,438,196.37,441.59,198,442.81Z" style="fill:#fff;stroke:#263238;stroke-linecap:round;stroke-linejoin:round;stroke-width:1.2037407309770503px"></path><path d="M219.59,444.51a3.86,3.86,0,0,0,2.6.42,2.48,2.48,0,0,1,1.16,3.37,2.09,2.09,0,0,1-2.28.71c-.82-.23-2.08-.37-2.6-1-2-.73-2.74,1.59-5.18.57" style="fill:none;stroke:#263238;stroke-linecap:round;stroke-linejoin:round;stroke-width:1.2037407309770503px"></path><path d="M225.23,445.6a2.41,2.41,0,0,1,.73,1.34,1.89,1.89,0,0,1-1.09,1.84,4.5,4.5,0,0,1-2.1.31l.3,0" style="fill:none;stroke:#263238;stroke-linecap:round;stroke-linejoin:round;stroke-width:1.2037407309770503px"></path><path d="M227.56,445.25a2,2,0,0,1,.64,1.79,1.61,1.61,0,0,1-.63,1.09,1.19,1.19,0,0,1-1.22.1" style="fill:none;stroke:#263238;stroke-linecap:round;stroke-linejoin:round;stroke-width:1.2037407309770503px"></path></g><g id="freepik--Airplane--inject-2"><path d="M195.17,100.78a8,8,0,0,0-2.47-1.06L190,99l-5.81,3.39,16.33,5a2.83,2.83,0,0,0,2.29-.27l.54-.31a.51.51,0,0,0,0-.86Z" style="fill:#fff"></path><path d="M195.17,100.78a8,8,0,0,0-2.47-1.06L190,99l-5.81,3.39,16.33,5a2.83,2.83,0,0,0,2.29-.27l.54-.31a.51.51,0,0,0,0-.86Z" style="fill:#fff;stroke:#263238;stroke-linecap:round;stroke-linejoin:round;stroke-width:1.1181347370147705px"></path><polygon points="193 87.52 182.77 63.92 177.21 67.17 181.01 95.56 193.71 88.75 193 87.52" style="fill:#fff;stroke:#263238;stroke-linecap:round;stroke-linejoin:round;stroke-width:1.1181347370147705px"></polygon><path d="M230.7,90.92l52.43,13.57a4.06,4.06,0,0,0,2.34-.1l1.44-.51a1.14,1.14,0,0,0,.3-2,19.78,19.78,0,0,0-1.71-1.12c-3-1.79-35.9-20.87-35.9-20.87Z" style="fill:#fff;stroke:#263238;stroke-linecap:round;stroke-linejoin:round;stroke-width:1.1181347370147705px"></path><path d="M173.06,101.2a2.59,2.59,0,0,0,2.12,3.47c6.92.83,31.62,2,63.52-16.57C274.91,67,282.79,58.5,280.82,53.42a4.13,4.13,0,0,0-.7-1.15c-1.84-2.19-10.2-10.43-26.1-1.16L181.1,93.64S174.54,97.31,173.06,101.2Z" style="fill:#fff;stroke:#263238;stroke-linecap:round;stroke-linejoin:round;stroke-width:1.1181347370147705px"></path><path d="M195,85.53l59-34.42c15.9-9.27,24.26-1,26.1,1.16a4.13,4.13,0,0,1,.7,1.15c2,5.08-5.91,13.57-42.12,34.68-31.9,18.61-56.6,17.4-63.52,16.57a2.59,2.59,0,0,1-2.12-3.47c1.48-3.89,8-7.56,8-7.56Z" style="fill:#fff;stroke:#263238;stroke-linecap:round;stroke-linejoin:round;stroke-width:1.1181347370147705px"></path><line x1="257.65" y1="56.06" x2="262.62" y2="53.22" style="fill:#fff;stroke:#263238;stroke-linecap:round;stroke-linejoin:round;stroke-width:1.1181347370147705px"></line><line x1="185.78" y1="97.21" x2="255.88" y2="57.08" style="fill:#fff;stroke:#263238;stroke-linecap:round;stroke-linejoin:round;stroke-width:1.1181347370147705px"></line><path d="M211.09,84.89,224,77.34a3.12,3.12,0,0,0,1.35-3.86c-.58-1.41-2-3-5.26-3.87L145.25,54.68a4.21,4.21,0,0,0-1.46,0l-5.52.92a.42.42,0,0,0-.09.81Z" style="fill:#fff"></path><path d="M191.58,92.3h0c-.43.24-.81,0-.86-.53l-.09-1a1.6,1.6,0,0,1,.68-1.43h0c.42-.25.81,0,.86.53l.09,1A1.62,1.62,0,0,1,191.58,92.3Z" style="fill:#263238"></path><path d="M194.59,90.54h0c-.43.25-.81,0-.86-.53l-.09-1a1.57,1.57,0,0,1,.68-1.42h0c.42-.25.81,0,.86.53l.09,1A1.62,1.62,0,0,1,194.59,90.54Z" style="fill:#263238"></path><path d="M197.6,88.78h0c-.43.25-.81,0-.86-.52l-.09-1a1.6,1.6,0,0,1,.68-1.43h0c.42-.25.81,0,.86.53l.09,1A1.6,1.6,0,0,1,197.6,88.78Z" style="fill:#263238"></path><path d="M200.61,87h0c-.43.25-.81,0-.86-.53l-.09-1a1.57,1.57,0,0,1,.68-1.42h0c.42-.25.81,0,.86.53l.09,1A1.62,1.62,0,0,1,200.61,87Z" style="fill:#263238"></path><path d="M203.62,85.28h0c-.43.24-.81,0-.86-.53l-.09-1a1.6,1.6,0,0,1,.68-1.43h0c.42-.25.81,0,.86.53l.09,1A1.62,1.62,0,0,1,203.62,85.28Z" style="fill:#263238"></path><path d="M226.58,71.89h0c-.43.24-.81,0-.86-.53l-.09-1a1.62,1.62,0,0,1,.68-1.43h0c.42-.25.81,0,.86.53l.09,1A1.62,1.62,0,0,1,226.58,71.89Z" style="fill:#263238"></path><path d="M229.59,70.13h0c-.43.25-.81,0-.86-.53l-.09-1a1.57,1.57,0,0,1,.68-1.42h0c.42-.25.81,0,.86.53l.09,1A1.62,1.62,0,0,1,229.59,70.13Z" style="fill:#263238"></path><path d="M232.6,68.38h0c-.43.24-.81,0-.86-.53l-.09-1a1.6,1.6,0,0,1,.68-1.43h0c.42-.25.81,0,.86.53l.09,1A1.62,1.62,0,0,1,232.6,68.38Z" style="fill:#263238"></path><path d="M235.61,66.62h0c-.43.25-.81,0-.86-.53l-.09-1a1.57,1.57,0,0,1,.68-1.42h0c.42-.25.81,0,.86.53l.09,1A1.62,1.62,0,0,1,235.61,66.62Z" style="fill:#263238"></path><path d="M238.62,64.86h0c-.43.25-.81,0-.86-.52l-.09-1a1.6,1.6,0,0,1,.68-1.43h0c.42-.25.81,0,.86.53l.09,1A1.6,1.6,0,0,1,238.62,64.86Z" style="fill:#263238"></path><path d="M241.84,63h0c-.42.24-.81,0-.86-.53l-.09-1a1.62,1.62,0,0,1,.68-1.43h0c.43-.25.81,0,.86.53l.09,1A1.62,1.62,0,0,1,241.84,63Z" style="fill:#263238"></path><path d="M244.85,61.23h0c-.42.25-.81,0-.86-.53l-.09-1a1.6,1.6,0,0,1,.68-1.42h0c.43-.25.81,0,.86.53l.09,1A1.62,1.62,0,0,1,244.85,61.23Z" style="fill:#263238"></path><path d="M247.86,59.48h0c-.42.24-.81,0-.86-.53l-.09-1a1.62,1.62,0,0,1,.68-1.43h0c.42-.25.81,0,.86.53l.09,1A1.62,1.62,0,0,1,247.86,59.48Z" style="fill:#263238"></path><path d="M250.87,57.72h0c-.43.25-.81,0-.86-.53l-.09-1a1.6,1.6,0,0,1,.68-1.42h0c.42-.25.81,0,.86.53l.09,1A1.62,1.62,0,0,1,250.87,57.72Z" style="fill:#263238"></path><path d="M253.88,56h0c-.43.24-.81,0-.86-.53l-.09-1a1.62,1.62,0,0,1,.68-1.43h0c.42-.25.81,0,.86.53l.09,1A1.62,1.62,0,0,1,253.88,56Z" style="fill:#263238"></path><path d="M266,48.35a8.5,8.5,0,0,0-2.69,2.13s1.29-.26,3.15-.53Z" style="fill:#263238"></path><path d="M270.69,49.5a25.38,25.38,0,0,1,5.42.13,13.24,13.24,0,0,0-5.79-2.06Z" style="fill:#263238"></path><path d="M198,70.93l-2,1.64a7.13,7.13,0,0,0,4.63,7.93A133.16,133.16,0,0,0,213.68,75c2.29-1.33,2.7-4.88.93-7.92s-5-4.33-7.35-3.1a100.15,100.15,0,0,0-9.28,7" style="fill:#fff"></path><path d="M212.91,67.86c1.21,2.07.93,4.5-.63,5.4s-3.81,0-5-2.11-.93-4.5.63-5.41S211.7,65.78,212.91,67.86Z" style="fill:#263238"></path><path d="M256.76,82.5a122.39,122.39,0,0,0-10.21,7.83,6.45,6.45,0,0,0,4.19,7.18,119.77,119.77,0,0,0,11.83-5c2.07-1.2,2.44-4.41.84-7.17S258.82,81.3,256.76,82.5Z" style="fill:#fff"></path><path d="M256.76,82.5a122.39,122.39,0,0,0-10.21,7.83,6.45,6.45,0,0,0,4.19,7.18,119.77,119.77,0,0,0,11.83-5c2.07-1.2,2.44-4.41.84-7.17S258.82,81.3,256.76,82.5Z" style="fill:#fff"></path><path d="M262.19,85.94c1.15,2,.88,4.29-.6,5.15s-3.63,0-4.79-2-.88-4.29.6-5.16S261,84,262.19,85.94Z" style="fill:#263238"></path><path d="M181.14,96.84l-24.71-6.15a3.57,3.57,0,0,0-1.49,0l-3.07.51a.67.67,0,0,0-.09,1.3l24.13,7.44Z" style="fill:#fff"></path><path d="M269.22,47.54a8,8,0,0,0-2.32.42l.52,1.86c.69-.09,1.43-.17,2.19-.24Z" style="fill:#263238"></path><path d="M203.48,66.14,145.69,54.62a5,5,0,0,0-1.9-.11l-5.52.92a.43.43,0,0,0-.09.82l72.91,28.49" style="fill:none;stroke:#263238;stroke-linecap:round;stroke-linejoin:round;stroke-width:1.1181347370147705px"></path><path d="M225.39,73.33a6.87,6.87,0,0,0-4.81-3.78l-5.15-1" style="fill:none;stroke:#263238;stroke-linecap:round;stroke-linejoin:round;stroke-width:1.1181347370147705px"></path><path d="M215.4,68.7a8.73,8.73,0,0,0-.79-1.82c-1.78-3-5-4.33-7.35-3.1a102.24,102.24,0,0,0-9.28,7" style="fill:none;stroke:#263238;stroke-linecap:round;stroke-linejoin:round;stroke-width:1.1181347370147705px"></path><path d="M205.78,78.35a63.77,63.77,0,0,0,7.9-3.55c1.84-1.07,2.47-3.57,1.72-6.1" style="fill:none;stroke:#263238;stroke-linecap:round;stroke-linejoin:round;stroke-width:1.1181347370147705px"></path><path d="M201.29,80.1l2.19-.83" style="fill:none;stroke:#263238;stroke-linecap:round;stroke-linejoin:round;stroke-width:1.1181347370147705px"></path><path d="M224,77.19c1.73-1.32,2.05-2.58,1.35-3.86" style="fill:none;stroke:#263238;stroke-linecap:round;stroke-linejoin:round;stroke-width:1.1181347370147705px"></path><line x1="220.48" y1="79.27" x2="222.05" y2="78.35" style="fill:none;stroke:#263238;stroke-linecap:round;stroke-linejoin:round;stroke-width:1.1181347370147705px"></line><path d="M251.18,86.58c-1.46,1.14-3.07,2.43-4.63,3.75" style="fill:none;stroke:#263238;stroke-linecap:round;stroke-linejoin:round;stroke-width:1.1181347370147705px"></path><path d="M253.59,84.74l-1.34,1" style="fill:none;stroke:#263238;stroke-linecap:round;stroke-linejoin:round;stroke-width:1.1181347370147705px"></path><path d="M247.33,94.68a6,6,0,0,0,3.41,2.83,119.77,119.77,0,0,0,11.83-5c2.07-1.2,2.44-4.41.84-7.17s-4.59-4-6.65-2.81c-.32.19-1,.65-1.9,1.31" style="fill:none;stroke:#263238;stroke-linecap:round;stroke-linejoin:round;stroke-width:1.1181347370147705px"></path><path d="M181.14,96.84l-24.71-6.15a3.57,3.57,0,0,0-1.49,0l-3.07.51a.67.67,0,0,0-.09,1.3l24.13,7.44" style="fill:#fff;stroke:#263238;stroke-linecap:round;stroke-linejoin:round;stroke-width:1.1181347370147705px"></path></g></svg>