<svg xmlns="http://www.w3.org/2000/svg" viewBox="0 0 500 500"><g id="freepik--background-simple--inject-80"><path d="M112.31,420.68S214,492,303,485.19c64.94-4.94,104.43-88,126.88-139.31,15.17-34.7,30.71-71.18,34.91-109.54,4.59-42-7.64-83.16-26.66-120.35-24-46.92-65.91-89-122.25-86.4C203,34.78,183,93.85,119.45,115.66S.08,197,4.47,250.57,33.15,366.5,112.31,420.68Z" style="fill:#84CC16"></path><path d="M112.31,420.68S214,492,303,485.19c64.94-4.94,104.43-88,126.88-139.31,15.17-34.7,30.71-71.18,34.91-109.54,4.59-42-7.64-83.16-26.66-120.35-24-46.92-65.91-89-122.25-86.4C203,34.78,183,93.85,119.45,115.66S.08,197,4.47,250.57,33.15,366.5,112.31,420.68Z" style="fill:#fff;opacity:0.7000000000000001"></path></g><g id="freepik--Stamp--inject-80"><g style="opacity:0.30000000000000004"><path d="M469,300c-1.14,1-2-1.89-3.5-2.16s-1.84,1.58-3.35,1.31-1.19-2.11-2.7-2.38-1.84,1.58-3.36,1.31-1.19-2.11-2.7-2.38-1.84,1.58-3.36,1.31-1.19-2.12-2.7-2.39-1.84,1.59-3.36,1.32-1.19-2.12-2.7-2.39-1.85,1.58-3.36,1.31-1.19-2.11-2.7-2.38-1.85,1.58-3.36,1.31-1.19-2.12-2.71-2.38-1.84,1.58-3.36,1.31-1.19-2.12-2.71-2.39-3.31,2.19-4,.83c-.93-1.74,2.1-2.22,2.44-4.16s-1.5-2.28-1.16-4.22,2.19-1.61,2.54-3.55-1.51-2.27-1.17-4.22,2.2-1.61,2.54-3.56-1.5-2.27-1.16-4.21,2.19-1.62,2.54-3.56-1.51-2.27-1.16-4.21,2.19-1.62,2.53-3.57-1.5-2.27-1.16-4.21,2.2-1.62,2.54-3.56-1.51-2.28-1.16-4.22,2.19-1.62,2.54-3.56-1.51-2.28-1.16-4.22,2.19-1.62,2.53-3.57-2.33-3.43-.86-4.75c1.14-1,2,1.89,3.49,2.15s1.84-1.58,3.36-1.31,1.18,2.12,2.7,2.38,1.84-1.58,3.36-1.31,1.18,2.12,2.7,2.39,1.84-1.58,3.35-1.32,1.19,2.12,2.71,2.39,1.84-1.58,3.35-1.31,1.19,2.11,2.71,2.38,1.84-1.58,3.36-1.31,1.19,2.12,2.7,2.38,1.84-1.58,3.36-1.31,1.19,2.12,2.7,2.39,1.85-1.58,3.37-1.31,1.19,2.11,2.71,2.38,3.3-2.19,4-.82c.92,1.74-2.1,2.22-2.45,4.16s1.51,2.27,1.17,4.21-2.2,1.62-2.54,3.56,1.51,2.27,1.16,4.21-2.19,1.62-2.54,3.56,1.51,2.27,1.17,4.21-2.2,1.62-2.54,3.56,1.5,2.27,1.16,4.22-2.19,1.62-2.54,3.56,1.51,2.27,1.16,4.22-2.19,1.61-2.53,3.56,1.5,2.27,1.16,4.21-2.2,1.62-2.54,3.57,1.5,2.27,1.16,4.22-2.75,1.85-2.55,3.82C468.36,297.87,470.46,298.62,469,300Z" style="fill:none;stroke:#000;stroke-miterlimit:10"></path><rect x="428.31" y="236.52" width="42.62" height="54.67" transform="translate(52.86 -74.32) rotate(10.04)" style="fill:none;stroke:#000;stroke-miterlimit:10"></rect><path d="M446.57,278.79l-.34-.86h0a30.49,30.49,0,0,1-1.36-5.12c0-.19.08-.48.23-.52l0-.12-.17,0,.16-.94-.51-.09a53.11,53.11,0,0,1-.47-6.06l.18-.64.11,0,.05-.29-.36-.07c0-.36,0-.72,0-1.09h0a.07.07,0,0,0,0,0h0c0-.43,0-.87,0-1.32v0c0-.45,0-.91,0-1.37h0v0h0v0h0c0-.8.08-1.61.13-2.43s.14-1.89.23-2.79h0v0h0c.39-4.06.95-7.37,1.26-9h0v0h0v0c.05-.28.1-.51.13-.68a0,0,0,0,0,0,0c0-.13.05-.22.06-.28a0,0,0,0,0,0,0l0,0,.63-.78.07-.36-.32-.06.16-.91h-.05a1.06,1.06,0,0,0-.41-1.07l.06-.33-.11,0,0-.19.1,0,.08-.41-.11,0,0-.19.11,0,.07-.41-.1,0,.32-1.82a.1.1,0,0,0-.08-.11.1.1,0,0,0-.12.08L446,240l-.11,0-.07.41.11,0,0,.19-.1,0-.08.41.11,0,0,.19-.11,0-.06.33a1,1,0,0,0-.74.86h-.06l-.16.91-.32-.06-.06.36.34,1h0s0,0,0,0,0,.15-.05.28a0,0,0,0,0,0,0c0,.18-.07.41-.11.69a0,0,0,0,0,0,0h0s0,0,0,0h0c-.27,1.64-.88,4.95-1.9,8.89h0v0h0c-.23.88-.47,1.78-.74,2.7s-.47,1.57-.71,2.33h0v0h0a0,0,0,0,0,0,0h0c-.14.44-.29.87-.43,1.3,0,0,0,0,0,0s0,0,0,0c-.15.42-.29.84-.44,1.25h0a.08.08,0,0,0,0,.05h0c-.13.34-.25.69-.38,1l-.43-.07-.06.29.22,0,0,.55a53.27,53.27,0,0,1-2.57,5.64l-.62-.11-.16.94-.1,0,0,.12a1,1,0,0,1,0,.65,30.1,30.1,0,0,1-3,4.26h0l-.62.7-.62-.11-.13.74,3.17.57.13-.75-.33-.06q.15-.17.42-.51h0v0c.22-.28.86-1.16.86-1.16l.11-.16a6.13,6.13,0,0,1,2.48-.95,5.66,5.66,0,0,1,5.12,2.16c0,.11.06.22.08.33s.3,1,.41,1.38v0h0c.09.28.17.49.22.63l-.36-.06-.13.75,3.17.56.13-.75Zm-.36-.64.25.63h0l-.85-.44Zm-2-3.8,0,.16-.44-.23ZM444,272l.06-.34.52.44Zm.32,2.79h0l0,.12-.33-.06Zm.09.32c0,.15.08.32.13.49l-.75-.6Zm0-.18,0-.09.25.13Zm.66.3-.47.39c-.05-.17-.09-.34-.13-.49Zm-.5.66v0c.06.18.11.37.16.56l-.72-.12Zm.28.6c-.05-.16-.1-.32-.14-.48l.74.59Zm.61.3L445,277c0-.12-.07-.25-.11-.38Zm-.66-.12c0,.13.07.26.11.38l-.7-.48Zm.17.65,0,0c0,.16.09.32.14.46l-.73-.13Zm.27.5c0-.12-.08-.26-.12-.4l.73.51Zm.58.29-.44.13c0-.07-.05-.14-.07-.22Zm-.62-.11c0,.07.05.14.07.2l-.54-.28Zm.14.45h0a.87.87,0,0,0,.07.17l-.44-.08Zm.19.2a1.12,1.12,0,0,0,0-.13l.35.18Zm.57-.78-1-.66.6-.38C445.86,277.15,446,277.49,446.1,277.83Zm-.45-1.35-.94-.75.59-.48C445.41,275.67,445.53,276.08,445.65,276.48Zm-.4-1.45-.68-.35.57-.12C445.17,274.71,445.21,274.87,445.25,275Zm-.51-.58-.42.09,0-.17Zm.27-3.18-.15.85-.11,0V272l-.12-.78Zm-.39.62-.56-.49.05-.29.4.07C444.55,271.42,444.58,271.66,444.62,271.89Zm-.12-.8-.44-.08.4-.25C444.47,270.87,444.49,271,444.5,271.09Zm-1.63.44c0-.21-.05-.43-.08-.65l.25,0-.1.56Zm0,.15v0Zm-4.1-1.6c.44-.9.91-1.91,1.37-3h0c.17-.42.34-.86.51-1.31h0v0l1.69.3v0h0c0,.48,0,.94,0,1.39v0c0,1.2.13,2.31.24,3.3Zm3.26.67-.15.85-.88-.16.15-.85Zm-1-.17-.14.84-.89-.15.15-.85Zm-1-.17-.15.84-.88-.15.15-.85Zm4.32-23.92.4.07-.25.25Zm.27.81-.41-.07.26-.26Zm-.26-.9.25-.26.16.33Zm0-.1c0-.2.07-.39.1-.56l.15.3Zm0,.26.15.32-.26.26C444.3,246.94,444.33,246.74,444.37,246.56Zm.33.83-.27.29-.15-.36Zm-.15.81-.41-.07.26-.28Zm-.08-.43.25-.26-.11.59Zm.09.63-.11.62-.15-.36Zm.07-1.5.24-.23-.1.54Zm.14-.84.25-.26-.1.58Zm0-.09-.16-.34.42.07Zm-.13-.43.24-.2.16.27Zm0-.1c0-.17.05-.32.07-.45l.15.26Zm-.35,1.95.15.36-.27.3Zm.32.91-.27.26-.14-.34Zm-.14.82-.47-.08.31-.31Zm0,.2-.12.66-.16-.37Zm0-.11-.29.3-.16-.38Zm-.15.86-.47-.08.3-.31Zm0,.21-.13.71-.16-.41Zm0-.11-.3.32-.17-.41Zm-.16.92-.51-.09.33-.35Zm0,.21-.15.81-.18-.47Zm0-.12-.35.37-.17-.46Zm-.18,1-.57-.1.37-.4Zm0,.2-.18,1-.67-.11ZM441,264.64c-.07.18-.13.35-.19.52l-.22-.33Zm-.47.11-.2-.3.62.11Zm.56-.1.16.29-.37.3Zm.21.37.18.33-.49-.08Zm.07-.06.29-.23-.1.57Zm0-.08-.16-.28.42.07Zm-.23-1.35-.29-.45.86-.49c-.1.33-.21.66-.31,1Zm2.51-10-.43.4-.23-.52Zm0,.1-.17,1-.25-.57Zm-.25,1-.72-.13.47-.44Zm.05.13-.19,1.05-.3-.6Zm-.09-.05-.44.41-.26-.53Zm-.16,1.18-.83-.14.52-.48Zm0,.18-.17,1v0l-.33-.62Zm0-.09-.51.41-.29-.55Zm-.2,1.19L442,257l.6-.47Zm0,.13c-.07.37-.14.74-.22,1.09l-.38-.64Zm-.09-.05-.56.42-.33-.58Zm-.21,1.2-1-.18.62-.46Zm0,.12-.27,1.16L442,259Zm-.11,0-.62.41-.34-.58Zm-.23,1.26-1.17-.21.75-.5Zm0,.16c-.1.38-.19.76-.29,1.12l-.45-.67Zm-.06-.07-.73.44-.42-.65Zm-.31,1.25-1.22-.21.77-.47Zm0,.12c-.11.41-.23.82-.35,1.21l-.49-.73Zm-.12,0-.77.44-.44-.65Zm-.34,1.25-1.28-.22.82-.47Zm0,.09-.81.46-.44-.68Zm-.59,1-.7-.13.45-.25Zm-.73,1h0l.2.29-.37.17C440.15,264.77,440.2,264.61,440.24,264.5Zm.26.37.24.35-.71-.12h0Zm-2,4,1-.41c-.17.38-.34.74-.51,1.09Zm.31,1-.12.23-.34-.06Zm-.12-.32-.46-.08c.06-.12.12-.24.17-.36Zm.48-1.13-.56.24.14-.32Zm-.34-.25c0-.13.1-.26.16-.39l.25.46Zm.65.11-.38-.68.93-.45c-.16.4-.32.78-.49,1.14Zm.41-1.27-.73.35c.07-.15.13-.3.18-.44Zm-.48-.27.15-.37.31.45Zm.29-.5.85-.4c-.13.36-.27.71-.41,1.05Zm.72-.54-.74.33.17-.43ZM440,265h0l-.18-.3.34-.16C440.08,264.68,440,264.83,440,265Zm-.08.05-.58-.1.4-.2Zm-.11.47q-.07.22-.18.48l-.39-.58Zm-.43,1.14-.49-.09.64-.29Zm-.07.18-.21.52h0l-.36-.64Zm-.32.78c-.06.16-.13.31-.2.47l-.58-.1.78-.37Zm-.28.65c-.05.13-.11.25-.17.38l-.09,0-.35-.53Zm-.31.69c-.06.14-.13.29-.2.43l-.63-.11.81-.35Zm-.29.61-.16.33-.21,0-.33-.42Zm-.23.41,0,0,0,0Zm-.22.08-.39.15.06-.33.22,0Zm.12.16-.3.56-.3-.05.06-.31Zm.07.07.26.31-.05.29-.49-.09C437.63,270.66,437.72,270.49,437.81,270.31Zm.12-.14.24-.09-.06.32Zm.08-.23h0l.17-.34.5.09Zm.14.77.14.17,0,.07-.14,0Zm0-.21.08-.42.4.07-.3.58Zm.57-.33.39.06-.15.85-.65-.11C438.49,270.71,438.62,270.44,438.76,270.17Zm5.7-18.49-.19-.45.52.09Zm0,.18.21.5-.57-.1Zm-.16-.73.32-.35.19.44Zm.35-.51-.18-.41.47.08Zm-.17-.5.3-.32.18.4Zm.33-.48-.17-.38.45.08Zm-.16-.48.29-.31.18.4Zm.31-.48-.16-.34.41.07Zm-.15-.43.27-.29.15.36Zm.15-.82.41.08-.26.28Zm.55-.75-.25.25-.15-.33Zm-.38-.17.26-.26.14.33Zm.25.9-.4-.07.25-.25Zm-.08-.39.25-.25c0,.18-.06.37-.1.58Zm.3-.51-.14-.33.24-.24C445.65,246.11,445.62,246.3,445.58,246.51Zm-.18-.42-.15-.34.42.08Zm-.12-.43.24-.2.16.27Zm-.06-.08.09-.48.16.28Zm.11.58-.25.25.1-.58Zm-.16.84-.24.24.1-.54Zm-.15.87-.25.26.11-.59Zm-.15.89-.26.28.11-.61Zm-.15,1-.28.29.12-.65Zm-.16,1-.3.32.13-.7Zm-.17,1.07-.32.38.14-.81Zm.11,1.8-.67-.12.18-1Zm-1.67,11.64-.29-.36.61.11v0Zm.31-.11v.48l-.25-.3Zm-.38.16-.27.19v-.51Zm.06.08.25.3-.55-.09Zm.31.8c0,.12,0,.25,0,.38l-.47-.46Zm0,.65v0l-.62.44c0-.36,0-.74,0-1.12Zm-.34.51.34-.24c0,.1,0,.2,0,.31Zm.35.26c0,.12,0,.25,0,.38l-.46-.46Zm0,.66v.14l-.51.45h-.07c0-.4-.05-.81-.07-1.24Zm-.28.64.29-.26c0,.1,0,.21,0,.31Zm.32.24c0,.09,0,.17,0,.26l-.33-.31Zm0,.53c0,.06,0,.12,0,.18l-.55.41c0-.38-.07-.78-.1-1.19Zm0,.4,0,.3-.35-.06Zm.07-.3h0Zm0,.24.13-.1.64.61-.73-.13C443.4,270.21,443.39,270.09,443.38,270Zm.14-.34-.18-.18c0-.11,0-.22,0-.33l.72.13Zm-.21-.7,0-.41.11-.09.61.62Zm.09-.75-.14-.14c0-.16,0-.31,0-.47l.7.13Zm-.16-.8V267l.06,0,.54.54Zm.08-.67-.09-.09v-.46l.68.12Zm-.09-1v0l.38-.23.37.39Zm0-.13c0-.21,0-.38,0-.5l.3.32Zm-.32-1.68.36-.27.33.39Zm.37-.4-.6-.71,1.26.22Zm-.6-.81.67-.49.6.72Zm.68-.61-.57-.68,1.2.22Zm-.63-.78.66-.49.56.7Zm.67-.62-.53-.67,1.15.2Zm-.54-.77.64-.52.53.73Zm.66-.66-.44-.59,1,.16Zm-.48-.7.57-.47.43.65Zm.6-.61-.39-.58.9.16Zm-.42-.68.54-.49.4.65Zm.56-.63-.34-.56.8.14Zm-.34-.65.5-.48.33.62Zm.53-.63-.27-.53.7.12Zm-.28-.63.42-.45.3.58Zm.44-.6-.27-.53.66.12Zm-.06.07-.44.45.17-1Zm-.17,1.22-.49.47.19-1.05Zm-.19,1.28-.52.47v0l.18-1Zm-.15,1.31-.57.48c.05-.37.1-.74.16-1.11Zm-.12,1.31-.62.52c0-.39.09-.78.14-1.18Zm-.11,1.42-.65.49c0-.38.07-.77.11-1.16Zm0,1.4-.71.52c0-.41.05-.83.08-1.25Zm-.08,1.43-.43.32-.26-.05c0-.34,0-.68.05-1Zm-1.08,1.56.27-.21v.55Zm.23.44-.66-.12.36-.27Zm-.28-.52-.21-.27.46.08Zm-.08.06-.35.26.11-.58Zm.16,5.72.53.09c0,.31.08.61.12.89l-.8-.14Zm.62,0,0-.25.37.31Zm.17-.33.39.07,0,.29Zm.45.64,0,.1-.37.23.08-.48.13,0Zm-.39.53.43-.24c0,.17.05.34.08.5l-.54-.09Zm.52-.29.1-.05.31.27-.07.39-.25,0Zm.09-.31h.05l0,0Zm.17.16.15-.1.08,0,0,.23Zm0-.22-.31-.06h0c0-.12,0-.24-.05-.37l.81.15Zm.63-.49-.76-.72.63-.46C444.33,269.69,444.37,270.08,444.42,270.47Zm-.16-1.43-.73-.74.63-.54C444.19,268.19,444.22,268.62,444.26,269Zm-.12-1.52-.69-.69.63-.45Zm-.08-1.78-.37-.38.35-.2C444,265.35,444.05,265.55,444.06,265.74Zm-.09-.65-.34.21-.31-.32Zm0-1-.27,0-.41-.48.67-.5C444,263.37,444,263.71,444,264Zm0-1.25-.59-.69.61-.44C444,262,444,262.42,444,262.79Zm0-1.37-.58-.72.61-.46Zm0-1.43-.51-.71.57-.47Zm.13-2.32-.06,1-.46-.7.53-.44Zm0-.36-.4-.65.49-.44Zm.11-1.3-.33-.63.42-.39Q444.37,255.49,444.34,256Zm.12-1.33-.28-.53.37-.38Zm.12-1.18-.51-1.15.63.11Zm.14-1.22-.22-.5.33-.37C444.79,251.69,444.76,252,444.72,252.28Zm.14-1.13-.19-.44.3-.33C444.93,250.63,444.9,250.89,444.86,251.15Zm.14-1-.17-.39.27-.29C445.07,249.66,445,249.89,445,250.12Zm.15-1-.16-.35.26-.28C445.22,248.69,445.18,248.91,445.15,249.12Zm0-1.23.26-.29c0,.21-.07.43-.11.66Zm.61-2.24-.15-.25.24-.2Q445.79,245.4,445.74,245.65Zm-.2-.33-.2-.35.51.09Zm.36-3.57a.75.75,0,0,1,.36.82l-.49-.09ZM443,257.63a50.6,50.6,0,0,0-.58,6.13l-1-.17A52.39,52.39,0,0,0,443,257.63Zm2.14-12.56-.09.49-.16-.28Zm0-.13-.3.25-.2-.34Zm.55-3.23-.13.74-.49-.09A.77.77,0,0,1,445.71,241.71ZM444,248.28l.15.35-.27.28Q444,248.58,444,248.28Zm-.19.94.16.37-.3.3C443.76,249.66,443.81,249.44,443.85,249.22Zm-.19.93.17.41-.34.35C443.55,250.65,443.61,250.4,443.66,250.15Zm-.22,1,.17.46-.37.4C443.31,251.73,443.37,251.44,443.44,251.16Zm-.24,1,.63.11-.88.9C443,252.87,443.12,252.53,443.2,252.2Zm-.31,1.27.21.49-.44.41C442.74,254.06,442.82,253.77,442.89,253.47Zm-.31,1.19.26.51-.52.48C442.41,255.32,442.5,255,442.58,254.66Zm-.31,1.2.3.58-.6.47Zm-.4,1.4,0-.14.35.59-.68.5C441.68,257.9,441.77,257.58,441.87,257.26Zm-.33,1.09.38.64-.73.48C441.31,259.1,441.43,258.73,441.54,258.35Zm-.43,1.37.42.64-.79.48C440.87,260.47,441,260.1,441.11,259.72Zm-.44,1.34.42.63-.8.45C440.42,261.78,440.55,261.42,440.67,261.06Zm-.45,1.29.45.7-.54.31-.27-.05Zm-.05,2.07h0l-.43.21-.2-.33Zm-.71-.07.19.34-.41.2C439.32,264.71,439.39,264.53,439.46,264.35Zm-.24.6Zm-.22.53.44.64-.89.41Zm-.55,1.27.41.72-.95.45Q438.2,267.35,438.45,266.75Zm-.64,1.39.43.65-1,.41C437.46,268.86,437.63,268.5,437.81,268.14Zm-.67,1.33.29.36-.44-.07Zm-.2.37.26.05-.07.38-.53.2C436.72,270.26,436.83,270.05,436.94,269.84Zm-3.61,6.61-.19,0,.26,0Zm.11,0,.09-.1.16,0,.29.22Zm.32-.53a1.71,1.71,0,0,1-.11.14l-.29-.21Zm-.37-.26.72-.19-.21.28Zm.33.46.15-.18.57.1-.7.09Zm.28-.35.26-.33.16,0,.41.53Zm.61-1-.19.27-.27-.35Zm-.39-.26.78-.26c-.09.12-.17.24-.26.35Zm.26.6.24-.32.67.12-.89.23Zm.36-.49.31-.42.14-.05.36.62Zm.74-1.17c-.08.12-.17.24-.27.37l-.27-.46Zm0-.19.2,0,0,.05Zm-.17.65c.11-.16.22-.3.31-.44l.69.12-1,.34Zm.43-.61.06-.08h.08l.26.16Zm.21-.28.11-.15.46.08Zm.61-2.42.47-.18,0,.25Zm-.27-.92.5.09-.38.69-.05.08v0l-.21,0Zm-.34,3.17-.09.13-.31-.2Zm-.81-.11.5.31-.77.09Zm-.39.59.38.66h0l-1.13.38C434.31,274.09,434.56,273.75,434.81,273.39Zm-.95,1.3.44.56h0l-1.12.29C433.41,275.27,433.64,275,433.86,274.69Zm-.9,1.11.51.39-1,.12h0Zm1.56.86-.13,0-.44-.33.95-.12Zm.56-.7-.46-.6,1.12-.29C435.49,275.42,435.27,275.72,435.08,276Zm.81-1.1-.42-.71,1.15-.38C436.36,274.17,436.11,274.54,435.89,274.86Zm1.06-1.62-.18.3h-.09l-.44-.28.77-.09,0,.06h0Zm0,.17.05-.07,0,.05Zm.15-.05,0-.12.06-.11,0,0,.1-.17.11.33Zm.34-.11-.14-.42.18-.29h0l.17.63Zm.34-.09-.16-.59.32.05.11.48Zm.61-.12-.25,0-.1-.44.33.06.07.33Zm.14,0-.06-.3.25,0,0,.24Zm.32,0,0-.21.29.05,0,.15Zm.38,0,0-.13.32,0V273Zm.87.07-.5-.06v-.07l.49.09Zm.19,0-.1,0v0l.11,0Zm.58.13-.49-.11v0l.49.09Zm.35.12-.26-.09,0-.08.31.06Zm.35.14-.26-.11.08-.13.29.06Zm.09,0,.12-.21.24.05-.15.25Zm.29.14.17-.29.33.06-.23.37Zm.35.19.25-.4.32.06-.34.48Zm.31.19.36-.52.12,0a2.33,2.33,0,0,0,.05.28h0l-.3.38Zm.5.36-.21-.16.26-.32a2.56,2.56,0,0,0,0,.27v.12l0,0Zm.07.06.07-.07,0,.15A.39.39,0,0,0,443.18,274.45Zm.24.26h0c0-.14-.07-.29-.1-.45l.69.35-.51.12Zm.05.27.95.76-.64.52C443.68,275.88,443.58,275.45,443.47,275Zm.69,2.59c-.09-.3-.2-.65-.31-1.06l.95.65Zm.09.27.85.45-.52.15-.12,0C444.41,278.3,444.34,278.11,444.25,277.84Z"></path><line x1="433.28" y1="280.85" x2="459.14" y2="285.43" style="fill:none;stroke:#000;stroke-miterlimit:10"></line><line x1="453.09" y1="250.27" x2="468.57" y2="253.01" style="fill:none;stroke:#000;stroke-miterlimit:10"></line><line x1="451.18" y1="257.42" x2="466.66" y2="260.16" style="fill:none;stroke:#000;stroke-miterlimit:10"></line><line x1="449.27" y1="264.56" x2="464.75" y2="267.3" style="fill:none;stroke:#000;stroke-miterlimit:10"></line></g></g><g id="freepik--Buttons--inject-80"><g style="opacity:0.30000000000000004"><circle cx="437.21" cy="170.14" r="13.94" transform="translate(-31.94 169.12) rotate(-21.14)" style="fill:none;stroke:#000;stroke-miterlimit:10"></circle><path d="M442.39,170.14a5.18,5.18,0,1,1-5.18-5.18A5.17,5.17,0,0,1,442.39,170.14Z" style="fill:none;stroke:#000;stroke-miterlimit:10"></path><path d="M435.7,170.15a1.74,1.74,0,1,1-1.74-1.74A1.74,1.74,0,0,1,435.7,170.15Z" style="fill:none;stroke:#000;stroke-miterlimit:10"></path><path d="M441.83,170.15a1.74,1.74,0,1,1-1.73-1.74A1.74,1.74,0,0,1,441.83,170.15Z" style="fill:none;stroke:#000;stroke-miterlimit:10"></path><circle cx="462.49" cy="205.15" r="9.91" transform="translate(156.17 607.83) rotate(-76.66)" style="fill:none;stroke:#000;stroke-miterlimit:10"></circle><path d="M466.18,205.15a3.69,3.69,0,1,1-3.69-3.69A3.69,3.69,0,0,1,466.18,205.15Z" style="fill:none;stroke:#000;stroke-miterlimit:10"></path><path d="M461.41,205.15a1.23,1.23,0,1,1-1.23-1.23A1.24,1.24,0,0,1,461.41,205.15Z" style="fill:none;stroke:#000;stroke-miterlimit:10"></path><circle cx="464.54" cy="205.15" r="1.23" style="fill:none;stroke:#000;stroke-miterlimit:10"></circle><circle cx="422.11" cy="211.62" r="9.91" transform="translate(115.45 570.67) rotate(-76.13)" style="fill:none;stroke:#000;stroke-miterlimit:10"></circle><path d="M425.8,211.62a3.69,3.69,0,1,1-3.69-3.69A3.69,3.69,0,0,1,425.8,211.62Z" style="fill:none;stroke:#000;stroke-miterlimit:10"></path><path d="M421,211.63a1.24,1.24,0,0,1-2.47,0,1.24,1.24,0,1,1,2.47,0Z" style="fill:none;stroke:#000;stroke-miterlimit:10"></path><path d="M425.39,211.63a1.23,1.23,0,1,1-1.23-1.24A1.23,1.23,0,0,1,425.39,211.63Z" style="fill:none;stroke:#000;stroke-miterlimit:10"></path><circle cx="230.55" cy="472.29" r="13.94" transform="translate(-211.73 188.39) rotate(-31.28)" style="fill:none;stroke:#000;stroke-miterlimit:10"></circle><path d="M229.48,467.22a5.18,5.18,0,1,1-4,6.14A5.18,5.18,0,0,1,229.48,467.22Z" style="fill:none;stroke:#000;stroke-miterlimit:10"></path><path d="M230.87,473.77a1.73,1.73,0,1,1-1.34,2.05A1.74,1.74,0,0,1,230.87,473.77Z" style="fill:none;stroke:#000;stroke-miterlimit:10"></path><circle cx="229.96" cy="469.47" r="1.73" style="fill:none;stroke:#000;stroke-miterlimit:10"></circle><circle cx="259.58" cy="440.32" r="9.91" transform="translate(-90.11 67.52) rotate(-12.65)" style="fill:none;stroke:#000;stroke-miterlimit:10"></circle><path d="M258.82,436.71a3.69,3.69,0,1,1-2.85,4.37A3.68,3.68,0,0,1,258.82,436.71Z" style="fill:none;stroke:#000;stroke-miterlimit:10"></path><path d="M259.81,441.38a1.23,1.23,0,1,1-.95,1.46A1.23,1.23,0,0,1,259.81,441.38Z" style="fill:none;stroke:#000;stroke-miterlimit:10"></path><path d="M258.91,437.11a1.23,1.23,0,1,1-1,1.46A1.23,1.23,0,0,1,258.91,437.11Z" style="fill:none;stroke:#000;stroke-miterlimit:10"></path></g></g><g id="freepik--Scissor--inject-80"><g style="opacity:0.30000000000000004"><path d="M379.28,78.92s25,11.94,29.3,19.17,4,19.53,10.13,28.57,19.89,10.85,26.4,7.6,12.27-11.84,11.21-23.51c-.72-8-3.26-12.66-9.4-15.91s-10.13-4.34-12.3-6.15a14,14,0,0,1-3.26-4s5.43-1.81,6.15-6.15l.73-4.34A17.51,17.51,0,0,0,449.81,80c7.59.72,17.36-4.34,21-13.38s4.34-18.45-2.54-25-22.42-7.23-30.74-.72S423.05,54.69,418,56.5,404.6,58,404.6,58,308.76,27.21,304.06,26.48a13.92,13.92,0,0,0-8.68,1.81L326.84,46l-34-4.7,2.89,7.23S363,77.12,379.28,78.92Z" style="fill:none;stroke:#000;stroke-miterlimit:10"></path><circle cx="377.84" cy="63.73" r="9.76" transform="translate(187.98 396.57) rotate(-69.87)" style="fill:none;stroke:#000;stroke-miterlimit:10"></circle><path d="M444.38,44.57a23.1,23.1,0,0,0-7.23,9c-3.62,9,.36,18.08,11.94,19.17s17.72-7.24,18.08-17.36S453.79,38.06,444.38,44.57Z" style="fill:none;stroke:#000;stroke-miterlimit:10"></path><path d="M428.11,98.82a14.4,14.4,0,0,0-8,12.65c-.29,7.6,2.9,17,11.94,18.09s19.17-5.79,18.8-18.81S431,96.65,428.11,98.82Z" style="fill:none;stroke:#000;stroke-miterlimit:10"></path><path d="M329.38,46.74l26.76,3.61s-.73-3.25,3.61-4.7" style="fill:none;stroke:#000;stroke-miterlimit:10"></path><path d="M383.62,79.29s35.45,5.78,44.13,5.06" style="fill:none;stroke:#000;stroke-miterlimit:10"></path><path d="M411.47,60.48S429.56,67,438.24,74.22" style="fill:none;stroke:#000;stroke-miterlimit:10"></path></g></g><g id="freepik--Papers--inject-80"><g style="opacity:0.30000000000000004"><rect x="293.77" y="311.92" width="167.56" height="133.19" transform="translate(-156.65 399.83) rotate(-47.36)" style="fill:none;stroke:#000;stroke-miterlimit:10"></rect><line x1="292.76" y1="372.28" x2="294.56" y2="415.99" style="fill:none;stroke:#000;stroke-miterlimit:10"></line><line x1="308.2" y1="355.53" x2="311.32" y2="431.42" style="fill:none;stroke:#000;stroke-miterlimit:10"></line><polygon points="341.82 319.02 347.83 465.04 331.06 449.6 326.38 335.78 341.82 319.02" style="fill:none;stroke:#000;stroke-miterlimit:10"></polygon><polygon points="375.43 282.52 383.18 470.72 369.79 485.26 367.56 483.21 359.99 299.28 375.43 282.52" style="fill:none;stroke:#000;stroke-miterlimit:10"></polygon><polygon points="394.32 280.06 411.08 295.5 416.79 434.22 401.36 450.97 394.32 280.06" style="fill:none;stroke:#000;stroke-miterlimit:10"></polygon><polygon points="430.82 313.68 447.58 329.12 450.41 397.72 434.97 414.47 430.82 313.68" style="fill:none;stroke:#000;stroke-miterlimit:10"></polygon><polygon points="467.32 347.3 483.29 362 468.59 377.97 467.32 347.3" style="fill:none;stroke:#000;stroke-miterlimit:10"></polygon></g><g style="opacity:0.30000000000000004"><polygon points="43.92 111.71 50.72 117.35 58.18 112.62 54.92 120.83 61.72 126.47 52.9 125.91 49.64 134.12 47.45 125.56 38.64 125 46.1 120.27 43.92 111.71" style="fill:none;stroke:#000;stroke-miterlimit:10"></polygon><polygon points="67.28 96.92 74.08 102.56 81.55 97.83 78.29 106.04 85.09 111.68 76.27 111.12 73.01 119.33 70.82 110.77 62.01 110.2 69.47 105.48 67.28 96.92" style="fill:none;stroke:#000;stroke-miterlimit:10"></polygon><polygon points="90.65 82.12 97.45 87.76 104.92 83.04 101.65 91.25 108.45 96.89 99.64 96.32 96.38 104.53 94.19 95.97 85.37 95.41 92.84 90.68 90.65 82.12" style="fill:none;stroke:#000;stroke-miterlimit:10"></polygon><polygon points="114.02 67.33 120.82 72.97 128.28 68.25 125.02 76.46 131.82 82.09 123 81.53 119.74 89.74 117.56 81.18 108.74 80.62 116.2 75.89 114.02 67.33" style="fill:none;stroke:#000;stroke-miterlimit:10"></polygon><polygon points="137.38 52.54 144.18 58.18 151.65 53.45 148.39 61.66 155.19 67.3 146.37 66.74 143.11 74.95 140.92 66.39 132.11 65.83 139.57 61.1 137.38 52.54" style="fill:none;stroke:#000;stroke-miterlimit:10"></polygon><polygon points="160.75 37.75 167.55 43.39 175.02 38.66 171.75 46.87 178.56 52.51 169.74 51.95 166.48 60.16 164.29 51.6 155.47 51.03 162.94 46.31 160.75 37.75" style="fill:none;stroke:#000;stroke-miterlimit:10"></polygon><polygon points="60.62 133.63 68.82 140.43 77.83 134.73 73.89 144.64 82.1 151.44 71.46 150.76 67.53 160.66 64.89 150.34 54.25 149.66 63.26 143.96 60.62 133.63" style="fill:none;stroke:#000;stroke-miterlimit:10"></polygon><polygon points="88.81 115.78 97.01 122.58 106.02 116.88 102.08 126.79 110.29 133.59 99.65 132.91 95.72 142.82 93.08 132.49 82.44 131.81 91.45 126.11 88.81 115.78" style="fill:none;stroke:#000;stroke-miterlimit:10"></polygon><polygon points="117 97.93 125.2 104.74 134.21 99.04 130.28 108.94 138.48 115.75 127.84 115.06 123.91 124.97 121.27 114.64 110.63 113.96 119.64 108.26 117 97.93" style="fill:none;stroke:#000;stroke-miterlimit:10"></polygon><polygon points="145.19 80.09 153.4 86.89 162.4 81.19 158.47 91.1 166.67 97.9 156.03 97.22 152.1 107.12 149.46 96.8 138.82 96.12 147.83 90.42 145.19 80.09" style="fill:none;stroke:#000;stroke-miterlimit:10"></polygon><polygon points="173.38 62.24 181.59 69.05 190.59 63.34 186.66 73.25 194.86 80.05 184.23 79.37 180.29 89.28 177.65 78.95 167.01 78.27 176.02 72.57 173.38 62.24" style="fill:none;stroke:#000;stroke-miterlimit:10"></polygon><polygon points="201.57 44.4 209.78 51.2 218.78 45.5 214.85 55.4 223.05 62.21 212.42 61.52 208.48 71.43 205.84 61.1 195.21 60.42 204.21 54.72 201.57 44.4" style="fill:none;stroke:#000;stroke-miterlimit:10"></polygon><polygon points="190.93 43.75 174.03 20.12 19.26 118.1 58.23 179.65 244.59 61.67 222.26 26.41 190.93 43.75" style="fill:none;stroke:#000;stroke-miterlimit:10"></polygon></g><polygon points="43.59 303.87 38.87 349.06 70.58 331.52 34.83 382.11 53.04 401.67 80.02 369.97 63.83 434.05 125.21 450.91 158.94 324.78 115.09 311.29 136.68 271.49 115.77 249.23 15.94 294.42 17.96 308.59 43.59 303.87" style="fill:none;stroke:#000;stroke-miterlimit:10;opacity:0.30000000000000004"></polygon></g><g id="freepik--Notebook--inject-80"><path d="M56.65,92.71l3.91,25.49-10,1.53a2.06,2.06,0,0,0-1.72,2.34L49,123.2a2.06,2.06,0,0,0,2.34,1.71l10-1.53.17,1.11-10,1.53a2.06,2.06,0,0,0-1.72,2.34l.18,1.13a2,2,0,0,0,2.33,1.71l10-1.53,2.34,15.23-10,1.53a2.06,2.06,0,0,0-1.72,2.34l.17,1.13a2.06,2.06,0,0,0,2.34,1.72l10-1.53.17,1.1-10,1.53a2.06,2.06,0,0,0-1.72,2.34l.18,1.13a2,2,0,0,0,2.33,1.71l10-1.53,2.33,15.24-10,1.53A2.06,2.06,0,0,0,57,175.48l.17,1.12a2.06,2.06,0,0,0,2.34,1.72l10-1.53.17,1.11-10,1.53A2.05,2.05,0,0,0,58,181.76l.18,1.13a2.05,2.05,0,0,0,2.33,1.72l10-1.53,2.33,15.23-10,1.53a2.06,2.06,0,0,0-1.72,2.34l.17,1.13A2.06,2.06,0,0,0,63.63,205l10-1.53.17,1.11-10,1.53a2.06,2.06,0,0,0-1.72,2.34l.18,1.13a2.05,2.05,0,0,0,2.33,1.71l10-1.53L76.92,225l-10,1.54a2.05,2.05,0,0,0-1.72,2.33l.17,1.13a2.06,2.06,0,0,0,2.34,1.72l10-1.53.17,1.1-10,1.53a2,2,0,0,0-1.71,2.34l.17,1.13A2.06,2.06,0,0,0,68.69,238l10-1.54L81,251.72l-10,1.53a2.06,2.06,0,0,0-1.72,2.34l.18,1.12a2.05,2.05,0,0,0,2.33,1.72l10-1.53L82,258l-10,1.53a2,2,0,0,0-1.71,2.33l.17,1.13a2.06,2.06,0,0,0,2.34,1.72l10-1.53,2.33,15.23-10,1.53a2.06,2.06,0,0,0-1.72,2.34l.18,1.13a2.05,2.05,0,0,0,2.33,1.71l10-1.53.17,1.11-10,1.53a2.06,2.06,0,0,0-1.71,2.34l.17,1.13a2.06,2.06,0,0,0,2.34,1.71l10-1.53,2.33,15.23-10,1.54A2.05,2.05,0,0,0,77.48,309l.18,1.13A2.05,2.05,0,0,0,80,311.84l10-1.53.17,1.1-10,1.53a2.06,2.06,0,0,0-1.71,2.34l.17,1.13A2.06,2.06,0,0,0,81,318.13l10-1.53,2.33,15.23-10,1.53a2.06,2.06,0,0,0-1.72,2.34l.18,1.12a2.05,2.05,0,0,0,2.33,1.72l10-1.53.17,1.11-10,1.53A2.06,2.06,0,0,0,82.54,342l.17,1.12a2.06,2.06,0,0,0,2.34,1.72l10-1.53,2.33,15.23-10,1.53a2,2,0,0,0-1.71,2.34l.17,1.13a2,2,0,0,0,2.34,1.71l10-1.53.17,1.11-10,1.53a2.06,2.06,0,0,0-1.72,2.34l.17,1.13a2.06,2.06,0,0,0,2.34,1.71l10-1.53,2.33,15.24-10,1.53a2.05,2.05,0,0,0-1.71,2.33l.17,1.13A2.06,2.06,0,0,0,92.27,392l10-1.53.17,1.11-10,1.53a2.05,2.05,0,0,0-1.72,2.33l.17,1.13a2.06,2.06,0,0,0,2.34,1.72l10-1.53,2.34,15.23-10,1.53a2.06,2.06,0,0,0-1.71,2.34l.17,1.13a2.06,2.06,0,0,0,2.34,1.71l10-1.53.17,1.11-10,1.53a2.06,2.06,0,0,0-1.72,2.34l.17,1.12a2.06,2.06,0,0,0,2.34,1.72l10-1.53,3.86,25.19,315.49-48.33L372.14,44.38Z" style="fill:#263238"></path><path d="M377.84,63.73,392,116.49s.82,14.84,2.47,21.44,7.42,20.61,7.42,23.08-2.47,13.19-2.47,19,3.29,22.26,3.29,22.26,5.77,19.78,6.6,23.08,2.47,19.79,2.47,23.91v25.56s3.28,32.18,7.31,31.35,2.59,8.23,2.59,12.35S416.14,380,416.14,380,368.87,68.69,368.07,63.73,377.84,63.73,377.84,63.73Z" style="fill:#fff;stroke:#263238;stroke-miterlimit:10"></path><polygon points="92.84 90.68 87.78 71.97 348.32 34.04 349.14 46.41 92.84 90.68" style="fill:#fff;stroke:#263238;stroke-miterlimit:10"></polygon><polygon points="80.76 98.33 75.7 79.61 336.24 41.69 337.06 54.06 80.76 98.33" style="fill:#fff;stroke:#263238;stroke-miterlimit:10"></polygon><rect x="81.76" y="61.7" width="318.16" height="359.05" transform="translate(-33.75 39.25) rotate(-8.71)" style="fill:#84CC16;stroke:#263238;stroke-miterlimit:10"></rect><circle cx="75.31" cy="116.26" r="7.22" transform="translate(-53.83 66.15) rotate(-35.86)" style="fill:#263238;stroke:#263238;stroke-miterlimit:10"></circle><rect x="48.46" y="113.08" width="27.57" height="4.24" rx="1.55" transform="translate(-16.73 10.75) rotate(-8.71)" style="fill:#c2c2c2;stroke:#263238;stroke-miterlimit:10"></rect><rect x="49.43" y="119.37" width="27.57" height="4.24" rx="1.55" transform="translate(-17.67 10.97) rotate(-8.71)" style="fill:#c2c2c2;stroke:#263238;stroke-miterlimit:10"></rect><circle cx="79.4" cy="142.97" r="7.22" transform="translate(-60.91 58.97) rotate(-30.05)" style="fill:#263238;stroke:#263238;stroke-miterlimit:10"></circle><rect x="52.55" y="139.78" width="27.57" height="4.24" rx="1.55" transform="translate(-20.72 11.68) rotate(-8.71)" style="fill:#c2c2c2;stroke:#263238;stroke-miterlimit:10"></rect><rect x="53.52" y="146.07" width="27.57" height="4.24" rx="1.55" transform="matrix(0.99, -0.15, 0.15, 0.99, -21.66, 11.9)" style="fill:#c2c2c2;stroke:#263238;stroke-miterlimit:10"></rect><path d="M90.62,168.58a7.21,7.21,0,1,0-6,8.22A7.2,7.2,0,0,0,90.62,168.58Z" style="fill:#263238;stroke:#263238;stroke-miterlimit:10"></path><rect x="56.64" y="166.49" width="27.57" height="4.24" rx="1.55" transform="matrix(0.99, -0.15, 0.15, 0.99, -24.72, 12.61)" style="fill:#c2c2c2;stroke:#263238;stroke-miterlimit:10"></rect><rect x="57.61" y="172.78" width="27.57" height="4.24" rx="1.55" transform="translate(-25.66 12.83) rotate(-8.71)" style="fill:#c2c2c2;stroke:#263238;stroke-miterlimit:10"></rect><path d="M94.71,195.28a7.21,7.21,0,1,0-6,8.23A7.21,7.21,0,0,0,94.71,195.28Z" style="fill:#263238;stroke:#263238;stroke-miterlimit:10"></path><rect x="60.74" y="193.19" width="27.57" height="4.24" rx="1.55" transform="translate(-28.72 13.54) rotate(-8.71)" style="fill:#c2c2c2;stroke:#263238;stroke-miterlimit:10"></rect><rect x="61.7" y="199.48" width="27.57" height="4.24" rx="1.55" transform="translate(-29.66 13.76) rotate(-8.71)" style="fill:#c2c2c2;stroke:#263238;stroke-miterlimit:10"></rect><circle cx="91.67" cy="223.08" r="7.22" style="fill:#263238;stroke:#263238;stroke-miterlimit:10"></circle><rect x="64.83" y="219.89" width="27.57" height="4.24" rx="1.55" transform="translate(-32.71 14.46) rotate(-8.71)" style="fill:#c2c2c2;stroke:#263238;stroke-miterlimit:10"></rect><rect x="65.79" y="226.18" width="27.57" height="4.24" rx="1.55" transform="translate(-33.65 14.68) rotate(-8.71)" style="fill:#c2c2c2;stroke:#263238;stroke-miterlimit:10"></rect><circle cx="95.76" cy="249.78" r="7.22" transform="translate(-100.07 67.54) rotate(-26.08)" style="fill:#263238;stroke:#263238;stroke-miterlimit:10"></circle><rect x="68.92" y="246.6" width="27.57" height="4.24" rx="1.55" transform="translate(-36.71 15.39) rotate(-8.71)" style="fill:#c2c2c2;stroke:#263238;stroke-miterlimit:10"></rect><rect x="69.88" y="252.89" width="27.57" height="4.24" rx="1.55" transform="matrix(0.99, -0.15, 0.15, 0.99, -37.65, 15.61)" style="fill:#c2c2c2;stroke:#263238;stroke-miterlimit:10"></rect><path d="M107,275.39a7.21,7.21,0,1,0-6,8.23A7.21,7.21,0,0,0,107,275.39Z" style="fill:#263238;stroke:#263238;stroke-miterlimit:10"></path><rect x="73.01" y="273.3" width="27.57" height="4.24" rx="1.55" transform="matrix(0.99, -0.15, 0.15, 0.99, -40.7, 16.32)" style="fill:#c2c2c2;stroke:#263238;stroke-miterlimit:10"></rect><rect x="73.97" y="279.59" width="27.57" height="4.24" rx="1.55" transform="translate(-41.65 16.54) rotate(-8.71)" style="fill:#c2c2c2;stroke:#263238;stroke-miterlimit:10"></rect><path d="M111.08,302.09a7.22,7.22,0,1,0-6,8.23A7.23,7.23,0,0,0,111.08,302.09Z" style="fill:#263238;stroke:#263238;stroke-miterlimit:10"></path><rect x="77.1" y="300" width="27.57" height="4.24" rx="1.55" transform="matrix(0.99, -0.15, 0.15, 0.99, -44.7, 17.25)" style="fill:#c2c2c2;stroke:#263238;stroke-miterlimit:10"></rect><rect x="78.06" y="306.29" width="27.57" height="4.24" rx="1.55" transform="translate(-45.64 17.46) rotate(-8.71)" style="fill:#c2c2c2;stroke:#263238;stroke-miterlimit:10"></rect><circle cx="108.03" cy="329.89" r="7.22" style="fill:#263238;stroke:#263238;stroke-miterlimit:10"></circle><rect x="81.19" y="326.71" width="27.57" height="4.24" rx="1.55" transform="translate(-48.7 18.17) rotate(-8.71)" style="fill:#c2c2c2;stroke:#263238;stroke-miterlimit:10"></rect><rect x="82.15" y="333" width="27.57" height="4.24" rx="1.55" transform="translate(-49.64 18.39) rotate(-8.71)" style="fill:#c2c2c2;stroke:#263238;stroke-miterlimit:10"></rect><path d="M119.26,355.5a7.22,7.22,0,1,0-6,8.23A7.23,7.23,0,0,0,119.26,355.5Z" style="fill:#263238;stroke:#263238;stroke-miterlimit:10"></path><rect x="85.28" y="353.41" width="27.57" height="4.24" rx="1.55" transform="translate(-52.69 19.1) rotate(-8.71)" style="fill:#c2c2c2;stroke:#263238;stroke-miterlimit:10"></rect><rect x="86.24" y="359.7" width="27.57" height="4.24" rx="1.55" transform="translate(-53.63 19.32) rotate(-8.71)" style="fill:#c2c2c2;stroke:#263238;stroke-miterlimit:10"></rect><path d="M123.35,382.21a7.22,7.22,0,1,0-6,8.22A7.22,7.22,0,0,0,123.35,382.21Z" style="fill:#263238;stroke:#263238;stroke-miterlimit:10"></path><rect x="89.37" y="380.11" width="27.57" height="4.24" rx="1.55" transform="translate(-56.69 20.03) rotate(-8.71)" style="fill:#c2c2c2;stroke:#263238;stroke-miterlimit:10"></rect><rect x="90.33" y="386.4" width="27.57" height="4.24" rx="1.55" transform="translate(-57.63 20.25) rotate(-8.71)" style="fill:#c2c2c2;stroke:#263238;stroke-miterlimit:10"></rect><path d="M127.44,408.91a7.22,7.22,0,1,0-6,8.22A7.23,7.23,0,0,0,127.44,408.91Z" style="fill:#263238;stroke:#263238;stroke-miterlimit:10"></path><rect x="93.46" y="406.82" width="27.57" height="4.24" rx="1.55" transform="translate(-60.69 20.96) rotate(-8.71)" style="fill:#c2c2c2;stroke:#263238;stroke-miterlimit:10"></rect><rect x="94.42" y="413.11" width="27.57" height="4.24" rx="1.55" transform="translate(-61.63 21.17) rotate(-8.71)" style="fill:#c2c2c2;stroke:#263238;stroke-miterlimit:10"></rect><g style="opacity:0"><path d="M274.73,456a9.91,9.91,0,1,1-7.65,11.74A9.9,9.9,0,0,1,274.73,456Z" style="fill:none;stroke:#000;stroke-miterlimit:10"></path><path d="M276,462a3.68,3.68,0,1,1-2.85,4.37A3.69,3.69,0,0,1,276,462Z" style="fill:none;stroke:#000;stroke-miterlimit:10"></path><path d="M277,466.7a1.23,1.23,0,1,1-.95,1.46A1.23,1.23,0,0,1,277,466.7Z" style="fill:none;stroke:#000;stroke-miterlimit:10"></path><path d="M276.11,462.43a1.23,1.23,0,0,1,1.46.95,1.25,1.25,0,0,1-.95,1.47,1.24,1.24,0,0,1-.51-2.42Z" style="fill:none;stroke:#000;stroke-miterlimit:10"></path></g></g><g id="freepik--picture-2--inject-80"><path d="M280,230.13s-.19,5.32,1.68,17.54a88.87,88.87,0,0,1,.78,21.51L284.15,280l1.16,7.51c.28,1.88-.1,12.52-.1,12.52l-.67,8.75,2.71,11.13.86,5.63-.52,9.7s-.12,5.79,0,9.62a26.33,26.33,0,0,1-.53,6.33,53.33,53.33,0,0,1-.4,7.28c-.48,3.43,2.84,8.7,2.84,8.7l1.08,7a53,53,0,0,1,.46,9.55c-.27,4.85-1.45,6.95-1.45,6.95a26.59,26.59,0,0,1,.1,7.2,47.12,47.12,0,0,0-.54,5.35l127-23.29L380.22,211.49c-1.07-3.36-1.81-5.56-1.81-5.56a60.45,60.45,0,0,0-1.64-7.44c-1-3.21-4.33-11.84-5.26-18s-.65-4.22-2.84-8.69-1.43-6-1.93-9.32-1.08-7.05-1.52-9.87-4.87-8.87-5.1-13.64-.37-5.71-.75-11.43-5.25-14.58-6.18-20.68-1.37-28.64-1.37-28.64L267.44,88.79l8,119.63C277.07,213.54,280,230.13,280,230.13Z" style="fill:#fff;stroke:#263238;stroke-miterlimit:10"></path><path d="M395.67,357.43c-1.34-1.53-4.07-4.82-4.11-4.86v-.05h-.06a211.32,211.32,0,0,1-20.17-30.36c-.26-1.24-.52-3.29.39-3.89l-.12-.79-1.22.18-1-6.47-3.56.54a372.68,372.68,0,0,1-16.47-38.44l-.2-4.57.75-.11-.3-2-2.51.39c-.82-2.34-1.64-4.71-2.44-7.11a.1.1,0,0,0,0-.07.32.32,0,0,0-.15-.34l0,0c-.95-2.84-1.88-5.73-2.8-8.65v-.12a.38.38,0,0,0-.09-.15c-.93-3-1.84-6-2.75-9l0-.05h0a.29.29,0,0,0,0-.16s0,0,0,0a.38.38,0,0,0-.1-.12h0q-2.31-7.86-4.51-16.1c-1.7-6.38-3.26-12.63-4.68-18.66h0v0s0,0,0,0a.3.3,0,0,0,0-.13v0a.57.57,0,0,0-.08-.13v0h0c-6.42-27.27-10.05-50.08-11.67-61.42h0a.06.06,0,0,0,0,0v0a.33.33,0,0,0,0-.14v0a.26.26,0,0,0-.07-.11c-.27-1.93-.49-3.52-.64-4.71a.33.33,0,0,0,0-.32c-.12-.91-.2-1.57-.25-1.95a.35.35,0,0,0-.12-.22.46.46,0,0,0-.23-.06l2.4-6.47-.38-2.49-2.22.34-1-6.29-.37.06c-.65-3.19-2.68-5.6-5-6.08l-.35-2.25-.73.11-.21-1.33.74-.11-.43-2.81-.74.11-.2-1.33.74-.11-.43-2.81-.74.11L305.7,93a.69.69,0,0,0-1.36.2l1.93,12.59-.74.11.43,2.82.74-.12.2,1.33-.73.11.43,2.81.74-.11.2,1.33-.74.11.35,2.25c-2.06,1.16-3.28,4.06-2.94,7.3l-.38.05,1,6.3-2.21.33.38,2.49,4.34,5.48a.46.46,0,0,0-.07.07.35.35,0,0,0-.06.24c.07.38.19,1,.35,1.93a.31.31,0,0,0,.06.32c.21,1.19.48,2.76.8,4.69a.28.28,0,0,0,0,.12,0,0,0,0,0,0,0,.25.25,0,0,0,0,.14,0,0,0,0,0,0,0h0l0,0h0c1.85,11.3,5.21,34.16,7.26,62.1h0v0a.24.24,0,0,0,0,.15v0a.28.28,0,0,0,0,.13,0,0,0,0,0,0,0h0c.44,6.17.83,12.6,1.12,19.2q.38,8.52.51,16.71l0,0h0a.3.3,0,0,0,0,.15.08.08,0,0,0,0,0,.29.29,0,0,0,0,.16h0s0,0,0,0c.05,3.18.07,6.31.07,9.41a.38.38,0,0,0,0,.18.45.45,0,0,0,0,.11q0,4.61-.08,9.09l0,0a.33.33,0,0,0,0,.37l.06.06q-.06,3.79-.2,7.5l-3,.46.31,2,1.47-.23,1,3.67a372.8,372.8,0,0,1-4.24,42.4l-4.29.65,1,6.48-.66.1.12.79s1.23,1.14,1.57,4.23a209.56,209.56,0,0,1-10,34.35l-.05,0,0,0s-1.65,4-2.47,5.87l-4.28.66.79,5.15,21.89-3.35-.79-5.16-2.28.35c.37-.93.92-2.36,1.59-4.27l.1,0,0-.19c.83-2.35,3-9.45,3-9.48.11-.39.23-.82.35-1.23a41.12,41.12,0,0,1,14.06-11.66c11.68-5.87,24.48-4.95,38.09,2.72.43.67.85,1.31,1.27,1.94,0,0,4.23,6.14,5.72,8.13l0,.2.11,0c1.21,1.62,2.16,2.82,2.8,3.6l-2.47.38.79,5.16L400.56,362l-.79-5.15ZM391.93,354q1.49,1.8,3,3.53h-.08l-6.49-1Zm-21.66-20.21.59.91-3.37-.48Zm-6.7-15.11-.36-2.36,4.36,1.74Zm8.23,17.45h0l.49.73-2.29.35Zm1.29,1.91,2,2.91-6.24-2.26Zm-.08-1.29-.34-.5,1.87.26Zm4.95.54-2.19,3.56c-.7-1-1.37-2-2-2.92Zm-1.83,5.41.16.06c.73,1.08,1.5,2.2,2.28,3.32l-5,.77Zm3.15,3.28c-.66-1-1.32-1.91-1.95-2.85l6.1,2.21Zm4.65.58-2.28,2.81-1.56-2.22Zm-4.55.7,1.55,2.22-5.61-1.6Zm2.52,3.83.22.06c.67.95,1.32,1.86,1.95,2.71l-5.05.77Zm2.89,2.66c-.54-.73-1.1-1.51-1.68-2.31l5.88,1.67Zm4.39.63-2.56,1.81c-.3-.4-.63-.82-1-1.27Zm-4.25.65.86,1.13-4.11-.63Zm1.9,2.59H387c.3.37.57.7.82,1l-3,.47Zm1.7.89c-.2-.22-.41-.46-.63-.73l2.69.41Zm1.92-6.32L382.78,350l3.09-3.8C387.38,348.28,388.91,350.28,390.45,352.21Zm-5.9-7.81-7.73-2.79,2.76-4.47C381.22,339.64,382.87,342.05,384.55,344.4Zm-5.8-8.57-5.21-.74L377,333C377.56,334,378.15,334.9,378.75,335.83Zm-4.6-2.61-2.5,1.52-.68-1Zm-5.29-21.31.9,5.84-.75.11a.83.83,0,0,1-.07-.13l-.31-.57q-1.25-2.39-2.49-4.83Zm-1.15,4.88L363,314.88l-.31-2,2.81-.43C366.22,313.9,367,315.36,367.71,316.79Zm-2.53-5-3,.46,2-2.46C364.51,310.5,364.84,311.16,365.18,311.83Zm-9.64,6.48q-1-2-2-4.06l1.74-.26.59,3.86Zm.58.92.06.38-.14-.28Zm-30.23-1.39c.92-6.81,1.71-14.4,2.23-22.7v-.07q.3-4.67.47-9.61l0,0,0,0a2.09,2.09,0,0,1,0-.25l11.67-1.79a2.25,2.25,0,0,0,.08.24l0,0,0,0q1.65,4.66,3.32,9l0,.08c3,7.76,6,14.76,8.92,21ZM348.6,315l.89,5.84-6.08.94-.9-5.84Zm-6.72,1,.89,5.84-6.08.93L335.8,317Zm-6.72,1,.89,5.84-6.08.93-.89-5.83ZM310.41,151.86l2.79-.43-1.09,2.21Zm3.57,4.66-2.79.43,1.09-2.21Zm-3.69-5.29,1-2.25,1.76,1.82Zm-.45-.55c-.22-1.41-.42-2.7-.62-3.89l1.64,1.69Zm.28,1.81,1.69,1.76-1.1,2.22C310.51,155.07,310.31,153.74,310.12,152.49Zm4,4.66L313,159.59l-1.76-2Zm.86,5.61-2.86.44,1.09-2.44Zm-1.48-2.64,1-2.25.63,4.09Zm1.95,3.91.65,4.25-1.76-2Zm-2.86-9.9,1-2.06.57,3.73Zm-.95-5.78,1.06-2.27.61,4Zm-.48-.49L309.34,146l2.89-.45Zm-1.84-2.52,1.13-1.85,1.61,1.43Zm-.42-.56c-.2-1.2-.37-2.25-.53-3.13l1.59,1.41ZM311,158.23l1.78,2-1.14,2.55C311.38,161.2,311.17,159.68,311,158.23ZM315,163.4l-1.17,2.34-1.66-1.91Zm.9,5.69-3.26.5,1.34-2.7Zm.47,1.3.69,4.5-1.85-2Zm-.39-.67-1.23,2.61-1.92-2.12Zm.92,5.95-3.26.5,1.28-2.7Zm.48,1.31.75,4.89-2-2.27Zm-.39-.67-1.3,2.76-2-2.26Zm1,6.37-3.54.54,1.41-3Zm.47,1.34.86,5.59L317.15,187Zm-.39-.7-1.41,3.12-2.16-2.58Zm1.12,7.14-3.93.6,1.56-3.43Zm.46,1.31,1.05,6.86-4.62.7Zm8.43,85.85q0,1.9-.06,3.78l-2.18-1.65Zm-2.76,1.74-2-1.53,4.31-.66Zm3.4-1.93,1.68,1.55-1.75,2.76C328.72,280.32,328.74,278.88,328.76,277.43Zm2.16,2,1.92,1.76-3.36.52Zm.35-.55,1.37-2.15.61,4Zm-.48-.44-1.62-1.49,2.85-.44Zm-4.47-8.28-2.89-2.28,4.53-5.1c.08,2.41.12,4.77.15,7.11Zm-5.79-70.84-1.95,3.55L316,200Zm.4.6,1,6.65-2.92-3.2Zm.63,7.17-5,.76,2.14-3.89Zm.59.76,1.11,7.24L320,211.81Zm-.68-.1-2,3.6-2.86-2.86Zm1.57,8-5.68.87,2.31-4.24Zm.49,1.1,1.06,6.88c0,.06,0,.12,0,.18l-3.52-3.31Zm-.47-.45-2.44,3.75-3.09-2.9Zm1.31,8.16-6.51,1,2.88-4.41Zm.44.82q.53,3.84,1,7.6l-3.89-3.37Zm-.69-.13-2.73,3.94-3.45-3Zm1.28,8.26-6.94,1.06,3.05-4.43Zm.51.69c.3,2.75.58,5.46.82,8.14l-4.23-3.67Zm-.82,0L322,238.27l-3.51-3Zm1.29,8.69-8,1.23,3.76-4.94Zm.48,1q.34,4.05.59,8l-4.38-3.42Zm-.55-.34-3.75,4.49-4.18-3.27Zm.79,8.86-8.42,1.29,4-4.77Zm.43.71q.25,4.39.4,8.64l-4.81-3.69Zm-.86,0-4.06,4.56-4.27-3.28Zm.54,8.9-8.8,1.34,4.29-4.81Zm0,.65-4.25,4.79-4.4-3.46Zm-1.72,7.59-4.81.74,2.36-2.66Zm-2.56,8.08,0,0,2,1.48-2,1.93C322.89,280.32,322.89,279.17,322.89,278.36Zm2.52,1.84,2.33,1.76-4.88.75v-.07Zm-4.09,30.44,5.31-4.8q-.42,4.26-.9,8.22Zm4.14,5.56-.24,1.75-2.32.35ZM324,314.35l-3.16.48c.11-.89.21-1.79.31-2.69Zm.6-8.42-3.11,2.81c.08-.79.15-1.58.21-2.36Zm-2.79-.87c.08-1,.15-1.91.22-2.85l2.65,2.41Zm4.51-.69-4-3.62,5.1-4.94c-.19,2.92-.42,5.75-.67,8.49Zm-.1-9.18-4,3.86c.07-1.12.13-2.21.19-3.28Zm-3.74-.73c.05-.94.08-1.86.12-2.75l3,2.27Zm.73-3.9,4.71-4.47q-.15,4-.37,7.72Zm3.5-5.1-4,3.82c0-1.13.07-2.21.09-3.22Zm-4.5-3.1,0,0-1.78-1.55,1.83-1.83C322.25,279.88,322.24,281,322.22,282.36Zm-.42.52-4,.61,2.2-2.2Zm.35,3.28c0,1.1-.07,2.28-.11,3.52l-3.88-2.91Zm-.31,8.4-3.38.52,3.51-3.33C321.93,292.66,321.89,293.6,321.84,294.56Zm-.06,1.31c-.07,1.25-.14,2.53-.22,3.84l-.18.17-3.72-3.38Zm-.35,5.79c-.08,1.15-.16,2.32-.26,3.5l-4,.62,4.27-4.14Zm-.37,4.82c-.08,1-.17,1.93-.26,2.9l-.51.46-3.48-2.71Zm-.5,5.19c-.11,1.09-.24,2.18-.37,3.27l-4.36.66,4.53-4.09Zm-.53,4.59c-.11.85-.23,1.69-.35,2.53l-1.41.22-3.07-2Zm-.59,3.22-.2.16-.16-.1Zm-1.24,1L316,322.32l-.34-2.26,1.54-.23Zm1.12.75c-.23,1.47-.49,2.92-.76,4.34l-2,.31-.32-2.11Zm.59.33,2.4,1.42.3,2-3.37.52C319.48,324.21,319.7,322.91,319.91,321.58Zm.46-1.2,1.37-1.12.34,2.24Zm0-1.7h-.06c.12-.84.23-1.68.34-2.53l3.43-.53Zm2.62,4.75,1.28.76-.09.53-1,.15Zm-.22-1.46-.45-2.94,2.77-.42c-.21,1.52-.43,3-.65,4.45Zm3-3.46,2.65-.41.89,5.84-4.44.68Q325.36,321.68,325.79,318.51Zm-3.73-132.9-2.28-2.55,3.57-.55Zm.21,1.19,2.51,2.81-3.93.6Zm-2.6-4.37,1.3-3,2.23,2.43Zm1.11-4.13-2.07-2.25,3.28-.5Zm-2.17-2.89,1.23-2.68,2,2.19Zm1.05-3.83-2-2.11,3.15-.49Zm-2.07-2.75,1.17-2.67,2.09,2.17Zm1-3.81-1.81-1.88,2.83-.44Zm-1.94-2.51,1.09-2.44,1.77,2Zm-.85-5.61,2.85-.44-1.09,2.44Zm1.94-6.16L316.62,153l-1.7-1.78Zm-2.89-.21,1.14-2.26,1.67,1.83Zm3.67,5.3-2.79.43,1.09-2.21Zm-1.4-2.39,1.09-2.19c.19,1.26.4,2.58.62,4Zm.81-4-1.63-1.79,1.06-2.1C317.5,146.74,317.69,148,317.9,149.44Zm-2.09-2.29-1.73-1.89,2.9-.45Zm-1.74-2.54,1.11-1.85,1.63,1.43Zm-.52-.38-.51-3.34,1.65,1.44Zm1.95,3.53-1.08,2.15-.61-4Zm.82,5.8-1,2.06-.58-3.72Zm.93,6-1,2.25-.63-4.09Zm1,6.12-1.07,2.45-.65-4.25Zm1.09,6.55-1.15,2.51-.69-4.5Zm1.13,6.73-1.21,2.76-.75-4.89Zm1.29,7.33-1.31,3.17-.86-5.59Zm4.69,11.48-4.62.7-1.05-6.85Zm14.83,79.44-2.7-1.7,4.19-.64.05.18Zm1.78-1.4c.26.82.6,1.89,1,3.16l-2.26-1.42Zm-2.16,1.92-1.3,1.83c-.38-1.1-.74-2.22-1.11-3.34Zm.55.35,2.31,1.45-3.76.57Zm3.86,4.55c.26.78.55,1.61.85,2.47l-4.05-2Zm1.46,4.2.09.27-3.05,4.24c-.89-2.36-1.78-4.77-2.66-7.26Zm-1.07,4.09,1.69-2.35q.34,1,.72,2Zm2.86.86c.3.81.61,1.64.93,2.48l-4-2ZM350.2,296l.36.93L348.18,301l-.44.07c-1.06-2.54-2.13-5.17-3.18-7.91Zm-.38,4.75,1.34-2.3.79,2Zm2.63.9.67,1.63-2.83-1.3Zm1.41,3.39c.16.38.33.76.49,1.13l-2.7,3.89c-1.1-2.41-2.21-4.94-3.32-7.57Zm1.09,2.52.85,1.9-2.42.37Zm-.22-2.12.1,0-.05.07Zm.65,1.5.63-.91,5.55,2.55-5.1.78Zm.19-2.53L354,303.7c-.3-.71-.6-1.42-.89-2.13l5-.76Zm-3-4.08-1-2.58.48-.82,5.32,2.67Zm-1.05-5.09-1.18-.6c-.39-1-.77-2-1.13-3l4.85-.74Zm-2.77-4.83c-.31-.86-.61-1.7-.91-2.51l.31-.43,4.72,2.31Zm-1-4.57-.76-.38c-.37-1-.71-2-1-3l4.73-.73Zm-2.85-6.53,0-.12,2-2.34,3.24,1.67Zm-.28-.83c-.45-1.38-.81-2.51-1.07-3.31l2.7,1.38Zm-5.83-10.26,1.76-2.58,3.06,1.84Zm1.57-3.44-5.48-3.29,8.65-1.33Zm-5.72-3.91,3.27-4.65,5.54,3.31Zm3.09-5.51-5.23-3.13,8.32-1.28Zm-5.86-3.69,3.2-4.64,5.23,3.35Zm3-5.52L330,243l7.92-1.22Zm-5.18-3.77,3-4.82,5.07,3.59Zm2.78-5.74-4.15-2.94,6.59-1Zm-4.65-3.51,2.7-4.37,4.24,3.31Zm2.53-5.32-3.78-2.94,6.18-.95Zm-4.23-3.52,2.45-4.35,4.06,3.35Zm2.26-5.33L325,216.13l5.53-.85Zm-3.63-3.47,2.21-4.23,3.48,3.35Zm2-5.29-2.95-2.85,4.83-.74Zm-3.22-3.46,1.78-3.83,3.2,3.07Zm1.58-4.91L322.26,199l4.56-.7Zm-.29.61-1.83,3.93-1-6.65Zm1.62,8.35-2.14,4.1-1.11-7.24Zm1.58,8.73-2.36,4.22,0-.18-1.06-6.88Zm1.95,8.84-2.7,4.38q-.72-3.72-1.36-7.54Zm2.12,8.83L329.24,242c-.58-2.62-1.13-5.3-1.66-8Zm2.38,9.49-3.15,4.58q-.94-3.83-1.83-7.78Zm2.83,9.21-3.48,5c-.75-2.73-1.49-5.51-2.2-8.35Zm2.64,9.42-2.08,3-1.79.27c-.67-2.23-1.34-4.5-2-6.82Zm-3.55,12.54,1.3-1.9c.39,1.2.78,2.38,1.17,3.56Zm2.41,2.39-4.51.69,1.74-2.55Zm-2.95-2.74-2-1.32,3.19-.48Zm-.36.53-1.69,2.48-.62-4Zm13.66,36.87,3.69-.57q1.36,2.89,2.69,5.57l-5.48.84Zm4.07-1.27-.75-1.6,3.07,1.24Zm.35-2.54,2.7-.41.87,1.85Zm4.39,3.16c.1.21.2.41.31.62l-1.89,2.29-.51-3.29.84-.13Zm-1.36,4.34,2.26-2.52c.52,1.05,1.06,2.07,1.59,3.07l-3.68.57Zm2.72-3,.5-.56,2.61,1,.42,2.73-1.73.27C360.6,317.92,360,316.76,359.4,315.58Zm-.13-2.2.36-.06-.12.16Zm1.49.6.78-1,.5-.07.25,1.64Zm-.51-1.4-2.14.33h0c-.37-.76-.73-1.53-1.09-2.31l5.57-.85Zm3-4.61-6.51-3,3.05-4.4C361,303.09,362.1,305.56,363.27,308Zm-4.15-8.91-6.42-3.22,2.89-4.94Q357.33,295.06,359.12,299.06ZM355,289.38l-6-2.95,3.1-4.3C353,284.59,354,287,355,289.38ZM350.46,278l-3.18-1.64,1.78-2.11C349.52,275.52,350,276.77,350.46,278Zm-2-4-1.75,2.08-2.71-1.4Zm-2-6.93-1.84.29-3.69-2.22,3.24-4.73Q345.31,263.77,346.46,267.06Zm-2.78-8.13-5.38-3.22,3-4.23C342.07,254,342.87,256.47,343.68,258.93Zm-2.89-9-5.34-3.43,3-4.33C339.21,244.81,340,247.39,340.79,250Zm-2.86-9.46L333,237l2.66-4.32C336.44,235.33,337.18,237.93,337.93,240.49Zm-4.29-15.33c.59,2.23,1.2,4.43,1.8,6.61l-4.54-3.54,2.49-4C333.47,224.52,333.55,224.84,333.64,225.16Zm-.63-2.4-4.09-3.37,2.22-3.94Q332,219.07,333,222.76ZM330.78,214l-3.47-3.36,1.82-3.47Q329.93,210.59,330.78,214Zm-2.13-8.88-3-2.84,1.55-3.34Q327.92,202,328.65,205.16Zm-1.82-8L321,190.84l4.33-.66C325.8,192.46,326.3,194.8,326.83,197.18ZM325.06,189l-2.52-2.81,1.3-3.12C324.23,185,324.63,186.93,325.06,189Zm-1.58-7.71-2.23-2.42,1.22-2.78Q323,178.59,323.48,181.24Zm-1.35-7-2-2.16,1.13-2.47C321.55,171.12,321.83,172.67,322.13,174.25Zm-1.25-6.82L319,165.52l1.07-2.44C320.36,164.49,320.61,165.94,320.88,167.43Zm-2.88-8,1.09-2.44c.24,1.44.49,2.95.76,4.52Zm-1-15.89-1.53-1.34,1.1-1.82C316.73,141.28,316.87,142.33,317,143.54Zm-2-1.77L313,140l3.48-.53Zm-5.53-24c1.88.14,3.6,2,4.16,4.53l-3.38.52Zm16.25,109.76a358.43,358.43,0,0,0,9.77,41.22l-6.76,1A359.44,359.44,0,0,0,325.74,227.52Zm-13.82-86.46.51,3.34-1.65-1.47Zm-.19-.91-1.44,2.35-2.05-1.82ZM308.14,118l.77,5-3.38.51C305.3,121,306.39,118.67,308.14,118Zm3.67,46.39,1.75,2-1.18,2.37C312.19,167.23,312,165.77,311.81,164.36Zm.85,6.58,1.83,2-1.26,2.66C313,174,312.85,172.45,312.66,170.94Zm.78,6.48,2,2.29-1.4,3C313.84,180.89,313.64,179.14,313.44,177.42Zm.79,7.07,2.17,2.59-1.56,3.44C314.64,188.47,314.43,186.45,314.23,184.49Zm.73,7.27,4.33-.66-3.68,7.8Q315.29,195.26,315,191.76Zm.81,9,2.48,2.71-2,3.61Q316,203.85,315.77,200.74Zm.65,8.42,2.77,2.77-2.3,4.24Q316.67,212.62,316.42,209.16Zm.55,8.46,3.29,3.1-2.88,4.43C317.25,222.61,317.12,220.1,317,217.62Zm.52,10c0-.33,0-.66-.05-1l3.59,3.1-3.28,4.74C317.67,232.21,317.59,229.94,317.49,227.63Zm.29,7.82,3.84,3.33L318,243.55Q317.91,239.55,317.78,235.45Zm.24,9.87,4.13,3.23-4.07,4.87Q318.08,249.42,318,245.32Zm.07,9.71,4.09,3.15L318,262.86C318.06,260.27,318.08,257.67,318.09,255Zm-.1,9.38L322.5,268l-2.86,3.21-1.84.29C317.88,269.13,317.94,266.79,318,264.41ZM322.25,278v.09l-2.32,2.32-2-1.75Zm-4.77,1.13,2,1.74-2.22,2.22C317.34,281.78,317.41,280.46,317.48,279.13Zm-.25,4.44ZM317,287.5l4.24,3.18-4.86,4.61C316.6,292.72,316.81,290.13,317,287.5Zm-.76,9.43,4.23,3.85-5.16,5Q315.81,301.42,316.23,296.93Zm-1.13,10.5,4.22,3.28L314,315.52Q314.59,311.55,315.1,307.43Zm-1.4,10.13,2.67,1.74-3,.47Zm-.46,2.87,1.76-.27.4,2.64-3,2.46C312.7,323.67,313,322.06,313.24,320.43Zm-8.91,51-1.35.2,1.6-.78C304.5,371.05,304.41,371.24,304.33,371.43Zm.75-.12c.12-.27.25-.57.37-.89l.95-.46,2.42.78Zm.93-4.17-.44,1.2-2.38-.77Zm-3-.84,4.3-2.83c-.27.79-.53,1.56-.79,2.29Zm3.19,2.24c.18-.48.37-1,.55-1.51l3.95-.61-4.38,2.15Zm1-2.89c.31-.88.63-1.8.95-2.75l1-.64,3.8,2.51Zm1.87-7.6c-.23.72-.47,1.45-.71,2.16l-2.52-1.67Zm-3.13-.82,4.49-3.42-.91,2.87Zm3,3.35c.29-.87.58-1.76.87-2.64l4.66-.72-5.32,3.5Zm1.31-4c.38-1.16.74-2.32,1.1-3.44l.79-.6,3.68,3.19Zm2.22-9.23-.92,3-2.78-2.41Zm-.67-1.19,1.21-.58-.12.41Zm.28,4.63c.4-1.27.77-2.46,1.1-3.54l4.74-.73-5.73,4.36Zm1.51-4.91.21-.68.5-.23,2,.49Zm.71-2.34c.15-.49.27-.9.37-1.2l3.17-.49Zm-1.36-17.08,2.69-2.19.27,1.74Zm-3.81-5.39,3.44-.53q-.44,2.72-.93,5.36l-.12.63a.77.77,0,0,0,0,.15l-1.48.23ZM314,342.44c-.08.28-.19.63-.31,1l-2.47-.61Zm-5.52,1.07,3.89,1-4.75,2.27C307.87,345.67,308.16,344.6,308.44,343.51Zm-1.27,4.72,4,3.42v0l-6.51,5C305.51,353.91,306.37,351.1,307.17,348.23Zm-3.27,10.56,4.07,2.69v0l-6.64,4.36Q302.65,362.41,303.9,358.79ZM300.45,368l4.19,1.35-5.9,2.89-.08,0Q299.57,370.2,300.45,368Zm12,2.14-.84.13-3.6-1.17,5.93-2.9C313.33,368.05,312.81,369.38,312.49,370.18Zm2.15-5.83-4.33-2.86,6.64-4.35C316.11,360,315.32,362.36,314.64,364.35Zm2.81-8.92-4.27-3.7,6.6-5C319,349.91,318.2,352.82,317.45,355.43Zm3.33-12.94c-.18.8-.37,1.59-.55,2.37h0l-.58.09-3.51-.87,4.81-2.29-.12.52-.11.1Zm.4,1.14.12-.55.23.26Zm.85-.69-.55-.63c.07-.29.13-.58.2-.87l0-.19c.1-.43.19-.88.29-1.33l1.47,1.94C323,342.22,322.5,342.58,322,342.94Zm2-1.46-1.81-2.38q.24-1.12.48-2.28l.29,0,2.52,3.71C325,340.82,324.48,341.15,324,341.48Zm2-1.34-2.35-3.47,2.22-.34,1.72,2.86C327.06,339.5,326.53,339.82,326,340.14Zm3.72-2.1c-.54.27-1.06.55-1.57.83l-1.6-2.65,2.26-.34,1.18,2Zm.85-.42-1.08-1.85,1.73-.26L332,337C331.53,337.19,331.05,337.4,330.59,337.62Zm2-.89-.71-1.32,2-.31.52.94Q333.49,336.37,332.62,336.73Zm2.41-.91-.45-.82,2.16-.34.14.58C336.25,335.42,335.63,335.62,335,335.82Zm5.8-1.5q-1.72.31-3.33.75l-.12-.5,3.4-.52Zm1.36-.22-.73.11,0-.26.73-.11Zm4-.39q-1.74.09-3.39.3l0-.27,3.4-.52Zm2.6,0c-.66,0-1.31,0-1.95,0l0-.57,2.16-.33Zm2.58.12c-.66-.05-1.3-.09-1.93-.11l.2-1,2-.31Zm.64.06.3-1.58,1.72-.27-.46,2Zm2.2.26.5-2.21,2.26-.35-.7,2.91C355.59,334.33,354.91,334.22,354.23,334.12Zm2.69.47.76-3.13,2.22-.34L358.73,335C358.12,334.85,357.52,334.71,356.92,334.59Zm2.44.57L360.6,331l.78-.12,1,1.7-.14,0-1.12,3.1Zm4.07,1.25c-.58-.21-1.16-.4-1.73-.58l1-2.67.95,1.67.1.17.31.53-.17-.08Zm.6.21.27-.61.54.91Zm2.1,1.2h0c-.53-.88-1.06-1.78-1.6-2.72l5.27.75-3.09,1.88Zm1,1.64,7.8,2.82-3,4.8C370.44,344.82,368.81,342.28,367.1,339.46Zm10.19,15.29c-1.25-1.69-2.72-3.75-4.36-6.19l7.63,2.17Zm1.19,1.6,6.52,1-3.08,2.18-.84.13C380.53,359,379.65,357.9,378.48,356.35Z" style="fill:#263238"></path><polygon points="359.9 106.45 332.36 62.71 322.09 70.96 345.43 105.84 359.9 106.45" style="fill:#e8e8e8;stroke:#ababab;stroke-miterlimit:10"></polygon><polygon points="409.83 345.21 386.04 391.09 398.35 395.78 416.63 357.99 409.83 345.21" style="fill:#e8e8e8;stroke:#ababab;stroke-miterlimit:10"></polygon><polygon points="287.27 69.56 249.12 104.42 259.06 113.06 289.25 83.9 287.27 69.56" style="fill:#e8e8e8;stroke:#ababab;stroke-miterlimit:10"></polygon><polygon points="321.14 397.41 271.69 382.37 269.33 395.33 309.81 406.43 321.14 397.41" style="fill:#e8e8e8;stroke:#ababab;stroke-miterlimit:10"></polygon></g><g id="freepik--picture-1--inject-80"><rect x="112.23" y="228.87" width="71.79" height="88.1" transform="translate(-39.62 25.58) rotate(-8.71)" style="fill:#fff;stroke:#263238;stroke-miterlimit:10"></rect><rect x="117.11" y="234.86" width="62.03" height="76.12" transform="translate(-39.62 25.58) rotate(-8.71)" style="fill:#c2c2c2;stroke:#263238;stroke-miterlimit:10"></rect><path d="M166.28,257.32c-1.73-11.31-11.4-19.21-21.59-17.65s-17,12-15.31,23.31a21.62,21.62,0,0,0,9.19,14.81,13.75,13.75,0,0,1,6.13,9.33l0,.27,14.19-2.17,0-.27a13.78,13.78,0,0,1,3.05-10.74A21.6,21.6,0,0,0,166.28,257.32Z" style="fill:#84CC16;stroke:#263238;stroke-miterlimit:10"></path><path d="M159.15,258.42c-1.73-11.31-8.2-19.71-14.46-18.75s-9.92,10.91-8.19,22.22c1,6.38,3.48,11.84,6.59,15.21a18.45,18.45,0,0,1,4.35,9.6l0,.27,8.71-1.33,0-.27a18.37,18.37,0,0,1,1.28-10.47C159.39,270.76,160.13,264.8,159.15,258.42Z" style="fill:#fff;stroke:#263238;stroke-miterlimit:10"></path><path d="M151.52,259.59c-1.74-11.31-4.79-20.23-6.83-19.92s-2.28,9.74-.55,21.05a80.88,80.88,0,0,0,3.78,15.64,49.57,49.57,0,0,1,2.46,9.89l0,.27,2.83-.43,0-.27a50.2,50.2,0,0,1-.62-10.18A80.32,80.32,0,0,0,151.52,259.59Z" style="fill:#84CC16;stroke:#263238;stroke-miterlimit:10"></path><rect x="148.78" y="298.42" width="11.08" height="8.2" transform="translate(-44.03 26.86) rotate(-8.71)" style="fill:#fff;stroke:#263238;stroke-miterlimit:10"></rect><line x1="144.74" y1="287.39" x2="148.22" y2="299.31" style="fill:none;stroke:#263238;stroke-miterlimit:10"></line><line x1="159.17" y1="297.63" x2="158.93" y2="285.22" style="fill:none;stroke:#263238;stroke-miterlimit:10"></line></g><g id="freepik--Writtings--inject-80"><path d="M359,196l-3.47,2.71c1.5,1,3.76,2.69,2.69,3.11s-3.56.91-2,2.64,5.19,2.61,2.65,2.39,19.2,21.39,19.56,14.51-13.11-8.71-17.78-8.1,4.88,3.36,5.35,5.5,0,0-4-.15,2,3.87,4.34,7-4.38-.86-6.54-.74,6.05,5.1,7.24,7.2,0,0-3.26-.19,4.18,3.76,6.83,6.15,0,0-7-1.8,8.9,11.09,8.9,11.09a55.72,55.72,0,0,0-7.06-3.6c-4.44-1.94,6.64,9.41,6.64,9.41" style="fill:none;stroke:#84CC16;stroke-miterlimit:10;stroke-width:2px"></path><path d="M354.73,198.4l4.91-2.78c-2.08-1-5.2-2.62-3.7-3.06s5-1,2.89-2.68-7.21-2.51-3.66-2.34-26.4-21-27.05-14.11,18.15,8.44,24.69,7.73-6.75-3.26-7.37-5.39,0,0,5.57.06-2.73-3.83-5.93-6.91,6.11.76,9.14.6-8.36-5-10-7.06,0,0,4.56.12-5.76-3.67-9.42-6,0,0,9.69,1.66-12.21-10.92-12.21-10.92a91.3,91.3,0,0,0,9.8,3.46c6.16,1.84-9.09-9.28-9.09-9.28" style="fill:none;stroke:#84CC16;stroke-miterlimit:10;stroke-width:2px"></path><path d="M351.28,137.32s-10-8.9-32.46-16.35" style="fill:none;stroke:#263238;stroke-miterlimit:10;stroke-width:2px"></path><polyline points="334.3 121.32 318.82 120.97 330.14 129.67" style="fill:none;stroke:#263238;stroke-miterlimit:10;stroke-width:2px"></polyline><path d="M272.19,239.9l-4.48-4.69c-1.26,2.35-3.4,5.9-4.17,4.41s-1.85-5.1-4.16-2.59-3.08,8-3.12,4.24-28.55,31.26-18.41,30.79,10.85-20.49,9.28-27.24-4.21,7.64-7.28,8.64,0,0-.36-5.86-5.38,3.52-9.63,7.39.61-6.54.13-9.7-6.59,9.62-9.51,11.68,0,0-.2-4.81-4.89,6.66-8,10.91,0,0,1.63-10.47-15,14.66-15,14.66a81.33,81.33,0,0,0,4.25-10.87c2.19-6.79-12.82,11.11-12.82,11.11" style="fill:none;stroke:#000;stroke-miterlimit:10;stroke-width:2px;opacity:0.30000000000000004"></path></g><g id="freepik--Characters--inject-80"><polygon points="98.93 108.33 138.36 250.56 265.32 217.28 219.55 74.11 98.93 108.33" style="fill:#fff;stroke:#263238;stroke-miterlimit:10"></polygon><polyline points="234.24 141.54 215.62 83.3 143.87 103.65" style="fill:none;stroke:#84CC16;stroke-miterlimit:10"></polyline><polyline points="174.27 233.06 256.6 211.48 236.27 147.88" style="fill:none;stroke:#84CC16;stroke-miterlimit:10"></polyline><polyline points="131.18 107.25 107.62 113.93 142.92 241.27 164.21 235.69" style="fill:none;stroke:#84CC16;stroke-miterlimit:10"></polyline><path d="M157.1,121.72c3.5-4.37,6.9-9.43,6.23-5.7s-.06,7.37,1.92,5.79,5.75-3.62,6.23-1.84a3.91,3.91,0,0,0,2.28,2.45,12,12,0,0,0,1-1.68,2.6,2.6,0,0,0,.81-1.13,3,3,0,0,0,.2-.87l.17-.35c1.47-3.14,4.16-4.25,6.11-1.18a14,14,0,0,1,2,6.49,1.18,1.18,0,0,0,.23.81c0,.08,0,.15,0,.23a3.92,3.92,0,0,1-1.61,2.38,3.25,3.25,0,0,1-.73.35l-.19,0a1,1,0,0,0-.4.18.74.74,0,0,0-.19.69c0,.56.1,1.05.16,1.47.11.83.24,1.34.35,1.33s.2-.52.23-1.36c0-.42,0-.92,0-1.47,0-.09,0,0,0-.06s0,0,0,0l.24-.06a3.27,3.27,0,0,0,1-.44,3.89,3.89,0,0,0,1.71-2.71,11.54,11.54,0,0,0,3.24,1.75,17.84,17.84,0,0,0,2.22,3.14,15.61,15.61,0,0,0,3,2.78c-.17.6-.42,1.64-.74,3-.51,2.21-1.25,5.26-2.17,8.61s-1.87,6.33-2.56,8.5a18.06,18.06,0,0,0-1,3.55,14.91,14.91,0,0,0,1.56-3.36,89,89,0,0,0,4.76-17.19,15.56,15.56,0,0,0,.39-3.68s-.08.08-.13.25a30.27,30.27,0,0,0-2.43-3c-.78-.92-1.5-1.75-2-2.31l.15,0a66.47,66.47,0,0,1-2.59-10.9c-.39-4.15,1.3-9.18-5.69-14.52s-12.82-1.26-18.24,1.74a46,46,0,0,0-9.91,7.87s-7.31,6.64-5.51,13.09S153.6,126.08,157.1,121.72Z" style="fill:#263238"></path><path d="M155.58,124.88c-.22.06.36,2.57,1.3,5.6.12.39.22.73.37,1.12a1.77,1.77,0,0,0,.88,1A8.82,8.82,0,0,0,160,133a1.78,1.78,0,0,1,.92.51c.16.19.19.36.25.36s.15-.18,0-.51a1.81,1.81,0,0,0-1-.92,16.33,16.33,0,0,1-1.67-.55,1,1,0,0,1-.47-.6l-.34-1.09C156.73,127.21,155.8,124.81,155.58,124.88Z" style="fill:#263238"></path><path d="M161.42,134.15c-.22,0-.15,3.18.25,7.15a2,2,0,0,0,.94,1.44,3,3,0,0,0,1.46.38c.93,0,1.66-.18,2.27-.17a2.83,2.83,0,0,1,1.36.24c.29.15.44.29.49.25s0-.24-.3-.52a2.65,2.65,0,0,0-1.53-.55c-.69-.08-1.47.07-2.24,0a2.43,2.43,0,0,1-1.09-.31,1.19,1.19,0,0,1-.54-.9C162.11,137.32,161.65,134.12,161.42,134.15Z" style="fill:#263238"></path><path d="M174,147.43a1.47,1.47,0,0,1-1.18-.52l-2.07-2c-1.2-1.1-2-1.74-2.08-1.66a9.13,9.13,0,0,0,1.66,2.08c.55.6,1.22,1.32,2,2.1a3.34,3.34,0,0,0,.73.56,1.71,1.71,0,0,0,1.08.2,2.86,2.86,0,0,0,1.72-1.15c3-4.12,4.56-7.86,4.37-8s-2.14,3.47-5,7.43A2.19,2.19,0,0,1,174,147.43Z" style="fill:#263238"></path><path d="M164.91,126.73a2.92,2.92,0,0,0-2.39.27,3,3,0,0,0-1.39,2c-.11.62,0,1,.14,1s.19-.35.42-.81a3.2,3.2,0,0,1,1.25-1.43,3.29,3.29,0,0,1,1.86-.42c.51,0,.84.13.91,0S165.51,126.93,164.91,126.73Z" style="fill:#263238"></path><path d="M171.28,138c-.8,1.13-1.77,1.78-1.67,2s1.4-.19,2.34-1.52.89-2.71.67-2.71S172.09,136.83,171.28,138Z" style="fill:#263238"></path><path d="M174.66,122.84c-.25.06-.45,0-.53.07s0,.38.47.51a1.49,1.49,0,0,0,1.54-.64,2.2,2.2,0,0,0,.31-1.5c0-.36-.16-.57-.27-.58s-.05,0-.08,0a.81.81,0,0,0,0-.15c.47-.71.41-1.43.2-1.45s-.51.51-.94,1.07-.87,1-.77,1.2.1.08.21.08c-.32.39-.61.65-.55.83s.92.12,1.49-.7a2.55,2.55,0,0,1-.3.7A1.33,1.33,0,0,1,174.66,122.84Z" style="fill:#263238"></path><path d="M151.25,158.31l-.87.23a5.45,5.45,0,0,0-2.8-.59c-4.23.28-8.7.78-9.26-3a1.82,1.82,0,0,0,0,.33,3.45,3.45,0,0,0,.5,1.39.21.21,0,0,1,0,.11.76.76,0,0,1-.32.8l-.14.07c-.93.29-3-1-6.82-3.47-1-.67-2.11-1.36-3.21-2-5-3.12-6-5.56-6.11-6.09-.85,1.21-2.87.23-3.14,5.1-.35,6.36,6.63,13.61,10.8,15.78a12.58,12.58,0,0,1,2,1.31,1.9,1.9,0,0,1-.39.78c-2.11,2.61-4.29,6.08-.59,11.65a5.63,5.63,0,0,0,1.58,1.85c3.65,3.4,8.2,2.82,6.66,7.81-1.77,5.76-3,7.11,1.86,11.11s10.15-2.85,11.56.6-1.38,6,2.52,7,7-5.76,7-5.76-11.2-15-11.37-21.77,8.7-10.14,9.3-13.12S156.65,157.91,151.25,158.31Z" style="fill:#263238"></path><path d="M144.81,127.78c-3.5-4.94-8.35-3.67-11.37-.88s-3.09,7.82-2.46,9l.63,1.14s-.44.27-.33.21a.21.21,0,0,1,.19,0,.2.2,0,0,1,.14.13c0,.12,5,12.4,6.69,17.41-.22-3.51,8.48.43,7.86-3.44s-3.91-3.05-5-7.45a9.23,9.23,0,0,1,3.71-9.47l1.94-1.16S148.31,132.72,144.81,127.78Z" style="fill:#263238"></path><path d="M150.86,134.76a7.84,7.84,0,0,1,2,2.1,13.08,13.08,0,0,0,2.19,3.18,3.31,3.31,0,0,0,2,.87,10.08,10.08,0,0,1,1.75-.06,2,2,0,0,1,1.59,1.84,2.32,2.32,0,0,1-.71,1.68c-.33.32-.58.42-.56.49s.31,0,.76-.24A2.49,2.49,0,0,0,161,142.7a2.62,2.62,0,0,0-2-2.6,9,9,0,0,0-1.88,0,2.58,2.58,0,0,1-1.5-.69,15.74,15.74,0,0,1-2.1-3,7.41,7.41,0,0,0-2.34-2.18,4.36,4.36,0,0,0-2.77-.81C148.37,133.58,149.46,133.79,150.86,134.76Z" style="fill:#263238"></path><path d="M156.68,165.91a7.07,7.07,0,0,1-1-1.81,5.08,5.08,0,0,1-.45-2.24,2,2,0,0,1,1.5-1.61,14.06,14.06,0,0,0,2.81-1.14,7.35,7.35,0,0,0,3.09-5,10.61,10.61,0,0,0-.39-4.76,16,16,0,0,0-1.21-2.94c-.35-.66-.58-1-.63-1s.63,1.54,1.27,4.07a10.76,10.76,0,0,1,.21,4.48,6.81,6.81,0,0,1-2.79,4.43,14.21,14.21,0,0,1-2.66,1.08,3.83,3.83,0,0,0-1.32.85,2.37,2.37,0,0,0-.64,1.43,3.8,3.8,0,0,0,.15,1.41c.13.41.26.8.42,1.18a7.48,7.48,0,0,0,1.18,1.93,7.24,7.24,0,0,0,2.68,1.79c.7.29,1.1.38,1.12.33s-.34-.25-1-.62A7.84,7.84,0,0,1,156.68,165.91Z" style="fill:#263238"></path><path d="M148.38,139.72a3.23,3.23,0,0,0,.34,1.87c.22.41.42.63.52.59s.1-.34,0-.77a5.21,5.21,0,0,1-.08-1.56,2,2,0,0,1,.68-1.18c.28-.22.56-.26.58-.38s-.3-.31-.84-.14A2,2,0,0,0,148.38,139.72Z" style="fill:#263238"></path><path d="M156.18,149.29c0,.22,1.1.4,2.26-.26s1.59-1.7,1.39-1.8-.84.55-1.8,1.08S156.17,149.05,156.18,149.29Z" style="fill:#263238"></path><path d="M166.22,132c-.8.59-1.65.7-1.67.94s.23.23.64.24a2.78,2.78,0,0,0,2.49-1.76c.13-.39.09-.66,0-.69S167,131.4,166.22,132Z" style="fill:#263238"></path><path d="M154.34,140.14c-.23,0-.25,1.13-1.11,2.05s-1.91,1.11-1.91,1.34.29.23.81.17a3,3,0,0,0,2.47-2.78C154.61,140.41,154.44,140.12,154.34,140.14Z" style="fill:#263238"></path><path d="M186.28,148.72c.16-.16-1.09-1.62-3.06-2.9s-3.8-1.83-3.88-1.62,1.54,1.08,3.43,2.32S186.12,148.89,186.28,148.72Z" style="fill:#263238"></path><path d="M192.58,157.08c-2.16-.79-4-1.26-4.06-1.05s1.61,1,3.77,1.83,4,1.27,4.06,1S194.74,157.88,192.58,157.08Z" style="fill:#263238"></path><path d="M198.13,145.39c-.6,3.24-1.15,6.17-1.55,8.3a14.83,14.83,0,0,0-.48,3.47,14,14,0,0,0,1.06-3.35c.53-2.1,1.19-5,1.79-8.27s1-6.21,1.27-8.36c.14-1.22.22-2.16.25-2.76.24.1.41.15.45.08s-.12-.32-.45-.65c0-.1,0-.17,0-.17s0,0-.06.07a9.05,9.05,0,0,0-2-1.41,5.51,5.51,0,0,0-2.35-.65c-.63,0-1,.14-1,.25s1.44.29,3,1.14c.9.47,1.69.94,2.23,1.21-.14.58-.34,1.55-.57,2.81C199.25,139.22,198.72,142.15,198.13,145.39Z" style="fill:#263238"></path><path d="M183.48,159.71s0,0,0-.06l.11-.41c.15-.55.3-1.12.45-1.7,1.15-4.69,1.44-8.6,1.22-8.63s-.89,3.8-2,8.43c-.14.58-.29,1.14-.42,1.69-.1.38-.2.75-.29,1.11l-.09.37,0,.18,0,.09s0,0,0,0h0l.73-.18a6.48,6.48,0,0,0,.64-.19l.37-.14a6.19,6.19,0,0,0,.68-.35,6.7,6.7,0,0,0,1.08-.79c1.22-1.13,1.49-2.17,1.41-2.19s-.58.82-1.78,1.74a7.74,7.74,0,0,1-1,.64c-.2.1-.41.19-.62.27a3.4,3.4,0,0,1-.34.12c-.1,0-.05,0-.07,0s0,0,0,0Z" style="fill:#263238"></path><path d="M186.67,152.85c.22-.06.23-.75,0-1.56s-.55-1.41-.77-1.35-.23.76,0,1.56S186.44,152.91,186.67,152.85Z" style="fill:#263238"></path><path d="M151,179.05a43,43,0,0,0,.39,4.68,21.84,21.84,0,0,0,2,6.7A48.59,48.59,0,0,0,158,197.6a66.42,66.42,0,0,0,10.63,11.21c1.54,1.26,2.84,2.19,3.76,2.81a6.74,6.74,0,0,0,1.49.86c.08-.11-1.92-1.52-4.86-4.12a76.58,76.58,0,0,1-10.36-11.26,52.14,52.14,0,0,1-4.63-7,22.86,22.86,0,0,1-2.13-6.46c-.35-1.92-.51-3.51-.65-4.6a7,7,0,0,0-.28-1.7A6.67,6.67,0,0,0,151,179.05Z" style="fill:#263238"></path><path d="M202.47,151.61c-.31-3.87.16-6.28,0-6.3a7,7,0,0,0-.38,1.67,26.52,26.52,0,0,0-.21,4.67,32.92,32.92,0,0,0,1.08,6.86,45.23,45.23,0,0,0,3,8,71.61,71.61,0,0,0,4.22,7.34c1.39,2.18,2.6,4.16,3.49,5.89a44.9,44.9,0,0,1,2.31,5.86,5.26,5.26,0,0,0-.23-1.7,22.45,22.45,0,0,0-1.56-4.41,60.19,60.19,0,0,0-3.36-6.05,80.18,80.18,0,0,1-4.12-7.3,47.53,47.53,0,0,1-3-7.78A35.44,35.44,0,0,1,202.47,151.61Z" style="fill:#263238"></path><path d="M221.82,182.33c2.68-.18,4.72.82,4.83.6s-.4-.47-1.27-.84a8.26,8.26,0,0,0-3.6-.59,8.14,8.14,0,0,0-3.52,1c-.82.46-1.22.9-1.16,1S219.14,182.45,221.82,182.33Z" style="fill:#263238"></path><path d="M225.7,179.79a7.86,7.86,0,0,0-3.15-.5,4.54,4.54,0,0,0-3,1.36c-.57.65-.63,1.22-.54,1.24s.36-.37.95-.81a5,5,0,0,1,2.63-1,12.83,12.83,0,0,1,2.95.24c.77.12,1.27.17,1.3.06S226.46,180.06,225.7,179.79Z" style="fill:#263238"></path><path d="M224.42,158.76c1.14,2,2.3,4.21,3.46,6.59,2.27,4.77,4.24,9.17,5.87,12.25.82,1.54,1.51,2.77,2,3.59a5.22,5.22,0,0,0,.88,1.24c.11-.06-.91-2-2.38-5.09s-3.37-7.55-5.66-12.35c-1.16-2.39-2.36-4.63-3.55-6.62a44.44,44.44,0,0,0-3.52-5,23.29,23.29,0,0,0-1.55-1.78,13.52,13.52,0,0,0-1.26-1.26,5.69,5.69,0,0,0-1.17-1c-.11.11,1.45,1.6,3.52,4.37A54.36,54.36,0,0,1,224.42,158.76Z" style="fill:#263238"></path><path d="M207.13,193.9c-.26-.51-.61-1.15-1-1.85-.88-1.54-1.65-2.76-1.86-2.67s.24,1.51,1.14,3.08a13.88,13.88,0,0,0,1.3,1.88,43.85,43.85,0,0,0-3,3.36,7.75,7.75,0,0,0-1.5,2.35c.1.07.78-.73,2-2,.82-.88,1.91-2,3.14-3.17.11.07.19.11.22.08s0-.13,0-.29l1.34-1.31a48.94,48.94,0,0,0,4.55-4.92,7.79,7.79,0,0,0,1.47-2.37c-.11-.08-.77.74-1.92,2s-2.81,2.9-4.68,4.71Z" style="fill:#263238"></path><path d="M220.32,197.64c-5.24,3.37-10.17,6.12-13.77,8.06L202.27,208a7.08,7.08,0,0,0-1.54.9,7.63,7.63,0,0,0,1.67-.61c1.06-.45,2.57-1.14,4.42-2a144.89,144.89,0,0,0,14-7.88c2.64-1.69,5.1-3.38,7.29-5,1.09-.8,2.13-1.57,3.08-2.31a26.77,26.77,0,0,0,2.58-2.18,8.88,8.88,0,0,0,2.65-4.13,4.83,4.83,0,0,0,.13-1.34c0-.31-.06-.47-.09-.47s0,.66-.35,1.72a9.16,9.16,0,0,1-2.74,3.79,30.46,30.46,0,0,1-2.59,2.06l-3.12,2.24C225.41,194.3,223,196,220.32,197.64Z" style="fill:#263238"></path><path d="M196,208.56c-.2-1.16-.2-2.15-.44-2.19s-.6,1-.38,2.32.93,2.19,1.12,2.07S196.18,209.72,196,208.56Z" style="fill:#263238"></path><path d="M199.71,209.3c1.63-.8,2.86-1.61,2.76-1.81s-1.5.27-3.12,1.06-2.86,1.61-2.76,1.81S198.09,210.09,199.71,209.3Z" style="fill:#263238"></path><path d="M180.54,201.12a17,17,0,0,1,2.47.23,5,5,0,0,1,2,.91c1.14.88,2,2,3,2.69a4.8,4.8,0,0,0,2.57,1.08c.68,0,1-.16,1-.2s-.37,0-1-.12a5.16,5.16,0,0,1-2.25-1.21c-.84-.71-1.63-1.83-2.86-2.84a5.41,5.41,0,0,0-2.27-1.1,17.51,17.51,0,0,0-2.59-.27,7.44,7.44,0,0,1-4.36-1.45,2.6,2.6,0,0,0-1.12-.63,1,1,0,0,0-.78.22,1.18,1.18,0,0,0-.36.62,2.9,2.9,0,0,0,.41,2,6.46,6.46,0,0,0,1.92,2c.53.38.84.55.88.51s-.22-.31-.67-.75a7.92,7.92,0,0,1-1.61-2,2.42,2.42,0,0,1-.27-1.57c.08-.25.2-.32.37-.3a2.09,2.09,0,0,1,.75.51,7.56,7.56,0,0,0,2.18,1.21A9.18,9.18,0,0,0,180.54,201.12Z" style="fill:#263238"></path><path d="M176.85,203.94c-.17.15.38,1.05,1.23,2s1.67,1.64,1.85,1.48-.38-1.05-1.23-2S177,203.79,176.85,203.94Z" style="fill:#263238"></path><path d="M179.28,211.7a5.06,5.06,0,0,0,2.2,1.8,9,9,0,0,0,5.3.06c1.56-.38,2.91-.82,4.05-1.22a24.63,24.63,0,0,0,3.25-1.33,1.26,1.26,0,0,0,.51.47.75.75,0,0,0,.64,0c.14-.07.17-.15.15-.16s-.29.1-.63-.14-.52-.92-.84-1.72-.64-1.77-.95-2.86a.93.93,0,0,1,.32-1.18,10.58,10.58,0,0,1,1.65-.81,22.3,22.3,0,0,0,5.85-3.56c1.33-1.19,1.87-2.16,1.79-2.22s-.8.74-2.16,1.77a30,30,0,0,1-5.83,3.26,9.59,9.59,0,0,0-1.8.92,1.81,1.81,0,0,0-.65,1,2,2,0,0,0,.1,1.07,23.16,23.16,0,0,0,1.14,2.87c.19.4.37.75.54,1.06l.06.07c-.58.14-1.73.5-3.31.94-1.15.32-2.53.71-4,1a8.64,8.64,0,0,1-4.83-.09,4.27,4.27,0,0,1-1.87-1.53,9.74,9.74,0,0,0-.86-1,4.25,4.25,0,0,0-1.1-.74c-.76-.35-1.48-.56-2.06-.86a2.15,2.15,0,0,1-1.16-1.2,2.4,2.4,0,0,1,0-1.43,6.23,6.23,0,0,1,.41-1.1c.15-.33.27-.57.34-.74.3.22.49.34.51.31a23.57,23.57,0,0,0-3.06-3.13c-2-1.86-4.69-4.4-7.53-7.36a66.73,66.73,0,0,1-6.74-8,26.93,26.93,0,0,1-2-3.84c-.1,0,.06,1.77,1.47,4.15a51.11,51.11,0,0,0,6.64,8.27c2.87,3,5.68,5.47,7.73,7.23,1.26,1.06,2.24,1.86,2.83,2.3a6,6,0,0,0-.51.66,5.78,5.78,0,0,0-.57,1.12,2.88,2.88,0,0,0-.11,1.75,2.75,2.75,0,0,0,1.39,1.62c.65.38,1.38.61,2.05,1A4.42,4.42,0,0,1,179.28,211.7Z" style="fill:#263238"></path><path d="M192.34,201.59c.1-.13-2.2-1.61-5.26-4.73-1.54-1.54-3.27-3.49-5.1-5.72l-5.9-7.37-.46-.54a12,12,0,0,0,.61-1.69,17.83,17.83,0,0,0,.55-2.5,3.42,3.42,0,0,0,.06-.81,1.37,1.37,0,0,0-.42-.95,2.49,2.49,0,0,0-.83-.44l-.76-.29a26.78,26.78,0,0,0-7.73-1.87,9.67,9.67,0,0,0-4.26-1.61,6.64,6.64,0,0,0-5,1.49,4.66,4.66,0,0,0-.91,1.12c-.14.3-.2.46-.17.48a8.74,8.74,0,0,1,1.29-1.35,6.47,6.47,0,0,1,4.75-1.16c2.11.26,4.36,1.66,6.4,3.65a85.89,85.89,0,0,1,6.25,7c2.11,2.59,4.08,5.1,6,7.32a66.09,66.09,0,0,0,5.28,5.66c.79.77,1.57,1.4,2.24,2s1.29,1,1.79,1.36A8.23,8.23,0,0,0,192.34,201.59ZM169.7,176.74a18.68,18.68,0,0,0-2.16-1.76c1.09.4,3.85,1.17,7,2.34a7.47,7.47,0,0,1,1.33.56c.21.15.22.59.16,1.06-.11.93-.24,1.77-.37,2.47s-.22,1.13-.29,1.51A73.78,73.78,0,0,0,169.7,176.74Z" style="fill:#263238"></path><path d="M191.89,173.64a8.63,8.63,0,0,0,1.63,2.23,33.66,33.66,0,0,1,2.92,3.33,9.16,9.16,0,0,1,1.56,3.62,41.31,41.31,0,0,1-2.27,8.34c-1.92,4.91-4.23,8.57-4,8.71a8.93,8.93,0,0,0,1.7-2.28,36.91,36.91,0,0,0,3.07-6.13,27.66,27.66,0,0,0,1.72-6.65,7.51,7.51,0,0,0,0-2.85s-.08.12-.13.33a4,4,0,0,0-.05-.54,7.55,7.55,0,0,0-1.14-2.87,26.75,26.75,0,0,0-2.83-3.52,8.25,8.25,0,0,1-1.45-2,3.54,3.54,0,0,1,.06-2.5c.29-.92.58-1.82.86-2.69a10.59,10.59,0,0,1,.41-1.21.74.74,0,0,1,.27-.32.39.39,0,0,1,.28,0c.11,0,.23.41.24.75a3.74,3.74,0,0,1-.1,1,20.87,20.87,0,0,0-.47,2.06,3.72,3.72,0,0,0,.89,3c.51.56.91.7.93.66s-.29-.29-.67-.86a3.56,3.56,0,0,1-.57-2.69c.1-.6.35-1.23.55-2a4,4,0,0,0,.17-1.24,3.44,3.44,0,0,0-.09-.69,1.07,1.07,0,0,0-.57-.72,1.25,1.25,0,0,0-1.56.69,10.93,10.93,0,0,0-.49,1.33c-.06.21-.14.44-.21.66-.36-1-.94-2.45-1.59-4.07-1.19-2.95-2.17-5.34-2.39-5.27s.42,2.6,1.62,5.58a31.79,31.79,0,0,0,2.14,4.44c-.15.46-.29.9-.45,1.37A4.38,4.38,0,0,0,191.89,173.64Z" style="fill:#263238"></path><path d="M198,163.06Z" style="fill:#263238"></path><polygon points="197.99 163.06 197.99 163.06 197.99 163.06 197.99 163.06 197.99 163.06" style="fill:#263238"></polygon><path d="M198.05,162.19H198c-.38,0-.7.41-.76.51s-.23.33-.34.5a8.23,8.23,0,0,0-.53,1,10,10,0,0,0-.65,2.06,14.86,14.86,0,0,0-.21,3.59,10.12,10.12,0,0,0,.51,3.23,16.52,16.52,0,0,0,.08-3.24,16.38,16.38,0,0,1,.37-3.42,9.58,9.58,0,0,1,.64-1.89,7.42,7.42,0,0,1,.49-.92c.13-.2.35-.49.41-.57h0l0,.1a4.4,4.4,0,0,1,.18.48,5,5,0,0,1,.22,1,7.62,7.62,0,0,1-.06,2,16.74,16.74,0,0,0-.35,3.57,4.3,4.3,0,0,0,.81,2.34c.38.47.7.6.72.56s-.19-.26-.45-.74a4.56,4.56,0,0,1-.49-2.18,19.93,19.93,0,0,1,.52-3.43,8.23,8.23,0,0,0,.11-2.19,5.89,5.89,0,0,0-.24-1.15,5.24,5.24,0,0,0-.22-.58C198.73,162.63,198.42,162.19,198.05,162.19Z" style="fill:#263238"></path><path d="M201.39,163.87a1.15,1.15,0,0,0-.55.51,3,3,0,0,0-.2.5l-.3.88a22.7,22.7,0,0,0-.74,3.14,7.93,7.93,0,0,0-.17,3,16.17,16.17,0,0,0,.74-2.85c.22-.87.51-1.9.9-3,.1-.27.21-.56.31-.85s.22-.51.31-.52a.55.55,0,0,1,.5.16.88.88,0,0,1,.24.64,12.46,12.46,0,0,1-.24,1.91c-.09.64-.19,1.27-.28,1.86a23.9,23.9,0,0,0-.35,3.21,3.86,3.86,0,0,0,.56,2.17c.32.44.61.57.63.53s-.15-.25-.35-.69a4,4,0,0,1-.25-2c.06-.87.31-1.92.52-3.11.1-.59.21-1.21.33-1.85a11.46,11.46,0,0,0,.26-2.09,1.7,1.7,0,0,0-.52-1.21A1.34,1.34,0,0,0,201.39,163.87Z" style="fill:#263238"></path><path d="M204.88,169.66a3.09,3.09,0,0,0-.21-.29,3.63,3.63,0,0,0-.66-.55l-.08-.06s-.06,0-.07,0l-.09.17c-.05.13-.12.23-.16.36l-.14.38-.09.25c-.09.3-.18.59-.25.87a8.51,8.51,0,0,0-.4,3.67c.13,0,.27-1.39,1-3.5.09-.27.19-.54.3-.82l.07-.19,0-.06s0-.08,0-.05a.18.18,0,0,1,.05.07l.09.13a1.24,1.24,0,0,1,.1.2,2.5,2.5,0,0,1,.24.92c.16,1.37-.65,2.87-.77,4.73a5.57,5.57,0,0,0,.61,2.6,7.88,7.88,0,0,1,.72,2.11,9.75,9.75,0,0,1-.51,3.76,15.84,15.84,0,0,0-.8,3.58,16,16,0,0,0,1.36-3.41,9.62,9.62,0,0,0,.71-4c-.17-1.66-1.37-3-1.26-4.59s.9-3.17.7-4.84a3.59,3.59,0,0,0-.34-1.17Z" style="fill:#263238"></path><path d="M203.67,188.08c-.23,0-.74,2.39-1.42,5.37s-1.27,5.38-1,5.45,1.16-2.26,1.85-5.27S203.89,188.1,203.67,188.08Z" style="fill:#263238"></path><path d="M191.31,215.48a4.67,4.67,0,0,0,2.14.44,2.44,2.44,0,0,0,1.92-1.24,8.36,8.36,0,0,0,.65-1.57c.27-.88.58-1.33.5-1.42s-.61.31-1,1.19-.87,2.15-2.11,2.21a9.4,9.4,0,0,1-3.3-.89c-.89-.32-1.46-.46-1.51-.35s.44.43,1.27.88C190.24,215,190.72,215.22,191.31,215.48Z" style="fill:#263238"></path><path d="M155.59,177.21s-.32.24-.66.85a7.15,7.15,0,0,0-.81,2.85,10.65,10.65,0,0,0,.61,4.36,22.5,22.5,0,0,0,2.44,4.74c2.05,3.14,3.92,5.89,5.37,7.93a.74.74,0,0,0,.61.3,1,1,0,0,0,.53-.23l.61-.5c.37-.33.67-.62.91-.87.48-.5.7-.82.66-.86s-.34.2-.88.62c-.26.21-.59.46-1,.74l-.62.44c-.25.14-.27.14-.39,0-1.25-2-3.1-4.91-5.12-8a23.49,23.49,0,0,1-2.42-4.55,10.59,10.59,0,0,1-.74-4.06A11.55,11.55,0,0,1,155.59,177.21Z" style="fill:#263238"></path><path d="M159.24,197.36c0,.23.28.43.65.46s.69-.15.7-.38-.28-.43-.65-.45S159.25,197.14,159.24,197.36Z" style="fill:#263238"></path><path d="M171.13,174.18a47.83,47.83,0,0,0-7.29-1.91,13.85,13.85,0,0,0-4.53.09,8.06,8.06,0,0,0-4.35,2.28,8.49,8.49,0,0,0-2.14,4.42,13.52,13.52,0,0,0,.05,4.54,22.27,22.27,0,0,0,2.75,7.05,38.52,38.52,0,0,0,2.87,4.18,7.7,7.7,0,0,0,1.24,1.39,8.71,8.71,0,0,0-1-1.58c-.65-1-1.61-2.42-2.62-4.28a23,23,0,0,1-2.51-6.89,13,13,0,0,1,0-4.27,7.72,7.72,0,0,1,1.94-4,7.41,7.41,0,0,1,3.92-2.06,13.37,13.37,0,0,1,4.27-.12,54.23,54.23,0,0,1,7.22,1.72,20.21,20.21,0,0,0,5,.79,9.79,9.79,0,0,0,1.24-.07,24.41,24.41,0,0,1,2.65,1.43,26.47,26.47,0,0,1,6.26,5.46,27.31,27.31,0,0,1,3.67,5.74,38.56,38.56,0,0,0,2.21,4.12,4.73,4.73,0,0,0,1.09,1.34,13.54,13.54,0,0,0-.81-1.5l-.13-.24a3.09,3.09,0,0,0,.67-.65,5.33,5.33,0,0,0,1-2.75,9.71,9.71,0,0,0-.62-4.29c-.57-1.53-1.46-3.07-2.22-4.7a14.9,14.9,0,0,1-.93-2.43,11,11,0,0,1-.34-2.38,34.7,34.7,0,0,1,.2-4.16c.24-2.4.1-3.92,0-3.91s-.18,1.47-.56,3.84a25.39,25.39,0,0,0-.38,4.26,11,11,0,0,0,.32,2.55,14.86,14.86,0,0,0,.95,2.58c.8,1.69,1.69,3.18,2.26,4.62a9.7,9.7,0,0,1,.75,4,5.56,5.56,0,0,1-.7,2.61,7.56,7.56,0,0,1-.46.71c-.49-.95-1.06-2.25-1.77-3.85a25.83,25.83,0,0,0-3.61-6,26.16,26.16,0,0,0-6.41-5.67,30,30,0,0,0-7.86-3.35c-2.51-.73-4.78-1.29-6.64-1.91a40.3,40.3,0,0,1-5.79-2.53,5.19,5.19,0,0,0,1.36,1.06,22.92,22.92,0,0,0,4.24,2c1.86.7,4.13,1.32,6.61,2.08a40.1,40.1,0,0,1,4.54,1.68c-.23,0-.48,0-.77,0A23,23,0,0,1,171.13,174.18Z" style="fill:#263238"></path><path d="M193.3,177.7c-.31-1.41-.75-2.51-1-2.46s-.14,1.24.17,2.65.76,2.51,1,2.46S193.62,179.11,193.3,177.7Z" style="fill:#263238"></path><path d="M213.11,204.49c-.19.13.41,1.3,1.25,2.66s1.61,2.43,1.82,2.33-.25-1.37-1.11-2.76S213.29,204.35,213.11,204.49Z" style="fill:#263238"></path><path d="M168.53,232.71c.48-3,1-5.71,1.5-8.1.79-3.62,1.56-6.52,2.13-8.51A31,31,0,0,0,173,213a3,3,0,0,0-.35.77c-.2.51-.48,1.27-.8,2.25-.66,2-1.52,4.86-2.39,8.48-.59,2.49-1.16,5.35-1.7,8.47Z" style="fill:#263238"></path><path d="M175.78,230.43c.05-.4.1-.8.15-1.22.59-4.51,1.12-8.6,1.51-11.56a29.94,29.94,0,0,0,.48-4.82,25.76,25.76,0,0,0-1.06,4.73c-.54,2.94-1.18,7-1.75,11.55-.07.54-.14,1.07-.2,1.59Z" style="fill:#263238"></path><path d="M235.69,157.3c-1.14-1.89-2.36-3.81-3.69-5.73a49,49,0,0,0-9.21-10.12A31.17,31.17,0,0,0,213,136a23.89,23.89,0,0,0-7.43-1.23,14.27,14.27,0,0,0-2.05.13,2.4,2.4,0,0,0-.7.13c0,.08,1,0,2.74.06a26,26,0,0,1,7.25,1.47,31.58,31.58,0,0,1,9.49,5.45,50,50,0,0,1,9,10c1.72,2.49,3.27,5,4.7,7.39Z" style="fill:#263238"></path><path d="M219.48,212.84c1.16.81,2.4,1.75,3.66,2.75l.79-.25c-1.43-1.11-2.81-2.11-4.12-3a67.25,67.25,0,0,0-7.7-4.53c-.94-.48-1.69-.81-2.2-1a3.8,3.8,0,0,0-.8-.3,29.7,29.7,0,0,0,2.85,1.61A87.12,87.12,0,0,1,219.48,212.84Z" style="fill:#263238"></path><polygon points="117.28 91.5 94.24 126.28 102.11 133.72 128.4 95.08 117.28 91.5" style="fill:#e8e8e8;stroke:#ababab;stroke-miterlimit:10"></polygon><polygon points="258.96 184.7 238.34 232.09 250.94 235.93 266.61 196.99 258.96 184.7" style="fill:#e8e8e8;stroke:#ababab;stroke-miterlimit:10"></polygon></g><g id="freepik--Hearts--inject-80"><path d="M263.34,295.54a.29.29,0,0,1-.26-.09.28.28,0,0,1,0-.4l1.64-1.48a.29.29,0,0,1-.21-.09.28.28,0,0,1,0-.39l2.46-2.38s0,0-.06,0a.28.28,0,0,1,0-.4l2.84-2.28a.28.28,0,0,1,.37.43l-.86.84,2-1.61a.28.28,0,0,1,.37.43l-.8.72,1.1-.88a.28.28,0,1,1,.36.44l-8.9,7.13A.22.22,0,0,1,263.34,295.54Z" style="fill:#263238"></path><path d="M262.2,308.66a.27.27,0,0,1-.26-.09.28.28,0,0,1,0-.38l.15-.17-.13.11a.28.28,0,0,1-.38-.42L264.3,305l-2.93,2.35a.29.29,0,0,1-.4,0,.27.27,0,0,1,0-.39l2.6-2.4-2.72,2.17a.28.28,0,0,1-.39,0,.29.29,0,0,1,0-.4l5.2-4.85-5.47,4.39a.29.29,0,0,1-.37-.44l3.95-3.51-4.07,3.26a.28.28,0,0,1-.36-.43l4.51-4-4.64,3.71a.28.28,0,0,1-.36-.43l6.85-6.17-7.1,5.69a.29.29,0,0,1-.4,0,.31.31,0,0,1,0-.4l7.16-6.42-7.4,5.93a.27.27,0,0,1-.39,0,.28.28,0,0,1,0-.4l4.59-4-4.67,3.74a.28.28,0,0,1-.36-.44l3.37-2.91-3.39,2.72a.28.28,0,0,1-.38-.42l1.3-1.25-1.3,1a.28.28,0,0,1-.37-.42l.54-.51-.49.39a.28.28,0,0,1-.39,0,.29.29,0,0,1,0-.4l.69-.64-.64.51a.28.28,0,0,1-.38-.42L257,298l-1.12.9a.29.29,0,0,1-.4,0,.28.28,0,0,1,0-.39l1.36-1.29-1.33,1.07a.28.28,0,0,1-.39,0,.29.29,0,0,1,0-.4l.49-.46-.41.34a.28.28,0,0,1-.37-.43l1.61-1.54L254.87,297a.28.28,0,0,1-.38,0,.29.29,0,0,1,0-.39l3.09-3.19-3.19,2.56a.28.28,0,0,1-.39,0,.27.27,0,0,1,0-.38l3-3.14-3.1,2.49a.28.28,0,0,1-.37-.43l2-2-2,1.57a.28.28,0,0,1-.39,0,.29.29,0,0,1,0-.4l1-.95-.86.69a.27.27,0,0,1-.39,0,.28.28,0,0,1,0-.39l.19-.18a.28.28,0,0,1-.38,0,.29.29,0,0,1,0-.39l2.51-2.67-2.37,1.9a.29.29,0,0,1-.38-.43l.7-.67-.41.32a.28.28,0,0,1-.39,0,.29.29,0,0,1,0-.39l.67-.67-.29.23a.28.28,0,0,1-.37,0,.29.29,0,0,1,0-.37l1.12-1.62-.11.08a.29.29,0,0,1-.4,0,.3.3,0,0,1,.05-.4l1.61-1.29a.28.28,0,0,1,.37,0,.29.29,0,0,1,0,.37l-1.12,1.63,2.76-2.21a.28.28,0,0,1,.39,0,.29.29,0,0,1,0,.39l-.67.66,1-.8a.28.28,0,0,1,.37.42l-.69.68.9-.72a.28.28,0,0,1,.38.41l-2.5,2.68,2.93-2.36a.28.28,0,0,1,.37.43l-.19.18.21-.16a.28.28,0,0,1,.37.42l-1,.95,1.05-.83a.28.28,0,0,1,.37.42l-2,2,2.11-1.7a.29.29,0,0,1,.39.42l-3,3.14,3.21-2.58a.28.28,0,0,1,.39,0,.27.27,0,0,1,0,.38L258,293.73l3.21-2.58a.28.28,0,0,1,.37.43L260,293.12l1.56-1.25a.27.27,0,0,1,.39,0,.28.28,0,0,1,0,.39l-.5.46.37-.3a.29.29,0,0,1,.38.43l-1.36,1.29,1.26-1a.28.28,0,0,1,.39,0,.29.29,0,0,1,0,.4l-1.15,1.08,1-.82a.28.28,0,0,1,.37.43l-.69.64.54-.42a.28.28,0,0,1,.37.42l-.54.51.36-.3a.29.29,0,0,1,.39,0,.28.28,0,0,1,0,.39l-1.3,1.25,10.6-8.5a.29.29,0,0,1,.4,0,.29.29,0,0,1,0,.4l-3.37,2.91,3.36-2.7a.29.29,0,0,1,.37.44l-4.59,4,4.46-3.58a.29.29,0,0,1,.37.44l-7.16,6.42,6.82-5.46a.28.28,0,0,1,.39,0,.29.29,0,0,1,0,.4l-6.85,6.17,6.12-4.9a.28.28,0,0,1,.39,0,.28.28,0,0,1,0,.4l-4.51,4,3.56-2.86a.31.31,0,0,1,.4,0,.29.29,0,0,1,0,.4l-3.95,3.51,2.71-2.18a.29.29,0,0,1,.4,0,.28.28,0,0,1,0,.39l-5.2,4.86,3.17-2.55a.29.29,0,0,1,.39,0,.28.28,0,0,1,0,.39l-2.6,2.4.53-.42a.28.28,0,0,1,.38.42l-3,3.05a.28.28,0,0,1,.23.09.29.29,0,0,1,0,.39l-2.23,2.33a.29.29,0,0,1-.1.3l-.78.62A.38.38,0,0,1,262.2,308.66Z" style="fill:#263238"></path><path d="M239.73,291.08a.31.31,0,0,1-.26-.09.29.29,0,0,1,0-.39l.47-.46-.16.13a.29.29,0,0,1-.39-.42l1.14-1.17-.82.66a.29.29,0,0,1-.39-.42l1.42-1.53-1.07.86a.29.29,0,0,1-.39,0,.28.28,0,0,1,0-.38l1.34-1.52-.95.76a.28.28,0,0,1-.39-.41l.81-.92-.36.29a.28.28,0,0,1-.39-.4l.5-.6a.29.29,0,0,1-.37-.41l.53-.78a.21.21,0,0,1-.11-.08.28.28,0,0,1,0-.4l.9-.72a.29.29,0,0,1,.37,0,.28.28,0,0,1,0,.36l-.24.35.69-.55a.28.28,0,0,1,.38,0,.29.29,0,0,1,0,.38l-.49.58.71-.57a.3.3,0,0,1,.39,0,.29.29,0,0,1,0,.39l-.81.92.94-.76a.3.3,0,0,1,.39,0,.29.29,0,0,1,0,.39l-1.34,1.52,1.43-1.15a.29.29,0,0,1,.39,0,.28.28,0,0,1,0,.38l-1.41,1.54,1.39-1.12a.28.28,0,0,1,.38.42L242.94,287l1-.81a.28.28,0,0,1,.38.42l-.47.46.27-.22a.28.28,0,1,1,.36.44L239.86,291A.38.38,0,0,1,239.73,291.08Z" style="fill:#263238"></path><path d="M245,298.26a.31.31,0,0,1-.19,0,.3.3,0,0,1-.14-.3l.08-.42-.6.49a.28.28,0,0,1-.42-.37l.39-.65-1,.79a.29.29,0,0,1-.38,0,.28.28,0,0,1,0-.38l.51-.63-1,.81a.28.28,0,0,1-.39-.41l.7-.77-1.19.95a.27.27,0,0,1-.38,0,.28.28,0,0,1,0-.39l.36-.36-.72.58a.29.29,0,0,1-.38-.43l.52-.51-.89.72a.28.28,0,0,1-.37-.43l1-.95L239,296.64a.28.28,0,0,1-.37-.43L240,295l-1.74,1.4a.29.29,0,0,1-.4,0,.27.27,0,0,1,0-.39l.52-.49-.83.68a.29.29,0,0,1-.4,0,.28.28,0,0,1,0-.39L239,294l-2.31,1.84a.28.28,0,0,1-.37-.42l3.93-3.87-4.73,3.8a.28.28,0,0,1-.39-.41L237,292.7l-2.58,2.07a.28.28,0,0,1-.39,0,.28.28,0,0,1,0-.38l1.36-1.45-1.76,1.41a.28.28,0,0,1-.37-.42l.71-.72-.93.74a.28.28,0,0,1-.37-.42l.14-.14-.24.19a.28.28,0,0,1-.4-.4l1.73-2-2.1,1.68a.28.28,0,0,1-.38,0,.29.29,0,0,1,0-.39l.52-.54-.5.4a.28.28,0,0,1-.38,0,.29.29,0,0,1,0-.39l.5-.53-.34.27a.29.29,0,0,1-.36,0,.29.29,0,0,1-.07-.36l.78-1.36a.29.29,0,0,1-.35-.45l1.16-.92a.27.27,0,0,1,.36,0,.29.29,0,0,1,.06.36l-.78,1.36,2.21-1.77a.29.29,0,0,1,.39,0,.28.28,0,0,1,0,.39l-.49.53.94-.75a.27.27,0,0,1,.38,0,.29.29,0,0,1,0,.39l-.52.53.88-.7a.28.28,0,0,1,.39.4l-1.72,2.05,2.47-2a.28.28,0,0,1,.37.43l-.14.14.35-.28a.28.28,0,0,1,.39,0,.29.29,0,0,1,0,.39l-.72.72,1-.79a.27.27,0,0,1,.38,0,.26.26,0,0,1,0,.38l-1.36,1.45,1.76-1.41a.28.28,0,0,1,.39.41L237.5,293l6.81-5.46a.29.29,0,0,1,.39,0,.28.28,0,0,1,0,.39l-3.93,3.87,3.78-3a.29.29,0,0,1,.4,0,.28.28,0,0,1,0,.4L243.05,291l1.61-1.29a.27.27,0,0,1,.39,0,.28.28,0,0,1,0,.39l-.53.48.24-.19a.28.28,0,0,1,.37.43l-1.3,1.24,1-.81a.28.28,0,0,1,.37.43l-1,1,.67-.54a.27.27,0,0,1,.38,0,.28.28,0,0,1,0,.39l-.52.51.19-.15a.28.28,0,0,1,.38,0,.27.27,0,0,1,0,.39l-.35.36h0a.28.28,0,0,1,.38.41l-.69.77.33-.26a.28.28,0,0,1,.39.4l-.51.63.12-.1a.26.26,0,0,1,.36,0,.28.28,0,0,1,.06.36l-.4.66a.28.28,0,0,1,.42.3l-.14.74.06,0a.28.28,0,0,1-.05.39l-.19.16A.38.38,0,0,1,245,298.26Z" style="fill:#263238"></path><path d="M259.88,266.87a.28.28,0,0,1-.26-.1.29.29,0,0,1,0-.4l2.77-2.21a.27.27,0,0,1,.39,0,.28.28,0,0,1,0,.4L260,266.82A.24.24,0,0,1,259.88,266.87Z" style="fill:#263238"></path><path d="M256.31,277.87a.26.26,0,0,1-.26-.09.28.28,0,0,1,0-.39l1.79-1.76-1.87,1.5a.28.28,0,0,1-.39,0,.29.29,0,0,1,0-.4l1.72-1.59-1.75,1.41a.28.28,0,0,1-.37-.43l2-1.78-2,1.59a.28.28,0,0,1-.36-.44l.86-.75-.83.65a.28.28,0,0,1-.36-.43l1.13-1-1.1.88a.28.28,0,0,1-.36-.43l1.91-1.7-1.9,1.52a.28.28,0,0,1-.39,0,.28.28,0,0,1,0-.4l2.25-2-2.25,1.8a.28.28,0,0,1-.36-.44l.8-.7-.74.59a.28.28,0,0,1-.38,0,.29.29,0,0,1,0-.39l1-1.08-1,.82a.28.28,0,0,1-.38,0,.29.29,0,0,1,0-.38l2.05-2.36-2.17,1.74a.28.28,0,0,1-.39-.41l2.1-2.39-2.19,1.76a.28.28,0,0,1-.38,0,.29.29,0,0,1,0-.39l1.45-1.52-1.4,1.12a.28.28,0,0,1-.38-.42l.74-.74-.61.5a.29.29,0,0,1-.39,0,.28.28,0,0,1,0-.39l.16-.15a.29.29,0,0,1-.36,0,.28.28,0,0,1,0-.38l1.9-2.19-1.81,1.45a.28.28,0,0,1-.39,0,.27.27,0,0,1,0-.38l.54-.56-.3.24a.28.28,0,0,1-.38,0,.29.29,0,0,1,0-.39l.53-.56-.21.17a.28.28,0,0,1-.42-.37l.85-1.42,0,0a.29.29,0,0,1-.4,0,.3.3,0,0,1,0-.4l1.29-1a.29.29,0,0,1,.36,0,.28.28,0,0,1,.06.36l-.86,1.42,2.16-1.73a.29.29,0,0,1,.39.42l-.53.55.73-.58a.28.28,0,0,1,.38,0,.29.29,0,0,1,0,.39l-.55.56.63-.51a.29.29,0,0,1,.39,0,.29.29,0,0,1,0,.38l-1.9,2.19,2.13-1.71a.28.28,0,0,1,.38.42l-.15.14.06,0a.28.28,0,0,1,.38.42l-.74.74.67-.54a.28.28,0,0,1,.38.42l-1.45,1.52,1.41-1.13a.28.28,0,0,1,.38,0,.29.29,0,0,1,0,.38l-2.1,2.39,2.09-1.68a.29.29,0,0,1,.39,0,.28.28,0,0,1,0,.38l-2,2.36,2-1.6a.28.28,0,0,1,.38,0,.29.29,0,0,1,0,.39l-1,1.08,7.27-5.82a.28.28,0,0,1,.39,0,.28.28,0,0,1,0,.4l-.8.7.89-.71a.27.27,0,0,1,.39,0,.28.28,0,0,1,0,.39l-2.25,2,2.16-1.73a.28.28,0,1,1,.37.43l-1.92,1.7,1.63-1.3a.28.28,0,0,1,.39,0,.28.28,0,0,1,0,.4l-1.12,1,.61-.49a.28.28,0,0,1,.4,0,.27.27,0,0,1,0,.39l-.86.76.12-.1a.28.28,0,0,1,.39,0,.29.29,0,0,1,0,.4l-2,1.77.77-.61a.29.29,0,0,1,.4,0,.28.28,0,0,1,0,.4L262,271.6a.29.29,0,0,1,.37,0,.28.28,0,0,1,0,.39l-2.76,2.7a.38.38,0,0,1,.13.09.28.28,0,0,1,0,.4l-3.22,2.58A.19.19,0,0,1,256.31,277.87Z" style="fill:#263238"></path><path d="M250.81,124.4a.35.35,0,0,1-.33-.12.37.37,0,0,1,0-.51l2.13-1.92a.34.34,0,0,1-.27-.13.36.36,0,0,1,0-.5l3.19-3.08a.27.27,0,0,1-.08-.07.37.37,0,0,1,.06-.52l3.67-2.94a.37.37,0,0,1,.49.55l-1.12,1.08,2.59-2.08a.37.37,0,0,1,.51,0,.36.36,0,0,1,0,.51l-1,.93,1.43-1.14a.37.37,0,0,1,.52.06.36.36,0,0,1-.06.51L251,124.32A.3.3,0,0,1,250.81,124.4Z" style="fill:#263238"></path><path d="M249.33,141.4a.35.35,0,0,1-.32-.11.37.37,0,0,1,0-.51l.2-.21-.18.14a.35.35,0,0,1-.5,0,.36.36,0,0,1,0-.5l3.51-3.53-3.8,3a.35.35,0,0,1-.5,0,.36.36,0,0,1,0-.51l3.36-3.11-3.51,2.81a.37.37,0,0,1-.48-.55l6.74-6.29-7.1,5.69a.37.37,0,0,1-.47-.57l5.12-4.55-5.27,4.23a.37.37,0,0,1-.48-.57l5.85-5.17-6,4.82a.37.37,0,0,1-.51-.05.36.36,0,0,1,0-.51l8.87-8-9.2,7.37a.36.36,0,0,1-.51-.05.37.37,0,0,1,0-.51l9.27-8.32L244,133.48a.37.37,0,0,1-.47-.57l6-5.17-6.05,4.84a.37.37,0,0,1-.47-.56l4.37-3.78-4.4,3.53a.36.36,0,0,1-.51,0,.37.37,0,0,1,0-.51l1.69-1.61L242.39,131a.37.37,0,0,1-.51-.05.36.36,0,0,1,0-.51l.7-.65-.64.51a.36.36,0,0,1-.5,0,.37.37,0,0,1,0-.51l.9-.83-.83.66a.37.37,0,0,1-.48-.55l1.49-1.41-1.45,1.17a.37.37,0,0,1-.49-.56l1.76-1.67-1.72,1.39a.37.37,0,0,1-.51-.05.36.36,0,0,1,0-.51l.64-.59-.54.43a.38.38,0,0,1-.51,0,.36.36,0,0,1,0-.51l2.09-2-2.06,1.65a.37.37,0,0,1-.49-.54l4-4.14-4.14,3.32a.37.37,0,0,1-.49-.54l3.93-4.06-4,3.22a.37.37,0,0,1-.51-.05.36.36,0,0,1,0-.5l2.62-2.56-2.54,2a.36.36,0,0,1-.5,0,.37.37,0,0,1,0-.51l1.3-1.23-1.11.89a.36.36,0,0,1-.5,0,.37.37,0,0,1,0-.51l.25-.23a.37.37,0,0,1-.49-.54l3.25-3.47-3.07,2.47a.37.37,0,0,1-.51,0,.36.36,0,0,1,0-.5l.91-.88-.53.42a.37.37,0,0,1-.5,0,.36.36,0,0,1,0-.51l.86-.86-.37.3a.38.38,0,0,1-.48,0,.36.36,0,0,1-.05-.48l1.45-2.11-.14.12a.38.38,0,0,1-.52-.06.37.37,0,0,1,.06-.52l2.08-1.67a.37.37,0,0,1,.54.5l-1.45,2.1,3.57-2.86a.37.37,0,0,1,.49.54l-.86.87,1.3-1a.36.36,0,0,1,.51,0,.38.38,0,0,1,0,.51l-.9.87L244,113a.37.37,0,0,1,.5.54L241.29,117l3.8-3a.37.37,0,0,1,.48.56l-.25.22.27-.21a.36.36,0,0,1,.5.05.37.37,0,0,1,0,.51l-1.3,1.23,1.35-1.09a.37.37,0,0,1,.49.55L244,118.31l2.75-2.2a.37.37,0,0,1,.49.54l-3.93,4.06,4.16-3.33a.37.37,0,0,1,.5,0,.36.36,0,0,1,0,.5l-4,4.13,4.17-3.34a.36.36,0,0,1,.5.05.37.37,0,0,1,0,.51l-2.09,2,2-1.62a.37.37,0,0,1,.48.56l-.65.6.49-.39a.37.37,0,0,1,.48.55l-1.76,1.67,1.63-1.31a.36.36,0,0,1,.5.05.37.37,0,0,1,0,.51l-1.49,1.41,1.33-1.07a.36.36,0,0,1,.5,0,.37.37,0,0,1,0,.51l-.89.83.68-.55a.36.36,0,0,1,.51,0,.37.37,0,0,1,0,.51l-.71.66.48-.38a.36.36,0,0,1,.51,0,.37.37,0,0,1,0,.51l-1.68,1.61,13.74-11a.37.37,0,0,1,.47.57l-4.38,3.77,4.37-3.49a.36.36,0,0,1,.51,0,.36.36,0,0,1,0,.51l-5.95,5.18,5.78-4.64a.37.37,0,0,1,.51.05.36.36,0,0,1,0,.51l-9.28,8.33,8.84-7.09a.37.37,0,0,1,.51,0,.36.36,0,0,1,0,.51l-8.88,8,7.93-6.35a.35.35,0,0,1,.51,0,.36.36,0,0,1,0,.51l-5.85,5.17,4.62-3.7a.37.37,0,0,1,.51,0,.36.36,0,0,1,0,.51l-5.12,4.55,3.52-2.82a.37.37,0,0,1,.48.56l-6.74,6.29,4.11-3.3a.37.37,0,0,1,.51,0,.36.36,0,0,1,0,.51L256,132.54l.7-.56a.36.36,0,0,1,.5.05.37.37,0,0,1,0,.5l-3.94,4a.38.38,0,0,1,.3.11.38.38,0,0,1,0,.51l-2.88,3a.37.37,0,0,1-.13.38l-1,.81A.36.36,0,0,1,249.33,141.4Z" style="fill:#263238"></path><path d="M220.21,118.62a.43.43,0,0,1-.33-.12.37.37,0,0,1,0-.51l.6-.59-.21.17a.37.37,0,0,1-.5,0,.36.36,0,0,1,0-.5l1.47-1.52-1.06.85a.37.37,0,0,1-.5-.54l1.83-2L220.15,115a.37.37,0,0,1-.49,0,.36.36,0,0,1,0-.5l1.74-2-1.23,1a.37.37,0,0,1-.5,0,.38.38,0,0,1,0-.5l1.06-1.19-.47.38a.37.37,0,0,1-.51-.53l.65-.77a.36.36,0,0,1-.42-.06.35.35,0,0,1-.06-.47l.68-1a.49.49,0,0,1-.14-.11.38.38,0,0,1,.06-.52l1.17-.93a.36.36,0,0,1,.53.49l-.31.45.9-.72a.37.37,0,0,1,.51.53l-.63.75.92-.74a.37.37,0,0,1,.5,0,.38.38,0,0,1,0,.5L223,110.18l1.23-1a.36.36,0,0,1,.5.53l-1.74,2,1.86-1.49a.36.36,0,0,1,.5,0,.37.37,0,0,1,0,.5l-1.83,2,1.8-1.44a.35.35,0,0,1,.5,0,.37.37,0,0,1,0,.5l-1.47,1.52,1.31-1.06a.38.38,0,0,1,.51,0,.37.37,0,0,1,0,.51l-.6.59.35-.28a.37.37,0,1,1,.46.57l-6,4.82A.37.37,0,0,1,220.21,118.62Z" style="fill:#263238"></path><path d="M227,127.92a.4.4,0,0,1-.24,0,.36.36,0,0,1-.17-.38l.1-.55-.79.63a.35.35,0,0,1-.47,0,.34.34,0,0,1-.07-.46l.51-.85-1.28,1a.37.37,0,0,1-.52-.52l.67-.81-1.31,1a.37.37,0,0,1-.5,0,.36.36,0,0,1,0-.49l.9-1-1.53,1.23a.37.37,0,0,1-.51,0,.36.36,0,0,1,0-.5l.46-.47-.93.75a.37.37,0,0,1-.51-.05.36.36,0,0,1,0-.5l.68-.66-1.16.92a.35.35,0,0,1-.5,0,.37.37,0,0,1,0-.51l1.27-1.23-1.82,1.46a.38.38,0,0,1-.51,0,.37.37,0,0,1,0-.51l1.69-1.61-2.26,1.81a.37.37,0,0,1-.48-.56l.69-.62-1.09.87a.37.37,0,0,1-.48-.56l2.4-2.24-3,2.39a.35.35,0,0,1-.5,0,.37.37,0,0,1,0-.51l5.1-5-6.13,4.92a.38.38,0,0,1-.5,0,.37.37,0,0,1,0-.5l2.43-2.86-3.35,2.68a.37.37,0,0,1-.5,0,.38.38,0,0,1,0-.51l1.76-1.87-2.28,1.82a.35.35,0,0,1-.5,0,.36.36,0,0,1,0-.5l.92-.93-1.2,1a.35.35,0,0,1-.5,0,.37.37,0,0,1,0-.51l.18-.18-.31.25a.37.37,0,0,1-.51-.52l2.24-2.66L210,120.82a.37.37,0,0,1-.5,0,.38.38,0,0,1,0-.51l.68-.69-.65.51a.37.37,0,0,1-.5,0,.36.36,0,0,1,0-.5l.64-.7-.44.36a.38.38,0,0,1-.47,0,.37.37,0,0,1-.08-.46l1-1.77a.37.37,0,0,1-.46-.57l1.5-1.2a.38.38,0,0,1,.47,0,.37.37,0,0,1,.08.46l-1,1.77,2.86-2.29a.36.36,0,0,1,.5.53l-.64.69,1.21-1a.37.37,0,0,1,.5,0,.36.36,0,0,1,0,.5l-.68.7,1.15-.92a.37.37,0,0,1,.51.53l-2.24,2.66,3.2-2.57a.37.37,0,0,1,.51,0,.37.37,0,0,1,0,.5l-.19.18.45-.36a.38.38,0,0,1,.51,0,.37.37,0,0,1,0,.51l-.92.93,1.28-1a.37.37,0,0,1,.5.54L217,119.58l2.28-1.83a.37.37,0,0,1,.51.53l-2.43,2.86,8.82-7.07a.38.38,0,0,1,.51,0,.37.37,0,0,1,0,.51l-5.1,5,4.91-3.93a.37.37,0,0,1,.48.55l-2.41,2.25,2.08-1.67a.37.37,0,0,1,.48.56l-.68.62.31-.25a.37.37,0,0,1,.51,0,.36.36,0,0,1,0,.51l-1.69,1.61,1.31-1.05a.37.37,0,0,1,.51.05.36.36,0,0,1,0,.5L226,120.66l.87-.69a.37.37,0,0,1,.48.55l-.67.66.24-.19a.37.37,0,0,1,.49.54L227,122h0a.36.36,0,0,1,.5.53l-.9,1,.42-.34a.37.37,0,0,1,.52.52l-.67.81.16-.13a.36.36,0,0,1,.47,0,.37.37,0,0,1,.08.47l-.52.86a.37.37,0,0,1,.55.38l-.19,1a.23.23,0,0,1,.07.07.36.36,0,0,1-.06.51l-.24.2A.48.48,0,0,1,227,127.92Z" style="fill:#263238"></path><path d="M246.34,87.25a.37.37,0,0,1-.35-.13.38.38,0,0,1,.06-.52l3.58-2.86a.35.35,0,0,1,.51.05.37.37,0,0,1,0,.52l-3.58,2.87A.36.36,0,0,1,246.34,87.25Z" style="fill:#263238"></path><path d="M241.7,101.51a.4.4,0,0,1-.33-.12.37.37,0,0,1,0-.51l2.32-2.28-2.42,2a.37.37,0,0,1-.51,0,.36.36,0,0,1,0-.51L243,97.93l-2.27,1.82a.37.37,0,0,1-.51,0,.36.36,0,0,1,0-.51l2.54-2.3L240.27,99a.37.37,0,0,1-.47-.57l1.11-1-1.07.85a.36.36,0,0,1-.51,0,.36.36,0,0,1,0-.51l1.46-1.29-1.41,1.14a.37.37,0,0,1-.51-.05.36.36,0,0,1,0-.51l2.48-2.2-2.46,2a.37.37,0,0,1-.47-.56l2.91-2.59-2.91,2.33a.37.37,0,0,1-.47-.57l1-.91-.95.77a.38.38,0,0,1-.51,0,.37.37,0,0,1,0-.5l1.35-1.4-1.32,1a.37.37,0,0,1-.51-.52l2.66-3.06L237,93a.37.37,0,0,1-.5,0,.38.38,0,0,1,0-.5l2.72-3.09-2.83,2.27a.37.37,0,0,1-.5-.54l1.88-2-1.82,1.46a.37.37,0,0,1-.49-.55l1-1-.79.64a.38.38,0,0,1-.51,0,.37.37,0,0,1,0-.51l.2-.2a.36.36,0,0,1-.48-.54l2.46-2.84-2.35,1.89a.37.37,0,0,1-.5-.55l.71-.72-.39.31a.37.37,0,0,1-.5,0,.36.36,0,0,1,0-.5l.68-.72-.27.22a.38.38,0,0,1-.47,0,.37.37,0,0,1-.08-.47l1.11-1.84-.06,0a.37.37,0,0,1-.52-.06.36.36,0,0,1,.06-.51l1.67-1.34a.36.36,0,0,1,.47,0,.35.35,0,0,1,.07.46l-1.11,1.85,2.81-2.25a.37.37,0,0,1,.5,0,.36.36,0,0,1,0,.5l-.68.72.94-.75a.37.37,0,0,1,.49.54l-.7.72.82-.65a.36.36,0,0,1,.49,0,.37.37,0,0,1,0,.5L238,85.86l2.76-2.22a.37.37,0,0,1,.51,0,.36.36,0,0,1,0,.5l-.19.19.08-.06a.35.35,0,0,1,.5,0,.37.37,0,0,1,0,.5l-1,1,.86-.69a.36.36,0,0,1,.5,0,.37.37,0,0,1,0,.5l-1.88,2L242,86.18a.36.36,0,0,1,.49,0,.37.37,0,0,1,0,.5L239.8,89.8l2.71-2.17a.37.37,0,0,1,.51.52l-2.66,3.06,2.58-2.07a.37.37,0,0,1,.5.54l-1.35,1.4,9.42-7.54a.36.36,0,0,1,.51,0,.36.36,0,0,1,0,.51l-1,.91,1.16-.93a.37.37,0,0,1,.51,0,.36.36,0,0,1,0,.51l-2.91,2.6,2.8-2.25A.36.36,0,0,1,253,85a.37.37,0,0,1,0,.51l-2.48,2.2,2.1-1.69a.37.37,0,0,1,.47.57l-1.46,1.28.8-.64a.39.39,0,0,1,.52,0,.37.37,0,0,1,0,.51l-1.11,1,.15-.12a.37.37,0,0,1,.51,0,.36.36,0,0,1,0,.51l-2.54,2.3,1-.8a.37.37,0,0,1,.48.56l-2.25,2.07a.37.37,0,0,1,.48.06.38.38,0,0,1,0,.51l-3.58,3.5a.39.39,0,0,1,.17.11.37.37,0,0,1-.06.52l-4.18,3.35A.38.38,0,0,1,241.7,101.51Z" style="fill:#263238"></path></g><g id="freepik--Letters--inject-80"><polygon points="121.07 338.46 133.63 389.55 169.64 383.56 163.87 330.48 121.07 338.46" style="fill:#fff;stroke:#263238;stroke-miterlimit:10"></polygon><path d="M131.41,344.92,150,342.06q6.07-.93,9.55,1.5t4.29,7.77q.84,5.49-2,9.08t-9.6,4.63l-6.13.94,2.06,13.45L137,381.15ZM145,358.64l2.74-.42q3.24-.5,4.38-1.82a3.67,3.67,0,0,0,.87-3.08,4.1,4.1,0,0,0-1.58-2.72c-.88-.67-2.37-.85-4.46-.53l-3.19.49Z" style="fill:#263238;stroke:#263238;stroke-miterlimit:10"></path><polygon points="172.46 347.54 171.47 381.3 185.49 380.1 194.85 376.3 202.54 377.02 200.46 341.83 172.46 347.54" style="fill:#fff;stroke:#263238;stroke-miterlimit:10"></polygon><path d="M198.24,349.09a5.45,5.45,0,0,1-.25,1.12l-4.36,16.14a9.41,9.41,0,0,0-.46,3.47,1.18,1.18,0,0,0,1.52,1.11q2-.3,3.54-3.29c.21-.41.38-.63.52-.65a.18.18,0,0,1,.23.17,3.5,3.5,0,0,1-.84,1.95,7.13,7.13,0,0,1-4.95,3.19,4.08,4.08,0,0,1-2.67-.37,2.37,2.37,0,0,1-1.29-1.82,5.56,5.56,0,0,1,.08-1.83q-2.48,5.14-6.67,5.79a5.85,5.85,0,0,1-4.57-1,6,6,0,0,1-2.33-4.06,13.34,13.34,0,0,1,1-6.61,24.38,24.38,0,0,1,4.15-7.05q3.77-4.5,7.41-5.06c2.53-.39,4.14.61,4.81,3l.86-2.87c.18-.58.38-.89.58-.92a4.46,4.46,0,0,1,.62,0,5.16,5.16,0,0,0,.73,0,4.87,4.87,0,0,0,1.68-.5.68.68,0,0,1,.34-.17Q198.18,348.75,198.24,349.09Zm-5.74,5.17a3.5,3.5,0,0,0-1.32-2.38,3.28,3.28,0,0,0-2.55-.59q-2.53.39-4.41,3.72a32.15,32.15,0,0,0-3.21,7.78,17.09,17.09,0,0,0-.61,6.82c.35,2.29,1.47,3.28,3.36,3a5.48,5.48,0,0,0,3.25-2.3,14.55,14.55,0,0,0,2.48-4.91l2.65-9.07A5.65,5.65,0,0,0,192.5,354.26Z"></path><polygon points="193.13 331.4 206.27 383.39 241.24 375.19 237.62 321.17 193.13 331.4" style="fill:#263238;stroke:#263238;stroke-miterlimit:10"></polygon><path d="M238.35,364.39l-9,1.38q-2.65-1.32-8.68-7.68c-1.29-1.35-2.61-2.64-4-3.85a17.09,17.09,0,0,0-2.74-2.19,3.5,3.5,0,0,0-2.07-.15l-1.33.2,1.14,7.44a46,46,0,0,0,1,5.15,2.68,2.68,0,0,0,1.27,1.67,5.69,5.69,0,0,0,3.17.12l1.61-.25.17,1.14-16,2.46-.17-1.14,1.08-.17a5.86,5.86,0,0,0,2.9-1,2.51,2.51,0,0,0,.79-1.85,38.6,38.6,0,0,0-.6-5.39l-2.52-16.43a36.14,36.14,0,0,0-1-5.13,2.28,2.28,0,0,0-1.23-1.46,7.91,7.91,0,0,0-3.38.07l-.57.08-.18-1.13,4.76-1c3.17-.63,5.7-1.1,7.58-1.38a28.32,28.32,0,0,1,7.93-.31,10.66,10.66,0,0,1,5.31,2.17,7,7,0,0,1,2.59,4.56,7.54,7.54,0,0,1-1.56,6,12.23,12.23,0,0,1-6.68,4q2.26.69,7.9,6.28a34.85,34.85,0,0,0,7,5.78,9.14,9.14,0,0,0,5.4.89Zm-28-13.42c1.23-.23,2.5-.47,3.81-.74a14.2,14.2,0,0,0,3.35-1.07,5.45,5.45,0,0,0,3.24-4.11,9.69,9.69,0,0,0,0-3.49,8.65,8.65,0,0,0-2.64-5.39c-1.39-1.24-4.07-1.55-8-.95-.61.1-1.3.24-2.09.42Z" style="fill:#fff"></path><rect x="239.35" y="317.09" width="21.99" height="58.49" transform="translate(-111.49 118.97) rotate(-21.99)" style="fill:#fff;stroke:#263238;stroke-miterlimit:10"></rect><path d="M249.31,337.92l5.35,13.24c.82,2,1.36,3.28,1.64,3.78a1.74,1.74,0,0,0,1.16.94,4,4,0,0,0,2.23-.42l.49-.19.43,1.06-10.23,4.13L250,359.4l.79-.32c1.1-.45,1.75-.89,1.95-1.34a1.92,1.92,0,0,0,.12-1.37q-.18-.71-1.47-3.87L249,346.75a16,16,0,0,0-2-4,1.67,1.67,0,0,0-1.21-.59,6.61,6.61,0,0,0-1.89.55l-.63.25-.43-1.06a30.52,30.52,0,0,0,5.9-3.81ZM240.92,330a2.6,2.6,0,0,1,0-2,2.49,2.49,0,0,1,1.41-1.4,2.46,2.46,0,0,1,2,0,2.71,2.71,0,0,1,1.39,3.46,2.55,2.55,0,0,1-3.4,1.37A2.61,2.61,0,0,1,240.92,330Z"></path><polygon points="262.85 321.91 268.36 368.86 297.2 361.13 295.86 322.93 262.85 321.91" style="fill:#263238;stroke:#263238;stroke-miterlimit:10"></polygon><path d="M268.23,349.25l8.13-1.31a6.21,6.21,0,0,0,1.37,2.93,4.58,4.58,0,0,0,4,1.32,4.22,4.22,0,0,0,2.75-1.14,2.49,2.49,0,0,0-.33-3.94c-.69-.51-2.21-.9-4.56-1.19q-5.78-.72-8.39-2.59a6.81,6.81,0,0,1-3-5.13,7.35,7.35,0,0,1,.85-4.17,8.32,8.32,0,0,1,3.44-3.36,17.55,17.55,0,0,1,6.74-1.75q5.33-.53,8.31,1.19c2,1.14,3.31,3.13,3.95,6l-8.06,1.26a3.79,3.79,0,0,0-4.55-3.17,3.46,3.46,0,0,0-2.2.85,2,2,0,0,0-.61,1.62,1.61,1.61,0,0,0,.74,1.14,7.27,7.27,0,0,0,3,.74,35.92,35.92,0,0,1,8.3,1.67,8.48,8.48,0,0,1,3.85,2.74,7.85,7.85,0,0,1,1.51,4,8.89,8.89,0,0,1-1,5.08,9.32,9.32,0,0,1-3.8,3.82,16.73,16.73,0,0,1-6.58,1.82q-7.09.69-10.09-1.77A10.87,10.87,0,0,1,268.23,349.25Z" style="fill:#fff"></path></g></svg>