<svg width="548" height="120" viewBox="0 0 548 120" fill="none" xmlns="http://www.w3.org/2000/svg">
<path d="M13.36 26.6V71.96C13.36 75.88 13.8 78.88 14.68 80.96C15.56 83.04 16.96 84.52 18.88 85.4C20.8 86.2 23.48 86.6 26.92 86.6H33.76V89H26.68C21.08 89 17.04 87.72 14.56 85.16C12.16 82.6 10.96 78.2 10.96 71.96V26.6H0.4V24.2H10.96V7.64H13.36V24.2H33.76V26.6H13.36ZM51.1469 39.92C53.7069 28.48 62.2269 22.76 76.7069 22.76V25.4H75.6269C68.8269 25.4 63.0269 27.4 58.2269 31.4C53.5069 35.32 51.1469 41.68 51.1469 50.48V89H48.7469V24.2H51.1469V39.92ZM90.4938 7.64C89.6138 7.64 88.8538 7.35999 88.2138 6.79999C87.6538 6.16 87.3738 5.36 87.3738 4.39999C87.3738 3.44 87.6538 2.68 88.2138 2.12C88.8538 1.47999 89.6138 1.15999 90.4938 1.15999C91.3738 1.15999 92.0938 1.47999 92.6538 2.12C93.2938 2.68 93.6138 3.44 93.6138 4.39999C93.6138 5.36 93.2938 6.16 92.6538 6.79999C92.0938 7.35999 91.3738 7.64 90.4938 7.64ZM91.6938 24.2V89H89.2938V24.2H91.6938ZM114.425 44C116.185 38 119.625 33.08 124.745 29.24C129.945 25.32 136.265 23.36 143.705 23.36C149.865 23.36 155.345 24.72 160.145 27.44C164.945 30.08 168.665 33.92 171.305 38.96C173.945 43.92 175.265 49.8 175.265 56.6C175.265 63.4 173.945 69.32 171.305 74.36C168.665 79.32 164.945 83.16 160.145 85.88C155.345 88.52 149.865 89.84 143.705 89.84C136.265 89.84 129.945 87.92 124.745 84.08C119.625 80.16 116.185 75.2 114.425 69.2V119.48H112.145V24.2H114.425V44ZM172.865 56.6C172.865 50.2 171.665 44.68 169.265 40.04C166.865 35.32 163.465 31.72 159.065 29.24C154.745 26.76 149.625 25.52 143.705 25.52C138.105 25.52 133.065 26.84 128.585 29.48C124.185 32.04 120.705 35.68 118.145 40.4C115.665 45.04 114.425 50.44 114.425 56.6C114.425 62.76 115.665 68.2 118.145 72.92C120.705 77.56 124.185 81.2 128.585 83.84C133.065 86.4 138.105 87.68 143.705 87.68C149.625 87.68 154.745 86.44 159.065 83.96C163.465 81.48 166.865 77.92 169.265 73.28C171.665 68.56 172.865 63 172.865 56.6ZM213.533 89.84C206.413 89.84 200.653 88.4 196.253 85.52C191.933 82.64 189.413 78.28 188.693 72.44H191.093C191.573 77.24 193.693 81 197.453 83.72C201.293 86.36 206.693 87.68 213.653 87.68C217.173 87.68 220.253 87 222.893 85.64C225.613 84.28 227.693 82.48 229.133 80.24C230.573 77.92 231.293 75.44 231.293 72.8C231.293 69.92 230.453 67.6 228.773 65.84C227.173 64 225.133 62.6 222.653 61.64C220.253 60.68 216.933 59.64 212.693 58.52C207.973 57.32 204.133 56.12 201.173 54.92C198.293 53.72 195.813 51.88 193.733 49.4C191.733 46.92 190.733 43.64 190.733 39.56C190.733 36.68 191.613 34 193.373 31.52C195.133 29.04 197.533 27.08 200.573 25.64C203.693 24.12 207.173 23.36 211.013 23.36C217.573 23.36 222.853 25 226.853 28.28C230.853 31.56 233.013 36.12 233.333 41.96H230.933C230.693 37.16 228.853 33.24 225.413 30.2C222.053 27.08 217.253 25.52 211.013 25.52C207.653 25.52 204.613 26.16 201.893 27.44C199.173 28.72 197.013 30.44 195.413 32.6C193.893 34.76 193.133 37.08 193.133 39.56C193.133 43.08 194.053 45.92 195.893 48.08C197.733 50.24 199.973 51.84 202.613 52.88C205.333 53.92 208.933 55.04 213.413 56.24C217.973 57.52 221.533 58.68 224.093 59.72C226.733 60.76 228.973 62.36 230.813 64.52C232.653 66.6 233.573 69.36 233.573 72.8C233.573 76 232.693 78.92 230.933 81.56C229.173 84.12 226.773 86.16 223.733 87.68C220.693 89.12 217.293 89.84 213.533 89.84ZM278.861 87.68C286.141 87.68 292.261 85.84 297.221 82.16C302.181 78.48 305.181 73.44 306.221 67.04H308.621C307.501 73.84 304.301 79.36 299.021 83.6C293.821 87.76 287.101 89.84 278.861 89.84C272.861 89.84 267.501 88.52 262.781 85.88C258.061 83.24 254.341 79.4 251.621 74.36C248.981 69.32 247.661 63.4 247.661 56.6C247.661 49.8 248.981 43.88 251.621 38.84C254.341 33.8 258.061 29.96 262.781 27.32C267.501 24.68 272.861 23.36 278.861 23.36C285.181 23.36 290.581 24.72 295.061 27.44C299.541 30.08 302.901 33.52 305.141 37.76C307.461 42 308.621 46.48 308.621 51.2C308.621 54.08 308.581 56.24 308.501 57.68H250.061C250.141 64.32 251.501 69.88 254.141 74.36C256.861 78.84 260.381 82.2 264.701 84.44C269.021 86.6 273.741 87.68 278.861 87.68ZM278.861 25.52C273.741 25.52 269.021 26.64 264.701 28.88C260.381 31.04 256.861 34.36 254.141 38.84C251.501 43.32 250.141 48.88 250.061 55.52H306.461C306.861 48.88 305.781 43.32 303.221 38.84C300.741 34.36 297.301 31.04 292.901 28.88C288.581 26.64 283.901 25.52 278.861 25.52ZM354.213 87.68C361.493 87.68 367.613 85.84 372.573 82.16C377.533 78.48 380.533 73.44 381.573 67.04H383.973C382.853 73.84 379.653 79.36 374.373 83.6C369.173 87.76 362.453 89.84 354.213 89.84C348.213 89.84 342.853 88.52 338.133 85.88C333.413 83.24 329.693 79.4 326.973 74.36C324.333 69.32 323.013 63.4 323.013 56.6C323.013 49.8 324.333 43.88 326.973 38.84C329.693 33.8 333.413 29.96 338.133 27.32C342.853 24.68 348.213 23.36 354.213 23.36C360.533 23.36 365.933 24.72 370.413 27.44C374.893 30.08 378.253 33.52 380.493 37.76C382.813 42 383.973 46.48 383.973 51.2C383.973 54.08 383.933 56.24 383.853 57.68H325.413C325.493 64.32 326.853 69.88 329.493 74.36C332.213 78.84 335.733 82.2 340.053 84.44C344.373 86.6 349.093 87.68 354.213 87.68ZM354.213 25.52C349.093 25.52 344.373 26.64 340.053 28.88C335.733 31.04 332.213 34.36 329.493 38.84C326.853 43.32 325.493 48.88 325.413 55.52H381.813C382.213 48.88 381.133 43.32 378.573 38.84C376.093 34.36 372.653 31.04 368.253 28.88C363.933 26.64 359.253 25.52 354.213 25.52ZM433.644 89L403.764 58.64V89H401.364V0.199999H403.764V53.84L433.044 24.2H436.524L404.604 56.36L437.004 89H433.644ZM445.468 89.24C444.588 89.24 443.828 88.96 443.188 88.4C442.628 87.76 442.348 86.96 442.348 86C442.348 85.04 442.628 84.28 443.188 83.72C443.828 83.08 444.588 82.76 445.468 82.76C446.348 82.76 447.068 83.08 447.628 83.72C448.268 84.28 448.588 85.04 448.588 86C448.588 86.96 448.268 87.76 447.628 88.4C447.068 88.96 446.348 89.24 445.468 89.24ZM459.653 56.6C459.653 49.8 460.973 43.92 463.613 38.96C466.253 33.92 469.973 30.08 474.773 27.44C479.573 24.72 485.053 23.36 491.213 23.36C498.653 23.36 504.933 25.32 510.053 29.24C515.253 33.08 518.733 38 520.493 44V24.2H522.773V89H520.493V69.2C518.733 75.2 515.253 80.16 510.053 84.08C504.933 87.92 498.653 89.84 491.213 89.84C485.053 89.84 479.573 88.52 474.773 85.88C469.973 83.16 466.253 79.32 463.613 74.36C460.973 69.32 459.653 63.4 459.653 56.6ZM520.493 56.6C520.493 50.44 519.213 45.04 516.653 40.4C514.173 35.68 510.693 32.04 506.213 29.48C501.813 26.84 496.813 25.52 491.213 25.52C485.293 25.52 480.133 26.76 475.733 29.24C471.413 31.72 468.053 35.32 465.653 40.04C463.253 44.68 462.053 50.2 462.053 56.6C462.053 63 463.253 68.56 465.653 73.28C468.053 77.92 471.413 81.48 475.733 83.96C480.133 86.44 485.293 87.68 491.213 87.68C496.813 87.68 501.813 86.4 506.213 83.84C510.693 81.2 514.173 77.56 516.653 72.92C519.213 68.2 520.493 62.76 520.493 56.6ZM544.361 7.64C543.481 7.64 542.721 7.35999 542.081 6.79999C541.521 6.16 541.241 5.36 541.241 4.39999C541.241 3.44 541.521 2.68 542.081 2.12C542.721 1.47999 543.481 1.15999 544.361 1.15999C545.241 1.15999 545.961 1.47999 546.521 2.12C547.161 2.68 547.481 3.44 547.481 4.39999C547.481 5.36 547.161 6.16 546.521 6.79999C545.961 7.35999 545.241 7.64 544.361 7.64ZM545.561 24.2V89H543.161V24.2H545.561Z" fill="black"/>
</svg>
